<?xml version="1.0" encoding="UTF-8" standalone="no"?><!DOCTYPE svg PUBLIC "-//W3C//DTD SVG 1.1//EN" "http://www.w3.org/Graphics/SVG/1.1/DTD/svg11.dtd"><svg width="100%" height="100%" viewBox="0 0 63 40" version="1.1" xmlns="http://www.w3.org/2000/svg" xmlns:xlink="http://www.w3.org/1999/xlink" xml:space="preserve" xmlns:serif="http://www.serif.com/" style="fill-rule:evenodd;clip-rule:evenodd;stroke-linejoin:round;stroke-miterlimit:2;"><g><path d="M13.527,10.386l7.144,0l-2.642,12.143l2.473,0l0,3.461l-3.234,0l-0.787,3.625l-3.715,0l0.787,-3.625l-8.55,0l0,-5.11l8.523,-10.494Zm-5.4,11.651l0,0.497l6.188,0l2.251,-10.336l-0.507,0l-7.931,9.839Z" style="fill:#fff;fill-rule:nonzero;"/><path d="M23.736,17.857c0.581,-2.711 1.554,-4.697 2.911,-5.96c1.358,-1.263 3.229,-1.897 5.612,-1.897c0.993,0 1.876,0.153 2.642,0.454c0.771,0.301 1.416,0.724 1.939,1.263c0.523,0.539 0.925,1.178 1.194,1.908c0.269,0.734 0.407,1.522 0.407,2.362c0,0.312 -0.016,0.624 -0.042,0.935c-0.026,0.312 -0.079,0.624 -0.153,0.935l-0.93,4.285c-0.581,2.711 -1.554,4.697 -2.911,5.96c-1.358,1.263 -3.229,1.897 -5.612,1.897c-0.993,0 -1.876,-0.153 -2.642,-0.454c-0.766,-0.301 -1.416,-0.724 -1.939,-1.263c-0.523,-0.539 -0.925,-1.173 -1.194,-1.897c-0.269,-0.724 -0.407,-1.517 -0.407,-2.378c0,-0.312 0.016,-0.624 0.042,-0.935c0.026,-0.312 0.079,-0.624 0.153,-0.935l0.93,-4.285l0,0.005Zm5.4,8.845c0.639,0 1.199,-0.116 1.686,-0.343c0.486,-0.227 0.914,-0.534 1.279,-0.919c0.365,-0.386 0.666,-0.84 0.898,-1.374c0.232,-0.528 0.417,-1.099 0.55,-1.701l1.041,-4.724c0.058,-0.291 0.1,-0.544 0.127,-0.756c0.026,-0.211 0.042,-0.417 0.042,-0.618c0,-0.935 -0.248,-1.664 -0.745,-2.182c-0.497,-0.523 -1.194,-0.782 -2.098,-0.782c-0.639,0 -1.199,0.116 -1.686,0.343c-0.486,0.227 -0.914,0.534 -1.279,0.919c-0.365,0.386 -0.666,0.84 -0.898,1.374c-0.232,0.534 -0.417,1.099 -0.55,1.701l-1.041,4.724c-0.111,0.497 -0.169,0.951 -0.169,1.374c0,0.935 0.248,1.664 0.745,2.182c0.497,0.518 1.194,0.782 2.098,0.782Z" style="fill:#fff;fill-rule:nonzero;"/><path d="M47.958,10.386l7.144,0l-2.642,12.143l2.473,0l0,3.461l-3.234,0l-0.787,3.625l-3.715,0l0.787,-3.625l-8.55,0l0,-5.11l8.523,-10.494Zm-5.4,11.651l0,0.497l6.188,0l2.251,-10.33l-0.507,0l-7.931,9.839l0,-0.005Z" style="fill:#fff;fill-rule:nonzero;"/><path d="M0.565,26.602c-0.306,0.021 -0.565,-0.217 -0.565,-0.523l0,-0.248c0,-0.122 0.037,-0.243 0.116,-0.338l0.565,-0.692c0.085,-0.1 0.127,-0.227 0.116,-0.359l-0.143,-2.848c0,-0.264 0.19,-0.491 0.454,-0.528c5.194,-0.719 55.419,-6.431 61.094,-7.075c0.291,-0.032 0.544,0.174 0.576,0.465l0.037,0.359c0.021,0.222 -0.095,0.433 -0.296,0.534l-0.798,0.386c-0.079,0.037 -0.137,0.111 -0.153,0.196l-0.423,2.277c-0.042,0.222 -0.217,0.396 -0.444,0.428c-4.787,0.661 -54.272,7.514 -60.137,7.968Z" style="fill:#fff;fill-rule:nonzero;"/><path d="M18.806,18.962c-1.31,0.153 -2.584,0.301 -3.81,0.444l-0.682,3.128l-6.188,0l0,-0.497l1.627,-2.018c-1.691,0.201 -3.197,0.375 -4.481,0.534l-0.269,0.333l0,5.11l0.993,0c3.72,-0.46 8.851,-1.131 14.505,-1.881l0,-1.58l-2.473,0l0.777,-3.572Zm31.503,-3.614l-1.062,4.872c1.363,-0.185 2.647,-0.365 3.826,-0.528l1.041,-4.777c-1.184,0.132 -2.457,0.28 -3.804,0.433Zm-10.875,5.538l0,0.676c1.342,-0.185 2.663,-0.365 3.942,-0.539l4.338,-5.379c-1.421,0.164 -2.906,0.333 -4.433,0.507l-3.841,4.734l-0.005,0Zm-16.624,1.263c-0.074,0.312 -0.127,0.624 -0.153,0.935c-0.021,0.248 -0.032,0.502 -0.032,0.75c1.221,-0.164 2.457,-0.328 3.704,-0.497c0.026,-0.306 0.063,-0.624 0.143,-0.967l0.967,-4.402c-1.284,0.148 -2.557,0.296 -3.815,0.439l-0.808,3.741l-0.005,0Zm11.783,-4.507l-1.041,4.719c1.289,-0.174 2.568,-0.349 3.836,-0.523l0.861,-3.979c0.074,-0.312 0.127,-0.624 0.153,-0.935c0.005,-0.074 0,-0.148 0.011,-0.222c-1.231,0.143 -2.478,0.285 -3.731,0.428c-0.026,0.153 -0.053,0.317 -0.09,0.507l0,0.005Z" style="fill:#fff;fill-rule:nonzero;"/></g></svg>