<?xml version="1.0" encoding="UTF-8" standalone="no"?><!DOCTYPE svg PUBLIC "-//W3C//DTD SVG 1.1//EN" "http://www.w3.org/Graphics/SVG/1.1/DTD/svg11.dtd"><svg width="100%" height="100%" viewBox="0 0 146 40" version="1.1" xmlns="http://www.w3.org/2000/svg" xmlns:xlink="http://www.w3.org/1999/xlink" xml:space="preserve" xmlns:serif="http://www.serif.com/" style="fill-rule:evenodd;clip-rule:evenodd;stroke-linejoin:round;stroke-miterlimit:2;"><g><g><path d="M0.001,23.435c0,-2.053 1.571,-3.413 3.89,-3.413c1.216,0 2.264,0.371 3.105,0.875l0,-1.176c0,-1.68 -1.121,-2.927 -2.844,-2.927c-1.01,0 -2.076,0.523 -3.05,1.305c-0.225,0.188 -0.394,0.111 -0.542,-0.055l-0.074,-0.093c-0.188,-0.224 -0.093,-0.468 0.111,-0.633c1.216,-1.045 2.32,-1.456 3.591,-1.456c2.412,0 3.797,1.566 3.797,4.104l0,6.101c0,0.316 -0.132,0.468 -0.372,0.468l-0.244,0c-0.244,0 -0.372,-0.188 -0.372,-0.468l0,-1.119c-0.768,1.136 -2.039,1.81 -3.385,1.81c-2.15,0 -3.61,-1.324 -3.61,-3.321l-0.002,-0.002l0.001,-0Zm3.665,2.387c1.664,0 3.33,-1.214 3.33,-3.079l0,-0.784c-0.675,-0.394 -1.851,-1.008 -3.086,-1.008c-1.723,0 -2.861,1.045 -2.861,2.501c-0,1.343 1.066,2.369 2.619,2.369l-0.001,0Z" style="fill:#fff;fill-rule:nonzero;"/><path d="M10.591,27.855c-0.17,-0.242 -0.188,-0.504 0.092,-0.691l0.055,-0.036c0.17,-0.11 0.391,-0.188 0.579,0.093c0.822,1.176 1.906,1.865 3.518,1.865c2.003,0 3.423,-1.269 3.423,-3.637l0,-1.865c-0.616,1.119 -1.984,1.604 -3.499,1.604c-2.6,0 -4.491,-1.773 -4.491,-4.645c0,-3.079 1.889,-4.681 4.51,-4.681c1.534,0 2.918,0.691 3.518,1.96l0,-1.324c0,-0.261 0.133,-0.411 0.372,-0.411l0.225,0c0.244,0 0.372,0.15 0.372,0.411l0,8.936c0,3.115 -2.002,4.59 -4.451,4.59c-1.814,0 -3.143,-0.727 -4.226,-2.163l0.003,-0.002l0.001,-0.003Zm4.207,-3.6c2.076,0 3.499,-1.361 3.499,-3.711c0,-2.556 -1.441,-3.751 -3.499,-3.751c-2.057,0 -3.481,1.195 -3.481,3.751c0,2.35 1.401,3.711 3.481,3.711Z" style="fill:#fff;fill-rule:nonzero;"/><path d="M21.646,21.324c0,-3.376 1.946,-5.465 4.657,-5.465c1.441,0 2.674,0.655 3.441,1.699c0.767,0.971 1.102,2.24 1.102,3.545c0,0.335 -0.187,0.559 -0.505,0.559l-7.632,0c0.133,2.63 1.833,4.16 3.761,4.16c1.048,0 2.283,-0.541 3.238,-1.604c0.244,-0.224 0.412,-0.169 0.616,0l0.093,0.074c0.244,0.206 0.111,0.485 -0.019,0.654c-1.066,1.25 -2.619,1.81 -3.89,1.81c-2.545,0 -4.864,-1.941 -4.864,-5.429l0.003,-0.002l-0.001,0Zm8.156,-0.596c-0.019,-1.008 -0.28,-1.772 -0.711,-2.369c-0.579,-0.915 -1.59,-1.566 -2.788,-1.566c-1.984,0 -3.385,1.343 -3.591,3.935l7.091,0l-0.001,0Zm-5.724,-6.921l2.095,-1.438c0.206,-0.129 0.354,-0.129 0.56,0l2.095,1.438c0.244,0.169 0.372,0.371 0.206,0.559l-0.093,0.11c-0.133,0.169 -0.299,0.188 -0.56,0.019l-1.929,-1.195l-1.946,1.195c-0.261,0.15 -0.431,0.15 -0.543,-0.019l-0.111,-0.11c-0.151,-0.206 -0.038,-0.39 0.225,-0.559Z" style="fill:#fff;fill-rule:nonzero;"/><path d="M33.151,26.119l0,-9.646c0,-0.242 0.151,-0.394 0.372,-0.394l0.225,0c0.244,0 0.373,0.15 0.373,0.394l0,1.045c0.656,-1.008 1.814,-1.663 3.292,-1.663c2.32,0 3.799,1.549 3.799,3.806l0,6.454c0,0.242 -0.13,0.411 -0.373,0.411l-0.28,0c-0.225,0 -0.373,-0.169 -0.373,-0.411l0,-6.363c0,-1.81 -1.14,-2.986 -2.918,-2.986c-1.777,0 -3.086,1.231 -3.086,3.023l0,6.325c0,0.242 -0.151,0.411 -0.372,0.411l-0.28,0c-0.225,0 -0.372,-0.169 -0.372,-0.411l-0.006,0.003l-0.001,0.003Z" style="fill:#fff;fill-rule:nonzero;"/><path d="M43.459,21.176c0,-3.376 2.076,-5.318 4.919,-5.318c1.291,0 2.619,0.467 3.703,1.772c0.151,0.169 0.28,0.43 0.019,0.633l-0.092,0.074c-0.188,0.15 -0.354,0.224 -0.598,-0.036c-1.01,-1.176 -2.039,-1.511 -3.031,-1.511c-2.264,0 -3.873,1.566 -3.873,4.402c0,3.041 1.534,4.626 3.873,4.626c0.991,0 2.021,-0.335 3.031,-1.511c0.244,-0.261 0.413,-0.188 0.598,-0.036l0.092,0.074c0.261,0.206 0.133,0.467 -0.019,0.633c-1.084,1.305 -2.413,1.773 -3.703,1.773c-2.843,0 -4.919,-1.941 -4.919,-5.579l0,0.006l0,-0.001Z" style="fill:#fff;fill-rule:nonzero;"/><path d="M54.945,12.332c0.45,0 0.804,0.371 0.804,0.82c0,0.449 -0.354,0.82 -0.804,0.82c-0.45,0 -0.822,-0.371 -0.822,-0.82c0,-0.449 0.373,-0.82 0.822,-0.82Zm-0.524,13.788l0,-9.646c0,-0.242 0.151,-0.394 0.373,-0.394l0.28,0c0.244,0 0.373,0.15 0.373,0.394l0,9.646c0,0.242 -0.13,0.411 -0.373,0.411l-0.28,0c-0.225,0 -0.373,-0.169 -0.373,-0.411Z" style="fill:#fff;fill-rule:nonzero;"/><path d="M57.847,23.435c0,-2.053 1.571,-3.413 3.89,-3.413c1.216,0 2.264,0.371 3.105,0.875l0,-1.176c0,-1.68 -1.121,-2.927 -2.843,-2.927c-1.01,0 -2.076,0.523 -3.05,1.305c-0.225,0.188 -0.394,0.111 -0.542,-0.055l-0.074,-0.093c-0.187,-0.224 -0.092,-0.468 0.111,-0.633c1.216,-1.045 2.32,-1.456 3.591,-1.456c2.412,0 3.797,1.566 3.797,4.104l0,6.101c0,0.316 -0.133,0.468 -0.373,0.468l-0.244,0c-0.244,0 -0.373,-0.188 -0.373,-0.468l0,-1.119c-0.767,1.136 -2.039,1.81 -3.385,1.81c-2.15,0 -3.61,-1.324 -3.61,-3.321l-0.003,-0.002Zm3.666,2.387c1.664,0 3.33,-1.214 3.33,-3.079l0,-0.784c-0.675,-0.394 -1.851,-1.008 -3.086,-1.008c-1.721,0 -2.861,1.045 -2.861,2.501c0,1.343 1.066,2.369 2.619,2.369l-0.001,0Z" style="fill:#fff;fill-rule:nonzero;"/><path d="M68.53,25.659l0,-11.311c0,-0.559 0.317,-0.875 0.877,-0.875l4.433,0c2.489,0 4.079,1.549 4.079,3.471c0,1.119 -0.597,2.221 -1.534,2.706c1.161,0.43 2.283,1.604 2.283,3.284c0,2.089 -1.778,3.6 -4.451,3.6l-4.809,0c-0.56,0 -0.877,-0.316 -0.877,-0.875Zm5.162,-1.499c1.084,0 1.74,-0.746 1.74,-1.604c0,-0.858 -0.675,-1.604 -1.685,-1.604l-1.906,0l-0.019,3.21l1.87,0l0,-0.002Zm-0.354,-5.241c0.9,0 1.46,-0.727 1.46,-1.511c0,-0.784 -0.561,-1.566 -1.46,-1.566l-1.479,0l-0.019,3.079l1.498,0l0,-0.001Z" style="fill:#fff;fill-rule:nonzero;"/><path d="M80.278,25.67l0,-8.731c0,-0.541 0.299,-0.857 0.841,-0.857l0.991,0c0.542,0 0.841,0.316 0.841,0.857l0,0.371c0.653,-0.915 1.534,-1.456 2.564,-1.456c0.505,0 0.955,0.074 1.345,0.206c0.317,0.11 0.616,0.261 0.469,0.801l-0.355,1.397c-0.151,0.523 -0.467,0.633 -0.785,0.504c-0.299,-0.093 -0.653,-0.188 -0.974,-0.188c-1.103,0 -1.704,0.728 -1.704,1.828l0,5.263c0,0.541 -0.299,0.857 -0.841,0.857l-1.552,0c-0.543,0 -0.841,-0.316 -0.841,-0.857l0,0.002l0.001,0.002Z" style="fill:#fff;fill-rule:nonzero;"/><path d="M87.518,23.453c0,-2.126 1.589,-3.526 4.022,-3.526c0.729,0 1.46,0.187 2.131,0.43l0,-0.371c0,-0.971 -0.615,-1.81 -1.703,-1.81c-0.919,0 -1.645,0.316 -2.095,0.578c-0.413,0.224 -0.823,0.188 -1.084,-0.335l-0.207,-0.43c-0.299,-0.614 -0.169,-0.934 0.225,-1.176c0.919,-0.578 2.264,-0.953 3.385,-0.953c2.264,0 4.47,1.1 4.47,4.439l0,5.263c0,0.633 -0.299,0.971 -0.86,0.971l-0.768,0c-0.542,0 -0.841,-0.354 -0.841,-0.971l0,-0.11c-0.785,0.784 -1.832,1.305 -2.994,1.305c-2.226,0 -3.684,-1.324 -3.684,-3.302l0.001,0Zm4.51,1.25c0.936,0 1.721,-0.691 1.721,-1.438l0,-1.026c-0.336,-0.224 -1.011,-0.411 -1.685,-0.411c-0.917,0 -1.515,0.485 -1.515,1.437c0,0.953 0.579,1.438 1.479,1.438Z" style="fill:#fff;fill-rule:nonzero;"/><path d="M98.499,25.263c-0.431,-0.394 -0.506,-0.728 -0.074,-1.25l0.45,-0.541c0.431,-0.522 0.841,-0.371 1.254,-0.093c0.638,0.522 1.46,0.971 2.319,0.971c0.561,0 0.877,-0.411 0.877,-0.801c0,-0.485 -0.579,-0.915 -1.18,-1.136c-1.666,-0.559 -3.536,-1.1 -3.536,-3.284c0,-2.015 1.497,-3.265 3.835,-3.265c1.346,0 2.788,0.523 3.441,1.136c0.431,0.371 0.505,0.71 0.055,1.269l-0.395,0.485c-0.316,0.411 -0.766,0.411 -1.198,0.15c-0.524,-0.411 -1.011,-0.728 -1.777,-0.728c-0.634,0 -0.919,0.468 -0.919,0.801c0,0.596 0.86,0.801 2.04,1.269c1.534,0.654 2.674,1.397 2.674,3.189c0,2.089 -1.608,3.321 -3.946,3.321c-1.645,0 -3.179,-0.727 -3.927,-1.492l0.007,0l-0,-0.001Z" style="fill:#fff;fill-rule:nonzero;"/><path d="M109.686,11.287c1.047,0 1.87,0.82 1.87,1.865c0,1.045 -0.823,1.865 -1.87,1.865c-1.047,0 -1.87,-0.839 -1.87,-1.865c0,-1.026 0.841,-1.865 1.87,-1.865Zm-1.626,14.384l0,-8.731c0,-0.541 0.299,-0.857 0.86,-0.857l1.534,0c0.542,0 0.86,0.316 0.86,0.857l0,8.731c0,0.541 -0.318,0.857 -0.86,0.857l-1.534,0c-0.561,0 -0.86,-0.316 -0.86,-0.857Z" style="fill:#fff;fill-rule:nonzero;"/><path d="M113.465,23.865l0,-9.889c0,-0.541 0.299,-0.746 0.86,-0.858l1.515,-0.28c0.56,-0.11 0.877,0.297 0.877,0.858l0,9.889c0,0.206 0.017,0.354 0.225,0.354c0.074,0 0.336,-0.055 0.469,-0.074c0.316,-0.055 0.579,0.036 0.674,0.522l0.208,1.136c0.092,0.522 0.017,0.672 -0.3,0.857c-0.597,0.316 -1.161,0.394 -1.666,0.394c-1.87,0 -2.863,-0.989 -2.863,-2.909l0.001,-0.001Z" style="fill:#fff;fill-rule:nonzero;"/><path d="M120.31,20c0,-6.902 5.594,-12.5 12.534,-12.5c6.94,0 12.534,5.598 12.534,12.5c0,6.902 -5.612,12.5 -12.534,12.5c-6.922,0 -12.534,-5.598 -12.534,-12.5Zm4.731,0.43c3.292,1.475 6.044,4.03 7.761,7.201c0.506,0.898 1.685,1.136 2.489,0.504c3.086,-2.445 5.295,-5.987 6.021,-10.017c0.17,-0.898 -0.15,-1.791 -0.822,-2.405c-2.451,-2.221 -5.556,-3.732 -9.016,-4.177c-0.73,-0.11 -1.515,0.092 -2.113,0.559c-2.19,1.585 -3.968,3.674 -5.144,6.101c-0.414,0.839 -0.056,1.846 0.822,2.24l0,-0.002l0.001,-0.003Z" style="fill:#fff;fill-rule:nonzero;"/></g></g></svg>