<?xml version="1.0" encoding="UTF-8" standalone="no"?><!DOCTYPE svg PUBLIC "-//W3C//DTD SVG 1.1//EN" "http://www.w3.org/Graphics/SVG/1.1/DTD/svg11.dtd"><svg width="100%" height="100%" viewBox="0 0 34 40" version="1.1" xmlns="http://www.w3.org/2000/svg" xmlns:xlink="http://www.w3.org/1999/xlink" xml:space="preserve" xmlns:serif="http://www.serif.com/" style="fill-rule:evenodd;clip-rule:evenodd;stroke-linejoin:round;stroke-miterlimit:2;"><g><g><rect id="path-1" x="0" y="30.908" width="33.801" height="4.092" style="fill:#fff;"/><path d="M7.749,5l-5.701,17.1l4.128,0l3.873,-12.087l1.941,6.043l-2.511,0l-1.003,3.449l4.621,0l0.833,2.595l4.246,0l-5.701,-17.1l-4.727,0" style="fill:#fff;fill-rule:nonzero;"/><path d="M24.663,5l-5.927,0l0,17.1l4.098,0l0,-13.65l1.651,0c1.916,0 3.007,0.914 3.007,2.565c0,1.622 -1.091,2.565 -3.007,2.565l-0.265,0l0,3.449l0.442,0c4.423,0 7.018,-2.226 7.018,-6.014c0,-3.862 -2.595,-6.014 -7.018,-6.014" style="fill:#fff;fill-rule:nonzero;"/></g></g></svg>