<?xml version="1.0" encoding="UTF-8" standalone="no"?><!DOCTYPE svg PUBLIC "-//W3C//DTD SVG 1.1//EN" "http://www.w3.org/Graphics/SVG/1.1/DTD/svg11.dtd"><svg width="100%" height="100%" viewBox="0 0 146 40" version="1.1" xmlns="http://www.w3.org/2000/svg" xmlns:xlink="http://www.w3.org/1999/xlink" xml:space="preserve" xmlns:serif="http://www.serif.com/" style="fill-rule:evenodd;clip-rule:evenodd;stroke-linejoin:round;stroke-miterlimit:2;"><g><g><path d="M13.236,6.768c0.105,-0.167 0.288,-0.268 0.485,-0.268c0.197,-0 0.38,0.101 0.485,0.268l13.148,20.948c0.111,0.176 0.117,0.399 0.016,0.581c-0.101,0.182 -0.292,0.295 -0.501,0.295l-26.296,0c-0.208,-0 -0.4,-0.113 -0.501,-0.295c-0.101,-0.182 -0.095,-0.405 0.016,-0.581l13.148,-20.948Zm0.103,16.38c-0.329,0.157 -0.605,0.439 -0.691,0.701c-0.138,0.42 0.048,1.015 0.396,1.282c0.348,0.267 0.93,0.348 1.297,0.176c0.219,-0.1 0.529,-0.42 0.625,-0.653c0.086,-0.205 0.086,-0.644 0,-0.849c-0.167,-0.396 -0.639,-0.734 -1.096,-0.772c-0.2,-0.019 -0.296,0 -0.529,0.114Zm-0.095,-9.024c-0.405,0.133 -0.653,0.372 -0.787,0.748c-0.124,0.358 -0.124,0.515 0.048,2.732c0.081,1.02 0.167,2.25 0.191,2.727c0.038,0.672 0.072,0.93 0.143,1.13c0.114,0.305 0.362,0.548 0.677,0.667c0.272,0.105 0.534,0.048 0.782,-0.172c0.324,-0.286 0.41,-0.601 0.472,-1.683c0.014,-0.291 0.081,-1.22 0.148,-2.069c0.062,-0.849 0.119,-1.878 0.129,-2.288c0.01,-0.734 0.01,-0.748 -0.129,-1.02c-0.172,-0.348 -0.405,-0.586 -0.715,-0.725c-0.362,-0.162 -0.586,-0.172 -0.958,-0.048Z" style="fill:#fff;"/><path d="M34.386,8.126c-2.064,0.057 -4.572,0.172 -4.672,0.219c-0.153,0.076 -0.238,0.248 -0.238,0.491c0,0.329 0.086,0.391 0.71,0.496c0.896,0.153 0.963,0.195 1.178,0.72c0.091,0.224 0.133,0.439 0.162,0.806c0.057,0.791 0.057,12.147 0,12.442c-0.067,0.343 -0.238,0.706 -0.42,0.891c-0.181,0.181 -0.534,0.319 -1.082,0.424c-0.319,0.067 -0.443,0.114 -0.577,0.229c-0.296,0.253 -0.2,0.558 0.2,0.648c0.253,0.062 8.085,0.057 8.834,0c1.349,-0.105 2.546,-0.405 3.533,-0.891c0.615,-0.3 0.667,-0.338 1.149,-0.82c0.439,-0.443 0.529,-0.563 0.72,-0.958c0.715,-1.464 0.734,-2.999 0.057,-4.386c-0.238,-0.486 -0.315,-0.591 -0.658,-0.93c-0.596,-0.582 -1.497,-1.034 -2.57,-1.292c-0.267,-0.067 -0.548,-0.133 -0.629,-0.153c-0.129,-0.033 -0.067,-0.062 0.543,-0.267c1.149,-0.377 1.683,-0.667 2.198,-1.192c0.844,-0.863 1.149,-2.136 0.81,-3.361c-0.234,-0.829 -0.849,-1.63 -1.621,-2.112c-1.034,-0.644 -2.236,-0.887 -4.839,-0.992c-1.125,-0.048 -1.492,-0.048 -2.789,-0.014Zm2.994,1.278c0.219,0.043 0.548,0.162 0.82,0.296c0.806,0.391 1.321,1.054 1.578,2.017c0.143,0.529 0.153,1.449 0.024,1.878c-0.21,0.696 -0.61,1.273 -1.116,1.597c-0.343,0.219 -1.03,0.429 -1.545,0.472c-0.443,0.033 -1.583,-0.005 -1.854,-0.062l-0.143,-0.033l0.014,-2.245c0.005,-1.239 0.024,-2.555 0.038,-2.927c0.024,-0.629 0.033,-0.682 0.138,-0.796c0.11,-0.119 0.281,-0.191 0.529,-0.234c0.3,-0.052 1.178,-0.029 1.516,0.038Zm-0.038,7.513c0.768,0.124 1.583,0.524 2.021,1.001c0.305,0.329 0.601,0.896 0.753,1.449c0.095,0.338 0.105,0.501 0.11,1.478c0,1.082 0,1.101 -0.133,1.478c-0.272,0.768 -0.639,1.263 -1.225,1.659c-0.677,0.458 -1.926,0.548 -2.589,0.186c-0.281,-0.153 -0.615,-0.515 -0.782,-0.839c-0.248,-0.491 -0.305,-0.953 -0.334,-2.679c-0.014,-0.868 -0.01,-2.04 0.01,-2.603l0.033,-1.03l0.2,-0.052c0.105,-0.029 0.248,-0.057 0.315,-0.067c0.262,-0.043 1.33,-0.029 1.621,0.019Z" style="fill:#fff;fill-rule:nonzero;"/><path d="M75.122,12.512c-0.138,0.153 -0.415,0.458 -0.62,0.682c-0.887,0.968 -1.797,1.659 -2.846,2.169c-0.305,0.148 -0.591,0.31 -0.634,0.358c-0.1,0.114 -0.143,0.415 -0.076,0.582l0.052,0.133l0.71,0c0.596,0 0.715,0.01 0.739,0.076c0.014,0.038 0.029,1.125 0.029,2.417c0.005,3.113 0.057,4.557 0.186,5.072c0.248,0.996 0.806,1.578 1.75,1.812c0.491,0.119 1.659,0.11 2.26,-0.019c0.953,-0.21 1.831,-0.629 2.317,-1.106c0.272,-0.272 0.372,-0.496 0.343,-0.744c-0.01,-0.119 -0.038,-0.143 -0.162,-0.157c-0.081,-0.01 -0.276,0.029 -0.429,0.086c-0.157,0.057 -0.448,0.148 -0.653,0.205c-0.338,0.091 -0.405,0.091 -0.667,0.038c-0.501,-0.105 -0.92,-0.448 -1.13,-0.93c-0.215,-0.481 -0.229,-0.677 -0.262,-3.68c-0.019,-1.578 -0.019,-2.913 0,-2.965c0.029,-0.105 0.043,-0.105 1.378,-0.105c1.268,0 1.349,-0.005 1.444,-0.095c0.153,-0.138 0.219,-0.4 0.195,-0.768c-0.029,-0.515 0.062,-0.486 -1.607,-0.51l-1.43,-0.024l-0.014,-1.297c-0.014,-1.201 -0.019,-1.311 -0.105,-1.402c-0.067,-0.072 -0.148,-0.1 -0.3,-0.1c-0.2,0 -0.229,0.019 -0.467,0.272Z" style="fill:#fff;fill-rule:nonzero;"/><path d="M127.895,14.452c-0.21,0.086 -0.534,0.234 -0.725,0.329c-0.372,0.191 -2.04,0.853 -2.684,1.068l-0.405,0.133l0.005,0.348c0.01,0.405 0.072,0.505 0.367,0.586c0.105,0.029 0.253,0.11 0.324,0.181c0.253,0.257 0.257,0.3 0.257,3.58c0,2.765 -0.01,3.051 -0.086,3.299c-0.052,0.172 -0.124,0.305 -0.195,0.348c-0.057,0.038 -0.31,0.114 -0.558,0.167c-0.31,0.067 -0.481,0.129 -0.553,0.205c-0.119,0.119 -0.195,0.424 -0.157,0.629l0.024,0.143l3.332,0.014c2.56,0.01 3.347,-0.005 3.399,-0.048c0.052,-0.043 0.067,-0.133 0.052,-0.343c-0.029,-0.396 -0.133,-0.481 -0.658,-0.52c-0.434,-0.033 -0.729,-0.167 -0.877,-0.396c-0.143,-0.215 -0.176,-0.968 -0.162,-3.938l0.014,-2.841l0.114,-0.124c0.1,-0.11 0.458,-0.267 0.601,-0.267c0.033,0 0.219,0.162 0.42,0.358c0.477,0.477 0.686,0.572 1.249,0.572c0.372,0 0.462,-0.019 0.696,-0.133c0.577,-0.281 0.868,-0.796 0.868,-1.535c0.005,-0.386 -0.01,-0.458 -0.133,-0.686c-0.176,-0.319 -0.453,-0.596 -0.763,-0.758c-0.2,-0.105 -0.3,-0.129 -0.62,-0.129c-0.577,0 -1.077,0.229 -1.621,0.744c-0.257,0.243 -0.605,0.453 -0.796,0.481l-0.11,0.014l0.014,-0.744c0.014,-0.644 0.01,-0.753 -0.062,-0.82c-0.105,-0.11 -0.129,-0.105 -0.572,0.081Z" style="fill:#fff;fill-rule:nonzero;"/><path d="M97.575,14.671c-0.601,0.067 -1.416,0.31 -1.964,0.591c-0.615,0.31 -1.168,0.944 -1.411,1.621c-0.119,0.324 -0.148,0.481 -0.167,0.968c-0.029,0.753 0.057,1.144 0.353,1.654c0.396,0.677 1.025,1.197 2.374,1.964c1.144,0.648 1.564,1.158 1.564,1.888c0,0.377 -0.062,0.567 -0.281,0.872c-0.286,0.391 -0.925,0.591 -1.425,0.453c-0.663,-0.186 -1.43,-0.992 -2.05,-2.155c-0.172,-0.324 -0.353,-0.625 -0.405,-0.667c-0.2,-0.172 -0.396,0.043 -0.543,0.605c-0.153,0.586 -0.043,2.055 0.186,2.498c0.148,0.276 0.472,0.467 1.135,0.644c1.907,0.52 4.004,0.353 5.139,-0.415c0.667,-0.453 1.077,-0.982 1.316,-1.721c0.162,-0.486 0.176,-0.572 0.172,-1.077c0,-0.672 -0.129,-1.154 -0.439,-1.669c-0.424,-0.706 -0.953,-1.154 -2.155,-1.831c-0.939,-0.534 -1.316,-0.815 -1.549,-1.163c-0.176,-0.267 -0.181,-0.281 -0.181,-0.706c0,-0.391 0.01,-0.448 0.124,-0.596c0.072,-0.091 0.243,-0.229 0.381,-0.305c0.215,-0.114 0.315,-0.138 0.591,-0.143c0.381,0 0.558,0.057 0.944,0.329c0.286,0.195 0.639,0.663 0.911,1.206c0.281,0.567 0.787,0.911 0.934,0.639c0.057,-0.114 0.062,-2.174 0.005,-2.484c-0.067,-0.329 -0.262,-0.477 -0.915,-0.682c-0.296,-0.095 -0.691,-0.205 -0.877,-0.243c-0.429,-0.086 -1.335,-0.129 -1.764,-0.076Z" style="fill:#fff;fill-rule:nonzero;"/><path d="M85.419,14.719c-0.367,0.043 -1.43,0.315 -1.821,0.472c-0.896,0.353 -1.645,0.891 -2.25,1.616c-0.372,0.443 -0.858,1.425 -1.03,2.059c-0.229,0.863 -0.267,1.997 -0.095,2.832c0.443,2.136 1.812,3.499 4.028,4.004c0.877,0.2 2.393,0.238 3.175,0.081c1.912,-0.391 3.285,-1.34 3.995,-2.76c0.219,-0.439 0.453,-1.12 0.534,-1.583c0.086,-0.486 0.081,-1.521 -0.01,-2.14c-0.081,-0.558 -0.315,-1.311 -0.548,-1.778c-0.639,-1.263 -1.878,-2.164 -3.599,-2.612c-0.882,-0.229 -1.545,-0.281 -2.379,-0.191Zm1.268,1.435c0.334,0.181 0.543,0.4 0.772,0.81c0.21,0.381 0.477,1.211 0.582,1.807c0.133,0.782 0.191,2.007 0.129,2.898c-0.057,0.915 -0.162,1.378 -0.434,1.95c-0.224,0.462 -0.477,0.753 -0.825,0.944c-0.224,0.124 -0.3,0.143 -0.658,0.143c-0.486,0 -0.696,-0.091 -1.073,-0.472c-0.672,-0.672 -1.073,-1.75 -1.216,-3.246c-0.181,-1.931 0.157,-3.728 0.844,-4.462c0.338,-0.367 0.691,-0.52 1.201,-0.52c0.353,0 0.429,0.014 0.677,0.148Z" style="fill:#fff;fill-rule:nonzero;"/><path d="M115.266,14.719c-0.696,0.11 -1.73,0.453 -2.303,0.763c-0.777,0.42 -1.568,1.149 -1.959,1.807c-0.62,1.049 -0.882,2.255 -0.777,3.561c0.129,1.526 0.625,2.703 1.487,3.528c0.477,0.448 0.806,0.677 1.33,0.906c1.259,0.553 2.651,0.753 4.009,0.572c1.883,-0.253 3.27,-1.025 4.128,-2.307c0.348,-0.52 0.534,-0.977 0.706,-1.74c0.219,-1.001 0.21,-2.379 -0.029,-3.323c-0.091,-0.362 -0.458,-1.139 -0.715,-1.506c-0.534,-0.782 -1.649,-1.592 -2.617,-1.912c-0.944,-0.31 -1.192,-0.353 -2.121,-0.372c-0.472,-0.01 -0.987,0 -1.139,0.024Zm1.43,1.402c0.296,0.133 0.663,0.501 0.844,0.829c0.853,1.573 0.996,5.191 0.267,6.717c-0.31,0.644 -0.863,1.025 -1.497,1.025c-0.343,-0.005 -0.472,-0.048 -0.853,-0.3c-0.61,-0.4 -1.034,-1.235 -1.273,-2.498c-0.124,-0.667 -0.176,-2.336 -0.095,-3.113c0.148,-1.392 0.567,-2.293 1.235,-2.617c0.467,-0.229 0.925,-0.243 1.373,-0.043Z" style="fill:#fff;fill-rule:nonzero;"/><path d="M51.667,14.752c-0.639,0.052 -1.678,0.362 -2.336,0.696c-0.691,0.343 -1.535,1.087 -1.964,1.726c-0.601,0.891 -0.906,1.84 -0.953,2.984c-0.072,1.626 0.415,3.061 1.378,4.047c0.639,0.658 1.311,1.058 2.183,1.306c0.248,0.072 0.534,0.162 0.629,0.2c0.348,0.129 1.306,0.224 2.017,0.195c0.882,-0.038 1.444,-0.157 2.384,-0.515c1.893,-0.72 2.994,-2.193 3.266,-4.352c0.157,-1.22 -0.153,-2.794 -0.744,-3.795c-0.243,-0.415 -0.958,-1.144 -1.425,-1.454c-1.206,-0.806 -2.808,-1.178 -4.434,-1.039Zm1.235,1.363c0.52,0.238 0.887,0.744 1.168,1.607c0.31,0.958 0.434,1.864 0.434,3.204c0,0.996 -0.086,1.669 -0.291,2.303c-0.186,0.582 -0.372,0.887 -0.686,1.135c-0.353,0.276 -0.663,0.381 -1.039,0.358c-0.663,-0.043 -1.168,-0.477 -1.645,-1.425c-0.51,-1.006 -0.658,-1.85 -0.615,-3.537c0.033,-1.368 0.133,-1.959 0.448,-2.593c0.51,-1.034 1.373,-1.44 2.226,-1.049Z" style="fill:#fff;fill-rule:nonzero;"/><path d="M64.877,14.771c-2.16,0.248 -4.305,1.64 -4.748,3.075c-0.148,0.477 -0.11,0.782 0.114,0.968c0.296,0.243 1.387,0.076 2.064,-0.315c0.415,-0.243 0.539,-0.443 0.796,-1.311c0.2,-0.667 0.591,-1.077 1.073,-1.125c0.539,-0.052 0.977,0.305 1.211,0.973c0.234,0.682 0.334,1.659 0.234,2.231c-0.048,0.257 -0.143,0.305 -1.206,0.62c-1.411,0.42 -2.612,0.849 -3.027,1.077c-0.534,0.305 -0.973,0.748 -1.197,1.22c-0.167,0.353 -0.176,0.4 -0.195,0.953c-0.019,0.496 -0.005,0.634 0.081,0.92c0.262,0.868 1.054,1.592 1.921,1.764c0.701,0.133 1.273,0.1 1.945,-0.119c0.448,-0.148 1.259,-0.553 1.559,-0.777l0.229,-0.176l0.129,0.205c0.072,0.11 0.219,0.267 0.334,0.353c0.276,0.205 0.815,0.448 1.135,0.515c0.319,0.072 1.173,0.072 1.526,0.005c1.039,-0.195 2.126,-0.849 2.336,-1.406c0.072,-0.191 0.062,-0.501 -0.019,-0.529c-0.038,-0.014 -0.3,0.052 -0.577,0.148c-0.415,0.143 -0.558,0.172 -0.772,0.157c-0.496,-0.043 -0.858,-0.434 -0.996,-1.087c-0.067,-0.3 -0.072,-0.577 -0.048,-1.716c0.014,-0.748 0.052,-1.726 0.081,-2.169c0.095,-1.444 -0.029,-2.393 -0.415,-3.123c-0.191,-0.362 -0.563,-0.744 -0.891,-0.915c-0.806,-0.41 -1.63,-0.539 -2.674,-0.415Zm0.706,6.345c-0.01,0.191 -0.029,0.806 -0.038,1.363c-0.024,0.949 -0.033,1.034 -0.133,1.216c-0.324,0.586 -1.135,0.672 -1.583,0.176c-0.748,-0.829 -0.601,-2.083 0.305,-2.608c0.329,-0.191 1.13,-0.477 1.368,-0.486c0.095,-0.005 0.1,0.014 0.081,0.338Z" style="fill:#fff;fill-rule:nonzero;"/><path d="M137.453,14.809c-1.425,0.31 -2.145,0.71 -2.941,1.64c-0.796,0.92 -1.087,2.512 -0.686,3.752c0.291,0.901 0.834,1.578 1.607,2.007c0.195,0.105 0.353,0.224 0.353,0.257c0,0.095 -0.567,0.534 -1.073,0.834c-0.663,0.386 -0.891,0.577 -1.049,0.863c-0.124,0.224 -0.143,0.305 -0.143,0.615c0,0.286 0.024,0.405 0.119,0.591c0.195,0.391 0.558,0.739 1.116,1.068c0.276,0.167 0.505,0.315 0.505,0.334c0,0.067 -0.176,0.3 -0.281,0.372c-0.052,0.038 -0.253,0.133 -0.439,0.21c-1.087,0.453 -1.716,1.359 -1.573,2.283c0.076,0.486 0.377,1.049 0.772,1.44c0.391,0.386 0.839,0.715 1.206,0.882c0.372,0.172 1.254,0.386 1.974,0.477c0.906,0.119 2.374,0.072 3.275,-0.095c2.164,-0.415 3.757,-1.444 4.495,-2.913c0.629,-1.254 0.706,-2.565 0.215,-3.59c-0.234,-0.491 -0.715,-0.968 -1.211,-1.211c-0.653,-0.319 -0.844,-0.338 -3.809,-0.367c-2.841,-0.029 -2.789,-0.024 -3.013,-0.276c-0.119,-0.129 -0.229,-0.415 -0.229,-0.591c0,-0.176 0.157,-0.458 0.276,-0.491c0.043,-0.014 0.577,-0.024 1.178,-0.024c1.244,0.005 1.64,-0.048 2.446,-0.315c0.801,-0.272 1.378,-0.639 1.907,-1.225c0.329,-0.367 0.467,-0.596 0.686,-1.135c0.257,-0.629 0.372,-1.239 0.405,-2.179c0.038,-0.996 -0.014,-0.944 0.92,-0.911c0.458,0.019 0.682,0.01 0.71,-0.029c0.062,-0.076 0.1,-0.853 0.062,-1.292l-0.033,-0.381l-1.263,-0.029c-1.206,-0.029 -1.306,-0.038 -2.145,-0.205c-0.486,-0.095 -1.158,-0.234 -1.502,-0.3c-0.849,-0.167 -2.222,-0.2 -2.836,-0.067Zm1.754,1.297c0.386,0.191 0.653,0.629 0.901,1.502c0.124,0.443 0.133,0.524 0.129,1.378c0,0.777 -0.014,0.958 -0.105,1.278c-0.167,0.596 -0.329,0.911 -0.61,1.178c-0.553,0.524 -0.992,0.515 -1.53,-0.033c-0.596,-0.605 -0.868,-1.635 -0.81,-3.08c0.043,-1.063 0.176,-1.516 0.577,-1.931c0.195,-0.205 0.372,-0.319 0.601,-0.396c0.181,-0.062 0.62,-0.005 0.849,0.105Zm1.53,10.884c0.167,0.043 0.415,0.138 0.548,0.21c0.358,0.195 0.801,0.629 0.958,0.949c0.129,0.253 0.143,0.319 0.143,0.777c0,0.467 -0.01,0.52 -0.157,0.834c-0.195,0.415 -0.486,0.691 -0.996,0.963c-0.548,0.291 -0.901,0.367 -1.73,0.367c-0.763,-0.005 -1.068,-0.067 -1.735,-0.372c-0.877,-0.405 -1.602,-1.459 -1.602,-2.336c0,-0.515 0.062,-0.682 0.367,-0.973c0.524,-0.501 0.701,-0.534 2.589,-0.51c1.02,0.01 1.378,0.029 1.616,0.091Z" style="fill:#fff;fill-rule:nonzero;"/><path d="M105.131,21.717c-0.701,0.186 -1.268,0.739 -1.483,1.454c-0.296,0.958 0.191,2.007 1.149,2.479c0.429,0.215 0.768,0.276 1.22,0.224c1.411,-0.153 2.274,-1.678 1.664,-2.946c-0.205,-0.424 -0.429,-0.672 -0.853,-0.939c-0.563,-0.348 -1.077,-0.434 -1.697,-0.272Z" style="fill:#fff;fill-rule:nonzero;"/></g></g></svg>