<?xml version="1.0" encoding="UTF-8" standalone="no"?><!DOCTYPE svg PUBLIC "-//W3C//DTD SVG 1.1//EN" "http://www.w3.org/Graphics/SVG/1.1/DTD/svg11.dtd"><svg width="100%" height="100%" viewBox="0 0 166 40" version="1.1" xmlns="http://www.w3.org/2000/svg" xmlns:xlink="http://www.w3.org/1999/xlink" xml:space="preserve" xmlns:serif="http://www.serif.com/" style="fill-rule:evenodd;clip-rule:evenodd;stroke-linejoin:round;stroke-miterlimit:2;"><g><path d="M0,14.88l0,-3.376l8.255,0c4.444,0 6.667,1.589 6.667,4.766c0,1.324 -0.369,2.317 -1.106,2.978c-0.738,0.662 -1.872,1.078 -3.404,1.249l0,0.085c1.778,0.114 3.092,0.492 3.943,1.135c0.851,0.624 1.277,1.579 1.277,2.865c0,1.665 -0.567,2.922 -1.702,3.773c-1.116,0.851 -3.045,1.277 -5.787,1.277l-8.142,0l0,-3.149l1.447,0l0,-11.603l-1.447,0Zm5.901,11.66l2.099,0c1.229,0 2.052,-0.17 2.468,-0.511c0.435,-0.359 0.653,-0.927 0.653,-1.702c0,-0.776 -0.236,-1.333 -0.709,-1.674c-0.473,-0.359 -1.295,-0.539 -2.468,-0.539l-2.043,0l0,4.426Zm0,-7.234l2.043,0c1.74,0 2.61,-0.747 2.61,-2.241c0,-1.437 -0.804,-2.156 -2.411,-2.156l-2.241,0l0,4.397Z" style="fill:#fff;fill-rule:nonzero;"/><path d="M16.136,19.475l0,-3.745l4.936,0c0.114,0.246 0.236,0.605 0.369,1.078c0.265,0.908 0.397,1.806 0.397,2.695l0,0.653c0.567,-3.083 1.835,-4.624 3.801,-4.624c0.624,0 1.069,0.245 1.333,0.737l0,3.603c-1.721,-0.076 -2.988,0.198 -3.801,0.823c-0.813,0.624 -1.22,1.768 -1.22,3.432l0,2.355l2.014,0l0,3.149l-7.83,0l0,-3.149l1.305,0l0,-7.007l-1.305,0Z" style="fill:#fff;fill-rule:nonzero;"/><path d="M27.919,20.667l0,-3.263c1.191,-1.343 3.073,-2.014 5.645,-2.014c2.118,0 3.65,0.501 4.596,1.504c0.946,1.003 1.418,2.468 1.418,4.397l0,4.482c0,0.643 0.293,0.964 0.879,0.964c0.113,0 0.265,-0.019 0.454,-0.057l0,2.639c-0.114,0.075 -0.303,0.17 -0.567,0.284c-0.492,0.189 -1.059,0.284 -1.702,0.284c-2.08,0 -3.225,-0.88 -3.433,-2.639c-0.605,1.835 -1.986,2.752 -4.142,2.752c-1.21,0 -2.175,-0.321 -2.894,-0.964c-0.719,-0.662 -1.078,-1.551 -1.078,-2.667l0,-0.029c0,-0.7 0.123,-1.296 0.369,-1.787c0.265,-0.492 0.681,-0.899 1.248,-1.22c0.586,-0.321 1.125,-0.567 1.617,-0.737c0.511,-0.17 1.21,-0.359 2.099,-0.567c0.983,-0.246 1.674,-0.482 2.071,-0.709c0.397,-0.227 0.596,-0.549 0.596,-0.965l0,-0.085c0,-1.249 -0.794,-1.872 -2.383,-1.872c-0.416,0 -0.804,0.029 -1.163,0.085l0,2.184l-3.631,0Zm5.22,6.865c0.567,0 1.031,-0.246 1.39,-0.738c0.378,-0.491 0.567,-1.182 0.567,-2.071l0,-2.014c-0.322,0.321 -0.861,0.681 -1.617,1.078c-0.662,0.303 -1.135,0.596 -1.418,0.88c-0.284,0.284 -0.426,0.681 -0.426,1.191l0,0.142c0,1.021 0.501,1.532 1.504,1.532Z" style="fill:#fff;fill-rule:nonzero;"/><path d="M41.693,20.298l0,-4.567l11.83,0l0,4.085l-8.425,7.234l5.049,0l0,-2.27l3.518,0l0,4.851l-12.341,0l0,-4.085l8.142,-7.007l-4.34,0l0,1.759l-3.433,0Z" style="fill:#fff;fill-rule:nonzero;"/><path d="M54.108,19.475l0,-3.745l5.901,0l0,10.752l1.39,0l0,3.149l-7.291,0l0,-3.149l1.419,0l0,-7.007l-1.419,0Zm5.277,-5.333c-0.454,0.454 -1.012,0.681 -1.674,0.681c-0.662,0 -1.229,-0.227 -1.702,-0.681c-0.454,-0.473 -0.681,-1.041 -0.681,-1.702c0,-0.662 0.236,-1.229 0.709,-1.702c0.473,-0.491 1.031,-0.737 1.674,-0.737c0.643,0 1.201,0.246 1.674,0.737c0.473,0.473 0.709,1.04 0.709,1.702c0,0.662 -0.236,1.229 -0.709,1.702Z" style="fill:#fff;fill-rule:nonzero;"/><path d="M61.714,13.915l0,-3.375l5.929,0l0,15.943l1.39,0l0,3.149l-7.319,0l0,-3.149l1.418,0l0,-12.568l-1.418,0Z" style="fill:#fff;fill-rule:nonzero;"/><path d="M76.436,14.88l0,-3.376l7.773,0l0,3.376l-1.305,0l0,9.277c0,1.834 -0.463,3.263 -1.39,4.284c-0.927,1.021 -2.326,1.532 -4.198,1.532c-1.646,0 -2.837,-0.331 -3.575,-0.992l0,-3.008c0.776,0.284 1.589,0.426 2.44,0.426c1.419,0 2.128,-0.747 2.128,-2.241l0,-9.277l-1.872,0Z" style="fill:#fff;fill-rule:nonzero;"/><path d="M91.713,27.078c1.815,0 2.723,-1.371 2.723,-4.113l0,-1.021c0,-1.191 -0.246,-2.09 -0.738,-2.695c-0.491,-0.605 -1.154,-0.908 -1.985,-0.908c-0.832,0 -1.494,0.303 -1.986,0.908c-0.473,0.605 -0.709,1.504 -0.709,2.695l0,1.021c0,2.742 0.899,4.113 2.695,4.113Zm0,2.865c-2.043,0 -3.764,-0.614 -5.163,-1.844c-1.381,-1.229 -2.071,-3.083 -2.071,-5.56l0,-0.057c0,-2.213 0.672,-3.943 2.015,-5.192c1.343,-1.267 3.083,-1.901 5.22,-1.901c2.137,0 3.877,0.634 5.22,1.901c1.361,1.249 2.042,2.969 2.042,5.163l0,0.057c0,2.496 -0.7,4.359 -2.099,5.589c-1.381,1.229 -3.102,1.844 -5.163,1.844Z" style="fill:#fff;fill-rule:nonzero;"/><path d="M107.85,19.475l0,-3.745l6.354,0l0,10.752l1.305,0l0,3.149l-4.936,0c-0.151,-0.321 -0.265,-0.643 -0.34,-0.964c-0.227,-0.643 -0.34,-1.362 -0.34,-2.156l0,-0.142c-0.7,2.402 -2.241,3.602 -4.624,3.602c-3.064,0 -4.596,-1.73 -4.596,-5.191l0,-5.305l-1.277,0l0,-3.745l5.759,0l0,8.681c0,1.646 0.652,2.468 1.957,2.468c0.813,0 1.447,-0.322 1.901,-0.965c0.473,-0.643 0.709,-1.579 0.709,-2.808l0,-3.631l-1.872,0Z" style="fill:#fff;fill-rule:nonzero;"/><path d="M115.812,19.475l0,-3.745l4.936,0c0.113,0.246 0.236,0.605 0.369,1.078c0.265,0.908 0.397,1.806 0.397,2.695l0,0.653c0.567,-3.083 1.834,-4.624 3.801,-4.624c0.624,0 1.069,0.245 1.333,0.737l0,3.603c-1.721,-0.076 -2.988,0.198 -3.801,0.823c-0.813,0.624 -1.22,1.768 -1.22,3.432l0,2.355l2.014,0l0,3.149l-7.83,0l0,-3.149l1.305,0l0,-7.007l-1.305,0Z" style="fill:#fff;fill-rule:nonzero;"/><path d="M135.925,29.631l0,-3.149l1.617,0l0,-5.504c0,-1.513 -0.653,-2.27 -1.957,-2.27c-0.813,0 -1.466,0.312 -1.958,0.936c-0.472,0.605 -0.709,1.484 -0.709,2.638l0,4.199l1.674,0l0,3.149l-7.489,0l0,-3.149l1.305,0l0,-7.007l-1.305,0l0,-3.745l4.936,0c0.113,0.227 0.236,0.539 0.368,0.936c0.265,0.757 0.398,1.513 0.398,2.27l0,0.227c0.718,-2.516 2.326,-3.773 4.822,-3.773c1.4,0 2.487,0.426 3.263,1.277c0.776,0.832 1.163,2.08 1.163,3.744l0,6.071l1.277,0l0,3.149l-7.404,0Z" style="fill:#fff;fill-rule:nonzero;"/><path d="M144.537,20.667l0,-3.263c1.191,-1.343 3.073,-2.014 5.645,-2.014c2.118,0 3.65,0.501 4.596,1.504c0.946,1.003 1.418,2.468 1.418,4.397l0,4.482c0,0.643 0.293,0.964 0.88,0.964c0.113,0 0.265,-0.019 0.454,-0.057l0,2.639c-0.113,0.075 -0.302,0.17 -0.567,0.284c-0.491,0.189 -1.059,0.284 -1.702,0.284c-2.081,0 -3.225,-0.88 -3.433,-2.639c-0.605,1.835 -1.986,2.752 -4.142,2.752c-1.21,0 -2.175,-0.321 -2.894,-0.964c-0.718,-0.662 -1.078,-1.551 -1.078,-2.667l0,-0.029c0,-0.7 0.123,-1.296 0.368,-1.787c0.265,-0.492 0.681,-0.899 1.249,-1.22c0.586,-0.321 1.125,-0.567 1.617,-0.737c0.511,-0.17 1.21,-0.359 2.099,-0.567c0.983,-0.246 1.674,-0.482 2.071,-0.709c0.397,-0.227 0.596,-0.549 0.596,-0.965l0,-0.085c0,-1.249 -0.795,-1.872 -2.383,-1.872c-0.416,0 -0.804,0.029 -1.163,0.085l0,2.184l-3.631,0Zm5.22,6.865c0.567,0 1.031,-0.246 1.39,-0.738c0.378,-0.491 0.567,-1.182 0.567,-2.071l0,-2.014c-0.322,0.321 -0.86,0.681 -1.617,1.078c-0.662,0.303 -1.135,0.596 -1.419,0.88c-0.284,0.284 -0.426,0.681 -0.426,1.191l0,0.142c0,1.021 0.502,1.532 1.504,1.532Z" style="fill:#fff;fill-rule:nonzero;"/><path d="M157.801,13.915l0,-3.375l5.929,0l0,15.943l1.39,0l0,3.149l-7.319,0l0,-3.149l1.418,0l0,-12.568l-1.418,0Z" style="fill:#fff;fill-rule:nonzero;"/></g></svg>