<?xml version="1.0" encoding="UTF-8" standalone="no"?><!DOCTYPE svg PUBLIC "-//W3C//DTD SVG 1.1//EN" "http://www.w3.org/Graphics/SVG/1.1/DTD/svg11.dtd"><svg width="100%" height="100%" viewBox="0 0 194 40" version="1.1" xmlns="http://www.w3.org/2000/svg" xmlns:xlink="http://www.w3.org/1999/xlink" xml:space="preserve" xmlns:serif="http://www.serif.com/" style="fill-rule:evenodd;clip-rule:evenodd;stroke-linejoin:round;stroke-miterlimit:2;"><g><path d="M0,11.849l6.955,0c3.869,0 5.892,2 5.892,4.456c0,1.696 -0.956,2.847 -2.282,3.456l0,0.044c1.696,0.609 2.651,1.956 2.651,3.673c0,2.457 -1.891,4.608 -5.977,4.608l-7.238,0l0,-16.238Zm6.738,6.434c1.152,0 1.675,-0.587 1.675,-1.239c0,-0.653 -0.521,-1.261 -1.675,-1.261l-2.043,0l0,2.5l2.043,0Zm0.065,5.869c1.216,0 1.805,-0.587 1.805,-1.347c0,-0.761 -0.609,-1.347 -1.782,-1.347l-2.13,0l0,2.695l2.108,0l0,-0.002l-0.001,0.001Zm7.412,-2.673l0,-9.629l4.738,0l0,9.585c0,1.805 0.891,2.761 2.412,2.761c1.522,0 2.478,-0.956 2.478,-2.782l0,-9.564l4.761,0l0,9.629c0,4.087 -2.738,7.021 -7.238,7.021c-4.5,0 -7.152,-2.935 -7.152,-7.021l0.002,0l-0.001,0Zm26.453,-8.849l0,4.175c-1.021,-0.717 -2.761,-1.216 -4.173,-1.216c-1.282,0 -1.935,0.414 -1.935,0.956c0,0.542 0.717,0.826 2,1.282c2.174,0.761 5.129,1.782 5.129,5.238c0,3.087 -2.326,5.369 -6.413,5.369c-2.108,0 -4.043,-0.609 -5.238,-1.412l0,-4.391c1.174,0.956 2.956,1.717 4.673,1.717c1.456,0 2.13,-0.544 2.13,-1.152c0,-0.782 -1.109,-1.131 -2.435,-1.609c-1.739,-0.631 -4.498,-1.76 -4.498,-4.912c0,-2.847 2.24,-5.173 6.238,-5.173c1.76,0 3.347,0.456 4.521,1.131l0,-0.001Zm2.238,-0.78l4.738,0l0,16.238l-4.738,0l0,-16.238Zm21.584,16.238l-4.521,0l-5.847,-8.715l-0.021,0l0,8.715l-4.498,0l0,-16.238l4.521,0l5.847,8.564l0.021,0l0,-8.564l4.498,0l0,16.238Zm1.956,-16.238l11.215,0l0,4.217l-6.477,0l0,1.956l5.824,0l0,3.826l-5.824,0l0,2.021l6.477,0l0,4.217l-11.215,0l0,-16.238Zm23.106,0.78l0,4.175c-1.021,-0.717 -2.761,-1.216 -4.173,-1.216c-1.282,0 -1.935,0.414 -1.935,0.956c0,0.542 0.717,0.826 2,1.282c2.174,0.761 5.129,1.782 5.129,5.238c0,3.087 -2.326,5.369 -6.413,5.369c-2.108,0 -4.043,-0.609 -5.238,-1.412l0,-4.391c1.174,0.956 2.956,1.717 4.673,1.717c1.456,0 2.13,-0.544 2.13,-1.152c0,-0.782 -1.109,-1.131 -2.435,-1.609c-1.739,-0.631 -4.498,-1.76 -4.498,-4.912c0,-2.847 2.24,-5.173 6.238,-5.173c1.76,0 3.347,0.456 4.521,1.131l0,-0.001Zm12.542,0l0,4.175c-1.021,-0.717 -2.761,-1.216 -4.173,-1.216c-1.282,0 -1.935,0.414 -1.935,0.956c0,0.542 0.717,0.826 2,1.282c2.174,0.761 5.129,1.782 5.129,5.238c0,3.087 -2.326,5.369 -6.413,5.369c-2.108,0 -4.043,-0.609 -5.238,-1.412l0,-4.391c1.174,0.956 2.956,1.717 4.673,1.717c1.456,0 2.13,-0.544 2.13,-1.152c0,-0.782 -1.109,-1.131 -2.435,-1.609c-1.739,-0.631 -4.498,-1.76 -4.498,-4.912c0,-2.847 2.24,-5.173 6.238,-5.173c1.76,0 3.347,0.456 4.521,1.131l0,-0.001Zm6.511,15.488l4.738,0l0,-16.236l-4.738,0l0,16.238l0,-0.002Zm21.582,-16.236l-4.498,0l0,8.564l-0.021,0l-5.847,-8.564l-4.521,0l0,16.238l4.498,0l0,-8.715l0.021,0l5.847,8.715l4.521,0l0,-16.238Zm7.627,-0.349c-4,0 -6.238,2.326 -6.238,5.173c0,3.152 2.761,4.282 4.498,4.912c1.326,0.479 2.435,0.826 2.435,1.609c0,0.609 -0.674,1.152 -2.13,1.152c-1.717,0 -3.5,-0.761 -4.673,-1.717l0,4.391c1.195,0.805 3.131,1.412 5.238,1.412c4.087,0 6.413,-2.282 6.413,-5.369c0,-3.456 -2.956,-4.477 -5.129,-5.238c-1.282,-0.456 -2,-0.717 -2,-1.282c0,-0.565 0.652,-0.956 1.935,-0.956c1.412,0 3.152,0.5 4.173,1.216l0,-4.175c-1.174,-0.674 -2.761,-1.131 -4.521,-1.131l-0,0.001Zm6.649,16.584l4.738,0l0,-16.236l-4.738,0l0,16.238l0,-0.002Zm11.432,-4.282l0.914,0c2.457,0 4.043,-1.391 4.043,-3.826c0,-2.435 -1.586,-3.847 -4.043,-3.847l-0.914,0l0,7.673Zm9.738,-3.826c0,4.891 -3.696,8.108 -8.999,8.108l-5.478,0l0,-16.236l5.478,0c5.303,0 8.999,3.238 8.999,8.129l0,-0.002l0,0.001Zm1.284,8.108l11.215,0l0,-4.217l-6.477,0l0,-2.021l5.824,0l0,-3.826l-5.824,0l0,-1.956l6.477,0l0,-4.215l-11.215,0l0,16.238l0,-0.002Zm18.674,-8.564c1.195,0 2.13,-0.565 2.13,-1.696c0,-1.131 -0.935,-1.696 -2.151,-1.696l-1,0l0,3.391l1.021,0l0,0.001Zm7.76,8.564l-5.587,0l-3.087,-5.021l-0.109,0l0,5.021l-4.738,0l0,-16.236l5.782,0c4.066,0 6.89,1.805 6.89,5.652c0,1.522 -0.674,3.738 -3.37,4.868l4.217,5.717l0.002,-0.002Z" style="fill:#fff;"/></g></svg>