<?xml version="1.0" encoding="UTF-8" standalone="no"?><!DOCTYPE svg PUBLIC "-//W3C//DTD SVG 1.1//EN" "http://www.w3.org/Graphics/SVG/1.1/DTD/svg11.dtd"><svg width="100%" height="100%" viewBox="0 0 56 40" version="1.1" xmlns="http://www.w3.org/2000/svg" xmlns:xlink="http://www.w3.org/1999/xlink" xml:space="preserve" xmlns:serif="http://www.serif.com/" style="fill-rule:evenodd;clip-rule:evenodd;stroke-linejoin:round;stroke-miterlimit:2;"><g><path d="M27.145,28.197c-0.371,0.576 -0.764,1.161 -1.214,1.677c-0.288,0.358 -0.626,0.657 -0.864,1.055c-0.377,0.606 -0.88,1.085 -1.39,1.577c-1.259,1.128 -2.895,1.866 -4.536,2.23c-0.679,0.17 -1.379,0.278 -2.081,0.261c-0.616,-0.011 -1.25,0.036 -1.852,-0.06c-0.539,-0.047 -1.067,0.022 -1.604,-0.083c-4.294,-0.398 -8.311,-2.905 -10.557,-6.587c-0.391,-0.623 -0.76,-1.253 -1.018,-1.945c-0.105,-0.31 -0.355,-0.413 -0.581,-0.622c-0.837,-0.73 -1.286,-1.768 -1.427,-2.855c-0.058,-0.938 -0.012,-1.836 0.402,-2.696c0.14,-0.323 0.367,-0.585 0.539,-0.887c0.095,-0.269 0.081,-0.598 0.131,-0.877c0.286,-1.518 0.781,-3.021 1.514,-4.383c0.468,-0.79 0.966,-1.591 1.562,-2.287c0.251,-0.327 0.537,-0.529 0.706,-0.903c0.921,-1.921 2.502,-3.436 4.33,-4.494c0.986,-0.579 2.158,-0.893 3.277,-1.088c1.186,-0.246 2.412,-0.24 3.617,-0.221c0.687,0.049 1.371,0.183 2.049,0.306c1.08,0.271 2.108,0.633 2.992,1.33c0.718,0.492 1.217,1.212 1.529,2.017c0.082,0.264 0.318,0.347 0.521,0.508c0.478,0.322 0.827,0.685 1.375,0.874c0.517,0.16 0.995,0.316 1.538,0.168c0.464,-0.068 0.715,-0.371 1.092,-0.603c0.016,0.395 0.022,0.794 0.001,1.189c-0.09,0.62 -0.29,1.215 -0.58,1.77c0.096,0.137 0.192,0.275 0.285,0.415c0.551,0.831 1.032,1.725 1.385,2.659c0.347,0.862 0.537,1.745 0.749,2.645c0.128,0.444 0.147,0.885 0.183,1.342c0.16,1.512 0.014,3.068 -0.345,4.542c-0.043,0.16 -0.107,0.31 -0.164,0.464c-0.35,1.271 -0.87,2.443 -1.563,3.563Zm-24.277,-9.008c-0.603,-0.079 -1.193,0.337 -1.418,0.883c0.505,0.013 0.905,-0.168 1.404,-0.023c0.504,0.162 0.984,0.444 1.257,0.914c0.491,0.801 0.534,1.688 0.476,2.603c-0.085,0.768 -0.374,1.447 -0.751,2.114c0.523,-0.228 0.836,-0.789 1.073,-1.28c0.249,-0.488 0.355,-1.018 0.4,-1.56c0.034,-0.413 -0.054,-0.785 -0.126,-1.189c-0.125,-0.689 -0.451,-1.364 -0.997,-1.817c-0.385,-0.331 -0.794,-0.614 -1.319,-0.645Zm1.27,-0.191c0.47,0.374 0.877,0.803 1.136,1.351c0.354,0.68 0.46,1.412 0.505,2.167c0.033,1.074 -0.299,2.138 -1.004,2.956c-0.373,0.421 -0.834,0.577 -1.293,0.89c0.188,0.178 0.382,0.346 0.602,0.484c0.282,0.146 0.54,0.293 0.865,0.331c0.342,0.04 0.694,0.031 1.037,-0.002c0.297,-0.109 0.583,-0.276 0.834,-0.468c0.508,-0.425 0.828,-1.043 1.093,-1.638c0.25,-0.54 0.367,-1.074 0.37,-1.67c-0.001,-0.561 0.038,-1.165 -0.077,-1.711c-0.087,-0.419 -0.176,-0.842 -0.311,-1.249c-0.152,-0.472 -0.464,-0.911 -0.724,-1.334c-0.191,-0.312 -0.428,-0.585 -0.68,-0.849c-0.455,-0.292 -0.92,-0.702 -1.445,-0.823c-0.4,-0.092 -0.824,-0.131 -1.209,0.038c-0.423,0.192 -0.815,0.381 -1.084,0.777c0.318,0.015 0.637,0.02 0.956,0.029c-0.006,0.124 -0.012,0.247 -0.018,0.371c0.13,-0.026 0.26,-0.052 0.39,-0.079c-0.055,-0.045 -0.107,-0.091 -0.161,-0.137c0.081,-0.016 0.162,-0.03 0.243,-0.045c-0.116,-0.048 -0.229,-0.101 -0.342,-0.156c0.564,0.078 1.077,0.095 1.581,0.395c0.449,0.267 0.9,0.589 1.24,0.99c0.369,0.535 0.668,1.108 0.807,1.748c0.179,0.823 0.227,1.677 0.054,2.506c-0.063,0.349 -0.278,0.669 -0.44,0.988c-0.288,0.537 -0.816,0.895 -1.363,1.13c-0.497,0.185 -1.051,0.241 -1.578,0.241c0.509,-0.349 0.979,-0.695 1.283,-1.25c0.931,-1.704 0.751,-3.988 -0.47,-5.505c-0.302,-0.288 -0.628,-0.547 -0.997,-0.744c0.066,0.09 0.132,0.18 0.201,0.265Zm11.517,-11.902c-0.518,0.05 -1.02,0.104 -1.525,0.233c-0.791,0.213 -1.569,0.461 -2.306,0.822c-0.829,0.336 -1.586,0.826 -2.214,1.463c-0.257,0.257 -0.541,0.453 -0.735,0.77c0.288,0.071 0.508,0.003 0.778,-0.093c0.314,-0.126 0.594,0.014 0.904,0.087c-0.067,-0.172 -0.236,-0.392 -0.191,-0.58c0.286,-0.106 0.614,-0.136 0.915,-0.178c0.019,-0.104 0.035,-0.209 0.054,-0.313c0.425,-0.234 0.861,-0.435 1.339,-0.534c0.577,-0.114 1.074,-0.369 1.659,-0.423c0.909,-0.084 1.74,-0.299 2.662,-0.18c0.646,0.086 1.327,0.268 1.878,0.625c-0.24,0.103 -0.484,0.183 -0.742,0.225c-0.26,0.056 -0.494,0.051 -0.689,0.257c0.449,0.085 0.867,-0.063 1.313,0.063c0.498,0.134 1.049,0.257 1.497,0.516c0.36,0.204 0.707,0.398 1.029,0.659c0.426,0.331 0.767,0.683 1.28,0.878c0.462,0.171 0.926,0.403 1.411,0.492c0.593,0.072 1.234,-0.1 1.788,-0.304l0.026,-0.175c-0.531,0.005 -1.023,0.027 -1.537,-0.138c-0.398,-0.118 -0.732,-0.397 -1.09,-0.617c-0.476,-0.32 -0.937,-0.577 -1.309,-1.023c-0.238,-0.282 -0.545,-0.467 -0.812,-0.714c-0.399,-0.392 -0.824,-0.769 -1.264,-1.114c-0.583,-0.291 -1.209,-0.618 -1.854,-0.704c-0.757,-0.099 -1.505,-0.062 -2.263,-0.001Zm6.771,8.728c-0.011,-0.73 -0.241,-1.425 -0.282,-2.155c0.508,-0.006 1.092,0.125 1.513,-0.217c-0.399,-0.046 -0.78,-0.098 -1.157,-0.243c-0.343,-0.132 -0.649,-0.348 -0.954,-0.549c-0.345,-0.233 -0.754,-0.395 -1.136,-0.558c-0.591,-0.253 -1.272,-0.361 -1.905,-0.466c-0.545,-0.103 -1.124,-0.053 -1.687,-0.068c-0.61,-0.022 -1.164,0.121 -1.764,0.181c-1.485,0.231 -2.959,0.703 -4.263,1.456c-0.427,0.251 -0.86,0.521 -1.225,0.857c-0.369,0.278 0.049,0.87 -0.122,1.226c-0.159,0.253 -0.37,0.477 -0.553,0.713c0.194,0.149 0.472,-0.144 0.662,-0.211c0.043,0.135 0.104,0.246 0.085,0.391c-0.244,0.351 -0.651,0.603 -0.875,0.966c-0.021,0.159 -0.014,0.322 -0.025,0.482c0.33,0.057 0.662,0.103 0.996,0.125c0.087,-0.217 0.102,-0.423 0.324,-0.547c0.593,-0.375 1.229,-0.698 1.898,-0.914c0.112,-0.042 0.241,-0.076 0.338,-0.148c0.18,-0.301 0.176,-0.638 0.465,-0.886c0.18,-0.182 0.439,-0.211 0.666,-0.103c0.314,0.168 0.492,0.541 0.8,0.703c0.501,0.078 1.035,-0.026 1.541,0.081c0.303,0.066 0.633,0.099 0.918,0.22c0.231,0.096 0.233,0.472 0.453,0.587c0.294,0.164 0.626,0.31 0.969,0.286c0.163,0.002 0.322,-0.048 0.421,-0.184c0.045,-0.171 -0.002,-0.398 0.087,-0.547c0.396,-0.259 0.991,-0.269 1.394,-0.444c0.234,-0.254 0.301,-0.553 0.655,-0.705c0.153,0.084 0.31,0.151 0.43,0.28c0.154,0.145 0.225,0.322 0.454,0.358c0.288,0.038 0.585,0.03 0.876,0.033Zm-9.775,-1.703c0.806,-0.12 1.626,-0.079 2.417,0.117c0.036,0.061 0.071,0.123 0.107,0.184c-0.043,0.124 -0.084,0.248 -0.124,0.372c-0.408,0.017 -0.791,-0.117 -1.197,-0.115c-0.371,-0.004 -0.753,-0.019 -1.12,0.038c-0.289,0.051 -0.574,0.245 -0.865,0.244c-0.209,-0.038 -0.214,-0.285 -0.24,-0.452c0.337,-0.167 0.646,-0.331 1.023,-0.387Zm9.02,0.127c0.001,0.145 0.002,0.291 0.004,0.436c-0.115,0.038 -0.225,0.11 -0.349,0.076c-0.472,-0.099 -0.885,-0.268 -1.379,-0.237c-0.333,-0.008 -0.684,0.174 -1.007,0.107c-0.11,-0.126 -0.079,-0.327 -0.091,-0.486c0.888,-0.327 1.947,-0.227 2.822,0.104Zm-18.29,0.47c-0.319,0.116 -0.371,0.399 -0.508,0.675c-0.333,0.811 -0.716,1.724 -0.751,2.607c0.35,-0.144 0.581,-0.419 0.898,-0.612c0.143,-0.09 0.29,-0.172 0.436,-0.254c0.007,-0.265 0,-0.528 -0.026,-0.792c-0.058,-0.543 -0.014,-1.08 -0.049,-1.624Zm22.47,-1.277c-0.068,0.495 -0.152,0.952 -0.087,1.459c0.055,0.254 0.208,0.495 0.321,0.728c0.092,0.184 0.18,0.371 0.263,0.559l0.023,0.061c0.23,0.366 0.334,0.769 0.463,1.176c0.059,0.193 0.111,0.384 0.138,0.584c0.01,0.168 0.013,0.334 0.024,0.501c0.095,0.456 0.135,0.914 0.143,1.379c0.006,0.796 0.029,1.601 -0.031,2.395c-0.101,0.779 -0.286,1.533 -0.494,2.29c-0.133,0.464 0.02,0.849 0.022,1.313c0.014,0.355 -0.03,0.703 -0.073,1.055c-0.051,0.32 -0.095,0.642 -0.139,0.963l0.136,-0.052c0.15,-0.298 0.289,-0.6 0.459,-0.889c0.97,-1.86 1.515,-3.944 1.494,-6.047c-0.006,-0.614 0.018,-1.191 -0.088,-1.793c-0.059,-0.497 -0.135,-0.974 -0.299,-1.45c-0.051,-0.236 -0.1,-0.472 -0.168,-0.703c-0.139,-0.61 -0.405,-1.162 -0.619,-1.745c-0.083,-0.211 -0.213,-0.378 -0.346,-0.557c-0.138,-0.526 -0.448,-0.918 -0.772,-1.341c-0.124,0.034 -0.245,0.075 -0.367,0.115Zm-22.309,13.529c-0.09,-0.029 -0.18,-0.057 -0.27,-0.084c0.448,0.869 0.993,1.68 1.605,2.442c0.134,0.155 0.285,0.284 0.431,0.427c0.401,0.516 0.813,0.939 1.333,1.335c0.253,0.199 0.512,0.395 0.78,0.572c0.873,0.702 1.943,1.197 2.977,1.61c0.367,0.147 0.71,0.303 1.107,0.355c-0.235,-0.353 -0.69,-0.537 -1,-0.829c-0.238,-0.198 -0.462,-0.411 -0.679,-0.634c-0.319,-0.392 -0.587,-0.78 -1.019,-1.063c-0.565,-0.371 -1.135,-0.715 -1.629,-1.183c-0.506,-0.431 -0.932,-0.941 -1.438,-1.371c-0.211,-0.248 -0.386,-0.523 -0.591,-0.775c-0.162,-0.219 -0.525,-0.254 -0.772,-0.333c-0.362,-0.076 -0.582,-0.207 -0.835,-0.471Zm16.768,6.181c1.268,-0.442 2.424,-1.218 3.319,-2.219c0.56,-0.67 1.063,-1.452 1.334,-2.287c0.224,-0.583 0.423,-1.161 0.422,-1.793c0.011,-0.722 0.03,-1.45 -0.025,-2.169c-0.188,-1.266 -0.658,-2.482 -1.4,-3.528c-0.258,-0.34 -0.574,-0.731 -0.972,-0.909c-0.056,-0.023 -0.113,-0.045 -0.17,-0.067c-0.02,-0.168 -0.038,-0.334 -0.051,-0.502c0.018,-0.131 -0.002,-0.31 0.118,-0.394c0.121,-0.107 0.262,-0.194 0.396,-0.286c0.022,-0.589 -0.007,-1.168 -0.156,-1.741c-0.034,-0.107 -0.071,-0.246 -0.169,-0.311c-0.296,-0.196 -0.707,-0.258 -1.052,-0.3c-0.003,0.15 -0.001,0.301 0.001,0.451c-0.25,0.173 -0.49,0.356 -0.719,0.556c0.305,0.107 0.613,0.208 0.918,0.316c0.045,0.57 0.022,1.096 -0.084,1.659c-0.1,0.261 -0.285,0.657 -0.62,0.637c-0.336,-0.02 -0.598,-0.382 -0.776,-0.633c-0.449,-0.888 -0.654,-1.849 -0.693,-2.839c-0.178,0.008 -0.359,0.07 -0.528,0.126c0.003,0.685 0.18,1.302 0.326,1.982l-0.255,0.262c0.218,0.221 0.454,0.422 0.684,0.63c0.15,0.159 0.282,0.332 0.423,0.498c0.288,0.298 0.673,0.657 0.627,1.108c0.061,0.484 -0.427,0.776 -0.811,0.935c-0.846,0.307 -1.824,0.448 -2.721,0.376c-0.282,-0.057 -0.577,-0.132 -0.808,-0.313c-0.128,-0.119 -0.223,-0.278 -0.328,-0.416c-0.015,-0.331 0.039,-0.603 0.203,-0.891c0.342,-0.599 0.691,-1.217 0.939,-1.861c0.098,-0.108 0.205,-0.19 0.33,-0.264c-0.168,0.649 -0.433,1.274 -0.603,1.923c-0.078,0.328 -0.226,0.589 -0.103,0.93c0.229,0.196 0.406,0.287 0.716,0.263c0.697,-0.044 1.446,-0.086 2.105,-0.329c0.136,-0.058 0.376,-0.159 0.362,-0.34c-0.022,-0.271 -0.213,-0.541 -0.366,-0.76c-0.393,-0.516 -0.784,-1.032 -1.178,-1.547c-0.074,-0.059 -0.148,-0.117 -0.22,-0.177c-0.084,-0.133 -0.169,-0.265 -0.257,-0.397c0.091,-0.079 0.184,-0.158 0.274,-0.241c-0.028,-0.189 -0.053,-0.379 -0.082,-0.568c-0.484,0.032 -0.943,0.036 -1.42,-0.075c0.01,0.509 0.13,0.999 0.103,1.511c-0.227,0.115 -0.455,0.225 -0.694,0.312c-0.043,-0.452 -0.079,-0.907 -0.155,-1.355c-0.043,-0.419 -0.14,-0.822 -0.222,-1.233c-0.553,-0.213 -1.116,-0.209 -1.699,-0.193c0.053,0.217 0.121,0.429 0.199,0.638c-0.37,0.353 -0.753,0.644 -1.078,1.03c0.446,0.173 0.899,0.317 1.327,0.537c0.014,0.534 0.014,1.081 -0.067,1.61c-0.087,0.407 -0.226,0.957 -0.622,1.171c-0.149,0.013 -0.33,0.033 -0.471,-0.026c-0.248,-0.125 -0.454,-0.358 -0.618,-0.578c-0.412,-0.622 -0.719,-1.359 -0.814,-2.103c-0.017,0.014 -0.032,0.03 -0.047,0.046c-0.1,-0.64 -0.178,-1.277 -0.178,-1.926c-0.089,0.013 -0.177,0.028 -0.265,0.051c-0.349,0.2 -0.719,0.354 -1.072,0.545c-0.132,0.086 -0.315,0.166 -0.323,0.347c-0.059,0.714 0.107,1.46 0.381,2.119c0.132,0.335 0.374,0.637 0.339,1.003c-0.218,0.046 -0.537,0.171 -0.745,0.063c-0.213,-0.229 -0.321,-0.572 -0.438,-0.858c-0.228,-0.575 -0.31,-1.172 -0.405,-1.778c-0.249,-0.02 -0.5,-0.027 -0.75,-0.025c-0.023,0.512 -0.022,0.997 0.184,1.476c0.245,0.58 0.39,1.188 0.496,1.806c0.117,0.933 0.05,1.858 -0.152,2.774c-0.078,0.47 -0.217,0.818 -0.48,1.213c-0.214,0.391 -0.483,0.738 -0.767,1.08c0.09,-0.039 0.178,-0.079 0.268,-0.117c0.152,0.499 0.3,0.986 0.549,1.448c0.363,0.69 0.712,1.47 1.245,2.036c0.345,0.406 0.706,0.793 1.112,1.139c0.379,0.318 0.704,0.67 1.152,0.878c0.616,0.301 1.263,0.669 1.927,0.841c0.409,0.108 0.813,0.205 1.235,0.246c0.843,0.072 1.666,0.152 2.508,0.018c0.346,-0.058 0.658,-0.046 0.967,-0.227c-0.15,-0.025 -0.299,-0.05 -0.45,-0.068c0.352,-0.075 0.669,-0.099 1.028,-0.08c-0.027,0.056 -0.055,0.111 -0.083,0.168c0.213,-0.013 0.427,-0.019 0.641,-0.032Zm0.326,-4.081c-0.168,0.227 -0.332,0.458 -0.508,0.679c-0.116,0.128 -0.229,0.282 -0.419,0.278c-0.425,0.013 -0.833,-0.327 -1.125,-0.606c0.029,-0.078 0.058,-0.156 0.085,-0.235c0.286,-0.025 0.573,-0.034 0.857,-0.069c0.31,-0.04 0.567,-0.163 0.856,-0.269c0.088,0.071 0.172,0.147 0.256,0.222Zm1.555,0.551c-0.059,0.768 -0.622,1.497 -1.25,1.911c-0.713,0.434 -1.597,0.67 -2.431,0.551c-0.689,-0.137 -1.363,-0.465 -1.796,-1.034c-0.067,-0.222 -0.079,-0.5 0.171,-0.61c0.145,-0.047 0.363,-0.076 0.489,0.03c0.302,0.217 0.573,0.452 0.924,0.594c0.454,0.205 0.928,0.18 1.414,0.153c0.828,-0.116 1.485,-0.601 1.995,-1.242c0.164,-0.18 0.187,-0.396 0.484,-0.354Zm-7.727,-1.842c-0.52,-0.476 -0.772,-1.095 -0.943,-1.764c-0.055,-0.305 -0.044,-0.628 -0.022,-0.936c0.075,-0.422 0.354,-0.78 0.736,-0.972c0.574,-0.304 1.154,-0.282 1.784,-0.249c0.47,0.07 0.947,0.286 1.402,0.423c0.638,0.217 1.303,0.248 1.971,0.204c0.556,-0.067 1.102,-0.266 1.594,-0.529c0.211,-0.112 0.418,-0.275 0.645,-0.348c0.285,-0.047 0.598,-0.04 0.884,0c0.263,0.137 0.431,0.392 0.496,0.678c0.083,0.555 -0.047,1.072 -0.255,1.583c-0.311,0.796 -0.885,1.566 -1.637,1.991c-0.461,0.322 -0.958,0.526 -1.505,0.649c-0.972,0.221 -1.964,0.303 -2.957,0.198c-0.812,-0.108 -1.578,-0.369 -2.193,-0.928Zm5.475,-0.536c-0.196,-0.04 -0.389,-0.089 -0.581,-0.142c0.013,-0.045 0.026,-0.09 0.038,-0.136c-0.572,-0.031 -1.117,-0.178 -1.694,-0.153c-0.954,-0.01 -1.888,0.005 -2.812,0.274c-0.041,0.134 -0.083,0.268 -0.132,0.399c0.277,0.337 0.67,0.507 1.077,0.634c0.768,0.193 1.643,0.144 2.431,0.144c0.577,0.012 1.174,-0.189 1.731,-0.335c0.206,-0.05 0.315,-0.165 0.437,-0.328c-0.164,-0.122 -0.326,-0.244 -0.495,-0.359Zm2.161,-3.261c-0.302,0.015 -0.53,0.166 -0.782,0.314c-0.577,0.367 -1.252,0.585 -1.928,0.671c-0.497,0.008 -1.032,0.046 -1.516,-0.078c-0.334,-0.075 -0.659,-0.153 -0.978,-0.278c-0.359,-0.132 -0.73,-0.293 -1.115,-0.293c-0.267,-0.007 -0.538,-0.01 -0.804,0.022c-0.213,0.048 -0.425,0.147 -0.624,0.237c0.007,0.222 -0.001,0.45 0.031,0.67c0.124,0.383 0.41,0.654 0.828,0.665c1.12,0.051 2.254,0.066 3.373,-0.001c0.902,-0.091 1.839,-0.263 2.668,-0.642c0.24,-0.111 0.521,-0.225 0.707,-0.415c0.172,-0.221 0.111,-0.606 0.14,-0.871Zm-4.153,-0.052c-0.748,-0.109 -1.322,-0.51 -2.015,-0.748c-0.403,-0.156 -0.716,0.11 -1.122,0.003c0.311,-0.344 0.758,-0.464 1.208,-0.41c0.547,0.046 0.969,0.351 1.522,0.357c0.429,0.008 0.853,0.031 1.28,0.067c0.027,0.24 0.045,0.481 0.059,0.722c-0.33,0.068 -0.599,0.067 -0.931,0.009Zm1.793,-0.013c-0.033,-0.265 -0.051,-0.531 -0.08,-0.796c0.395,-0.105 0.817,-0.198 1.193,-0.354c0.226,-0.093 0.458,-0.214 0.695,-0.266c0.252,-0.055 0.529,0.006 0.78,0.048l0.002,0.261c-0.254,0.073 -0.516,0.134 -0.763,0.229c-0.316,0.123 -0.547,0.403 -0.857,0.563c-0.315,0.163 -0.646,0.189 -0.97,0.314Z" style="fill:#fff;"/><path id="path10" d="M35.268,7.89c0.747,0.073 1.465,0.32 2.075,0.762c0.354,0.313 0.711,0.608 0.922,1.029c-0.544,0.302 -1.08,0.618 -1.629,0.909c-0.261,-0.282 -0.485,-0.551 -0.856,-0.692c-0.304,-0.135 -0.594,-0.097 -0.918,-0.104c-0.691,-0.033 -1.363,0.42 -1.65,1.041c-0.221,0.427 -0.171,0.877 -0.16,1.343c0.007,0.358 0.185,0.659 0.383,0.946c0.391,0.521 1.027,0.767 1.671,0.71c0.654,0.026 1.152,-0.33 1.536,-0.824c0.493,0.258 0.974,0.546 1.449,0.835c0.078,0.039 0.164,0.132 0.103,0.219c-0.683,1.064 -1.991,1.705 -3.25,1.618c-0.869,0.042 -1.714,-0.261 -2.4,-0.786c-0.615,-0.538 -1.106,-1.181 -1.296,-1.99c-0.163,-0.566 -0.129,-1.115 -0.107,-1.699c0.06,-0.473 0.209,-0.941 0.435,-1.36c0.225,-0.411 0.57,-0.775 0.918,-1.085c0.776,-0.642 1.773,-0.925 2.773,-0.872Z" style="fill:#fff;fill-rule:nonzero;"/><path id="path12" d="M52.988,7.979c0.624,-0.008 1.25,-0.012 1.874,0.003c-0.171,0.321 -0.419,0.568 -0.638,0.854c-0.173,0.212 -0.332,0.444 -0.525,0.637c-0.545,0.066 -1.126,0.023 -1.677,0.017c0.176,-0.415 0.423,-0.785 0.631,-1.185c0.082,-0.131 0.151,-0.327 0.334,-0.326l0,-0Z" style="fill:#fff;fill-rule:nonzero;"/><path id="path14" d="M41.116,10.103c-0.328,0 -0.662,0.032 -0.927,0.183c-0.567,0.299 -1.018,0.79 -1.246,1.392c-0.185,0.404 -0.124,0.787 -0.136,1.217c0.008,0.407 -0.034,0.78 0.126,1.165c0.246,0.642 0.74,1.21 1.391,1.46c0.444,0.204 0.888,0.172 1.363,0.144c0.423,-0.056 0.722,-0.288 1.055,-0.528c0.013,0.124 0.025,0.249 0.037,0.374c0.582,0.014 1.167,0.012 1.75,0.002c-0.006,-1.622 -0.004,-3.243 -0.002,-4.863c-0.016,-0.168 0.043,-0.314 -0.119,-0.424c-0.537,-0.016 -1.077,0.002 -1.615,-0.009c-0.02,0.123 -0.039,0.245 -0.059,0.367c-0.315,-0.178 -0.675,-0.476 -1.049,-0.465c-0.178,-0.003 -0.373,-0.014 -0.57,-0.014l0,-0Zm0.455,1.615c0.149,-0.001 0.301,0.015 0.435,0.026c0.464,0.151 0.803,0.663 0.758,1.152c0.033,0.376 -0.148,0.733 -0.449,0.953c-0.475,0.326 -1.189,0.288 -1.55,-0.192c-0.278,-0.339 -0.283,-0.741 -0.214,-1.155c0.075,-0.302 0.334,-0.558 0.599,-0.707c0.125,-0.057 0.272,-0.075 0.422,-0.077Z" style="fill:#fff;fill-rule:nonzero;"/><path id="path16" d="M52.953,10.101c-0.432,-0.002 -0.864,0.043 -1.235,0.236c-0.909,0.455 -1.571,1.44 -1.506,2.477c-0.037,0.604 0.096,1.189 0.447,1.687c0.456,0.691 1.273,1.114 2.088,1.172c0.56,0.003 1.066,0.055 1.598,-0.153c0.46,-0.151 0.819,-0.422 1.13,-0.788c-0.297,-0.279 -0.624,-0.486 -0.962,-0.712c-0.091,-0.055 -0.2,-0.14 -0.31,-0.142c-0.165,0.062 -0.315,0.166 -0.474,0.243c-0.492,0.298 -1.217,0.126 -1.584,-0.299c-0.105,-0.111 -0.101,-0.258 -0.127,-0.403c0.885,-0.007 1.77,0.006 2.655,0c0.405,-0.014 0.751,0.088 1.099,-0.177c-0.004,-0.431 0.033,-0.924 -0.115,-1.333c-0.264,-0.883 -1.039,-1.6 -1.943,-1.779c-0.245,-0.012 -0.503,-0.029 -0.762,-0.03Zm0.115,1.46c0.136,-0.001 0.272,0.007 0.402,0.026c0.29,0.136 0.525,0.376 0.567,0.705c-0.67,0.01 -1.343,0.022 -2.011,-0.002c0.066,-0.317 0.323,-0.618 0.64,-0.701c0.13,-0.018 0.266,-0.028 0.402,-0.029l0,-0Z" style="fill:#fff;fill-rule:nonzero;"/><path id="path18" d="M45.648,10.243c0.168,-0.034 0.351,-0.029 0.522,-0.029c1.188,0.011 2.376,-0.006 3.564,0.009c0,0.404 0.035,0.819 -0.009,1.221c-0.247,0.394 -0.567,0.743 -0.837,1.123c-0.321,0.444 -0.699,0.857 -0.977,1.33c0.642,0.02 1.285,-0.001 1.927,0.014c0.004,0.536 -0.002,1.072 0.004,1.607c-0.93,-0.002 -1.86,-0.004 -2.789,0.001l-1.566,-0.029c0.018,-0.378 -0.025,-0.769 0.027,-1.143c0.117,-0.238 0.317,-0.455 0.478,-0.666c0.351,-0.452 0.678,-0.924 1.047,-1.362c0.127,-0.152 0.229,-0.321 0.326,-0.493c-0.573,-0.018 -1.148,-0.005 -1.721,-0.009c0.001,-0.524 -0.013,-1.05 0.003,-1.574l-0,-0Z" style="fill:#fff;fill-rule:nonzero;"/><path id="path30" d="M55.773,13.243c-0.003,0.107 -0.011,0.214 -0.018,0.322c-0.788,-0.009 -1.576,-0.001 -2.364,0.002c-0.429,0.002 -0.847,-0.02 -1.275,0.012c0.09,0.145 0.153,0.286 0.304,0.378c0.378,0.249 0.88,0.188 1.31,0.166c-0.492,0.298 -1.217,0.126 -1.584,-0.299c-0.105,-0.111 -0.101,-0.258 -0.127,-0.403c0.885,-0.007 1.77,0.006 2.656,0c0.405,-0.014 0.751,0.088 1.099,-0.177l0,0Z" style="fill:#fff;fill-rule:nonzero;"/><path id="path72" d="M31.136,17.971c0.547,0.018 1.096,0.01 1.643,0.011c2.974,0 5.948,-0.002 8.922,0.003c0.028,1.153 0.015,2.311 0.007,3.465c-1.167,0.001 -2.334,-0.006 -3.501,0.002c-0.008,0.222 -0.011,0.444 -0.011,0.666c0.001,3.329 -0.01,6.66 0.005,9.989c-1.203,-0.002 -2.406,0.008 -3.609,-0.004c-0.01,-3.552 0.002,-7.106 -0.007,-10.658c-1.15,0.013 -2.3,-0.01 -3.45,0.011c-0.014,-1.157 -0.014,-2.327 0.002,-3.486l0,0Z" style="fill:#fff;fill-rule:nonzero;"/><path id="path74" d="M42.411,17.99c1.306,-0.008 2.614,-0.007 3.92,0.001c0.17,0.678 0.387,1.343 0.564,2.019c0.689,2.518 1.421,5.01 2.121,7.526l0.135,0c0.083,-0.385 0.197,-0.764 0.301,-1.144c0.8,-2.813 1.599,-5.593 2.393,-8.411c1.298,0.014 2.603,-0.018 3.899,0.018c0.02,0.244 -0.13,0.504 -0.192,0.74c-0.547,1.766 -1.157,3.51 -1.699,5.279c-0.576,1.801 -1.193,3.589 -1.744,5.398c-0.289,0.897 -0.56,1.797 -0.877,2.684c-1.427,0.012 -2.854,0.008 -4.282,0.006c-0.172,-0.418 -0.295,-0.85 -0.436,-1.278c-0.444,-1.398 -0.887,-2.799 -1.351,-4.19c-0.77,-2.402 -1.549,-4.795 -2.323,-7.196c-0.15,-0.479 -0.344,-0.958 -0.427,-1.452l0,-0Z" style="fill:#fff;fill-rule:nonzero;"/></g></svg>