<?xml version="1.0" encoding="UTF-8" standalone="no"?><!DOCTYPE svg PUBLIC "-//W3C//DTD SVG 1.1//EN" "http://www.w3.org/Graphics/SVG/1.1/DTD/svg11.dtd"><svg width="100%" height="100%" viewBox="0 0 63 40" version="1.1" xmlns="http://www.w3.org/2000/svg" xmlns:xlink="http://www.w3.org/1999/xlink" xml:space="preserve" xmlns:serif="http://www.serif.com/" style="fill-rule:evenodd;clip-rule:evenodd;stroke-linejoin:round;stroke-miterlimit:2;"><g><path d="M30.488,10l0,11.71l-11.71,-11.71l11.71,0Z" style="fill:#fff;fill-rule:nonzero;"/><path d="M8.612,12.921c3.115,0 4.975,1.039 6.508,2.549l-2.31,2.665c-1.271,-1.155 -2.571,-1.86 -4.22,-1.86c-2.782,0 -4.786,2.309 -4.786,5.141l0,0.05c0,2.832 1.955,5.185 4.786,5.186c1.888,0 3.043,-0.755 4.336,-1.932l2.31,2.332c-1.699,1.816 -3.587,2.949 -6.769,2.949c-4.858,-0 -8.467,-3.748 -8.467,-8.49l0.005,-0.011l0,-0.044c0,-4.692 3.537,-8.534 8.606,-8.534Z" style="fill:#fff;fill-rule:nonzero;"/><path d="M55.952,12.921c3.115,0 4.975,1.039 6.508,2.549l-2.31,2.665c-1.272,-1.155 -2.571,-1.86 -4.22,-1.86c-2.782,0 -4.786,2.309 -4.786,5.141l0,0.05c0,2.832 1.955,5.185 4.786,5.186c1.888,0 3.043,-0.755 4.336,-1.932l2.311,2.332c-1.699,1.816 -3.587,2.949 -6.769,2.949c-4.858,0 -8.467,-3.748 -8.467,-8.49l0.005,-0.011l0,-0.044c0,-4.692 3.537,-8.534 8.606,-8.534Z" style="fill:#fff;fill-rule:nonzero;"/><path d="M40.416,13.209c1.888,0 3.37,0.517 4.314,1.46c0.755,0.755 1.132,1.671 1.132,2.804l0,0.044c0,1.86 -0.994,2.898 -2.171,3.559l0.005,0.011c1.91,0.727 3.087,1.838 3.087,4.053l0,0.05c-0,3.015 -2.454,4.525 -6.179,4.525l-5.32,0l-2.532,-2.532l0,-13.976l7.663,0Zm-4.125,9.684l0,3.631l4.314,0c1.605,-0 2.571,-0.567 2.571,-1.794l0,-0.044c0,-1.11 -0.822,-1.794 -2.687,-1.794l-4.198,0Zm0,-3.021l3.348,0c1.599,-0 2.615,-0.516 2.615,-1.743l0,-0.044c0,-1.088 -0.849,-1.699 -2.382,-1.699l-3.581,0l0,3.487Z" style="fill:#fff;"/><path d="M19.828,14.253l12.92,12.92l0,2.532l-2.532,0l-10.388,-10.383l0,10.383l-3.581,0l0,-16.507l2.531,0l1.05,1.055Z" style="fill:#fff;fill-rule:nonzero;"/></g></svg>