<?xml version="1.0" encoding="UTF-8" standalone="no"?><!DOCTYPE svg PUBLIC "-//W3C//DTD SVG 1.1//EN" "http://www.w3.org/Graphics/SVG/1.1/DTD/svg11.dtd"><svg width="100%" height="100%" viewBox="0 0 35 40" version="1.1" xmlns="http://www.w3.org/2000/svg" xmlns:xlink="http://www.w3.org/1999/xlink" xml:space="preserve" xmlns:serif="http://www.serif.com/" style="fill-rule:evenodd;clip-rule:evenodd;stroke-linejoin:round;stroke-miterlimit:2;"><path id="path2987" d="M10,10c-5.523,0 -10,4.477 -10,10c0,5.523 4.477,10 10,10c2.968,0 5.634,-1.293 7.465,-3.346c1.831,2.053 4.497,3.346 7.465,3.346c5.523,0 10,-4.477 10,-10c0,-5.523 -4.477,-10 -10,-10c-2.968,0 -5.634,1.293 -7.465,3.346c-1.831,-2.053 -4.497,-3.346 -7.465,-3.346Zm0,2.188c4.315,0 7.812,3.498 7.812,7.812c0,4.315 -3.498,7.812 -7.812,7.812c-4.315,0 -7.812,-3.498 -7.812,-7.812c0,-4.315 3.498,-7.812 7.812,-7.812Zm-4.245,4.016l0,7.726l5.137,0c2.342,0 4.194,-1.446 4.194,-3.863c-0,-2.417 -1.939,-3.863 -4.194,-3.863l-5.137,0Zm13.938,0.538l2.307,0l1.038,3.587l1.297,-3.587l1.755,0l1.297,3.604l1.038,-3.604l2.307,0l-2.164,6.84l-1.981,0l-1.382,-3.338l-1.401,3.338l-1.947,0l-2.164,-6.84Zm-11.49,1.695l2.327,0c1.238,0 1.951,0.598 1.951,1.647c0,1.042 -0.67,1.595 -1.916,1.595l-2.362,0l0,-3.242Z" style="fill:#fff;fill-rule:nonzero;"/></svg>