<?xml version="1.0" encoding="UTF-8" standalone="no"?><!DOCTYPE svg PUBLIC "-//W3C//DTD SVG 1.1//EN" "http://www.w3.org/Graphics/SVG/1.1/DTD/svg11.dtd"><svg width="100%" height="100%" viewBox="0 0 47 40" version="1.1" xmlns="http://www.w3.org/2000/svg" xmlns:xlink="http://www.w3.org/1999/xlink" xml:space="preserve" xmlns:serif="http://www.serif.com/" style="fill-rule:evenodd;clip-rule:evenodd;stroke-linejoin:round;stroke-miterlimit:2;"><g><g><path d="M12.714,0.029c-1.094,0.062 -1.551,0.101 -1.97,0.157c-0.245,0.036 -0.647,0.088 -0.888,0.118c-0.536,0.065 -1.215,0.186 -1.633,0.291c-1.189,0.297 -2.355,0.634 -2.662,0.768c-0.496,0.216 -0.66,0.294 -0.875,0.421c-0.555,0.33 -0.758,0.608 -0.872,1.209c-0.059,0.314 -0.121,0.852 -0.105,0.96c0.007,0.072 -0.101,0.173 -0.483,0.441c-0.516,0.363 -1.078,0.823 -1.365,1.117c-0.232,0.242 -0.539,0.647 -0.653,0.869c-0.062,0.124 -0.235,0.673 -0.235,0.751c0,0.075 0.124,0.415 0.415,1.137l0.118,0.291l-0.163,0.167c-0.268,0.274 -0.568,0.706 -0.957,1.372c-0.157,0.271 -0.209,0.392 -0.222,0.519c-0.029,0.297 0.082,0.901 0.402,2.195c0.219,0.875 0.539,1.917 0.97,3.139c0.124,0.356 0.232,0.686 0.232,0.728c0.007,0.069 -0.023,0.091 -0.216,0.17c-0.281,0.114 -0.402,0.209 -0.653,0.503c-0.314,0.369 -0.585,0.944 -0.689,1.473c-0.029,0.15 -0.154,1.075 -0.183,1.388c-0.118,1.176 0.193,2.198 0.964,3.185c0.487,0.624 1.029,0.999 1.682,1.163c0.225,0.059 0.34,0.069 0.65,0.056c0.336,-0.013 0.408,-0.026 0.621,-0.121c0.134,-0.056 0.317,-0.154 0.405,-0.219c0.088,-0.062 0.163,-0.111 0.167,-0.105c0.026,0.029 0.268,0.63 0.428,1.055c0.287,0.761 0.464,1.16 0.777,1.78c0.634,1.241 1.46,2.574 2.228,3.59c0.63,0.836 1.081,1.336 1.8,1.999c0.539,0.493 0.542,0.5 0.526,0.614c-0.01,0.065 -0.056,0.385 -0.101,0.715c-0.127,0.901 -0.173,1.075 -0.294,1.101c-0.036,0.01 -0.774,0.02 -1.636,0.026c-0.862,0.007 -1.6,0.023 -1.64,0.036c-0.069,0.026 -0.069,0.02 -0.082,-0.33c-0.01,-0.317 -0.023,-0.372 -0.114,-0.555c-0.098,-0.199 -0.098,-0.199 -0.029,-0.219c0.036,-0.01 0.114,-0.02 0.167,-0.02c0.235,-0.003 0.598,-0.252 0.722,-0.496c0.108,-0.212 0.163,-0.444 0.258,-1.058c0.069,-0.444 0.075,-0.555 0.046,-0.725c-0.065,-0.359 -0.252,-0.539 -0.666,-0.63c-0.252,-0.059 -4.4,-0.049 -4.687,0.007c-0.327,0.065 -0.559,0.238 -0.666,0.503c-0.026,0.062 -0.131,0.608 -0.232,1.215c-0.101,0.608 -0.225,1.339 -0.278,1.627c-0.137,0.764 -0.203,1.14 -0.477,2.809c-0.196,1.186 -0.245,1.551 -0.235,1.731c0.026,0.379 0.18,0.594 0.519,0.722c0.131,0.052 0.356,0.056 2.43,0.049c1.356,-0.003 2.345,-0.02 2.433,-0.039c0.082,-0.016 0.219,-0.078 0.304,-0.137c0.274,-0.183 0.382,-0.431 0.526,-1.195c0.026,-0.15 0.065,-0.291 0.085,-0.31c0.042,-0.042 2.753,-0.052 2.796,-0.013c0.013,0.013 -0.01,0.229 -0.052,0.477c-0.098,0.614 -0.085,0.918 0.049,1.107c0.134,0.186 0.392,0.333 0.653,0.376c0.118,0.016 0.555,0.026 0.973,0.02l0.758,-0.01l0.193,-0.095c0.327,-0.163 0.483,-0.425 0.627,-1.048c0.026,-0.127 0.059,-0.294 0.069,-0.376c0.01,-0.082 0.046,-0.31 0.078,-0.506c0.036,-0.199 0.078,-0.457 0.098,-0.575l0.036,-0.219l0.147,-0.02c0.082,-0.01 0.385,-0.02 0.676,-0.02c0.291,0 0.621,-0.016 0.738,-0.039c0.118,-0.02 0.258,-0.039 0.31,-0.039c0.147,-0.003 0.144,0.016 -0.163,0.79c-0.242,0.614 -0.32,0.921 -0.294,1.143c0.046,0.428 0.274,0.624 0.817,0.696c0.408,0.052 1.578,0.023 1.796,-0.049c0.271,-0.085 0.464,-0.261 0.64,-0.575c0.284,-0.506 0.248,-0.474 0.48,-0.483c0.238,-0.01 0.245,-0.003 0.3,0.385c0.078,0.552 0.189,0.748 0.496,0.885l0.173,0.078l1.633,-0.003c1.734,-0.003 2.205,-0.033 2.528,-0.154c0.186,-0.069 0.425,-0.261 0.519,-0.421c0.069,-0.121 0.124,-0.114 0.189,0.013c0.088,0.17 0.323,0.382 0.523,0.474l0.186,0.085l0.869,-0.02c0.937,-0.02 1.202,-0.049 1.457,-0.167c0.235,-0.108 0.369,-0.235 0.457,-0.434c0.042,-0.095 0.095,-0.173 0.111,-0.173c0.036,0 0.183,0.078 0.389,0.206c0.699,0.444 1.542,0.647 2.473,0.601c0.712,-0.036 1.228,-0.16 1.865,-0.444c0.167,-0.075 0.32,-0.134 0.343,-0.134c0.026,0 0.111,0.046 0.193,0.098c0.238,0.16 0.415,0.196 1.062,0.219c0.653,0.02 1.189,-0.02 1.434,-0.111c0.242,-0.091 0.402,-0.248 0.542,-0.539c0.069,-0.14 0.14,-0.297 0.157,-0.349c0.029,-0.082 0.056,-0.101 0.176,-0.118c0.078,-0.013 0.193,-0.016 0.255,-0.01c0.111,0.01 0.114,0.013 0.14,0.189c0.016,0.098 0.042,0.278 0.059,0.398c0.049,0.304 0.193,0.536 0.398,0.64c0.225,0.111 0.461,0.137 1.333,0.14c1.104,0.003 1.202,-0.033 1.512,-0.536c0.065,-0.108 0.173,-0.114 0.291,-0.023c0.15,0.121 0.624,0.323 0.937,0.405c0.807,0.212 1.672,0.203 2.574,-0.026c0.186,-0.049 0.415,-0.118 0.506,-0.157c0.5,-0.206 1.022,-0.614 1.316,-1.026c0.189,-0.265 0.421,-0.758 0.49,-1.042c0.065,-0.271 0.075,-0.957 0.016,-1.205c-0.072,-0.307 -0.291,-0.692 -0.542,-0.96c-0.127,-0.137 -0.242,-0.278 -0.255,-0.307c-0.026,-0.075 0.16,-0.3 0.712,-0.859c0.784,-0.794 0.911,-1.003 0.836,-1.362c-0.154,-0.712 -1.052,-1.437 -2.143,-1.731c-0.366,-0.098 -0.428,-0.108 -0.915,-0.105c-0.578,0 -0.869,0.039 -1.303,0.18c-0.346,0.114 -0.931,0.392 -1.235,0.591c-0.395,0.255 -0.843,0.735 -1.12,1.202c-0.072,0.118 -0.15,0.238 -0.176,0.271c-0.049,0.056 -0.049,0.056 -0.072,-0.003c-0.042,-0.111 -0.065,-0.408 -0.075,-0.986c-0.013,-0.581 -0.026,-0.663 -0.16,-0.859c-0.114,-0.167 -0.284,-0.114 -0.719,0.235c-0.157,0.124 -0.395,0.265 -0.451,0.265c-0.016,0 -0.144,0.056 -0.281,0.121c-0.14,0.065 -0.349,0.154 -0.467,0.199c-0.118,0.042 -0.271,0.101 -0.343,0.127c-0.189,0.072 -1.372,0.363 -1.584,0.389c-0.098,0.013 -0.212,0.033 -0.248,0.049c-0.062,0.02 -0.069,0.016 -0.052,-0.042c0.013,-0.052 0.003,-0.062 -0.046,-0.046c-0.033,0.01 -0.157,0.042 -0.274,0.072c-0.118,0.029 -0.245,0.072 -0.287,0.101c-0.049,0.029 -0.111,0.039 -0.173,0.026c-0.052,-0.013 -0.189,-0.01 -0.307,0c-0.176,0.02 -0.212,0.036 -0.232,0.091c-0.013,0.039 -0.078,0.147 -0.147,0.238c-0.144,0.193 -1.186,1.271 -1.372,1.421l-0.121,0.095l-0.242,-0.18c-0.3,-0.229 -0.823,-0.487 -1.12,-0.559c-0.539,-0.124 -0.98,0.039 -0.836,0.307c0.046,0.085 0.389,0.258 0.95,0.48c1.408,0.555 1.914,0.964 2.107,1.698c0.176,0.679 -0.144,1.594 -0.758,2.175c-0.526,0.496 -1.271,0.722 -2.378,0.722c-0.575,0 -0.82,-0.029 -1.209,-0.144c-0.614,-0.18 -1.303,-0.692 -1.509,-1.117l-0.056,-0.118l0.098,-0.101c0.222,-0.238 1.45,-1.369 1.486,-1.369c0.02,0 0.14,0.091 0.271,0.206c0.725,0.643 1.022,0.807 1.463,0.807c0.245,0 0.382,-0.049 0.464,-0.17c0.144,-0.203 -0.039,-0.379 -0.64,-0.611c-1.062,-0.412 -1.215,-0.477 -1.45,-0.614c-0.83,-0.487 -1.173,-1.284 -0.973,-2.257c0.056,-0.281 0.154,-0.529 0.206,-0.529c0.02,0 0.036,0.02 0.036,0.046c0,0.033 0.052,0.046 0.189,0.049c0.101,0 0.261,0.016 0.349,0.036c0.091,0.016 0.398,0.056 0.686,0.082c0.284,0.029 0.529,0.059 0.542,0.069c0.056,0.033 0.941,0.111 1.369,0.118c0.722,0.013 1.894,-0.016 1.894,-0.046c0,-0.013 0.01,-0.023 0.026,-0.02c0.062,0.023 0.532,-0.51 0.552,-0.621c0.007,-0.049 -0.069,-0.049 -0.594,0.023c-0.67,0.088 -1.911,0.098 -2.76,0.023c-0.297,-0.029 -0.728,-0.065 -0.964,-0.085c-0.232,-0.02 -0.477,-0.049 -0.542,-0.069c-0.065,-0.016 -0.203,-0.033 -0.3,-0.033c-0.157,-0.003 -0.196,0.007 -0.255,0.072c-0.046,0.056 -0.042,0.039 0.016,-0.052c0.046,-0.072 0.085,-0.14 0.085,-0.154c0,-0.02 -0.173,-0.046 -0.506,-0.072c-0.154,-0.013 -0.167,-0.007 -0.281,0.114c-0.065,0.069 -0.134,0.127 -0.154,0.127c-0.02,0 -0.046,-0.052 -0.059,-0.114c-0.023,-0.127 -0.163,-0.265 -0.3,-0.297c-0.206,-0.046 -0.549,-0.157 -0.588,-0.186c-0.075,-0.059 -0.082,0.003 -0.01,0.101c0.098,0.14 0.088,0.147 -0.085,0.046c-0.088,-0.049 -0.216,-0.095 -0.287,-0.101c-0.121,-0.007 -0.562,-0.131 -0.719,-0.199c-0.036,-0.016 -0.118,-0.039 -0.18,-0.049c-0.062,-0.013 -0.157,-0.042 -0.212,-0.069c-0.052,-0.023 -0.245,-0.095 -0.425,-0.154c-0.359,-0.124 -0.542,-0.203 -0.673,-0.291c-0.062,-0.042 -0.17,-0.059 -0.408,-0.069l-0.323,-0.01l0.333,-0.007c0.183,-0.003 0.343,-0.023 0.353,-0.039c0.01,-0.02 0,-0.033 -0.023,-0.033c-0.026,0 -0.271,-0.098 -0.549,-0.219c-0.555,-0.238 -0.712,-0.271 -1.016,-0.206c-0.167,0.036 -0.225,0.069 -0.359,0.199c-0.238,0.232 -0.314,0.428 -0.461,1.202c-0.176,0.924 -0.16,0.856 -0.193,0.738c-0.013,-0.056 -0.039,-0.408 -0.059,-0.784c-0.02,-0.434 -0.049,-0.745 -0.082,-0.849c-0.072,-0.235 -0.212,-0.389 -0.438,-0.48c-0.183,-0.072 -0.216,-0.075 -1.558,-0.085c-0.924,-0.007 -1.437,0 -1.568,0.026c-0.238,0.046 -0.519,0.173 -0.663,0.307c-0.082,0.078 -0.114,0.091 -0.134,0.059c-0.042,-0.072 -0.095,-0.532 -0.137,-1.182c-0.02,-0.333 -0.049,-0.663 -0.062,-0.735c-0.033,-0.15 -0.01,-0.199 0.229,-0.457c0.082,-0.091 0.222,-0.252 0.31,-0.359c0.091,-0.108 0.287,-0.343 0.444,-0.523c0.154,-0.18 0.323,-0.392 0.379,-0.474c0.056,-0.082 0.127,-0.173 0.163,-0.203c0.059,-0.056 0.069,-0.052 0.193,0.075c0.474,0.493 1.63,1.385 2.642,2.045c0.356,0.232 1.179,0.702 1.715,0.98c0.415,0.219 0.598,0.3 1.486,0.683c0.735,0.314 2.309,0.817 3.087,0.986c0.549,0.121 0.657,0.137 1.349,0.235c1.238,0.173 1.734,0.209 2.995,0.212c1.467,0 2.1,-0.052 3.201,-0.274c0.885,-0.176 1.764,-0.398 2.286,-0.581c0.689,-0.238 2.42,-1.111 2.979,-1.499c0.496,-0.346 0.617,-0.434 0.826,-0.598c0.761,-0.598 1.222,-1.042 1.979,-1.898c0.545,-0.617 1.16,-1.421 1.411,-1.845c0.235,-0.392 0.918,-1.751 1.104,-2.195c0.206,-0.493 0.343,-1.006 0.474,-1.774c0.072,-0.415 0.088,-0.614 0.091,-1.094c0,-0.601 -0.013,-0.712 -0.163,-1.408c-0.199,-0.901 -0.885,-1.839 -1.698,-2.316c-0.34,-0.199 -0.444,-0.245 -0.813,-0.349c-0.379,-0.105 -1.186,-0.105 -1.698,0.003c-0.794,0.167 -1.042,0.291 -3.025,1.493c-0.725,0.438 -1.254,0.709 -1.829,0.931c-0.768,0.297 -0.905,0.353 -1.026,0.408c-0.15,0.069 -0.931,0.33 -1.218,0.408c-1.006,0.268 -1.31,0.34 -1.95,0.454c-0.722,0.127 -1.767,0.265 -2.267,0.294c-0.833,0.052 -2.198,0.059 -2.616,0.013c-0.206,-0.023 -0.552,-0.059 -0.768,-0.078c-0.8,-0.072 -1.46,-0.167 -1.963,-0.278c-1.3,-0.291 -1.676,-0.389 -2.234,-0.572c-0.154,-0.052 -0.496,-0.163 -0.768,-0.248c-0.519,-0.163 -0.813,-0.291 -0.908,-0.398c-0.036,-0.039 -0.082,-0.199 -0.124,-0.434c-0.124,-0.692 -0.186,-0.96 -0.268,-1.179c-0.065,-0.163 -0.075,-0.225 -0.046,-0.248c0.091,-0.072 0.99,-0.591 1.731,-0.999c0.216,-0.121 0.219,-0.121 0.219,-0.258c0,-0.154 -0.046,-0.581 -0.098,-0.888c-0.016,-0.108 -0.062,-0.389 -0.101,-0.621c-0.036,-0.235 -0.101,-0.555 -0.144,-0.712l-0.075,-0.287l0.15,-0.219c0.317,-0.461 0.585,-0.934 0.97,-1.705c0.379,-0.751 0.741,-1.594 0.787,-1.813c0.016,-0.085 -0.023,-0.154 -0.32,-0.545c-0.186,-0.245 -0.467,-0.611 -0.627,-0.813l-0.291,-0.366l0.039,-0.199c0.02,-0.108 0.065,-0.594 0.101,-1.078l0.062,-0.882l-0.082,-0.108c-0.33,-0.434 -2.068,-2.368 -2.512,-2.796c-0.15,-0.147 -0.97,-0.849 -1.205,-1.032c-0.056,-0.046 -0.196,-0.163 -0.314,-0.265c-0.885,-0.758 -1.78,-1.297 -2.62,-1.571c-0.376,-0.124 -0.614,-0.167 -1.284,-0.225c-0.392,-0.036 -1.78,-0.033 -2.417,0.003Zm2.698,0.699c0.366,0.029 0.751,0.072 0.856,0.098c0.199,0.052 0.578,0.189 0.692,0.252c0.036,0.02 0.189,0.101 0.343,0.183c0.353,0.183 0.719,0.395 0.784,0.451c0.029,0.023 0.154,0.098 0.278,0.167c0.395,0.219 1.362,1.032 2.103,1.774c0.66,0.657 1.989,2.156 2.136,2.404c0.013,0.023 0.003,0.232 -0.023,0.461c-0.026,0.229 -0.059,0.542 -0.069,0.696c-0.01,0.154 -0.052,0.428 -0.088,0.614l-0.069,0.333l0.137,0.173c0.075,0.091 0.199,0.252 0.271,0.349c0.075,0.098 0.209,0.261 0.297,0.359c0.091,0.098 0.245,0.287 0.343,0.418l0.176,0.242l-0.121,0.265c-0.212,0.467 -0.376,0.81 -0.604,1.28c-0.124,0.252 -0.281,0.581 -0.353,0.735c-0.072,0.154 -0.18,0.343 -0.238,0.425l-0.108,0.147l-0.056,-0.278c-0.065,-0.31 -0.075,-0.51 -0.033,-0.536c0.016,-0.01 0.069,-0.105 0.121,-0.206c0.049,-0.105 0.147,-0.281 0.216,-0.395c0.069,-0.111 0.124,-0.212 0.124,-0.222c0,-0.013 0.036,-0.105 0.078,-0.206c0.042,-0.101 0.105,-0.271 0.137,-0.379c0.056,-0.193 0.056,-0.196 -0.016,-0.408c-0.042,-0.118 -0.124,-0.294 -0.183,-0.392c-0.059,-0.098 -0.154,-0.274 -0.212,-0.392c-0.056,-0.118 -0.242,-0.398 -0.412,-0.621c-0.17,-0.225 -0.366,-0.496 -0.441,-0.601c-0.072,-0.108 -0.196,-0.268 -0.271,-0.359c-0.078,-0.091 -0.167,-0.216 -0.196,-0.274c-0.091,-0.18 0.013,-0.127 0.353,0.173c0.17,0.154 0.323,0.278 0.34,0.278c0.059,0 0.114,-0.189 0.127,-0.457c0.016,-0.245 0.003,-0.327 -0.088,-0.653c-0.056,-0.206 -0.124,-0.421 -0.15,-0.48c-0.026,-0.056 -0.046,-0.114 -0.046,-0.131c-0.003,-0.056 -0.219,-0.457 -0.359,-0.663c-0.15,-0.225 -0.755,-0.843 -1.192,-1.231c-0.144,-0.124 -0.402,-0.353 -0.572,-0.506c-0.526,-0.467 -1.323,-1.045 -2.146,-1.548c-0.238,-0.144 -0.523,-0.333 -0.755,-0.506c-0.14,-0.098 -0.281,-0.193 -0.317,-0.206c-0.118,-0.046 -1.352,-0.098 -2.205,-0.095c-1.578,0.003 -2.453,0.042 -3.021,0.131c-0.287,0.042 -0.624,0.091 -0.751,0.108c-0.608,0.082 -0.794,0.105 -0.931,0.121c-0.082,0.01 -0.16,0.029 -0.18,0.042c-0.016,0.013 -0.111,0.036 -0.206,0.049c-0.294,0.039 -1.542,0.47 -1.568,0.539c-0.007,0.016 -0.033,0.02 -0.062,0.01c-0.039,-0.016 -0.046,-0.01 -0.026,0.023c0.016,0.029 0.013,0.036 -0.01,0.02c-0.023,-0.013 -0.069,0.007 -0.108,0.042c-0.039,0.036 -0.085,0.059 -0.098,0.049c-0.026,-0.013 -0.66,0.284 -0.993,0.467c-0.467,0.258 -0.97,0.581 -1.143,0.732c-0.17,0.15 -0.297,0.425 -0.372,0.813c-0.085,0.408 -0.085,0.591 -0.007,1.258c0.036,0.287 0.059,0.526 0.056,0.532c-0.007,0.003 -0.075,-0.007 -0.154,-0.023c-0.203,-0.049 -0.568,-0.042 -1.026,0.013c-0.751,0.088 -1.022,0.163 -1.329,0.363c-0.124,0.078 -0.232,0.144 -0.242,0.144c-0.033,0 0.111,-0.176 0.336,-0.412c0.496,-0.523 1.424,-1.287 1.894,-1.561l0.199,-0.118l0.02,-0.317c0.013,-0.176 0.042,-0.402 0.069,-0.5c0.026,-0.098 0.078,-0.34 0.114,-0.532c0.075,-0.415 0.108,-0.464 0.457,-0.699c0.513,-0.343 1.006,-0.568 1.689,-0.764c1.048,-0.304 1.868,-0.51 2.329,-0.585c0.118,-0.02 0.294,-0.049 0.392,-0.069c0.098,-0.016 0.343,-0.052 0.539,-0.078c0.199,-0.026 0.523,-0.078 0.719,-0.114c0.657,-0.124 1.006,-0.16 1.94,-0.193c0.51,-0.02 0.937,-0.042 0.944,-0.052c0.036,-0.036 1.31,-0.013 1.937,0.033Zm-3.955,4.916c0.154,0.016 0.418,0.059 0.588,0.098c0.17,0.036 0.474,0.095 0.67,0.131c0.545,0.095 1.352,0.359 2.025,0.66c0.163,0.072 0.359,0.16 0.441,0.196c0.261,0.114 0.555,0.265 0.575,0.291c0.01,0.016 0.046,0.029 0.082,0.029c0.085,0 0.425,0.18 0.604,0.314l0.137,0.108l0.242,-0.268c0.261,-0.287 0.66,-0.601 0.901,-0.709c0.611,-0.271 1.003,-0.167 1.597,0.421c0.245,0.242 0.643,0.794 0.82,1.13c0.34,0.653 0.689,1.646 0.905,2.58c0.147,0.643 0.18,0.777 0.327,1.372c0.078,0.323 0.173,0.787 0.212,1.029c0.039,0.242 0.101,0.588 0.137,0.768c0.196,0.967 0.216,1.104 0.16,1.042c-0.016,-0.016 -0.189,-0.346 -0.385,-0.735c-0.47,-0.924 -0.784,-1.342 -1.362,-1.819c-0.356,-0.294 -0.441,-0.356 -0.804,-0.578c-0.591,-0.363 -1.032,-0.594 -1.068,-0.559c-0.016,0.013 -0.033,0.408 -0.042,0.875l-0.016,0.849l0.088,0.078c0.049,0.039 0.265,0.167 0.474,0.278c0.212,0.111 0.496,0.271 0.63,0.356c0.134,0.082 0.33,0.203 0.431,0.265c0.405,0.242 0.973,0.764 1.44,1.32c0.366,0.434 0.741,0.937 0.741,0.99c0,0.052 -0.8,0.503 -1.591,0.892c-0.219,0.108 -0.415,0.219 -0.438,0.245c-0.033,0.039 -0.02,0.091 0.078,0.284c0.101,0.199 0.33,0.967 0.389,1.303c0.023,0.118 -0.01,0.114 -0.216,-0.013c-0.242,-0.15 -0.771,-0.418 -0.826,-0.418c-0.042,0 0.098,-0.291 0.252,-0.523c0.029,-0.046 0.078,-0.15 0.108,-0.235c0.046,-0.14 0.046,-0.157 -0.007,-0.206c-0.065,-0.056 -0.359,-0.114 -0.585,-0.114l-0.14,0l0.059,-0.101c0.033,-0.059 0.199,-0.268 0.372,-0.47c0.173,-0.199 0.314,-0.389 0.314,-0.421c0,-0.072 -0.392,-0.496 -0.516,-0.559c-0.216,-0.114 -0.483,-0.007 -0.859,0.343c-0.363,0.343 -0.451,0.526 -0.519,1.091l-0.039,0.323l-0.17,-0.144c-0.095,-0.078 -0.353,-0.307 -0.578,-0.506c-0.408,-0.366 -0.706,-0.594 -0.706,-0.542c0,0.088 0.392,0.575 0.794,0.98c1.199,1.215 1.463,1.404 3.093,2.231c0.96,0.483 1.594,0.732 2.904,1.127c0.931,0.284 2.629,0.614 3.515,0.683c0.144,0.01 0.503,0.042 0.8,0.072c0.944,0.088 3.354,0.02 4.262,-0.121c0.108,-0.016 0.366,-0.056 0.572,-0.082c0.676,-0.095 0.941,-0.154 2.515,-0.568c0.392,-0.101 0.559,-0.157 0.996,-0.33c0.144,-0.056 0.379,-0.147 0.523,-0.203c1.078,-0.402 1.728,-0.696 2.368,-1.071c0.225,-0.131 0.549,-0.317 0.719,-0.415c0.17,-0.098 0.366,-0.212 0.434,-0.258c0.457,-0.297 0.918,-0.562 1.205,-0.699c0.513,-0.238 1.111,-0.353 1.676,-0.314c0.431,0.029 0.559,0.062 0.947,0.245c0.836,0.395 1.388,1.189 1.617,2.332c0.17,0.833 0.036,2.192 -0.327,3.299c-0.199,0.611 -1.071,2.215 -1.623,2.982c-0.699,0.977 -1.6,1.976 -2.296,2.538c-0.134,0.111 -0.252,0.209 -0.261,0.219c-0.01,0.013 -0.134,0.108 -0.278,0.216c-0.79,0.594 -1.943,1.244 -3.031,1.708c-0.392,0.17 -1.127,0.405 -1.476,0.477c-0.144,0.029 -0.363,0.078 -0.49,0.111c-0.124,0.033 -0.389,0.095 -0.588,0.134c-0.196,0.039 -0.402,0.085 -0.457,0.098c-0.438,0.118 -1.966,0.225 -3.005,0.212c-0.996,-0.016 -1.28,-0.039 -2.499,-0.216c-0.879,-0.127 -1.682,-0.304 -2.368,-0.523c-0.16,-0.049 -0.447,-0.137 -0.637,-0.193c-0.624,-0.183 -1.574,-0.562 -2.335,-0.931c-0.196,-0.095 -0.483,-0.232 -0.637,-0.307c-0.154,-0.072 -0.379,-0.189 -0.506,-0.258c-0.124,-0.069 -0.317,-0.173 -0.425,-0.232c-0.588,-0.323 -1.78,-1.169 -2.499,-1.774c-0.222,-0.186 -0.513,-0.425 -0.65,-0.536c-0.699,-0.559 -1.352,-1.29 -2.241,-2.508c-0.072,-0.098 -0.16,-0.196 -0.196,-0.216c-0.036,-0.02 -0.124,-0.118 -0.196,-0.219c-0.072,-0.101 -0.206,-0.274 -0.3,-0.385c-0.154,-0.186 -0.183,-0.206 -0.327,-0.222c-0.144,-0.016 -0.673,-0.17 -0.908,-0.261c-0.137,-0.052 -0.336,-0.238 -0.418,-0.395c-0.062,-0.121 -0.072,-0.183 -0.069,-0.575c0.003,-0.369 0.016,-0.493 0.091,-0.764c0.046,-0.176 0.078,-0.349 0.065,-0.385c-0.016,-0.052 -0.029,-0.046 -0.118,0.062c-0.229,0.284 -0.363,0.735 -0.366,1.202c0,0.3 0.01,0.343 0.108,0.549c0.189,0.395 0.549,0.67 1.163,0.885c0.14,0.052 0.183,0.088 0.31,0.278c0.379,0.562 1.349,1.823 1.725,2.241c0.082,0.088 0.278,0.297 0.441,0.464l0.294,0.3l-0.111,0.14c-0.284,0.369 -0.879,1.075 -1.369,1.627c-0.418,0.474 -0.402,0.431 -0.363,0.843c0.02,0.193 0.042,0.643 0.056,0.999l0.023,0.65l-0.111,-0.026c-0.252,-0.056 -0.415,-0.078 -0.585,-0.082c-0.098,0 -0.252,-0.023 -0.34,-0.049c-0.114,-0.036 -0.402,-0.052 -1.045,-0.065c-0.526,-0.013 -1.137,-0.046 -1.506,-0.085c-0.34,-0.036 -0.817,-0.065 -1.058,-0.065c-0.395,0.003 -0.454,0.01 -0.604,0.082c-0.091,0.046 -0.199,0.108 -0.235,0.144c-0.101,0.085 -0.235,0.366 -0.278,0.568c-0.02,0.095 -0.056,0.225 -0.078,0.291c-0.026,0.065 -0.036,0.131 -0.023,0.144c0.013,0.016 -0.003,0.013 -0.033,-0.003c-0.111,-0.059 -1.016,-0.947 -1.293,-1.264c-0.353,-0.405 -0.536,-0.657 -1.022,-1.395c-0.758,-1.146 -1.009,-1.551 -1.251,-2.028c-0.088,-0.17 -0.186,-0.343 -0.216,-0.389c-0.065,-0.091 -0.395,-0.771 -0.405,-0.826c-0.003,-0.023 -0.046,-0.105 -0.091,-0.186c-0.078,-0.131 -0.601,-1.424 -0.663,-1.633c-0.013,-0.046 -0.042,-0.105 -0.065,-0.131c-0.052,-0.065 -0.265,-0.732 -0.294,-0.924c-0.013,-0.085 -0.036,-0.16 -0.049,-0.17c-0.013,-0.007 -0.127,0.078 -0.252,0.193c-0.294,0.265 -0.555,0.421 -0.856,0.51c-0.206,0.062 -0.284,0.072 -0.539,0.052c-0.379,-0.026 -0.784,-0.134 -0.918,-0.248c-0.036,-0.029 -0.131,-0.088 -0.212,-0.127c-0.203,-0.105 -0.516,-0.385 -0.741,-0.666c-0.235,-0.294 -0.67,-1.143 -0.777,-1.525c-0.17,-0.601 -0.183,-1.329 -0.046,-2.205c0.163,-1.045 0.242,-1.297 0.49,-1.568c0.206,-0.222 0.291,-0.258 0.585,-0.235c0.3,0.02 0.545,0.111 0.856,0.314c0.513,0.333 1.013,0.866 1.297,1.382c0.186,0.33 0.235,0.317 0.31,-0.075c0.026,-0.134 0.069,-0.307 0.095,-0.389c0.026,-0.082 0.075,-0.265 0.105,-0.408c0.059,-0.284 0.33,-1.388 0.438,-1.78c0.036,-0.137 0.14,-0.483 0.232,-0.768c0.095,-0.287 0.18,-0.568 0.196,-0.621c0.013,-0.056 0.056,-0.186 0.095,-0.294c0.088,-0.252 0.088,-0.291 -0.026,-0.578c-0.052,-0.131 -0.121,-0.343 -0.154,-0.467c-0.029,-0.127 -0.065,-0.245 -0.078,-0.261c-0.013,-0.02 -0.059,-0.15 -0.098,-0.294c-0.039,-0.144 -0.085,-0.274 -0.101,-0.294c-0.016,-0.016 -0.029,-0.065 -0.033,-0.114c-0.003,-0.082 -0.121,-0.434 -0.124,-0.376c-0.003,0.016 -0.144,-0.382 -0.317,-0.892l-0.31,-0.921l0.049,-0.144c0.029,-0.082 0.085,-0.216 0.127,-0.304c0.111,-0.225 0.425,-0.826 0.464,-0.888c0.02,-0.029 0.075,-0.127 0.131,-0.216c0.346,-0.594 0.604,-0.924 1.205,-1.542c0.474,-0.49 0.934,-0.843 1.411,-1.091c0.216,-0.111 0.425,-0.225 0.47,-0.258c0.193,-0.137 0.719,-0.31 1.091,-0.359c0.147,-0.02 0.333,-0.052 0.421,-0.069c0.33,-0.075 1.506,-0.111 1.983,-0.062Zm32.77,25.905c0.637,0.127 1.173,0.398 1.555,0.777c0.203,0.203 0.428,0.559 0.428,0.67c0,0.069 -1.542,1.653 -1.607,1.653c-0.033,0 -0.147,-0.056 -0.248,-0.124c-0.32,-0.216 -0.634,-0.385 -0.921,-0.5c-0.248,-0.095 -0.314,-0.108 -0.611,-0.108c-0.284,-0.003 -0.343,0.007 -0.421,0.065c-0.17,0.124 -0.173,0.17 -0.033,0.294c0.154,0.134 0.343,0.225 1.065,0.516c0.542,0.219 0.97,0.434 1.238,0.617c0.206,0.14 0.5,0.454 0.601,0.637c0.317,0.585 0.216,1.535 -0.235,2.162c-0.5,0.702 -1.352,1.081 -2.528,1.133c-0.755,0.033 -1.388,-0.085 -1.943,-0.363c-0.366,-0.183 -0.614,-0.392 -0.859,-0.712l-0.193,-0.261l0.134,-0.163c0.144,-0.17 1.271,-1.264 1.388,-1.346c0.065,-0.046 0.088,-0.033 0.408,0.261c0.536,0.49 0.849,0.673 1.254,0.719c0.431,0.052 0.79,-0.225 0.565,-0.434c-0.108,-0.098 -0.477,-0.274 -0.892,-0.428c-1.013,-0.376 -1.388,-0.585 -1.728,-0.96c-0.206,-0.225 -0.353,-0.496 -0.428,-0.794c-0.065,-0.261 -0.065,-0.823 0,-1.078c0.167,-0.627 0.608,-1.192 1.284,-1.64c0.859,-0.565 1.836,-0.777 2.727,-0.594Zm-37.213,0.078c0.062,0.056 0.062,0.078 -0.101,1.062c-0.062,0.385 -0.118,0.624 -0.15,0.66c-0.049,0.056 -0.16,0.059 -1.467,0.059c-0.777,0 -1.421,0.013 -1.431,0.029c-0.026,0.039 -0.15,0.813 -0.15,0.924l0,0.088l1.101,0.003c1.323,0.003 1.251,-0.02 1.173,0.363c-0.026,0.134 -0.059,0.314 -0.069,0.405c-0.069,0.51 -0.157,0.954 -0.203,1.003c-0.049,0.056 -0.147,0.059 -1.189,0.059l-1.133,0l-0.02,0.088c-0.036,0.167 -0.118,0.761 -0.118,0.839l0,0.078l1.372,0.013c1.323,0.01 1.372,0.013 1.421,0.075c0.056,0.075 0.056,0.091 -0.069,0.866c-0.042,0.278 -0.088,0.562 -0.098,0.627c-0.01,0.069 -0.049,0.16 -0.085,0.206l-0.062,0.082l-2.404,0c-2.685,0 -2.489,0.02 -2.492,-0.229c0,-0.062 0.098,-0.679 0.212,-1.372c0.118,-0.692 0.271,-1.604 0.343,-2.025c0.069,-0.421 0.186,-1.127 0.261,-1.568c0.072,-0.441 0.183,-1.111 0.248,-1.486c0.127,-0.771 0.15,-0.852 0.261,-0.888c0.042,-0.013 1.14,-0.023 2.437,-0.016c2.032,0.007 2.365,0.013 2.411,0.056Zm5.265,-0.01c0.065,0.02 0.15,0.026 0.193,0.016c0.039,-0.01 0.33,0.003 0.647,0.029c0.545,0.046 0.901,0.069 2.224,0.144c0.63,0.036 0.706,0.046 0.725,0.105c0.02,0.049 -0.105,0.937 -0.189,1.375c-0.042,0.219 -0.069,0.294 -0.121,0.32c-0.042,0.026 -0.532,0.036 -1.496,0.033c-0.79,-0.003 -1.434,0.003 -1.434,0.013c0,0.01 -0.036,0.232 -0.082,0.493c-0.046,0.261 -0.082,0.487 -0.082,0.506c0,0.016 0.402,0.029 1.006,0.029c0.552,0 1.058,0.01 1.127,0.023c0.216,0.033 0.232,0.091 0.154,0.601c-0.108,0.699 -0.199,1.104 -0.268,1.192l-0.065,0.082l-1.078,-0.003c-0.591,-0.003 -1.084,0 -1.091,0.01c-0.007,0.007 -0.078,0.402 -0.16,0.875c-0.082,0.474 -0.176,1.009 -0.212,1.189c-0.033,0.18 -0.072,0.398 -0.082,0.483c-0.013,0.085 -0.049,0.186 -0.082,0.225c-0.056,0.069 -0.069,0.072 -1.013,0.062c-0.526,-0.003 -0.977,-0.016 -1.003,-0.026c-0.026,-0.01 -0.059,-0.046 -0.072,-0.082c-0.023,-0.069 0.088,-0.774 0.271,-1.676c0.108,-0.545 0.336,-1.845 0.369,-2.107c0.007,-0.062 0.042,-0.291 0.078,-0.506c0.036,-0.216 0.078,-0.483 0.095,-0.591c0.02,-0.111 0.069,-0.392 0.111,-0.621c0.078,-0.405 0.229,-1.258 0.281,-1.597c0.101,-0.666 0.105,-0.67 0.696,-0.65c0.238,0.01 0.487,0.033 0.552,0.052Zm8.531,0.003c0.039,0.059 0.059,0.284 0.085,1.052c0.02,0.539 0.049,1.346 0.065,1.796c0.016,0.447 0.033,1.339 0.033,1.976c0.003,0.637 0.02,1.228 0.033,1.31c0.016,0.085 0.033,0.48 0.036,0.882l0.003,0.732l-1.055,-0.01c-0.924,-0.01 -1.065,-0.02 -1.097,-0.065c-0.033,-0.036 -0.042,-0.229 -0.042,-0.686l0,-0.63l-0.725,0.023c-0.402,0.013 -0.735,0.026 -0.738,0.033c-0.007,0.003 -0.085,0.199 -0.17,0.431c-0.085,0.232 -0.18,0.467 -0.206,0.519c-0.091,0.17 -0.157,0.18 -1.195,0.167c-0.843,-0.01 -0.954,-0.016 -1.003,-0.065c-0.095,-0.095 -0.085,-0.121 0.663,-2.035c0.34,-0.875 0.869,-2.224 1.146,-2.923c0.154,-0.385 0.415,-1.091 0.581,-1.568c0.232,-0.653 0.327,-0.885 0.389,-0.941l0.085,-0.072l3.067,0l0.046,0.075Zm2.159,-0.01c-0.036,0.016 -0.046,0.029 -0.023,0.029c0.023,0.003 0.134,0.049 0.245,0.105c0.111,0.056 0.32,0.137 0.464,0.183c0.144,0.046 0.372,0.134 0.506,0.196c0.134,0.062 0.34,0.15 0.454,0.193c0.118,0.042 0.225,0.091 0.245,0.105c0.02,0.016 0.101,0.046 0.183,0.069c0.082,0.023 0.193,0.056 0.245,0.072c0.056,0.02 0.15,0.049 0.212,0.069c0.062,0.016 0.131,0.042 0.147,0.056c0.02,0.013 0.098,0.042 0.18,0.065c0.248,0.072 1.026,0.333 1.091,0.369c0.056,0.029 0.059,0.023 0.042,-0.091l-0.02,-0.127l0.049,0.114c0.029,0.062 0.082,0.232 0.118,0.376c0.056,0.219 0.065,0.32 0.049,0.621c-0.023,0.366 -0.127,0.866 -0.248,1.182c-0.18,0.461 -0.552,1.019 -0.915,1.375l-0.242,0.238l0.065,0.121c0.039,0.065 0.225,0.415 0.418,0.774c0.719,1.333 0.725,1.346 0.608,1.489c-0.059,0.072 -0.091,0.078 -0.741,0.114c-1.048,0.062 -1.493,0.059 -1.574,-0.013c-0.039,-0.029 -0.225,-0.336 -0.418,-0.676c-0.47,-0.843 -0.572,-1.006 -0.601,-0.973c-0.013,0.013 -0.082,0.333 -0.147,0.712c-0.127,0.709 -0.18,0.875 -0.271,0.915c-0.069,0.029 -1.022,0.078 -1.565,0.078c-0.363,0.003 -0.402,-0.003 -0.402,-0.056c0,-0.075 0.069,-0.5 0.209,-1.313c0.062,-0.369 0.154,-0.921 0.196,-1.225c0.173,-1.173 0.536,-3.407 0.735,-4.527c0.082,-0.464 0.131,-0.545 0.363,-0.611c0.147,-0.042 0.438,-0.046 0.343,-0.007Zm16.119,0.692c0,0.059 0.016,0.461 0.033,0.892c0.059,1.47 0.16,4.344 0.183,5.197c0.02,0.771 0.016,0.856 -0.036,0.905c-0.049,0.049 -0.15,0.056 -0.924,0.052c-0.826,0 -1.153,-0.023 -1.209,-0.075c-0.013,-0.013 -0.029,-0.314 -0.039,-0.666l-0.016,-0.643l-0.728,-0.01c-0.565,-0.007 -0.728,0 -0.741,0.033c-0.157,0.49 -0.359,1.003 -0.412,1.055c-0.062,0.062 -0.108,0.065 -1.075,0.065c-0.852,-0.003 -1.022,-0.01 -1.062,-0.052c-0.059,-0.056 -0.042,-0.101 0.425,-1.369c0.157,-0.421 0.369,-1.003 0.474,-1.29c0.105,-0.287 0.31,-0.839 0.457,-1.225c0.147,-0.385 0.346,-0.918 0.447,-1.182c0.131,-0.346 0.196,-0.48 0.235,-0.48c0.046,0 0.255,-0.039 0.444,-0.085c0.209,-0.052 1.258,-0.317 1.339,-0.34c0.056,-0.013 0.163,-0.046 0.245,-0.069c0.082,-0.02 0.212,-0.062 0.294,-0.091c0.082,-0.029 0.173,-0.052 0.203,-0.056c0.033,-0.003 0.085,-0.029 0.114,-0.056c0.033,-0.029 0.095,-0.062 0.14,-0.075c0.173,-0.049 0.516,-0.193 0.745,-0.314c0.134,-0.072 0.268,-0.127 0.304,-0.127c0.036,0 0.072,-0.023 0.082,-0.049c0.033,-0.085 0.078,-0.052 0.078,0.056Zm-12.216,0.464c0,0.039 -0.016,0.023 -0.062,-0.078c-0.036,-0.078 -0.036,-0.078 0.01,-0.02c0.029,0.036 0.052,0.078 0.052,0.098Zm1.545,0.363c-0.01,0.029 -0.026,0.046 -0.033,0.036c-0.01,-0.01 -0.007,-0.029 0.007,-0.049c0.029,-0.052 0.049,-0.042 0.026,0.013Zm5.915,0.627c-0.029,0.157 -0.154,0.526 -0.389,1.137c-0.183,0.487 -0.323,0.768 -0.379,0.768c-0.042,0 -0.428,-0.415 -0.51,-0.545c-0.062,-0.108 -0.065,-0.127 -0.023,-0.186c0.069,-0.101 1.264,-1.293 1.297,-1.293c0.013,0 0.016,0.056 0.003,0.121Zm-18.445,0.506c-0.046,0.196 -0.206,0.581 -0.242,0.581c-0.023,0 -0.062,-0.075 -0.091,-0.17c-0.026,-0.091 -0.078,-0.219 -0.114,-0.281c-0.039,-0.062 -0.065,-0.118 -0.059,-0.121c0.013,-0.01 0.382,-0.072 0.464,-0.078c0.046,-0.003 0.056,0.013 0.042,0.069Zm12.209,1.816c0.14,0.196 0.144,0.212 0.101,0.294c-0.026,0.049 -0.199,0.229 -0.385,0.398c-0.183,0.17 -0.464,0.441 -0.621,0.604c-0.284,0.291 -0.287,0.291 -0.349,0.229c-0.095,-0.095 -0.33,-0.568 -0.33,-0.66c0,-0.101 0.046,-0.186 0.196,-0.369c0.235,-0.291 0.346,-0.464 0.562,-0.898c0.072,-0.144 0.16,-0.31 0.196,-0.369l0.065,-0.108l0.212,0.336c0.114,0.186 0.274,0.428 0.353,0.542Zm11.906,-0.395c0.108,0.16 0.242,0.346 0.294,0.415c0.056,0.069 0.098,0.154 0.098,0.183c0,0.069 -0.405,0.457 -0.474,0.457c-0.082,0 -0.114,-0.118 -0.154,-0.545c-0.033,-0.359 -0.02,-0.794 0.023,-0.794c0.01,0 0.105,0.127 0.212,0.284Zm-30.827,-0.082c0.647,0.007 0.882,0.02 0.915,0.052c0.052,0.052 0.042,0.186 -0.072,0.807c-0.049,0.287 -0.105,0.588 -0.114,0.666c-0.013,0.085 -0.056,0.176 -0.101,0.222l-0.075,0.075l-1.565,0c-1.055,0 -1.597,-0.013 -1.669,-0.036c-0.137,-0.049 -0.154,-0.134 -0.088,-0.48c0.026,-0.157 0.082,-0.454 0.118,-0.66c0.101,-0.559 0.121,-0.611 0.212,-0.643c0.046,-0.013 0.415,-0.023 0.823,-0.02c0.412,0.007 1.137,0.013 1.617,0.016Zm11.501,3.871c-0.042,0.007 -0.108,0.007 -0.147,0c-0.042,-0.007 -0.01,-0.013 0.072,-0.013c0.082,0 0.114,0.007 0.075,0.013Z" style="fill:#fff;fill-rule:nonzero;"/><path d="M4.14,4.804c-0.167,0.088 -0.474,0.323 -0.464,0.356c0.003,0.016 -0.007,0.023 -0.023,0.013c-0.039,-0.026 -0.304,0.173 -0.281,0.209c0.01,0.016 0,0.026 -0.023,0.016c-0.023,-0.01 -0.088,0.023 -0.14,0.072c-0.056,0.052 -0.212,0.193 -0.353,0.314c-0.137,0.124 -0.284,0.268 -0.32,0.323l-0.072,0.098l0.078,-0.023c0.042,-0.013 0.085,-0.039 0.088,-0.052c0.007,-0.016 0.023,-0.023 0.039,-0.013c0.013,0.007 0.252,-0.023 0.526,-0.069c0.405,-0.069 0.562,-0.082 0.797,-0.062c0.163,0.01 0.32,0.026 0.353,0.036c0.042,0.013 0.056,-0.003 0.056,-0.072c0,-0.124 -0.065,-0.474 -0.101,-0.545c-0.02,-0.036 -0.016,-0.056 0.003,-0.056c0.016,0 0.033,-0.016 0.033,-0.033c0,-0.059 -0.056,-0.036 -0.091,0.039c-0.023,0.042 -0.036,0.052 -0.036,0.026c0.01,-0.137 -0.007,-0.265 -0.033,-0.248c-0.016,0.01 -0.039,-0.003 -0.049,-0.033c-0.013,-0.036 -0.007,-0.049 0.023,-0.036c0.023,0.01 0.042,-0.01 0.042,-0.042c0,-0.036 -0.02,-0.052 -0.046,-0.042c-0.029,0.013 -0.02,-0.023 0.023,-0.101c0.036,-0.065 0.065,-0.118 0.059,-0.118c-0.003,0 -0.042,0.02 -0.088,0.042Zm-0.229,0.252c0,0.016 -0.026,0.033 -0.056,0.033c-0.049,0 -0.052,-0.007 -0.01,-0.033c0.062,-0.039 0.065,-0.039 0.065,0Z" style="fill:#fff;fill-rule:nonzero;"/><path d="M13.71,11.193c-0.562,0.196 -0.901,0.356 -1.434,0.679c-0.235,0.14 -0.474,0.284 -0.532,0.317c-0.944,0.559 -1.823,1.372 -2.528,2.339c-0.349,0.48 -1.169,1.96 -1.114,2.012c0.01,0.01 0.16,-0.144 0.336,-0.336c0.176,-0.193 0.441,-0.467 0.585,-0.608c0.242,-0.235 1.052,-0.934 1.323,-1.14c0.173,-0.131 0.924,-0.581 0.97,-0.581c0.023,0 0.088,-0.02 0.147,-0.046c0.059,-0.026 0.16,-0.069 0.229,-0.098c0.065,-0.029 0.127,-0.052 0.137,-0.052c0.033,0 0.588,-0.271 0.608,-0.297c0.033,-0.039 1.404,-0.493 1.633,-0.539c0.062,-0.01 0.173,-0.046 0.245,-0.078c0.072,-0.033 0.157,-0.069 0.193,-0.078c0.056,-0.02 0.059,-0.046 0.039,-0.34c-0.029,-0.392 -0.075,-0.696 -0.134,-0.888c-0.026,-0.082 -0.062,-0.209 -0.082,-0.287c-0.046,-0.173 -0.056,-0.173 -0.621,0.023Z" style="fill:#fff;fill-rule:nonzero;"/><path d="M12.704,15.344c-0.199,0.082 -0.692,0.513 -0.692,0.608c0,0.023 0.056,0.108 0.124,0.186c0.144,0.173 0.467,0.591 0.64,0.83c0.154,0.216 0.144,0.222 -0.366,0.183c-0.216,-0.016 -0.441,-0.023 -0.506,-0.016c-0.111,0.013 -0.121,0.023 -0.121,0.121c0,0.229 0.15,0.745 0.304,1.048c0.111,0.216 0.376,0.526 0.536,0.624c0.167,0.101 0.431,0.105 0.614,0.007c0.327,-0.176 0.523,-0.428 0.666,-0.862c0.095,-0.284 0.105,-0.359 0.108,-0.715c0.003,-0.706 -0.225,-1.365 -0.617,-1.77c-0.238,-0.248 -0.467,-0.33 -0.689,-0.242Z" style="fill:#fff;fill-rule:nonzero;"/><path d="M1.602,19.13c-0.039,0.029 -0.098,0.114 -0.137,0.186c-0.078,0.16 -0.069,0.18 0.193,0.343c0.216,0.131 0.676,0.483 0.764,0.581c0.059,0.065 0.059,0.069 -0.016,0.183c-0.056,0.082 -0.082,0.098 -0.088,0.062c-0.02,-0.078 -0.137,0.131 -0.137,0.242c0,0.049 -0.016,0.14 -0.033,0.203c-0.02,0.062 -0.049,0.291 -0.065,0.506c-0.046,0.542 -0.007,0.679 0.278,0.95c0.131,0.121 0.258,0.212 0.336,0.235c0.154,0.046 0.516,0.052 0.545,0.01c0.01,-0.016 -0.069,-0.062 -0.17,-0.101c-0.317,-0.118 -0.47,-0.229 -0.64,-0.461c-0.098,-0.131 -0.111,-0.232 -0.039,-0.291c0.029,-0.026 0.049,-0.095 0.049,-0.18c0,-0.268 0.154,-0.957 0.238,-1.075c0.036,-0.049 0.075,-0.016 0.356,0.314c0.173,0.203 0.369,0.421 0.434,0.483l0.121,0.114l-0.052,-0.131c-0.082,-0.193 -0.291,-0.549 -0.526,-0.879c-0.196,-0.284 -0.519,-0.617 -1.081,-1.117c-0.252,-0.225 -0.265,-0.232 -0.33,-0.18Z" style="fill:#fff;fill-rule:nonzero;"/><path d="M10.672,25.006c-0.134,0.088 -0.317,0.235 -0.408,0.327c-0.16,0.173 -0.604,0.781 -0.604,0.836c0,0.036 0.255,0.281 0.291,0.281c0.016,0 0.039,-0.036 0.049,-0.082c0.01,-0.042 0.072,-0.163 0.131,-0.265l0.114,-0.186l0.042,0.111c0.026,0.062 0.069,0.183 0.091,0.274c0.15,0.539 0.702,1.258 1.264,1.643c0.745,0.506 1.44,0.741 2.25,0.755c0.176,0.003 0.327,0.013 0.333,0.016c0.007,0.007 -0.075,0.101 -0.176,0.212c-0.163,0.176 -0.173,0.196 -0.091,0.167c0.3,-0.114 0.536,-0.287 0.944,-0.699c0.235,-0.235 0.464,-0.48 0.506,-0.542l0.078,-0.111l-0.225,0.16c-0.127,0.088 -0.278,0.203 -0.336,0.252c-0.059,0.049 -0.114,0.091 -0.121,0.091c-0.013,0 -0.016,-0.033 -0.016,-0.359c0,-0.434 0.046,-0.496 0.405,-0.555c0.261,-0.042 0.346,-0.101 0.48,-0.33c0.167,-0.281 0.559,-1.078 0.542,-1.094c-0.016,-0.02 -0.229,0.232 -0.568,0.676c-0.147,0.189 -0.291,0.366 -0.323,0.392c-0.056,0.046 -0.372,0.088 -0.846,0.111c-0.144,0.007 -0.421,0.029 -0.617,0.052c-0.594,0.065 -1.571,-0.013 -2.032,-0.167c-0.428,-0.144 -0.728,-0.372 -1.182,-0.911l-0.327,-0.385l0.121,-0.144c0.111,-0.134 0.503,-0.683 0.483,-0.683c-0.003,0 -0.118,0.072 -0.252,0.157Zm0.555,1.94c0.029,0.039 0.395,0.225 0.604,0.304c0.108,0.042 0.242,0.095 0.294,0.114c0.056,0.023 0.333,0.046 0.637,0.056c0.297,0.007 0.578,0.029 0.627,0.046c0.062,0.026 0.121,0.026 0.196,0c0.059,-0.02 0.291,-0.039 0.516,-0.042l0.408,-0.01l-0.01,0.18c-0.003,0.098 -0.023,0.314 -0.042,0.477l-0.036,0.3l-0.317,0.02c-0.346,0.023 -0.647,-0.013 -0.696,-0.082c-0.023,-0.036 -0.036,-0.036 -0.049,-0.007c-0.059,0.15 -0.944,-0.17 -1.519,-0.552c-0.265,-0.176 -0.614,-0.48 -0.614,-0.532c0,-0.026 -0.02,-0.039 -0.046,-0.029c-0.082,0.033 -0.608,-0.663 -0.608,-0.8c0,-0.033 0.598,0.477 0.653,0.559Z" style="fill:#fff;fill-rule:nonzero;"/><path d="M14.392,30.131c-0.706,0.451 -1.075,0.702 -1.075,0.732c0,0.052 0.173,0.101 0.281,0.082c0.144,-0.029 0.804,-0.581 1.12,-0.944c0.124,-0.14 0.039,-0.105 -0.327,0.131Z" style="fill:#fff;fill-rule:nonzero;"/><path d="M18.828,34.083c-0.016,0.056 -0.676,1.859 -0.725,1.976c-0.023,0.056 0.01,0.059 0.372,0.059l0.395,0l0,-0.993c0,-0.545 0.01,-1.016 0.02,-1.045c0.01,-0.029 0.007,-0.052 -0.013,-0.052c-0.016,0 -0.039,0.026 -0.049,0.056Z" style="fill:#fff;fill-rule:nonzero;"/><path d="M24.312,33.89c-0.013,0.023 -0.281,1.476 -0.33,1.793l-0.023,0.14l0.131,-0.046c0.48,-0.17 0.83,-0.578 0.875,-1.026c0.029,-0.258 -0.029,-0.441 -0.193,-0.617c-0.173,-0.189 -0.415,-0.317 -0.461,-0.245Z" style="fill:#fff;fill-rule:nonzero;"/><path d="M36.975,34.23c-0.039,0.114 -0.124,0.353 -0.189,0.532c-0.118,0.317 -0.474,1.329 -0.474,1.346c0,0.007 0.176,0.01 0.392,0.01l0.392,0l0,-1.045c0,-0.575 -0.013,-1.045 -0.026,-1.045c-0.013,0 -0.056,0.091 -0.095,0.203Z" style="fill:#fff;fill-rule:nonzero;"/></g></g></svg>