<?xml version="1.0" encoding="UTF-8" standalone="no"?><!DOCTYPE svg PUBLIC "-//W3C//DTD SVG 1.1//EN" "http://www.w3.org/Graphics/SVG/1.1/DTD/svg11.dtd"><svg width="100%" height="100%" viewBox="0 0 139 40" version="1.1" xmlns="http://www.w3.org/2000/svg" xmlns:xlink="http://www.w3.org/1999/xlink" xml:space="preserve" xmlns:serif="http://www.serif.com/" style="fill-rule:evenodd;clip-rule:evenodd;"><g><g><path d="M2.736,26.819l0,-1.864l-0.408,0l0,1.372l-0.685,0l0,-1.08l-0.39,0l0,1.08l-0.635,0l0,-1.341l-0.408,0l0,1.829l2.526,0.003l0,0.001Zm0,-2.177l0,-0.489l-0.826,0l0,-0.599c0.003,-0.03 0.005,-0.061 0.005,-0.091c0,-0.463 -0.381,-0.844 -0.844,-0.844l-0.028,0c-0.498,0 -0.833,0.327 -0.833,0.935l0,1.089l2.526,-0.001Zm-2.13,-1.043c-0.003,-0.021 -0.005,-0.043 -0.005,-0.064c0,-0.233 0.192,-0.425 0.425,-0.425c0.007,0 0.014,0 0.021,0.001c0.01,-0.001 0.02,-0.001 0.031,-0.001c0.238,0 0.435,0.196 0.435,0.435c0,0.018 -0.001,0.037 -0.004,0.055l0,0.549l-0.903,0l0,-0.55Zm0.867,-1.128c0.019,0.001 0.038,0.001 0.057,0.001c0.706,0 1.287,-0.581 1.287,-1.287c0,-0.706 -0.581,-1.287 -1.287,-1.287c-0.019,0 -0.038,0 -0.057,0.001c-0.019,-0.001 -0.038,-0.001 -0.057,-0.001c-0.706,0 -1.287,0.581 -1.287,1.287c0,0.706 0.581,1.287 1.287,1.287c0.019,0 0.038,0 0.057,-0.001m0,-0.505c-0.032,0.004 -0.065,0.006 -0.097,0.006c-0.431,0 -0.786,-0.355 -0.786,-0.786c0,-0.431 0.355,-0.786 0.786,-0.786c0.032,0 0.065,0.002 0.097,0.006c0.032,-0.004 0.065,-0.006 0.097,-0.006c0.433,0 0.789,0.356 0.789,0.789c0,0.433 -0.356,0.789 -0.789,0.789c-0.032,0 -0.065,-0.002 -0.097,-0.006m0,-2.242c0.031,0.002 0.063,0.004 0.094,0.004c0.665,0 1.212,-0.547 1.212,-1.212c0,-0.016 0,-0.031 -0.001,-0.047c0.047,-0.544 -0.338,-1.038 -0.877,-1.126l0,0.489c0.29,0.061 0.488,0.336 0.454,0.631c-0.016,0.42 -0.366,0.758 -0.787,0.758c-0.032,0 -0.064,-0.002 -0.096,-0.006c-0.033,0.004 -0.067,0.006 -0.1,0.006c-0.42,0 -0.77,-0.339 -0.783,-0.759c-0.027,-0.293 0.168,-0.564 0.454,-0.631l0,-0.489c-0.538,0.084 -0.924,0.576 -0.877,1.119c0,0.013 -0.001,0.026 -0.001,0.039c0,0.67 0.551,1.222 1.222,1.222c0.028,0 0.056,-0.001 0.085,-0.003m1.261,-2.328l0,-0.489l-0.568,-0.198l0,-1.056l0.568,-0.196l0,-0.52l-2.523,0.938l0,0.581l2.523,0.94Zm-2.057,-1.223l1.097,-0.378l0,0.776l-1.097,-0.394l0,-0.004Z" style="fill:#fff;fill-rule:nonzero;"/><rect x="0" y="24.987" width="0.105" height="1.338" style="fill:#fff;"/><path d="M129.386,11.024c-1.568,-0.051 -3.112,0.408 -4.397,1.309c-1.256,0.839 -2.002,2.261 -1.978,3.772c-0.012,0.674 0.126,1.342 0.406,1.955c0.477,1.177 1.599,2.147 3.366,2.909c2.457,0.928 4.33,1.57 5.618,1.925c2.394,0.875 3.591,2.008 3.591,3.4c0.03,1.089 -0.539,2.111 -1.48,2.66c-0.999,0.56 -2.135,0.83 -3.28,0.78c-1.5,0.052 -2.979,-0.369 -4.226,-1.204c-1.14,-0.803 -2.308,-2.35 -3.505,-4.641l-0.943,0.163l0.584,6.769l0.946,0l0.806,-1.972c1.528,1.529 3.641,2.293 6.339,2.291c1.079,0.017 2.155,-0.135 3.188,-0.45c2.845,-0.928 4.267,-2.638 4.267,-5.129c0.029,-1.467 -0.659,-2.859 -1.842,-3.727c-1.14,-0.871 -3.225,-1.744 -6.256,-2.619c-1.178,-0.292 -2.324,-0.701 -3.42,-1.222c-1.051,-0.472 -1.736,-1.514 -1.754,-2.665c-0.019,-0.908 0.468,-1.756 1.261,-2.199c0.827,-0.488 1.779,-0.727 2.738,-0.686c1.228,-0.062 2.447,0.236 3.508,0.857c1.286,1.02 2.358,2.285 3.153,3.721l0.772,-0.134l0,-5.619l-1.038,0l-0.765,1.566c-1.627,-1.225 -3.624,-1.861 -5.66,-1.803" style="fill:#fff;fill-rule:nonzero;"/><path d="M97.274,30.833l0,-1.145l2.379,0l0,-16.764l-3.923,-0.621l0,-1.041l7.461,0l0,18.426l3.31,0l0,1.145l-9.227,0Z" style="fill:#fff;fill-rule:nonzero;"/><path d="M89.909,11.024c-3.175,0 -5.705,1.039 -7.59,3.117c-1.727,1.858 -2.663,4.318 -2.606,6.854c-0.061,2.56 0.821,5.055 2.477,7.008c1.796,2.089 4.448,3.25 7.201,3.153c2.556,0.014 5.071,-0.649 7.288,-1.922l-0.356,-0.781c-1.768,0.69 -3.645,1.059 -5.543,1.089c-2.442,0 -4.234,-0.612 -5.374,-1.837c-1.303,-1.394 -1.95,-3.727 -1.939,-7.001c0,-3 0.674,-5.183 2.023,-6.549c1.111,-1.14 2.759,-1.71 4.946,-1.71c1.231,-0.024 2.459,0.14 3.64,0.489l0,0.086c-1.48,0.3 -2.223,1.099 -2.223,2.409c-0.011,0.561 0.229,1.1 0.655,1.466c0.457,0.39 1.044,0.594 1.644,0.571c0.679,0.029 1.34,-0.225 1.825,-0.701c0.456,-0.45 0.707,-1.069 0.694,-1.71c0,-1.444 -0.774,-2.511 -2.334,-3.195c-1.405,-0.586 -2.919,-0.865 -4.441,-0.82" style="fill:#fff;fill-rule:nonzero;"/><path d="M69.386,11.024c-2.72,-0.027 -5.322,1.124 -7.133,3.153c-1.84,1.818 -2.875,4.302 -2.87,6.888c-0.005,2.578 1.012,5.056 2.826,6.888c1.83,2.034 4.44,3.196 7.176,3.196c2.717,0 5.312,-1.147 7.141,-3.157c3.788,-3.784 3.808,-10.008 0.044,-13.816c-1.834,-2.026 -4.449,-3.175 -7.182,-3.153m0,18.721c-1.855,0 -3.278,-0.519 -4.27,-1.556c-1.314,-1.334 -1.973,-3.707 -1.976,-7.121c-0.045,-1.535 0.151,-3.067 0.581,-4.541c0.332,-1.208 1.024,-2.286 1.984,-3.09c1.083,-0.729 2.378,-1.078 3.681,-0.991c1.892,0 3.315,0.489 4.27,1.466c1.319,1.418 1.979,3.806 1.981,7.162c0.043,1.519 -0.139,3.036 -0.542,4.502c-0.866,2.781 -2.769,4.173 -5.708,4.175" style="fill:#fff;fill-rule:nonzero;"/><path d="M69.755,6.821l-2.702,2.948l2.555,0l5.487,-2.948l-5.34,0Z" style="fill:#fff;fill-rule:nonzero;"/><path d="M32.96,29.543c-2.215,0 -3.859,-0.652 -4.935,-1.955c-1.226,-1.417 -1.839,-3.657 -1.839,-6.72l0,-0.631c0,-0.205 0.014,-0.41 0.042,-0.613l13.914,0c0.006,-1.384 -0.242,-2.758 -0.733,-4.052c-1.303,-3.031 -3.754,-4.546 -7.353,-4.546c-1.332,-0.017 -2.651,0.264 -3.862,0.82c-1.831,0.824 -3.345,2.221 -4.312,3.98c-0.936,1.693 -1.417,3.601 -1.395,5.535c-0.045,2.47 0.839,4.869 2.474,6.72c1.718,2.018 4.264,3.149 6.914,3.071c2.573,0.014 5.104,-0.661 7.328,-1.955l-0.359,-0.777c-1.879,0.723 -3.872,1.104 -5.884,1.124l0,-0.001Zm-6.051,-14.014c0.904,-2.162 2.592,-3.243 5.064,-3.242c1.539,0 2.655,0.407 3.349,1.222c0.723,0.931 1.146,2.613 1.268,5.046l-10.406,0c0.108,-1.036 0.351,-2.054 0.723,-3.027l0.003,0.002l-0.001,-0.001Z" style="fill:#fff;fill-rule:nonzero;"/><path d="M21.281,31.123l-14.578,-18.149l0.883,16.364l3.332,0.574l0,0.921l-8.365,0l0,-0.918l2.955,-0.576l0,-16.764l-2.955,-0.571l0,-0.917l7.006,0l11.346,14.348l-0.725,-12.86l-3.268,-0.571l0,-0.917l8.029,0l0,0.916l-2.687,0.576l0,18.542l-0.973,0.003l0,-0.001Z" style="fill:#fff;fill-rule:nonzero;"/><path d="M57.973,17.761l0.789,-0.171l-0.879,-6.513l-0.733,0l-0.694,1.519c-1.657,-1.157 -3.634,-1.77 -5.655,-1.754c-2.861,-0.073 -5.625,1.064 -7.607,3.129c-1.869,1.836 -2.913,4.356 -2.89,6.977c-0.074,2.625 0.913,5.173 2.736,7.064c1.987,2.047 4.754,3.155 7.604,3.045c2.417,0.074 4.761,-0.851 6.475,-2.557l1.319,2.325l0.701,0l0,-8.926l-6.514,0l0,0.916l2.955,0.574l0,5.109c-1.305,0.798 -2.812,1.206 -4.341,1.178c-2.405,0 -4.154,-0.603 -5.247,-1.808c-1.171,-1.327 -1.757,-3.538 -1.759,-6.632c0,-3.443 0.619,-5.855 1.857,-7.235c1.003,-1.14 2.606,-1.714 4.807,-1.722c1.372,-0.045 2.717,0.391 3.801,1.234c1.296,1.244 2.397,2.676 3.266,4.248" style="fill:#fff;fill-rule:nonzero;"/></g><path d="M104.919,25.288l17.062,0m-17.062,-9.75l17.062,0m-18.281,4.875l19.5,0m-9.75,9.75c0,0 -5.484,-2.438 -5.484,-9.75c0,-7.313 5.484,-9.75 5.484,-9.75m0,0c0,0 5.484,2.438 5.484,9.75c0,7.312 -5.484,9.75 -5.484,9.75m0,-19.5l0,19.5m9.75,-9.75c0,5.385 -4.365,9.75 -9.75,9.75c-5.385,0 -9.75,-4.365 -9.75,-9.75c0,-5.385 4.365,-9.75 9.75,-9.75c5.385,0 9.75,4.365 9.75,9.75Z" style="fill:none;fill-rule:nonzero;stroke:#fff;stroke-width:1.46px;"/></g></svg>