<?xml version="1.0" encoding="UTF-8" standalone="no"?><!DOCTYPE svg PUBLIC "-//W3C//DTD SVG 1.1//EN" "http://www.w3.org/Graphics/SVG/1.1/DTD/svg11.dtd"><svg width="100%" height="100%" viewBox="0 0 85 40" version="1.1" xmlns="http://www.w3.org/2000/svg" xmlns:xlink="http://www.w3.org/1999/xlink" xml:space="preserve" xmlns:serif="http://www.serif.com/" style="fill-rule:evenodd;clip-rule:evenodd;stroke-linejoin:round;stroke-miterlimit:2;"><g><g><path d="M7.688,4.783l-0.051,1.3l-2.284,0.051l-2.3,0.051l0,1.567c0,0.867 0.051,1.567 0.133,1.567c0.067,-0.017 0.851,-0.017 1.751,0l1.617,0.017l0,2.5l-3.501,0l0,3.668l4.851,0l-0.051,1.284l-0.051,1.3l-3.784,0.051l-3.801,0.033l0,-14.669l7.519,-0l-0.051,1.284l0.003,-0.003Z" style="fill:#fff;"/><path d="M33.693,10.701c0.933,3.951 1.651,7.235 1.617,7.301c-0.033,0.067 -0.651,0.1 -1.351,0.1l-1.3,-0.017l-0.317,-1.551l-0.333,-1.533l-3.584,0l-0.351,1.367c-0.2,0.767 -0.4,1.484 -0.433,1.584c-0.084,0.251 -2.5,0.317 -2.651,0.084c-0.051,-0.084 0.133,-1 0.4,-2.051c0.251,-1.051 1.051,-4.284 1.751,-7.201l1.284,-5.284l3.568,0l1.7,7.201Zm-4.151,-0.9l-0.6,2.617l1.167,0.051c0.633,0.033 1.184,0.017 1.233,-0.017c0.067,-0.084 -1.051,-5.101 -1.151,-5.217c-0.051,-0.033 -0.333,1.117 -0.651,2.567l0.001,0Z" style="fill:#fff;"/><path d="M26.808,3.583l0,2.5l-3,0l-0.167,12.003l-1.084,0.051c-1.951,0.084 -1.751,0.751 -1.751,-6.068l0,-5.951l-1.533,0.033l-1.551,0.033l0,-2.684l4.551,0.033l4.535,0.051l0,-0.001Z" style="fill:#fff;"/><path d="M61.283,3.6c1.051,0.351 2.017,1.433 2.367,2.633c0.233,0.784 0.267,1.617 0.217,4.984l-0.051,4.035l-0.467,0.884c-0.567,1.084 -1.517,1.784 -2.751,2.051c-1.817,0.367 -3.668,-0.117 -4.617,-1.233c-1.017,-1.184 -1.117,-1.733 -1.051,-6.485l0.051,-4.217l0.484,-0.867c0.484,-0.884 1.351,-1.617 2.2,-1.884c0.8,-0.233 2.784,-0.184 3.617,0.1Zm-2.667,2.4c-0.851,0.351 -0.9,0.651 -0.851,4.984c0.051,4.617 0.033,4.517 1.5,4.651c0.717,0.051 0.967,0 1.3,-0.267l0.417,-0.333l0,-4.184c0,-3.951 -0.017,-4.184 -0.333,-4.501c-0.384,-0.384 -1.5,-0.584 -2.033,-0.351l-0,0.001Z" style="fill:#fff;"/><path d="M14.423,3.533c0.851,0.251 2.1,1.367 2.484,2.217c0.484,1.067 0.433,1.167 -0.717,1.5c-0.567,0.151 -1.117,0.317 -1.233,0.367c-0.1,0.033 -0.284,-0.167 -0.4,-0.451c-0.333,-0.817 -0.8,-1.3 -1.351,-1.417c-0.984,-0.217 -1.817,0.467 -1.817,1.5c0,0.533 0.717,1.217 2.117,1.967c2.7,1.484 3.735,2.7 3.851,4.517c0.084,1.367 -0.184,2.317 -0.933,3.135c-1.567,1.751 -4.684,1.933 -6.485,0.384c-0.667,-0.567 -1.717,-2.351 -1.717,-2.917c0,-0.2 0.267,-0.317 1.051,-0.484c0.567,-0.117 1.2,-0.251 1.384,-0.284c0.3,-0.084 0.384,0 0.484,0.533c0.167,0.933 1.033,1.733 1.851,1.733c0.7,-0.017 1.067,-0.217 1.367,-0.784c0.651,-1.217 -0.217,-2.417 -2.633,-3.635c-2.484,-1.251 -3.517,-3.068 -3,-5.235c0.251,-1.067 1.3,-2.267 2.251,-2.6c0.817,-0.284 2.567,-0.317 3.451,-0.051l-0.001,0.004Z" style="fill:#fff;"/><path d="M53.298,0.365c-0.633,2.084 -1.617,2.551 -3.817,1.8c-1.251,-0.433 -1.517,-0.417 -1.851,0.084c-0.217,0.333 -0.417,0.417 -0.917,0.417c-0.751,0 -0.784,-0.117 -0.333,-1.1c0.633,-1.417 1.7,-1.717 3.617,-1.067c1.1,0.384 1.667,0.333 1.817,-0.167c0.084,-0.267 0.251,-0.333 0.851,-0.333c0.7,0 0.751,0.017 0.633,0.367l0,-0.001Z" style="fill:#fff;"/><path d="M79.137,0.316c0.351,0.384 0.151,0.933 -0.4,1.1c-0.384,0.117 -0.451,0.417 -0.084,0.417c0.2,0 0.251,0.217 0.251,0.917c0,0.884 -0.033,0.951 -0.5,1.151l-0.517,0.2l0.351,0.317c0.233,0.217 0.317,0.433 0.267,0.684c-0.067,0.251 0,0.4 0.167,0.467c0.167,0.067 0.233,0.2 0.151,0.384c-0.084,0.251 -0.051,0.233 0.217,-0.033c0.184,-0.184 0.3,-0.367 0.267,-0.4c-0.1,-0.117 0.467,-1.051 1.033,-1.684c0.817,-0.9 1.684,-1.184 3.235,-1.117c0.717,0.051 1.251,0.151 1.251,0.251c0,0.1 0.051,0.217 0.1,0.284c0.067,0.051 0.051,0.3 -0.033,0.551c-0.551,1.733 -0.833,2.733 -0.867,3.035c-0.017,0.217 -0.2,0.484 -0.417,0.633c-0.333,0.217 -0.467,0.217 -0.733,0.051c-0.451,-0.284 -0.533,-0.133 -0.317,0.5c0.233,0.667 0.233,1.733 0.017,2.151c-0.151,0.267 -0.084,0.317 0.551,0.433c0.384,0.084 0.851,0.151 1.033,0.151c0.617,0.051 0.717,0.084 0.817,0.333c0.051,0.151 -0.017,0.751 -0.151,1.351c-0.151,0.584 -0.251,1.317 -0.233,1.617c0.033,0.551 -0.567,1.951 -0.851,1.951c-0.084,0 -0.267,-0.217 -0.4,-0.467c-0.233,-0.433 -0.217,-0.517 0.251,-1.2c0.4,-0.584 0.484,-0.884 0.484,-1.7c0,-1.1 0.133,-1.017 -1.833,-1.033c-1.151,-0.017 -1.251,-0.051 -1.451,-0.433c-0.151,-0.317 -0.217,-0.333 -0.217,-0.117c0,0.151 0.151,0.417 0.317,0.551c0.317,0.267 0.3,0.3 -0.151,1.633c-0.251,0.733 -0.517,1.8 -0.584,2.367c-0.1,0.867 -0.051,1.1 0.251,1.617c0.451,0.767 0.367,1.051 -0.351,1.033c-0.484,0 -0.567,-0.067 -0.7,-0.584c-0.167,-0.633 -0.167,-0.767 -0.017,-2.667c0.051,-0.733 0.017,-1.5 -0.084,-1.867c-0.184,-0.584 -0.217,-0.617 -0.617,-0.467c-0.317,0.133 -0.517,0.1 -0.784,-0.084c-0.2,-0.133 -0.584,-0.251 -0.867,-0.251c-0.433,0 -1.2,-0.167 -2.667,-0.584c-0.267,-0.084 -0.384,0.033 -0.6,0.633c-0.317,0.917 -0.217,1.333 0.7,2.551c0.751,1.033 0.967,1.967 0.633,2.833l-0.151,0.417l-0.484,-0.384c-0.3,-0.233 -0.467,-0.484 -0.4,-0.633c0.051,-0.133 0.084,-0.533 0.1,-0.884c0.017,-0.8 -0.651,-1.7 -1.384,-1.867c-0.4,-0.084 -0.5,-0.2 -0.5,-0.551c0,-0.233 -0.117,-0.551 -0.267,-0.717c-0.233,-0.251 -0.217,-0.333 0.084,-0.833c0.2,-0.317 0.351,-0.651 0.351,-0.733c-0.017,-0.1 -0.167,0.1 -0.333,0.433c-0.184,0.333 -0.567,0.8 -0.867,1.051c-1.833,1.467 -2.284,2.817 -1.367,4.135c0.5,0.717 0.451,1.1 -0.167,1.067c-0.617,-0.033 -1.3,-1.4 -1.084,-2.151c0.2,-0.717 0.184,-1.567 -0.033,-1.967c-0.133,-0.267 -0.117,-0.417 0.133,-0.684c0.3,-0.333 0.3,-0.351 -0.1,-0.217c-0.351,0.1 -0.384,0.084 -0.267,-0.184c0.284,-0.684 0.251,-1.067 -0.167,-2.551c-0.4,-1.367 -0.433,-1.651 -0.267,-2.217c0.217,-0.717 0.967,-1.3 1.7,-1.3c0.251,0 0.767,-0.117 1.151,-0.251c0.8,-0.284 2.117,-0.333 2.733,-0.084c0.6,0.217 0.9,0.067 0.8,-0.433c-0.051,-0.3 0.051,-0.5 0.351,-0.751l0.433,-0.333l-0.317,-0.533c-0.433,-0.7 -0.417,-1.417 0.033,-1.9c0.317,-0.351 0.333,-0.433 0.133,-0.833c-0.133,-0.267 -0.251,-0.517 -0.284,-0.567c-0.017,-0.067 0.117,-0.3 0.3,-0.551c0.517,-0.651 1.184,-0.584 1.751,0.167c0.251,0.317 0.5,0.517 0.551,0.417c0.067,-0.084 0.317,-0.233 0.551,-0.333c0.267,-0.1 0.5,-0.351 0.567,-0.6c0.117,-0.5 0.417,-0.533 0.8,-0.1l-0,-0.003Zm-4.484,5.684c0.051,0.084 0.267,0.251 0.467,0.351c0.367,0.2 0.367,0.2 0.051,-0.167c-0.317,-0.351 -0.717,-0.5 -0.517,-0.184Zm0.351,-0.533c-0.033,0.067 0.184,0.417 0.484,0.767c0.484,0.584 0.567,0.633 0.867,0.417c0.3,-0.217 0.284,-0.267 -0.484,-0.767c-0.433,-0.284 -0.833,-0.467 -0.867,-0.417Zm3.235,0.467c0,0.133 0.084,0.2 0.167,0.151c0.1,-0.067 0.133,-0.184 0.084,-0.267c-0.151,-0.233 -0.251,-0.184 -0.251,0.117l0,-0.001Zm-3.168,-5.017c-0.167,0.2 -0.167,0.251 0.051,0.251c0.133,0 0.367,0.167 0.5,0.367c0.217,0.3 0.3,0.333 0.417,0.151c0.117,-0.151 0.2,-0.167 0.267,-0.033c0.067,0.1 0.2,0.133 0.3,0.084c0.1,-0.067 -0.067,-0.217 -0.351,-0.333c-0.284,-0.117 -0.517,-0.333 -0.517,-0.484c0,-0.317 -0.4,-0.333 -0.667,0l0,-0.001Zm1.784,3.035c-0.151,0.184 -0.284,0.417 -0.284,0.517c0,0.284 0.867,0.884 1.233,0.833c0.517,-0.084 0.5,-0.4 -0.1,-1.051c-0.551,-0.6 -0.567,-0.6 -0.851,-0.3l0.001,0Zm0.217,-1.7c0,0.133 0.151,0.251 0.333,0.251c0.4,0 0.451,-0.251 0.067,-0.4c-0.367,-0.151 -0.4,-0.133 -0.4,0.151l0,-0.001Zm1.251,-1.251c-0.233,0.267 -0.251,0.333 -0.067,0.333c0.267,0 0.651,-0.317 0.651,-0.533c0,-0.233 -0.267,-0.151 -0.584,0.2Zm-0.333,1c0.051,0.084 0.133,0.167 0.184,0.167c0.033,0 0.067,-0.084 0.067,-0.167c0,-0.1 -0.084,-0.167 -0.184,-0.167c-0.084,0 -0.117,0.067 -0.067,0.167Zm-0.784,5.751c-0.317,0.767 -0.384,1.084 -0.233,1.084c0.417,0 0.767,0.6 0.767,1.351c0,0.4 0.051,1.017 0.117,1.367c0.084,0.517 0.151,0.633 0.451,0.584c0.333,-0.051 0.351,-0.151 0.351,-1.551c-0.017,-1.251 -0.084,-1.7 -0.484,-2.717c-0.267,-0.651 -0.5,-1.2 -0.5,-1.2c-0.017,0 -0.217,0.484 -0.467,1.084l-0.001,-0.001Zm-8.268,1.417c0,0.317 0.033,0.451 0.084,0.284c0.033,-0.151 0.033,-0.417 0,-0.584c-0.051,-0.151 -0.084,-0.017 -0.084,0.3Z" style="fill:#fff;"/><path d="M74.652,6c0.051,0.084 0.267,0.251 0.467,0.351c0.367,0.2 0.367,0.2 0.051,-0.167c-0.317,-0.351 -0.717,-0.5 -0.517,-0.184Z" style="fill:#fff;"/><path d="M75.003,5.467c-0.033,0.067 0.184,0.417 0.484,0.767c0.484,0.584 0.567,0.633 0.867,0.417c0.3,-0.217 0.284,-0.267 -0.484,-0.767c-0.433,-0.284 -0.833,-0.467 -0.867,-0.417Z" style="fill:#fff;"/><path d="M78.237,5.933c0,0.133 0.084,0.2 0.167,0.151c0.1,-0.067 0.133,-0.184 0.084,-0.267c-0.151,-0.233 -0.251,-0.184 -0.251,0.117l0,-0.001Z" style="fill:#fff;"/><path d="M75.07,0.916c-0.167,0.2 -0.167,0.251 0.051,0.251c0.133,0 0.367,0.167 0.5,0.367c0.217,0.3 0.3,0.333 0.417,0.151c0.117,-0.151 0.2,-0.167 0.267,-0.033c0.067,0.1 0.2,0.133 0.3,0.084c0.1,-0.067 -0.067,-0.217 -0.351,-0.333c-0.284,-0.117 -0.517,-0.333 -0.517,-0.484c0,-0.317 -0.4,-0.333 -0.667,0l0,-0.001Z" style="fill:#fff;"/><path d="M76.854,3.949c-0.151,0.184 -0.284,0.417 -0.284,0.517c0,0.284 0.867,0.884 1.233,0.833c0.517,-0.084 0.5,-0.4 -0.1,-1.051c-0.551,-0.6 -0.567,-0.6 -0.851,-0.3l0.001,0Z" style="fill:#fff;"/><path d="M77.07,2.249c0,0.133 0.151,0.251 0.333,0.251c0.4,0 0.451,-0.251 0.067,-0.4c-0.367,-0.151 -0.4,-0.133 -0.4,0.151l0,-0.001Z" style="fill:#fff;"/><path d="M78.321,0.999c-0.233,0.267 -0.251,0.333 -0.067,0.333c0.267,0 0.651,-0.317 0.651,-0.533c0,-0.233 -0.267,-0.151 -0.584,0.2Z" style="fill:#fff;"/><path d="M77.987,1.999c0.051,0.084 0.133,0.167 0.184,0.167c0.033,0 0.067,-0.084 0.067,-0.167c0,-0.1 -0.084,-0.167 -0.184,-0.167c-0.084,0 -0.117,0.067 -0.067,0.167Z" style="fill:#fff;"/><path d="M77.203,7.751c-0.317,0.767 -0.384,1.084 -0.233,1.084c0.417,0 0.767,0.6 0.767,1.351c0,0.4 0.051,1.017 0.117,1.367c0.084,0.517 0.151,0.633 0.451,0.584c0.333,-0.051 0.351,-0.151 0.351,-1.551c-0.017,-1.251 -0.084,-1.7 -0.484,-2.717c-0.267,-0.651 -0.5,-1.2 -0.5,-1.2c-0.017,0 -0.217,0.484 -0.467,1.084l-0.001,-0.001Z" style="fill:#fff;"/><path d="M68.935,9.168c0,0.317 0.033,0.451 0.084,0.284c0.033,-0.151 0.033,-0.417 0,-0.584c-0.051,-0.151 -0.084,-0.017 -0.084,0.3Z" style="fill:#fff;"/><path d="M41.661,3.749c2.433,0.717 3.184,2.684 3.017,7.919c-0.084,3.184 -0.367,4.184 -1.4,5.201c-0.951,0.933 -1.751,1.133 -4.751,1.251l-2.633,0.1l0,-14.72l2.467,-0c1.7,0 2.733,0.084 3.301,0.251l-0.001,-0.001Zm-2.933,2.317l0,9.436l0.751,0c1,0 1.717,-0.384 2.017,-1.084c0.3,-0.717 0.333,-6.419 0.051,-7.235c-0.233,-0.667 -0.651,-0.9 -1.851,-1.017l-0.967,-0.1l-0.001,0Z" style="fill:#fff;"/><path d="M45.563,25.17l0,14.688l-1.451,-0.051l-1.467,-0.051l-0.051,-7.085c-0.017,-3.901 0,-7.185 0.051,-7.301c0.051,-0.133 0.517,-0.2 1.5,-0.2l1.417,0Z" style="fill:#fff;"/><path d="M84.405,28.355c0,0.051 -1.651,1.7 -3.684,3.651l-3.668,3.568l-4.401,-4.401l0.751,-0.751c0.4,-0.417 0.784,-0.751 0.833,-0.751c0.051,0 0.717,0.6 1.484,1.351l1.417,1.333l5.684,-5.684l0.784,0.784c0.451,0.433 0.8,0.833 0.8,0.9Z" style="fill:#fff;"/><path d="M65.351,32.339c0.851,3.901 1.551,7.185 1.551,7.285c0,0.167 -0.4,0.217 -1.484,0.217l-1.484,0l-0.267,-1.217c-0.151,-0.651 -0.317,-1.451 -0.367,-1.751l-0.1,-0.533l-3.235,0l-0.3,1.451c-0.451,2.251 -0.267,2.051 -1.751,2.051c-0.717,0 -1.333,-0.033 -1.384,-0.084c-0.033,-0.051 0.5,-2.617 1.2,-5.701c0.717,-3.101 1.451,-6.368 1.667,-7.268l0.367,-1.633l4.035,0.1l1.551,7.085l0.001,-0.001Zm-3.835,-3.417c-0.167,0.467 -0.951,4.601 -0.951,4.951c0,0.251 0.167,0.3 1.084,0.3c1.051,0 1.084,-0.017 1,-0.384c-0.051,-0.2 -0.3,-1.451 -0.551,-2.784c-0.317,-1.567 -0.517,-2.3 -0.584,-2.084l0.001,0.001Z" style="fill:#fff;"/><path d="M77.07,25.168l0,2.336l-1.917,0c-2,0 -2.767,0.2 -2.984,0.751c-0.051,0.151 -0.1,2.117 -0.1,4.351l0,4.084l0.417,0.4l0.4,0.417l4.001,0c2.584,0 4.151,-0.067 4.401,-0.184c0.633,-0.284 0.784,-0.851 0.784,-2.9l0,-1.917l2.333,0l0,2.2c0,1.784 -0.067,2.351 -0.317,2.884c-0.384,0.851 -1.484,1.851 -2.3,2.067c-0.967,0.267 -8.801,0.233 -9.603,-0.051c-0.933,-0.351 -1.717,-1 -2.117,-1.833c-0.333,-0.7 -0.351,-0.967 -0.351,-5.235c0,-5.035 0.033,-5.184 1.117,-6.235c0.967,-0.917 1.651,-1.1 4.117,-1.117l2.117,-0.017Z" style="fill:#fff;"/><path d="M51.631,3.783c0.051,0.167 0.617,2.584 1.267,5.384c0.651,2.8 1.317,5.684 1.5,6.419c0.167,0.733 0.367,1.6 0.417,1.933l0.117,0.617l-1.267,0c-1.451,0 -1.433,0.017 -1.751,-1.551c-0.367,-1.751 -0.151,-1.6 -2.151,-1.551l-1.767,0.051l-0.433,1.5l-0.417,1.5l-1.284,0.017c-1,0.033 -1.3,-0.017 -1.3,-0.2c0,-0.117 0.617,-2.751 1.351,-5.851c0.751,-3.101 1.5,-6.285 1.7,-7.101l0.333,-1.451l1.8,0c1.567,0 1.8,0.033 1.884,0.284l0,-0.001Zm-2.533,5.935c-0.3,1.317 -0.533,2.484 -0.533,2.584c0,0.217 2.333,0.3 2.333,0.067c0.017,-0.333 -1.084,-5.035 -1.167,-5.035c-0.051,0 -0.333,1.067 -0.633,2.384Z" style="fill:#fff;"/><path d="M53.298,25.238c1.784,0.533 2.584,1.7 2.6,3.735l0,1.217l-2.7,-0.1l-0.017,-0.967c-0.033,-0.851 -0.1,-1.033 -0.5,-1.384c-0.584,-0.5 -1.417,-0.517 -2.017,-0.051l-0.433,0.333l0,4.468c0,4.335 0.017,4.468 0.351,4.784c0.5,0.451 1.7,0.433 2.167,-0.051c0.333,-0.333 0.433,-0.767 0.467,-1.984c0.017,-0.317 0.117,-0.333 1.317,-0.333l1.284,0.017l0.051,0.951c0.1,1.967 -0.617,3.184 -2.267,3.801c-1.251,0.484 -3.417,0.417 -4.468,-0.133c-0.867,-0.451 -1.667,-1.351 -1.884,-2.151c-0.1,-0.367 -0.184,-2.451 -0.184,-4.968c0,-4.235 0.017,-4.351 0.4,-5.201c0.833,-1.784 3.501,-2.684 5.835,-1.984Z" style="fill:#fff;"/><path d="M32.227,25.171l0,14.669l-3,0l0,-7.219c0,-3.984 0.051,-7.285 0.117,-7.335c0.051,-0.067 0.733,-0.117 1.5,-0.117l1.384,0l-0.001,0.001Z" style="fill:#fff;"/><path d="M41.395,25.171l0,2.333l-4.501,0l0,3.668l3.684,0l-0.051,1.184l-0.051,1.2l-1.784,-0.033l-1.8,-0.033l0,6.352l-3,0l0,-7.219c0,-3.984 0.051,-7.285 0.117,-7.335c0.051,-0.067 1.751,-0.117 3.751,-0.117l3.635,0Z" style="fill:#fff;"/><path d="M3.02,25.955c0.1,0.451 0.5,2.551 0.9,4.668c0.384,2.133 0.751,3.884 0.8,3.884c0.051,0 0.417,-1.7 0.817,-3.801c0.384,-2.084 0.8,-4.168 0.9,-4.617l0.2,-0.833l1.3,-0.051c1.2,-0.051 1.284,-0.017 1.284,0.3c0,0.433 -2.8,13.636 -3,14.12c-0.133,0.317 -0.267,0.351 -1.567,0.351c-0.9,0 -1.484,-0.067 -1.551,-0.184c-0.184,-0.3 -3.201,-14.353 -3.101,-14.503c0.033,-0.067 0.7,-0.117 1.467,-0.117l1.384,0l0.167,0.784Z" style="fill:#fff;"/><path d="M17.689,26.371l0.051,1.133l-4.684,0l0,3.668l3.668,0l0,2.333l-3.668,0l0,4.001l4.668,0l0,2.333l-7.668,0l0,-7.219c0,-3.984 0.051,-7.285 0.117,-7.352c0.067,-0.051 1.767,-0.084 3.784,-0.067l3.684,0.051l0.051,1.117l-0.003,0Z" style="fill:#fff;"/><path d="M25.559,25.622c1.5,0.684 2.184,1.867 2.2,3.784c0,1.667 -0.3,2.551 -1.151,3.384l-0.717,0.684l1,2.967c0.551,1.617 1,3.051 1,3.184c0,0.184 -0.317,0.217 -1.517,0.184l-1.533,-0.051l-0.851,-2.867l-0.851,-2.884l-1.084,0l0,5.835l-3,0l0,-14.703l2.884,0.067c2.451,0.051 2.967,0.117 3.617,0.417l0.003,-0.001Zm-3.501,1.884l0,4.335l0.917,0c1.451,0 1.851,-0.6 1.717,-2.533c-0.1,-1.333 -0.567,-1.8 -1.817,-1.8l-0.817,0l0,-0.001Z" style="fill:#fff;"/></g></g></svg>