<?xml version="1.0" encoding="UTF-8" standalone="no"?><!DOCTYPE svg PUBLIC "-//W3C//DTD SVG 1.1//EN" "http://www.w3.org/Graphics/SVG/1.1/DTD/svg11.dtd"><svg width="100%" height="100%" viewBox="0 0 80 40" version="1.1" xmlns="http://www.w3.org/2000/svg" xmlns:xlink="http://www.w3.org/1999/xlink" xml:space="preserve" xmlns:serif="http://www.serif.com/" style="fill-rule:evenodd;clip-rule:evenodd;stroke-linejoin:round;stroke-miterlimit:2;"><path d="M62,19.318c0.177,0.177 0.318,0.387 0.414,0.618c0.096,0.231 0.145,0.479 0.145,0.729l0,2.885c0,0.25 -0.049,0.498 -0.144,0.729c-0.096,0.231 -0.236,0.441 -0.413,0.617l-3.634,3.627c-0.357,0.357 -0.841,0.557 -1.346,0.557l-2.66,0c-0.505,-0.001 -0.989,-0.201 -1.347,-0.557l-3.634,-3.627c-0.177,-0.177 -0.318,-0.387 -0.414,-0.619c-0.096,-0.232 -0.145,-0.48 -0.144,-0.731l0,-8.005c0,-0.067 0.02,-0.133 0.057,-0.189c0.037,-0.056 0.091,-0.1 0.153,-0.125c0.062,-0.026 0.131,-0.033 0.197,-0.019c0.066,0.013 0.127,0.046 0.174,0.093l2.793,2.79l0,-7.752c0,-0.067 0.02,-0.133 0.058,-0.189c0.038,-0.056 0.091,-0.099 0.153,-0.125c0.062,-0.026 0.131,-0.032 0.197,-0.019c0.066,0.013 0.127,0.046 0.174,0.093l9.221,9.218Zm-2.812,3.376l0,-1.122c-0,-0.075 -0.015,-0.149 -0.044,-0.219c-0.029,-0.069 -0.071,-0.132 -0.124,-0.185l-1.051,-1.052c-0.107,-0.107 -0.253,-0.167 -0.404,-0.167c-0.152,0 -0.297,0.06 -0.404,0.167l-1.468,1.472l-1.47,-1.472c-0.107,-0.107 -0.253,-0.167 -0.404,-0.167c-0.152,0 -0.297,0.06 -0.404,0.167l-1.052,1.052c-0.053,0.053 -0.096,0.116 -0.124,0.185c-0.029,0.069 -0.044,0.144 -0.044,0.219l0,1.122c0.002,0.15 0.062,0.293 0.168,0.399l2.921,2.942c0.053,0.054 0.116,0.096 0.186,0.125c0.069,0.029 0.144,0.044 0.219,0.044c0.075,0 0.15,-0.015 0.219,-0.044c0.069,-0.029 0.133,-0.071 0.186,-0.125l2.928,-2.938c0.107,-0.107 0.167,-0.252 0.167,-0.403Z" style="fill:#fff;"/><path d="M75.935,17.291c-0.753,0 -1.483,0.255 -2.073,0.723l-0.47,0.389c-0.071,0.055 -0.159,0.085 -0.249,0.085c-0.09,0 -0.178,-0.03 -0.249,-0.085l-0.472,-0.389c-0.59,-0.468 -1.32,-0.723 -2.073,-0.723l-0.087,0c-1.134,0 -2.128,0.619 -2.682,1.684c-0.011,0.022 -0.029,0.039 -0.051,0.05c-0.022,0.01 -0.047,0.013 -0.071,0.007c-0.024,-0.006 -0.045,-0.019 -0.06,-0.038c-0.015,-0.019 -0.024,-0.043 -0.024,-0.067l0,-1.193c0,-0.095 -0.038,-0.187 -0.105,-0.254c-0.067,-0.067 -0.159,-0.105 -0.254,-0.105l-2.491,0c-0.096,0 -0.187,0.039 -0.255,0.106c-0.067,0.068 -0.105,0.16 -0.105,0.255l0,9.832c0,0.097 0.038,0.189 0.107,0.257c0.068,0.068 0.161,0.107 0.257,0.107l2.482,0c0.097,0 0.189,-0.038 0.257,-0.107c0.068,-0.068 0.107,-0.161 0.107,-0.257l0,-5.866c-0,-0.161 0.031,-0.321 0.093,-0.47c0.062,-0.149 0.152,-0.284 0.266,-0.398c0.114,-0.114 0.25,-0.205 0.399,-0.266c0.149,-0.062 0.309,-0.093 0.47,-0.093l0.628,0c0.161,-0 0.321,0.031 0.47,0.093c0.149,0.062 0.285,0.152 0.399,0.266c0.114,0.114 0.205,0.25 0.267,0.399c0.062,0.149 0.094,0.309 0.094,0.47l0.008,5.867c0,0.048 0.009,0.095 0.028,0.139c0.018,0.044 0.045,0.084 0.079,0.118c0.034,0.034 0.074,0.06 0.118,0.079c0.044,0.018 0.091,0.027 0.139,0.027l2.482,0c0.097,0 0.189,-0.038 0.257,-0.107c0.068,-0.068 0.107,-0.161 0.107,-0.257l0,-5.866c0,-0.326 0.129,-0.638 0.36,-0.868c0.23,-0.23 0.543,-0.36 0.868,-0.36l0.63,0c0.161,-0 0.321,0.031 0.47,0.093c0.149,0.062 0.285,0.152 0.399,0.266c0.114,0.114 0.205,0.25 0.266,0.399c0.062,0.149 0.093,0.309 0.093,0.47l0.009,5.867c0,0.096 0.038,0.188 0.106,0.256c0.068,0.068 0.16,0.106 0.256,0.106l2.483,0c0.048,0 0.095,-0.009 0.139,-0.028c0.044,-0.018 0.084,-0.045 0.118,-0.079c0.034,-0.034 0.06,-0.074 0.079,-0.118c0.018,-0.044 0.027,-0.091 0.027,-0.139l0,-6.17c0.007,-0.536 -0.093,-1.068 -0.293,-1.566c-0.2,-0.497 -0.497,-0.95 -0.873,-1.332c-0.376,-0.382 -0.825,-0.686 -1.319,-0.893c-0.494,-0.208 -1.025,-0.315 -1.561,-0.316Zm-29.299,-3.732l-2.306,-2.306c-0.049,-0.05 -0.113,-0.084 -0.181,-0.098c-0.069,-0.014 -0.14,-0.007 -0.205,0.02c-0.065,0.027 -0.12,0.072 -0.159,0.131c-0.039,0.058 -0.06,0.127 -0.059,0.197l0,6.28c-0,0.038 -0.01,0.075 -0.03,0.107c-0.019,0.032 -0.047,0.059 -0.081,0.076c-0.033,0.018 -0.071,0.026 -0.108,0.024c-0.038,-0.002 -0.074,-0.014 -0.105,-0.036c-0.572,-0.389 -1.251,-0.59 -1.943,-0.576l-1.45,0c-0.538,-0 -1.07,0.106 -1.567,0.311c-0.497,0.206 -0.948,0.507 -1.328,0.887c-0.38,0.38 -0.682,0.831 -0.888,1.328c-0.206,0.497 -0.312,1.029 -0.312,1.567l0,2.381c0,0.538 0.106,1.07 0.312,1.567c0.206,0.497 0.507,0.948 0.888,1.328c0.38,0.38 0.832,0.682 1.328,0.888c0.497,0.206 1.029,0.312 1.567,0.312l0.806,0c1.134,0 2.128,-0.619 2.682,-1.684c0.011,-0.022 0.029,-0.039 0.051,-0.05c0.022,-0.01 0.047,-0.013 0.071,-0.007c0.024,0.006 0.045,0.019 0.06,0.038c0.015,0.019 0.024,0.043 0.024,0.067l0,1.275c0,0.047 0.009,0.094 0.027,0.137c0.018,0.044 0.044,0.083 0.078,0.116c0.033,0.033 0.073,0.06 0.116,0.078c0.044,0.018 0.09,0.027 0.137,0.027l2.491,0c0.095,-0 0.187,-0.038 0.254,-0.106c0.067,-0.067 0.105,-0.159 0.106,-0.254l0,-13.361c-0,-0.249 -0.1,-0.488 -0.276,-0.665Zm-7.525,10.106l0,-2.007c0,-0.326 0.13,-0.638 0.36,-0.868c0.23,-0.23 0.542,-0.36 0.868,-0.36l2.064,0c0.326,0 0.638,0.129 0.868,0.36c0.23,0.23 0.36,0.543 0.36,0.868l0,2.005c0,0.161 -0.031,0.321 -0.093,0.47c-0.062,0.149 -0.152,0.285 -0.266,0.399c-0.114,0.114 -0.25,0.205 -0.399,0.266c-0.149,0.062 -0.309,0.094 -0.47,0.094l-2.064,0c-0.326,-0 -0.638,-0.13 -0.868,-0.36c-0.23,-0.23 -0.36,-0.542 -0.36,-0.868Zm-18.07,-6.282l-2.49,0c-0.095,0 -0.186,0.038 -0.254,0.105c-0.067,0.067 -0.105,0.159 -0.105,0.254l0,1.273c-0,0.024 -0.009,0.048 -0.024,0.067c-0.015,0.019 -0.036,0.032 -0.06,0.038c-0.024,0.006 -0.049,0.003 -0.071,-0.007c-0.022,-0.01 -0.04,-0.028 -0.051,-0.05c-0.553,-1.062 -1.555,-1.684 -2.682,-1.684l-0.807,0c-1.086,0 -2.127,0.431 -2.895,1.199c-0.768,0.768 -1.199,1.809 -1.199,2.895l0,2.381c-0,0.538 0.106,1.07 0.311,1.567c0.206,0.497 0.507,0.948 0.887,1.328c0.38,0.38 0.831,0.682 1.328,0.888c0.497,0.206 1.029,0.312 1.567,0.312l0.807,0c1.132,0 2.128,-0.619 2.682,-1.684c0.011,-0.022 0.029,-0.039 0.051,-0.05c0.022,-0.01 0.047,-0.013 0.071,-0.007c0.024,0.006 0.045,0.019 0.06,0.038c0.015,0.019 0.024,0.043 0.024,0.067l0,1.275c0,0.095 0.038,0.186 0.105,0.254c0.067,0.067 0.159,0.105 0.254,0.105l2.49,0c0.095,0 0.187,-0.038 0.255,-0.105c0.067,-0.068 0.105,-0.159 0.105,-0.255l0,-9.845c-0,-0.047 -0.01,-0.094 -0.028,-0.137c-0.018,-0.043 -0.045,-0.083 -0.078,-0.116c-0.033,-0.033 -0.073,-0.059 -0.117,-0.077c-0.044,-0.018 -0.09,-0.027 -0.137,-0.027Zm-2.92,6.287c0,0.161 -0.032,0.321 -0.094,0.471c-0.062,0.149 -0.152,0.285 -0.266,0.399c-0.114,0.114 -0.25,0.205 -0.399,0.267c-0.149,0.062 -0.309,0.094 -0.471,0.094l-2.062,0c-0.326,0 -0.639,-0.13 -0.869,-0.36c-0.231,-0.23 -0.36,-0.543 -0.36,-0.869l0,-2.012c0,-0.326 0.13,-0.638 0.361,-0.868c0.231,-0.23 0.543,-0.36 0.869,-0.36l2.062,0c0.326,0 0.638,0.129 0.869,0.36c0.23,0.23 0.36,0.543 0.361,0.868l0,2.012Zm11.905,-6.287l-0.231,0c-1.132,0 -2.128,0.618 -2.682,1.684c-0.011,0.022 -0.029,0.039 -0.051,0.05c-0.022,0.01 -0.047,0.013 -0.071,0.007c-0.024,-0.006 -0.045,-0.019 -0.06,-0.038c-0.015,-0.019 -0.024,-0.043 -0.024,-0.067l0,-1.282c-0.001,-0.094 -0.04,-0.184 -0.107,-0.25c-0.067,-0.066 -0.158,-0.103 -0.252,-0.103l-2.49,0c-0.047,-0 -0.094,0.009 -0.138,0.027c-0.044,0.018 -0.084,0.045 -0.117,0.078c-0.033,0.034 -0.06,0.073 -0.078,0.117c-0.018,0.044 -0.027,0.091 -0.027,0.138l0,9.834c0,0.096 0.038,0.188 0.106,0.256c0.068,0.068 0.16,0.106 0.256,0.106l2.483,0c0.048,0 0.095,-0.009 0.139,-0.028c0.044,-0.018 0.084,-0.045 0.118,-0.079c0.034,-0.034 0.06,-0.074 0.079,-0.118c0.018,-0.044 0.028,-0.091 0.028,-0.139l0.009,-5.789c0,-0.326 0.129,-0.638 0.36,-0.868c0.23,-0.23 0.543,-0.36 0.868,-0.36l1.529,0c0.326,0 0.638,0.13 0.868,0.36c0.23,0.23 0.36,0.542 0.36,0.868l0.008,5.783c0,0.096 0.039,0.189 0.107,0.257c0.068,0.068 0.161,0.106 0.257,0.106l2.482,0c0.048,0 0.095,-0.009 0.139,-0.027c0.044,-0.018 0.084,-0.045 0.118,-0.079c0.034,-0.034 0.061,-0.074 0.079,-0.118c0.018,-0.044 0.028,-0.091 0.028,-0.139l0,-6.099c-0.001,-1.085 -0.433,-2.125 -1.201,-2.891c-0.768,-0.767 -1.808,-1.197 -2.893,-1.197Zm-27.923,-2.158c-0.558,0 -1.093,0.222 -1.487,0.617c-0.394,0.394 -0.616,0.929 -0.616,1.487l0,9.476c0,0.336 0.133,0.658 0.37,0.895l2.191,2.189c0.053,0.053 0.121,0.089 0.194,0.104c0.073,0.015 0.15,0.007 0.219,-0.022c0.069,-0.029 0.129,-0.077 0.17,-0.14c0.042,-0.062 0.064,-0.136 0.064,-0.211l0,-4.854c0,-0.094 0.037,-0.184 0.104,-0.25c0.066,-0.066 0.156,-0.104 0.25,-0.104l3.692,0c0.1,0 0.198,-0.032 0.279,-0.091c0.081,-0.059 0.141,-0.142 0.171,-0.238l0.696,-2.202c0.019,-0.06 0.024,-0.123 0.013,-0.184c-0.01,-0.062 -0.034,-0.12 -0.071,-0.171c-0.037,-0.051 -0.085,-0.092 -0.141,-0.12c-0.056,-0.028 -0.117,-0.043 -0.18,-0.043l-4.459,0c-0.047,0 -0.093,-0.009 -0.136,-0.027c-0.043,-0.018 -0.082,-0.044 -0.115,-0.077c-0.033,-0.033 -0.059,-0.072 -0.077,-0.115c-0.018,-0.043 -0.027,-0.089 -0.027,-0.136l0,-2.403c0,-0.046 0.009,-0.092 0.027,-0.135c0.018,-0.043 0.044,-0.082 0.077,-0.115c0.033,-0.033 0.072,-0.059 0.115,-0.076c0.043,-0.018 0.089,-0.027 0.135,-0.026l5.666,0c0.1,0 0.197,-0.032 0.278,-0.091c0.081,-0.059 0.14,-0.142 0.171,-0.237l0.701,-2.184c0.019,-0.06 0.024,-0.123 0.013,-0.184c-0.01,-0.062 -0.034,-0.12 -0.071,-0.171c-0.037,-0.051 -0.085,-0.092 -0.141,-0.12c-0.056,-0.028 -0.117,-0.043 -0.18,-0.043l-7.897,0Z" style="fill:#fff;fill-rule:nonzero;"/></svg>