<?xml version="1.0" encoding="UTF-8" standalone="no"?><!DOCTYPE svg PUBLIC "-//W3C//DTD SVG 1.1//EN" "http://www.w3.org/Graphics/SVG/1.1/DTD/svg11.dtd"><svg width="100%" height="100%" viewBox="0 0 116 40" version="1.1" xmlns="http://www.w3.org/2000/svg" xmlns:xlink="http://www.w3.org/1999/xlink" xml:space="preserve" xmlns:serif="http://www.serif.com/" style="fill-rule:evenodd;clip-rule:evenodd;stroke-linejoin:round;stroke-miterlimit:2;"><g><g><path d="M78.6,16.2c1.81,0.455 2.882,1.476 3.306,3.114c0.233,0.93 0.253,2.305 0.101,6.259c-0.131,3.499 -0.01,3.903 1.213,3.994c0.556,0.04 0.607,0.061 0.607,0.283c0,0.344 -0.303,0.576 -1.132,0.839c-0.971,0.313 -2.235,0.324 -2.922,0.03c-0.688,-0.293 -1.304,-1.203 -1.304,-1.911l0,-0.283l-0.263,0.334c-0.142,0.182 -0.303,0.293 -0.364,0.263c-0.071,-0.051 -0.081,-0.02 -0.03,0.051c0.101,0.172 -0.88,1.062 -1.517,1.375c-1.072,0.526 -2.771,0.586 -3.933,0.142c-0.768,-0.303 -1.577,-1.031 -1.891,-1.729c-0.192,-0.435 -0.243,-0.708 -0.243,-1.446c0,-0.799 0.04,-0.981 0.283,-1.486c0.708,-1.446 2.407,-2.366 6.219,-3.377l1.406,-0.364l0.051,-0.829c0.091,-1.375 -0.051,-2.457 -0.394,-3.044c-0.677,-1.163 -2.134,-1.507 -3.741,-0.9c-0.415,0.162 -0.425,0.172 -0.526,0.839c-0.051,0.364 -0.131,0.981 -0.162,1.375c-0.091,1.011 -0.142,1.153 -0.465,1.315c-0.627,0.334 -1.739,0.081 -2.134,-0.485c-0.303,-0.425 -0.303,-1.274 -0.01,-1.85c0.475,-0.9 2.063,-1.972 3.569,-2.407c1.274,-0.364 3.054,-0.404 4.277,-0.101Zm-1.193,7.584c-1.719,0.222 -2.396,0.475 -2.973,1.102c-0.728,0.799 -0.779,2.063 -0.121,3.104c0.384,0.607 0.839,0.91 1.436,0.971c0.647,0.061 0.93,-0.02 1.365,-0.415c0.698,-0.607 0.93,-1.476 0.961,-3.6c0.02,-1.294 0.04,-1.244 -0.667,-1.163Z" style="fill:#fff;"/><path d="M110.604,16.372c1.486,0.536 2.417,1.537 2.811,3.003c0.202,0.789 0.212,2.457 0.04,5.855c-0.071,1.254 -0.091,2.518 -0.061,2.821c0.131,1.122 0.516,1.537 1.426,1.537c0.556,0 0.688,0.202 0.354,0.556c-0.688,0.738 -2.791,1.062 -3.893,0.597c-0.677,-0.283 -1.365,-1.274 -1.365,-1.982c0,-0.253 -0.152,-0.233 -0.273,0.051c-0.202,0.415 -0.88,1.112 -1.466,1.486c-0.809,0.526 -1.77,0.748 -2.902,0.677c-1.577,-0.091 -2.73,-0.779 -3.317,-1.972c-0.243,-0.506 -0.283,-0.698 -0.283,-1.486c0,-0.718 0.051,-1.011 0.222,-1.385c0.677,-1.476 2.366,-2.427 6.118,-3.428l1.588,-0.425l0.071,-0.445c0.091,-0.586 -0.01,-2.508 -0.152,-2.973c-0.162,-0.536 -0.839,-1.254 -1.375,-1.466c-0.556,-0.212 -1.911,-0.152 -2.538,0.101c-0.485,0.202 -0.576,0.415 -0.748,1.78c-0.233,1.83 -0.313,1.962 -1.264,1.891c-1.102,-0.081 -1.608,-0.546 -1.598,-1.486c0,-1.092 1.264,-2.447 2.851,-3.044c1.365,-0.516 1.901,-0.597 3.499,-0.566c1.335,0.03 1.608,0.071 2.255,0.303Zm-2.407,7.513c-1.456,0.243 -2.154,0.647 -2.578,1.486c-0.374,0.758 -0.354,1.466 0.081,2.295c0.425,0.849 0.91,1.234 1.618,1.294c0.728,0.061 1.294,-0.233 1.689,-0.859c0.374,-0.586 0.475,-1.143 0.566,-2.942l0.061,-1.436l-0.283,0.01c-0.162,0.01 -0.677,0.071 -1.153,0.152Z" style="fill:#fff;"/><path d="M4.705,9.729c0.981,0.344 1.537,1.264 1.446,2.417c-0.061,0.708 -0.455,1.315 -1.092,1.668c-0.607,0.344 -1.668,0.354 -2.285,0.03c-1.092,-0.576 -1.547,-1.84 -1.052,-2.902c0.273,-0.576 0.667,-0.93 1.274,-1.173c0.617,-0.243 1.082,-0.253 1.709,-0.04Z" style="fill:#fff;"/><path d="M68.742,16.392c0.779,0.313 1.163,1.224 0.95,2.235c-0.192,0.94 -0.758,1.486 -1.335,1.304c-0.111,-0.04 -0.576,-0.404 -1.011,-0.819c-0.94,-0.88 -1.183,-0.93 -1.952,-0.455c-0.88,0.566 -1.426,1.618 -1.689,3.246c-0.051,0.364 -0.101,2.174 -0.101,4.014l0,3.367l0.233,0.142c0.131,0.091 0.637,0.192 1.183,0.233l0.961,0.081l0,0.809l-4.166,0.03l-4.176,0.02l-0.061,-0.263c-0.081,-0.334 0.101,-0.495 0.677,-0.586c0.597,-0.091 1.082,-0.586 1.193,-1.224c0.121,-0.667 0.263,-8.2 0.172,-9.181c-0.091,-0.91 -0.293,-1.173 -1.082,-1.436c-0.526,-0.182 -0.738,-0.516 -0.506,-0.799c0.233,-0.273 2.396,-0.637 4.156,-0.688l0.961,-0.03l0.03,1.689c0.01,0.94 0.061,1.699 0.111,1.699c0.04,0 0.222,-0.283 0.394,-0.637c0.172,-0.344 0.495,-0.839 0.708,-1.102c1.355,-1.628 2.912,-2.214 4.348,-1.648Z" style="fill:#fff;"/><path d="M98.915,9.163c-0.131,0.586 -0.222,6.421 -0.202,12.235c0.03,6.653 0.04,6.937 0.222,7.25c0.243,0.394 0.344,0.445 1.122,0.526l0.607,0.061l0.03,0.374c0.03,0.324 -0.01,0.394 -0.253,0.526c-0.576,0.293 -2.71,0.637 -4.328,0.688l-0.91,0.03l-0.03,-1.193c-0.01,-0.647 -0.061,-1.183 -0.111,-1.183c-0.04,0 -0.142,0.121 -0.222,0.263c-0.233,0.445 -1.395,1.436 -2.053,1.759c-2.093,1.021 -4.924,0.324 -6.35,-1.567c-1.234,-1.638 -1.78,-4.368 -1.345,-6.825c0.303,-1.749 0.991,-3.064 2.164,-4.166c1.82,-1.709 4.338,-2.265 7.321,-1.638l0.273,0.061l0,-1.749c0,-2.599 -0.061,-3.074 -0.445,-3.478c-0.222,-0.233 -0.526,-0.394 -1.021,-0.546c-0.384,-0.121 -0.738,-0.273 -0.779,-0.344c-0.152,-0.243 -0.081,-0.455 0.202,-0.556c0.677,-0.273 2.912,-0.586 4.722,-0.657c1.203,-0.061 1.416,-0.04 1.385,0.131Zm-7.776,8.342c-1.011,0.506 -1.476,1.315 -1.871,3.185c-0.384,1.83 -0.111,4.308 0.647,5.814c0.384,0.779 0.9,1.304 1.598,1.648c0.465,0.233 0.688,0.273 1.365,0.273c0.708,0 0.87,-0.04 1.294,-0.283c0.263,-0.162 0.526,-0.404 0.586,-0.536c0.051,-0.152 0.091,-2.053 0.091,-4.449c0,-4.631 0.02,-4.49 -0.657,-5.076c-0.576,-0.506 -1.143,-0.758 -1.871,-0.799c-0.566,-0.04 -0.738,-0.01 -1.183,0.222Z" style="fill:#fff;"/><path d="M22.481,21.802c0.02,4.965 0.03,5.44 0.202,5.814c0.374,0.829 0.88,1.163 1.77,1.163c0.708,0 1.294,-0.324 1.861,-1.021c0.435,-0.546 0.536,-0.728 0.87,-1.648c0.253,-0.708 0.253,-0.768 0.293,-4.105c0.04,-3.65 0.02,-3.822 -0.475,-3.964c-0.142,-0.04 -0.516,-0.121 -0.829,-0.182c-0.576,-0.111 -0.586,-0.121 -0.586,-0.455c0,-0.293 0.04,-0.354 0.334,-0.445c1.062,-0.334 5.48,-0.768 5.612,-0.546c0.04,0.061 0.04,0.586 0.01,1.163c-0.04,0.566 -0.071,3.266 -0.081,5.976c-0.01,5.46 -0.02,5.42 0.617,5.622c0.182,0.051 0.546,0.131 0.809,0.172c0.485,0.061 0.597,0.192 0.506,0.576c-0.051,0.202 -0.657,0.394 -1.992,0.627c-1.183,0.202 -3.569,0.404 -3.671,0.313c-0.04,-0.04 -0.091,-0.748 -0.121,-1.557l-0.051,-1.486l-0.344,0.536c-0.445,0.698 -1.658,1.81 -2.285,2.103c-1.143,0.526 -2.498,0.688 -3.539,0.404c-1.325,-0.344 -2.043,-1.062 -2.599,-2.548c-0.212,-0.576 -0.222,-0.789 -0.273,-5.116c-0.071,-5.207 -0.01,-4.924 -1.052,-5.288c-0.546,-0.182 -0.576,-0.212 -0.576,-0.536c0,-0.394 0.111,-0.445 1.436,-0.688c0.89,-0.152 3.074,-0.334 3.802,-0.303l0.334,0.01l0.02,5.41Z" style="fill:#fff;"/><path d="M42.441,16.2c0.981,0.202 1.759,0.546 2.032,0.9c0.212,0.273 0.222,0.374 0.202,1.861c-0.03,1.507 -0.04,1.577 -0.243,1.608c-0.172,0.02 -0.283,-0.131 -0.677,-0.93c-0.738,-1.527 -1.537,-2.225 -2.821,-2.487c-0.728,-0.142 -1.406,-0.051 -2.043,0.283c-0.92,0.506 -1.254,1.335 -0.92,2.336c0.283,0.88 0.961,1.315 3.155,2.073c1.749,0.597 2.619,1.021 3.195,1.567c1.395,1.304 1.567,3.529 0.425,5.329c-0.617,0.961 -2.022,1.81 -3.509,2.103c-2.083,0.425 -5.349,-0.051 -6.138,-0.89c-0.111,-0.121 -0.273,-0.415 -0.364,-0.657c-0.192,-0.546 -0.404,-3.236 -0.273,-3.367c0.233,-0.233 0.485,0 0.91,0.849c0.789,1.557 1.719,2.498 2.872,2.882c0.799,0.273 2.225,0.253 2.76,-0.04c0.495,-0.263 1.011,-0.789 1.153,-1.173c0.172,-0.435 0.131,-1.304 -0.061,-1.588c-0.556,-0.839 -0.971,-1.082 -3.054,-1.77c-0.799,-0.263 -1.699,-0.607 -2.002,-0.768c-1.689,-0.89 -2.427,-2.174 -2.336,-4.024c0.061,-1.092 0.364,-1.81 1.112,-2.599c0.789,-0.839 1.395,-1.183 2.659,-1.507c0.728,-0.192 3.023,-0.182 3.964,0.01Z" style="fill:#fff;"/><path d="M14.463,11.134c-0.03,1.173 -0.051,5.683 -0.051,10.041l0,7.927l0.324,0.283c0.233,0.212 0.465,0.303 0.88,0.354c0.617,0.081 0.799,0.222 0.748,0.576l-0.03,0.233l-3.842,0.02c-2.113,0.02 -3.903,-0.01 -3.984,-0.061c-0.091,-0.061 -0.111,-0.182 -0.071,-0.354c0.051,-0.202 0.172,-0.283 0.556,-0.404c0.637,-0.192 0.961,-0.404 1.122,-0.748c0.212,-0.455 0.293,-3.347 0.293,-10.465c0.01,-7.26 0.01,-7.23 -0.506,-7.594c-0.131,-0.091 -0.546,-0.253 -0.91,-0.364c-0.657,-0.202 -0.799,-0.324 -0.799,-0.708c0,-0.192 0.313,-0.293 1.567,-0.495c0.92,-0.152 4.014,-0.404 4.601,-0.364c0.131,0 0.142,0.283 0.101,2.123Z" style="fill:#fff;"/><path d="M6.09,22.449c-0.03,3.367 -0.01,6.279 0.02,6.471c0.091,0.455 0.364,0.637 1.153,0.779c0.698,0.121 0.88,0.273 0.789,0.647l-0.061,0.253l-3.933,0c-3.488,0 -3.944,-0.02 -3.994,-0.162c-0.131,-0.344 -0.061,-0.546 0.222,-0.607c0.597,-0.131 0.991,-0.273 1.173,-0.435c0.455,-0.394 0.485,-0.647 0.597,-5.238c0.051,-2.396 0.061,-4.621 0.02,-4.934c-0.081,-0.708 -0.394,-1.082 -1.112,-1.335c-0.455,-0.172 -0.506,-0.222 -0.536,-0.516c-0.04,-0.394 0.04,-0.435 1.497,-0.677c0.89,-0.152 1.881,-0.233 3.893,-0.334l0.313,-0.02l-0.04,6.107Z" style="fill:#fff;"/><path d="M52.462,14.967l0.02,1.709l1.041,-0.071c0.87,-0.051 2.609,-0.091 3.094,-0.071c0.111,0.01 0.131,0.142 0.071,0.627c-0.03,0.344 -0.111,0.688 -0.172,0.758c-0.081,0.101 -0.586,0.142 -2.073,0.162l-1.972,0.03l0.01,4.399c0,2.417 0.051,4.57 0.091,4.783c0.324,1.385 1.759,2.002 3.448,1.497c0.404,-0.121 0.799,-0.202 0.87,-0.172c0.485,0.192 -0.364,1.092 -1.668,1.77c-1.385,0.718 -3.074,0.768 -4.479,0.142c-0.688,-0.303 -1.507,-1.122 -1.8,-1.79c-0.364,-0.849 -0.404,-1.507 -0.404,-5.986c0,-2.407 -0.03,-4.439 -0.061,-4.53c-0.051,-0.121 -0.212,-0.162 -0.738,-0.162c-0.394,0 -0.728,-0.051 -0.799,-0.121c-0.071,-0.071 -0.121,-0.313 -0.121,-0.556c0,-0.415 0.01,-0.425 0.435,-0.536c0.88,-0.233 1.082,-0.324 1.375,-0.657c0.324,-0.374 0.647,-1.284 0.768,-2.154c0.061,-0.425 0.111,-0.536 0.283,-0.576c0.374,-0.091 1.921,-0.233 2.346,-0.212l0.404,0.01l0.03,1.709Z" style="fill:#fff;"/></g></g></svg>