<?xml version="1.0" encoding="UTF-8" standalone="no"?><!DOCTYPE svg PUBLIC "-//W3C//DTD SVG 1.1//EN" "http://www.w3.org/Graphics/SVG/1.1/DTD/svg11.dtd"><svg width="100%" height="100%" viewBox="0 0 28 40" version="1.1" xmlns="http://www.w3.org/2000/svg" xmlns:xlink="http://www.w3.org/1999/xlink" xml:space="preserve" xmlns:serif="http://www.serif.com/" style="fill-rule:evenodd;clip-rule:evenodd;stroke-linejoin:round;stroke-miterlimit:2;"><g><path d="M20.498,8.452l5.78,-3.393c0.109,-0.039 0.223,-0.059 0.339,-0.059c0.432,0 0.818,0.279 0.954,0.689c0.055,0.133 0.078,0.277 0.066,0.42l0,20.58c-0.057,0.475 -0.472,0.833 -0.951,0.818l-2.653,0c-0.513,-0.022 -0.928,-0.438 -0.951,-0.951l0,-14.888l-1.768,1.006c-0.467,0.23 -1.04,0.035 -1.271,-0.431c-0.063,-0.135 -0.093,-0.282 -0.088,-0.431l0,-2.498c-0.004,-0.368 0.208,-0.706 0.542,-0.862Z" style="fill:#fff;fill-rule:nonzero;"/><path d="M8.849,23.505c-2.404,-0.03 -4.366,-2.016 -4.366,-4.421c-0.022,-0.043 -0.04,-0.087 -0.055,-0.133c-0.006,-0.09 -0.008,-0.181 -0.008,-0.271c0,-2.377 1.956,-4.333 4.333,-4.333c2.321,0 4.25,1.865 4.33,4.184c0.011,0.14 0.011,0.28 0,0.42c0.101,2.379 -1.737,4.433 -4.112,4.598l-0.122,-0.044Zm5.349,-13.263c-0.451,-0.038 -0.855,0.3 -0.895,0.752c-0.011,0.051 -0.011,0.104 0,0.155l0,1.006c-1.205,-1.375 -2.936,-2.178 -4.764,-2.211c-4.717,0.111 -8.537,4.022 -8.537,8.74c0,0.089 0.001,0.178 0.004,0.268c-0.186,4.531 3.383,8.414 7.914,8.61l0.486,0c1.755,0.017 3.439,-0.7 4.642,-1.978c0,3.559 -1.912,5.173 -5.128,5.173c-1.871,-0.044 -3.688,-0.644 -5.217,-1.724c-0.15,-0.127 -0.34,-0.197 -0.536,-0.197c-0.245,0 -0.478,0.109 -0.635,0.296c-0.057,0.061 -0.102,0.133 -0.133,0.21l-1.105,2.133c-0.273,0.439 -0.15,1.023 0.276,1.315l0.066,0c2.222,1.422 4.801,2.188 7.438,2.211c6.189,0 9.594,-3.316 9.594,-11.053l0,-12.799c0.004,-0.031 0.005,-0.062 0.005,-0.093c0,-0.417 -0.32,-0.771 -0.735,-0.814l-2.763,0l0.022,0Z" style="fill:#fff;fill-rule:nonzero;"/></g></svg>