<?xml version="1.0" encoding="UTF-8" standalone="no"?><!DOCTYPE svg PUBLIC "-//W3C//DTD SVG 1.1//EN" "http://www.w3.org/Graphics/SVG/1.1/DTD/svg11.dtd"><svg width="100%" height="100%" viewBox="0 0 129 40" version="1.1" xmlns="http://www.w3.org/2000/svg" xmlns:xlink="http://www.w3.org/1999/xlink" xml:space="preserve" xmlns:serif="http://www.serif.com/" style="fill-rule:evenodd;clip-rule:evenodd;stroke-linejoin:round;stroke-miterlimit:2;"><path d="M122.347,16.542l-0.876,2.847c-1.597,5.231 -3.929,6.744 -5.256,6.744c-1.11,0 -1.567,-0.801 -1.567,-2.635c0,-5.223 3.412,-11.507 6.023,-11.507c1.309,0 2.507,1.795 1.675,4.552Zm6.448,-11.313c0.043,-0.15 -0.019,-0.227 -0.135,-0.227l-5.188,0c-0.005,-0 -0.01,-0.001 -0.016,-0.001c-0.119,0 -0.216,0.098 -0.216,0.216c0,0 0,0.001 0,0.001c0,0.097 0.054,0.153 0.131,0.153l2.369,0l-2.765,9.081c-0.086,-1.756 -1.162,-2.901 -2.763,-2.901c-3.938,0 -8.169,4.95 -8.169,9.651c0,3.689 2.065,5.333 3.955,5.333c1.624,0 3.333,-1.288 4.582,-3.834c-0.483,2.636 0.642,3.834 2.354,3.834c1.243,0 2.499,-0.856 4.292,-5.189c0.059,-0.143 -0.013,-0.237 -0.157,-0.237c-0.091,-0.004 -0.174,0.054 -0.201,0.141c-1.705,3.919 -2.66,4.576 -3.287,4.576c-0.598,0 -0.926,-0.441 -0.309,-2.517l5.523,-18.081Zm-28.013,17.812c0,-2.704 1.415,-7.876 3.532,-10.062c0.552,-0.644 1.353,-1.023 2.201,-1.043c1.284,0 2.199,0.795 2.199,3.112c0,2.704 -1.415,7.875 -3.532,10.062c-0.552,0.644 -1.353,1.023 -2.201,1.044c-1.286,0 -2.199,-0.795 -2.199,-3.113Zm10.512,-5.687c0,-3.424 -2.396,-5.803 -4.996,-5.803c-4.356,0 -8.096,4.531 -8.096,9.182c0,3.424 2.395,5.802 4.996,5.802c4.357,0.001 8.097,-4.529 8.097,-9.18l0,-0.001Zm-20.9,-4.375c0.553,-0.644 1.353,-1.023 2.201,-1.043c1.284,-0 2.199,0.795 2.199,3.112c0,2.704 -1.416,7.875 -3.533,10.062c-0.552,0.643 -1.352,1.023 -2.199,1.044c-1.286,0 -2.199,-0.795 -2.199,-3.113c-0.001,-2.704 1.413,-7.876 3.531,-10.062Zm-1.117,13.558c4.356,0 8.097,-4.531 8.097,-9.181c0,-3.424 -2.396,-5.803 -4.996,-5.803c-4.357,0 -8.097,4.531 -8.097,9.182c0,3.423 2.396,5.802 4.996,5.802Zm-7.29,-14.903c-0.01,-0 -0.021,-0 -0.031,-0c-0.885,0 -1.613,0.728 -1.613,1.613c0,0.885 0.728,1.613 1.613,1.613c0,0 0.001,-0 0.001,-0c0.647,0.002 1.232,-0.396 1.468,-0.999c0.056,0.322 0.083,0.648 0.083,0.974c0,4.928 -4.231,11.105 -7.204,11.105c-1.013,0 -1.712,-0.642 -0.769,-3.348l3.292,-10.673l-2.999,0l-2.073,6.746c-1.579,5.021 -3.921,7.275 -5.3,7.275c-0.933,0 -1.48,-0.684 -0.768,-2.996l3.275,-10.796c0.043,-0.149 -0.019,-0.227 -0.135,-0.227l-4.978,0c-0.005,-0 -0.01,-0.001 -0.015,-0.001c-0.119,0 -0.217,0.098 -0.217,0.217c0,0.001 0,0.001 0,0.002c-0,0.097 0.053,0.153 0.131,0.153l2.159,0l-2.748,8.974c-1.059,3.442 0.545,5.273 2.916,5.273c1.686,0 3.48,-1.831 4.762,-4.605c-0.55,2.828 0.839,4.605 2.898,4.605c4.339,0 8.249,-7.093 8.249,-11.828c0,-2.292 -0.853,-3.076 -1.997,-3.076Zm-32.891,9.478c-0.091,-0.004 -0.174,0.054 -0.2,0.141c-1.705,3.919 -2.66,4.576 -3.287,4.576c-0.598,0 -0.926,-0.441 -0.31,-2.517l5.524,-18.082c0.043,-0.15 -0.019,-0.227 -0.135,-0.227l-4.978,0c-0.005,-0 -0.01,-0.001 -0.015,-0.001c-0.119,0 -0.216,0.098 -0.216,0.216c0,0 0,0.001 0,0.001c0,0.097 0.054,0.153 0.131,0.153l2.159,0l-5.088,16.646c-0.831,3.047 0.3,4.517 2.282,4.517c1.243,0 2.499,-0.856 4.292,-5.189c0.059,-0.143 -0.013,-0.237 -0.159,-0.237l0.001,0.001Zm-7.685,0c-0.091,-0.004 -0.174,0.054 -0.2,0.141c-1.705,3.919 -2.66,4.576 -3.287,4.576c-0.598,0 -0.926,-0.441 -0.31,-2.517l5.524,-18.082c0.043,-0.15 -0.019,-0.227 -0.135,-0.227l-4.978,0c-0.005,-0 -0.01,-0.001 -0.015,-0.001c-0.119,0 -0.216,0.098 -0.216,0.216c0,0 0,0.001 0,0.001c-0,0.097 0.054,0.153 0.131,0.153l2.159,0l-5.089,16.646c-0.831,3.047 0.301,4.517 2.282,4.517c1.243,0 2.499,-0.856 4.292,-5.189c0.059,-0.143 -0.013,-0.237 -0.158,-0.237l0,0.001Zm-13.248,3.999c-0.552,0.644 -1.352,1.023 -2.2,1.044c-1.286,0 -2.199,-0.795 -2.199,-3.113c0,-2.704 1.415,-7.875 3.532,-10.062c0.552,-0.643 1.352,-1.023 2.2,-1.043c1.286,0 2.199,0.795 2.199,3.112c0,2.703 -1.415,7.874 -3.532,10.061l0,0.001Zm1.117,-13.558c-4.356,0 -8.097,4.531 -8.097,9.182c0,3.424 2.396,5.802 4.996,5.802c4.357,0 8.096,-4.531 8.096,-9.181c0,-3.425 -2.395,-5.804 -4.996,-5.804l-0,0.001Zm-8.989,14.248l-2.761,0l6.247,-20.428l2.566,-0c0.005,0 0.01,0.001 0.016,0.001c0.119,0 0.216,-0.098 0.216,-0.216c0,-0.001 -0,-0.001 -0,-0.002c0,-0.097 -0.053,-0.153 -0.131,-0.153l-8.355,0c-0.005,-0 -0.01,-0.001 -0.015,-0.001c-0.119,0 -0.216,0.098 -0.216,0.216c0,0 0,0.001 0,0.001c0,0.097 0.054,0.153 0.131,0.153l2.568,0l-3.029,9.909l-8.302,0l3.031,-9.911l2.383,0c0.005,0 0.01,0.001 0.015,0.001c0.119,0 0.216,-0.098 0.216,-0.216c0,-0 -0,-0.001 -0,-0.001c0,-0.098 -0.053,-0.153 -0.131,-0.153l-8.355,0c-0.005,-0 -0.01,-0.001 -0.015,-0.001c-0.119,0 -0.216,0.098 -0.216,0.216c0,0 0,0.001 0,0.001c0,0.097 0.054,0.153 0.131,0.153l2.753,0l-6.247,20.428l-2.559,0c-0.005,-0 -0.01,-0.001 -0.016,-0.001c-0.119,0 -0.216,0.098 -0.216,0.216c0,0.001 0,0.001 0,0.002c0,0.098 0.054,0.153 0.131,0.153l8.355,0c0.005,0 0.01,0.001 0.015,0.001c0.119,0 0.216,-0.098 0.216,-0.216c0,-0 -0,-0.001 -0,-0.001c-0,-0.097 -0.053,-0.153 -0.131,-0.153l-2.577,0l3.103,-10.148l8.303,0l-3.103,10.147l-2.375,0c-0.005,-0 -0.01,-0.001 -0.016,-0.001c-0.119,0 -0.216,0.098 -0.216,0.216c0,0.001 0,0.002 0,0.002c0,0.098 0.053,0.153 0.131,0.153l8.355,0c0.005,0 0.01,0.001 0.015,0.001c0.119,0 0.216,-0.098 0.216,-0.216c0,-0 -0,-0.001 -0,-0.001c0,-0.098 -0.054,-0.153 -0.131,-0.153l0.001,0.002Zm30.754,-13.664c0,0.074 0.037,0.12 0.095,0.126c0.135,0.018 0.271,0.027 0.407,0.026l1.751,0l-0.044,0.264l-2.671,8.693c-1.051,3.493 0.559,5.27 2.891,5.289c0.113,0.001 0.227,-0.005 0.339,-0.019c1.507,-0.178 3.103,-1.687 4.393,-4.431c0.002,-0.005 -0.033,0.113 -0.031,0.109l-2.222,7.185c-1.197,3.977 -2.633,5.147 -4.189,5.188c-0.318,0.008 -0.637,-0.011 -0.952,-0.056c-1.13,-0.164 -1.947,-0.64 -2.372,-1.323c0.308,0.216 0.681,0.317 1.056,0.288c0.499,-0.043 0.953,-0.308 1.234,-0.723c0.207,-0.31 0.305,-0.68 0.279,-1.052c-0.036,-0.544 -0.337,-1.037 -0.805,-1.316c-0.284,-0.168 -0.613,-0.246 -0.943,-0.224c-0.64,0.045 -1.201,0.454 -1.439,1.05c-0.114,0.281 -0.166,0.584 -0.151,0.887c0.055,1.481 1.421,2.635 3.377,2.828c0.215,0.021 0.431,0.031 0.647,0.031c3.007,-0.022 6.042,-1.533 7.613,-6.683l5,-16.356l-3,0l-1.401,4.563c-0.019,0.061 -0.457,1.486 -0.477,1.543c-1.775,5.725 -4.056,7.875 -5.49,7.912c-0.105,0.003 -0.211,-0.006 -0.315,-0.024c-0.758,-0.146 -1.087,-0.932 -0.604,-2.604l3.368,-11.162c0.031,-0.111 -0.013,-0.171 -0.089,-0.181c-0.178,-0.031 -0.358,-0.047 -0.538,-0.046l-4.15,0c-0.018,0 -0.369,0.006 -0.379,0.016c-0.106,0.006 -0.191,0.095 -0.189,0.202Zm21.276,17.517l-0.383,1.239l3.16,0l-0.406,1.327l-3.165,0l-0.4,1.294l3.967,0l-0.409,1.345l-5.813,0l2.003,-6.552l5.814,0l-0.412,1.345l-3.956,0.002Zm-6.02,-0.115l-1.817,0l-0.56,1.833l1.673,0c0.753,0 1.23,-0.222 1.432,-0.882l0.018,-0.058c0.178,-0.583 -0.055,-0.893 -0.746,-0.893Zm2.618,1.04l-0.049,0.16c-0.275,0.925 -0.963,1.488 -2.07,1.696l1.166,2.423l-1.949,0l-0.993,-2.251l-1.478,0l-0.688,2.251l-1.85,0l2.004,-6.552l3.737,0c1.887,0.001 2.579,0.935 2.171,2.272l0,-0.001Zm27.842,-1.04l-1.817,0l-0.56,1.833l1.673,0c0.753,0 1.223,-0.222 1.424,-0.882l0.018,-0.058c0.178,-0.583 -0.047,-0.893 -0.739,-0.893l0.001,0Zm2.618,1.04l-0.049,0.16c-0.275,0.925 -0.963,1.488 -2.069,1.696l1.166,2.423l-1.949,0l-0.993,-2.251l-1.478,0l-0.688,2.251l-1.85,0l2.004,-6.552l3.737,0c1.887,0.001 2.578,0.935 2.171,2.272l0,-0.001Zm19.17,-1.04l-1.817,0l-0.56,1.833l1.673,0c0.753,0 1.23,-0.222 1.432,-0.882l0.018,-0.058c0.178,-0.583 -0.055,-0.893 -0.746,-0.893l0,0Zm2.618,1.04l-0.049,0.16c-0.275,0.925 -0.963,1.488 -2.07,1.696l1.166,2.423l-1.95,0l-0.993,-2.251l-1.478,0l-0.688,2.251l-1.85,0l2.003,-6.552l3.737,0c1.887,0.001 2.579,0.935 2.17,2.272l0,-0.001Zm-7.586,-0.925l0.412,-1.345l-5.814,0l-2.004,6.551l5.813,0l0.409,-1.345l-3.967,0l0.4,-1.294l3.165,0l0.406,-1.327l-3.161,0l0.383,-1.239l3.956,-0.001Zm-32.501,-0.115l-1.651,0l-0.618,2.025l1.551,0c0.783,0 1.254,-0.259 1.442,-0.879l0.044,-0.145c0.221,-0.724 0.015,-1 -0.768,-1l0,-0.001Zm2.664,1.099l-0.073,0.235c-0.403,1.322 -1.305,1.928 -3.117,1.928l-2.121,0l-0.629,2.059l-1.85,0l2.003,-6.552l3.445,0c2.087,0.001 2.744,1.018 2.342,2.331l0,-0.001Zm22.943,-0.984l0.412,-1.345l-6.482,0l-0.412,1.345l2.385,0l-1.593,5.205l1.86,0l1.593,-5.205l2.237,0Zm-47.36,-19.625l0.622,-2.035l1.955,0l-0.622,2.035l1.473,0l1.537,-5.027l-1.471,0l-0.587,1.92l-1.955,0l0.587,-1.92l-1.473,0l-1.537,5.027l1.471,0Zm-5.297,0l1.47,0l1.206,-3.941l1.617,0l0.332,-1.086l-4.935,0l-0.332,1.086l1.851,0l-1.208,3.941Zm14.199,0l0.332,-1.087l-2.964,0l0.275,-0.887l2.429,0l0.328,-1.072l-2.425,0l0.277,-0.897l2.952,0l0.334,-1.086l-4.433,0l-1.535,5.029l4.43,-0.001Zm21.406,21.133c0.298,-0.985 -0.175,-1.611 -1.345,-1.611c-1.066,0 -1.644,0.475 -1.934,1.422l-0.319,1.034c-0.298,0.985 0.175,1.611 1.345,1.611c1.066,0 1.644,-0.475 1.934,-1.422m-4.755,-1.392c0.573,-1.873 1.821,-2.636 4.089,-2.636c2.126,0 3.381,1.176 2.697,3.412l-0.236,0.785c-0.573,1.873 -1.821,2.636 -4.089,2.636c-2.126,0 -3.381,-1.176 -2.697,-3.412l0.236,-0.785Z" style="fill:#fff;fill-rule:nonzero;"/></svg>