<?xml version="1.0" encoding="UTF-8" standalone="no"?><!DOCTYPE svg PUBLIC "-//W3C//DTD SVG 1.1//EN" "http://www.w3.org/Graphics/SVG/1.1/DTD/svg11.dtd"><svg width="100%" height="100%" viewBox="0 0 31 40" version="1.1" xmlns="http://www.w3.org/2000/svg" xmlns:xlink="http://www.w3.org/1999/xlink" xml:space="preserve" xmlns:serif="http://www.serif.com/" style="fill-rule:evenodd;clip-rule:evenodd;stroke-linejoin:round;stroke-miterlimit:2;"><g><path d="M11.664,5.01c-1.477,0.24 -2.825,1.067 -3.591,2.199c-0.326,0.486 -7.482,12.946 -7.668,13.347c-0.08,0.18 -0.205,0.541 -0.275,0.801c-0.11,0.416 -0.125,0.576 -0.13,1.277c0,0.866 0.07,1.252 0.351,1.963c0.306,0.771 0.881,1.568 1.497,2.063c0.521,0.416 4.332,2.694 5.734,3.426c0.371,0.195 2.184,1.222 4.032,2.284c1.848,1.062 3.546,2.028 3.781,2.144c0.235,0.12 0.651,0.275 0.927,0.351c0.441,0.115 0.596,0.13 1.302,0.135c0.666,0 0.871,-0.02 1.212,-0.11c1.182,-0.306 2.149,-0.912 2.84,-1.773c0.285,-0.356 1.558,-2.539 6.616,-11.359c1.382,-2.409 1.502,-2.664 1.653,-3.531c0.326,-1.878 -0.471,-3.891 -1.988,-5.023c-0.416,-0.311 -4.287,-2.649 -5.95,-3.591c-0.811,-0.461 -1.422,-0.776 -1.502,-0.776c-0.055,0 -0.671,-0.351 -4.232,-2.404c-0.826,-0.476 -1.648,-0.937 -1.828,-1.017c-0.576,-0.26 -1.197,-0.391 -1.953,-0.411c-0.371,-0.01 -0.741,-0.005 -0.826,0.005Zm4.558,9.761c0.496,0.13 0.982,0.331 0.942,0.386c-0.015,0.035 -0.005,0.04 0.025,0.02c0.14,-0.085 1.082,0.696 1.262,1.052c0.04,0.08 0.105,0.175 0.14,0.21c0.055,0.065 0.08,0.135 0.065,0.22c0,0.025 0.015,0.04 0.04,0.04c0.11,0 0.406,1.072 0.406,1.477l0,0.175l-2.995,0l-0.055,-0.16c-0.03,-0.085 -0.11,-0.23 -0.18,-0.316c-0.065,-0.09 -0.105,-0.175 -0.09,-0.195c0.02,-0.015 0.01,-0.03 -0.02,-0.03c-0.03,0 -0.15,-0.075 -0.27,-0.165c-0.12,-0.085 -0.255,-0.165 -0.295,-0.175c-0.04,-0.01 -0.085,-0.035 -0.1,-0.06c-0.015,-0.02 -0.316,-0.035 -0.676,-0.03l-0.651,0.005l-0.376,0.195c-0.416,0.21 -1.132,0.886 -1.172,1.102c-0.03,0.15 -0.09,0.28 -0.135,0.28c-0.03,0 -0.035,0.02 -0.02,0.05c0.015,0.025 0.005,0.05 -0.025,0.05c-0.03,0 -0.045,0.02 -0.03,0.045c0.015,0.025 -0.005,0.13 -0.05,0.235c-0.17,0.401 -0.235,1.172 -0.15,1.673c0.04,0.205 0.06,0.386 0.05,0.396c-0.01,0.01 0.01,0.045 0.045,0.08c0.035,0.035 0.125,0.175 0.205,0.311c0.08,0.13 0.235,0.3 0.351,0.371c0.441,0.285 0.526,0.311 1.092,0.321c0.295,0.005 0.541,-0.01 0.541,-0.035c0,-0.02 0.035,-0.04 0.08,-0.04c0.225,0 0.756,-0.331 1.132,-0.706l0.401,-0.396l1.447,0c0.957,0 1.447,0.015 1.447,0.05c0,0.095 -0.346,0.756 -0.586,1.122c-0.295,0.451 -1.182,1.362 -1.267,1.307c-0.04,-0.025 -0.055,-0.02 -0.035,0.01c0.04,0.065 -0.621,0.501 -1.022,0.681c-0.796,0.361 -1.588,0.536 -2.419,0.546c-0.541,0.01 -1.162,-0.04 -1.252,-0.1c-0.025,-0.015 -0.12,-0.035 -0.215,-0.045c-0.09,-0.01 -0.225,-0.045 -0.3,-0.075c-0.08,-0.03 -0.155,-0.06 -0.17,-0.06c-0.02,-0.005 -0.225,-0.105 -0.461,-0.225c-0.621,-0.321 -1.272,-0.967 -1.467,-1.457c-0.05,-0.125 -0.105,-0.235 -0.12,-0.25c-0.04,-0.025 -0.16,-0.376 -0.18,-0.501c-0.005,-0.04 -0.035,-0.155 -0.07,-0.25c-0.105,-0.331 -0.125,-1.432 -0.025,-2.008c0.045,-0.285 0.1,-0.541 0.115,-0.571c0.015,-0.025 0.035,-0.11 0.045,-0.19c0.01,-0.075 0.04,-0.19 0.075,-0.25c0.03,-0.06 0.065,-0.155 0.07,-0.21c0.03,-0.255 0.676,-1.472 0.932,-1.753c0.28,-0.316 0.836,-0.876 0.866,-0.876c0.02,0 0.08,-0.055 0.135,-0.125c0.055,-0.07 0.125,-0.125 0.16,-0.125c0.035,0 0.15,-0.08 0.26,-0.175c0.105,-0.095 0.215,-0.17 0.245,-0.16c0.025,0.01 0.09,-0.025 0.145,-0.075c0.055,-0.05 0.14,-0.09 0.19,-0.09c0.05,0 0.09,-0.02 0.09,-0.045c0,-0.025 0.075,-0.07 0.165,-0.105c0.085,-0.035 0.23,-0.095 0.316,-0.13c0.23,-0.1 1.232,-0.331 1.327,-0.306c0.045,0.015 0.115,0 0.15,-0.025c0.105,-0.07 1.573,-0.005 1.923,0.085Zm-7.287,0.16c-0.025,0.105 -0.08,0.406 -0.12,0.666c-0.045,0.26 -0.09,0.531 -0.11,0.601c-0.015,0.07 -0.035,0.215 -0.05,0.326c-0.015,0.11 -0.055,0.356 -0.095,0.551c-0.035,0.19 -0.14,0.766 -0.225,1.277c-0.145,0.846 -0.576,3.245 -0.626,3.481c-0.01,0.055 -0.03,0.18 -0.045,0.275c-0.015,0.095 -0.04,0.265 -0.055,0.376c-0.02,0.11 -0.065,0.371 -0.1,0.576c-0.04,0.205 -0.095,0.531 -0.13,0.726c-0.03,0.19 -0.08,0.396 -0.105,0.456c-0.025,0.055 -0.04,0.12 -0.035,0.15c0.005,0.025 0.005,0.13 0,0.235l-0.005,0.19l-1.397,-0.005c-1.282,-0.005 -1.397,-0.01 -1.377,-0.09c0.01,-0.045 0.055,-0.311 0.1,-0.586c0.045,-0.275 0.105,-0.526 0.13,-0.561c0.025,-0.035 0.035,-0.085 0.02,-0.11c-0.02,-0.03 0.035,-0.416 0.115,-0.866c0.085,-0.451 0.21,-1.142 0.275,-1.543c0.12,-0.711 0.306,-1.753 0.356,-2.003c0.015,-0.07 0.065,-0.356 0.11,-0.641c0.045,-0.28 0.1,-0.511 0.12,-0.511c0.02,0 0.025,-0.04 0.015,-0.09c-0.015,-0.045 0.015,-0.265 0.06,-0.486c0.045,-0.22 0.085,-0.441 0.085,-0.491c0.005,-0.045 0.02,-0.085 0.04,-0.085c0.02,0 0.035,-0.05 0.035,-0.115c-0.005,-0.18 0.055,-0.606 0.13,-0.997c0.04,-0.2 0.09,-0.481 0.105,-0.626l0.035,-0.26l1.392,-0.005l1.392,0l-0.04,0.185Zm14.554,-0.05c-0.015,0.08 -0.085,0.476 -0.16,0.891c-0.07,0.411 -0.205,1.177 -0.295,1.703c-0.09,0.521 -0.326,1.863 -0.521,2.98c-0.195,1.117 -0.366,2.078 -0.381,2.139l-0.025,0.115l1.548,0c0.851,0 1.563,0.02 1.578,0.045c0.03,0.045 -0.3,1.938 -0.351,2.018c-0.015,0.02 -1.342,0.04 -2.955,0.04c-2.694,0 -2.925,-0.005 -2.925,-0.085c0,-0.185 0.321,-1.943 0.356,-1.958c0.02,-0.01 0.03,-0.045 0.015,-0.075c-0.01,-0.035 0.035,-0.376 0.105,-0.761c0.07,-0.386 0.195,-1.122 0.285,-1.638c0.085,-0.516 0.175,-0.927 0.2,-0.912c0.02,0.015 0.025,-0.005 0.01,-0.045c-0.025,-0.07 0.12,-0.952 0.531,-3.27c0.11,-0.616 0.2,-1.162 0.2,-1.222c0,-0.1 0.025,-0.1 1.407,-0.1l1.407,0l-0.03,0.135Z" style="fill:#fff;fill-rule:nonzero;"/></g></svg>