<?xml version="1.0" encoding="UTF-8" standalone="no"?><!DOCTYPE svg PUBLIC "-//W3C//DTD SVG 1.1//EN" "http://www.w3.org/Graphics/SVG/1.1/DTD/svg11.dtd"><svg width="100%" height="100%" viewBox="0 0 83 40" version="1.1" xmlns="http://www.w3.org/2000/svg" xmlns:xlink="http://www.w3.org/1999/xlink" xml:space="preserve" xmlns:serif="http://www.serif.com/" style="fill-rule:evenodd;clip-rule:evenodd;stroke-linejoin:round;stroke-miterlimit:2;"><path d="M28.841,11.557c0.752,0 1.367,0.85 1.367,1.914l-2.781,0.334c0.076,-1.458 0.537,-2.248 1.413,-2.248Zm24.783,0c0.752,0 1.367,0.85 1.367,1.914l-2.781,0.334c0.076,-1.458 0.537,-2.248 1.414,-2.248Zm21.449,9.555l7.068,0l0,-1.306l-7.068,0l0,1.306Zm-13.074,-8.826c0.17,-0.061 0.368,-0.106 0.769,-0.106c1.536,0 2.582,1.003 2.582,3.236c0,1.853 -1.029,3.114 -2.521,3.114c-0.246,0 -0.538,-0.046 -0.83,-0.136l0,-6.108Zm-22.94,0.911l1.921,0l0,-2.446c-0.368,-0.152 -0.615,-0.213 -0.968,-0.213c-0.598,0 -1.321,0.395 -2.075,0.988l-0.553,0.426l0,-1.414l-0.399,0l-3.795,0.76l0,0.577l1.276,0.38l0,5.97l-1.276,0.455l0,0.516l5.624,0l0,-0.516l-1.43,-0.455l0,-5.605c0.369,-0.136 1.014,-0.243 1.168,-0.243l0.507,0.819Zm7.145,-2.659c-2.413,0 -5.056,1.489 -5.056,4.815c0,2.765 1.859,4.071 3.872,4.071c0.693,0 1.491,-0.092 2.658,-0.577l1.414,-0.593l-0.199,-0.547c-0.354,0.136 -0.845,0.228 -1.536,0.228c-1.906,0 -3.349,-1.124 -3.349,-3.662c0,-1.763 1.029,-2.72 1.967,-2.72c0.093,0 0.2,0.015 0.292,0.061l0.845,1.579l1.766,0l0,-2.153c-0.709,-0.259 -1.677,-0.503 -2.674,-0.503Zm26.152,-1.352l-0.709,0l-3.334,1.899l0,0.639l1.122,0.106l0,6.016c0,1.08 0.86,1.581 2.075,1.581c0.569,0 1.629,-0.183 2.336,-0.395l1.23,-0.38l-0.108,-0.562c-0.199,0.046 -0.553,0.061 -0.752,0.061c-1.122,0 -1.859,-0.41 -1.859,-1.778l0,-4.451l2.628,0.136l0,-1.291l-2.628,0l0,-1.581Zm-50.52,0l-0.709,0l-3.334,1.899l0,0.639l1.122,0.106l0,6.016c0,1.08 0.86,1.581 2.075,1.581c0.568,0 1.629,-0.183 2.336,-0.395l1.23,-0.38l-0.108,-0.562c-0.2,0.046 -0.553,0.061 -0.752,0.061c-1.122,0 -1.859,-0.41 -1.859,-1.778l0,-4.451l2.628,0.136l0,-1.291l-2.628,0l0,-1.581Zm11.169,5.257l0,-0.244c0,-1.307 -0.891,-3.662 -3.887,-3.662c-2.274,0 -4.564,1.489 -4.564,4.815c0,2.72 2.013,4.071 4.211,4.071c0.646,0 1.583,-0.106 2.674,-0.577l1.367,-0.593l-0.199,-0.547c-0.354,0.136 -0.845,0.228 -1.568,0.228c-1.69,0 -3.549,-0.972 -3.626,-3.495l5.591,0l0,0.003Zm24.785,0l0,-0.244c0,-1.307 -0.891,-3.662 -3.887,-3.662c-2.274,0 -4.564,1.489 -4.564,4.815c0,2.72 2.013,4.071 4.211,4.071c0.645,0 1.583,-0.106 2.673,-0.577l1.367,-0.593l-0.2,-0.547c-0.353,0.136 -0.845,0.228 -1.568,0.228c-1.69,0 -3.549,-0.972 -3.626,-3.495l5.594,0l0,0.003Zm-56.299,-5.788l0,9.388l-1.49,0.562l0,0.592l6.56,0l0,-0.592l-1.49,-0.562l0,-9.388l1.49,-0.563l0,-0.592l-6.56,0l0,0.592l1.49,0.563Zm15.305,9.571l0,-4.71c0,-1.747 -0.661,-2.977 -2.443,-2.977c-0.737,0 -1.291,0.228 -2.013,0.547l-1.306,0.562l0,-1.109l-0.399,0l-3.795,0.76l0,0.577l1.276,0.38l0,5.97l-1.276,0.455l0,0.516l5.316,0l0,-0.516l-1.122,-0.455l0,-5.926c0.277,-0.075 0.752,-0.121 1.107,-0.121c0.953,0 1.737,0.516 1.737,2.066l0,3.981l-1.122,0.455l0,0.516l5.316,0l0,-0.516l-1.276,-0.455Zm45.204,-7.689l-0.399,0l-3.795,0.76l0,0.577l1.276,0.38l0,9.312l-1.276,0.456l0,0.516l5.777,0l0,-0.516l-1.583,-0.456l0,-2.141l0.598,0c3.596,0 5.608,-2.158 5.608,-5.149c0,-2.567 -1.813,-3.737 -3.165,-3.737c-0.538,0 -1.474,0.319 -2.336,0.744l-0.583,0.288l-0.123,0l0,-1.034l0.001,0Z" style="fill:#fff;fill-rule:nonzero;"/><path d="M11.163,23.182c0,-1.492 -1.34,-2.634 -4.496,-2.634l-6.667,0l0,0.593l1.493,0.563l0,9.407l-1.493,0.565l0,0.593l6.344,0c3.572,0 5.25,-1.309 5.25,-3.41c0,-1.797 -1.34,-2.724 -3.279,-3.045c1.647,-0.257 2.848,-0.973 2.848,-2.632Zm9.724,3.076l1.771,0l0.785,-1.461c0.093,-0.046 0.293,-0.092 0.538,-0.092c0.847,0 1.17,0.365 1.17,1.369l0,1.415l-1.663,0.259c-2.248,0.365 -3.249,1.127 -3.249,2.557c0,1.233 0.893,2.192 2.309,2.192c0.646,0 1.6,-0.259 2.603,-1.142l0.154,0c0.139,0.822 0.57,1.142 1.186,1.142c0.447,0 1.047,-0.138 1.755,-0.426l1.001,-0.411l0,-0.442l-1.17,-0.457l0,-5.115c0,-1.035 -0.492,-2.056 -3.048,-2.056c-0.878,0 -2.879,0.426 -4.142,0.958l0,1.71Zm26.143,-5.98l-0.401,0l-3.496,0.762l0,0.578l0.969,0.685l0,8.994l-0.969,0.457l0,0.518l4.866,0l0,-0.518l-0.969,-0.457l0,-11.019Zm-10.5,9.268c0,-2.649 -4.064,-2.634 -4.064,-4.232c0,-0.457 0.338,-0.745 0.969,-0.745c0.154,0 0.369,0.031 0.462,0.075l0.785,1.34l1.524,0l0,-1.918c-0.369,-0.152 -1.771,-0.472 -2.818,-0.472c-1.879,0 -3.418,0.944 -3.418,2.786c0,2.649 4.064,2.634 4.064,4.232c0,0.624 -0.447,0.914 -1.062,0.914c-0.23,0 -0.538,-0.061 -0.678,-0.152l-0.785,-1.415l-1.524,0l0,1.918c0.646,0.29 1.986,0.624 2.941,0.624c1.91,-0.002 3.603,-0.961 3.603,-2.955Zm-18.453,-3.288l1.925,0l0,-2.45c-0.369,-0.152 -0.616,-0.213 -0.969,-0.213c-0.6,0 -1.324,0.396 -2.079,0.989l-0.555,0.442l0,-1.432l-0.401,0l-3.802,0.762l0,0.578l1.277,0.38l0,5.982l-1.277,0.457l0,0.518l5.635,0l0,-0.518l-1.431,-0.457l0,-5.617c0.369,-0.121 1.016,-0.244 1.17,-0.244l0.509,0.822Zm23.326,-2.665l-0.401,0l-3.496,0.762l0,0.578l0.969,0.685l0,5.677l-0.969,0.457l0,0.518l4.866,0l0,-0.518l-0.969,-0.457l0,-7.702Zm-36.321,7.551l-0,-4.475l0.447,0c1.894,0 2.386,0.975 2.386,2.298c0,1.522 -0.817,2.177 -2.263,2.177l-0.57,0Zm0,-9.469l0.6,0c1.277,0 1.894,0.609 1.894,2.085c0,1.233 -0.6,1.933 -1.585,1.933l-0.908,0l0,-4.018Zm33.195,-0.089c0,0.914 0.462,1.294 1.663,1.294c1.201,0 1.678,-0.38 1.678,-1.294c0,-0.914 -0.477,-1.309 -1.678,-1.309c-1.201,0 -1.663,0.395 -1.663,1.309Zm-13.71,9.176c-0.908,0 -1.6,-0.305 -1.6,-1.188c0,-0.549 0.308,-0.929 1.14,-1.066l1.047,-0.167l0,2.344c-0.109,0.047 -0.449,0.077 -0.586,0.077Z" style="fill:#fff;fill-rule:nonzero;"/></svg>