<?xml version="1.0" encoding="UTF-8" standalone="no"?><!DOCTYPE svg PUBLIC "-//W3C//DTD SVG 1.1//EN" "http://www.w3.org/Graphics/SVG/1.1/DTD/svg11.dtd"><svg width="100%" height="100%" viewBox="0 0 113 40" version="1.1" xmlns="http://www.w3.org/2000/svg" xmlns:xlink="http://www.w3.org/1999/xlink" xml:space="preserve" xmlns:serif="http://www.serif.com/" style="fill-rule:evenodd;clip-rule:evenodd;stroke-linejoin:round;stroke-miterlimit:2;"><g><path d="M2.056,12.438c0,-0.6 -0.135,-1.016 -0.405,-1.248c-0.251,-0.251 -0.686,-0.396 -1.304,-0.435c-0.232,0 -0.347,-0.126 -0.347,-0.377c0,-0.097 0.029,-0.174 0.087,-0.232c0.076,-0.077 0.181,-0.12 0.29,-0.117l0.724,0.029c0.85,0.077 1.902,0.116 3.157,0.116l-1.506,0c1.255,0 2.307,-0.039 3.157,-0.116l0.724,-0.029c0.116,0 0.203,0.039 0.261,0.116c0.077,0.058 0.116,0.136 0.116,0.232c0,0.252 -0.116,0.377 -0.348,0.377c-0.618,0.039 -1.062,0.184 -1.332,0.436c-0.251,0.232 -0.377,0.648 -0.377,1.248l0,14.92c0,0.6 0.126,1.025 0.377,1.277c0.27,0.232 0.714,0.368 1.332,0.406c0.232,0 0.348,0.126 0.348,0.377c0,0.097 -0.039,0.184 -0.116,0.261c-0.058,0.058 -0.145,0.087 -0.261,0.087l-0.724,-0.029c-0.85,-0.077 -1.902,-0.116 -3.157,-0.116l1.506,0c-1.255,0 -2.307,0.039 -3.157,0.116l-0.724,0.029c-0.116,0 -0.212,-0.029 -0.289,-0.087c-0.057,-0.075 -0.088,-0.167 -0.087,-0.261c-0,-0.251 0.116,-0.377 0.347,-0.377c0.618,-0.039 1.052,-0.174 1.304,-0.406c0.27,-0.252 0.405,-0.677 0.405,-1.277l0,-14.92Zm16.847,17.184c-1.255,0 -2.307,0.039 -3.157,0.116l-0.724,0.029c-0.116,0 -0.212,-0.029 -0.289,-0.087c-0.057,-0.075 -0.088,-0.167 -0.087,-0.261c0,-0.251 0.116,-0.377 0.347,-0.377c0.618,-0.039 1.052,-0.174 1.304,-0.406c0.27,-0.252 0.405,-0.677 0.405,-1.277l0,-8.563c0,-0.716 -0.154,-1.268 -0.463,-1.655c-0.309,-0.406 -0.763,-0.61 -1.361,-0.61c-0.579,0 -1.11,0.136 -1.593,0.406c-0.464,0.252 -1.072,0.687 -1.825,1.306l0,-0.871c1.603,-1.567 3.128,-2.351 4.576,-2.351c1.101,0 1.931,0.31 2.491,0.929c0.56,0.62 0.84,1.481 0.84,2.584l-0.029,8.824c0,0.6 0.125,1.025 0.376,1.277c0.27,0.232 0.714,0.368 1.332,0.406c0.232,0 0.348,0.126 0.348,0.377c0,0.097 -0.039,0.184 -0.116,0.261c-0.058,0.058 -0.145,0.087 -0.261,0.087l-0.724,-0.029c-0.85,-0.077 -1.902,-0.116 -3.157,-0.116l1.767,0Zm-7.531,0c-1.255,0 -2.308,0.039 -3.157,0.116l-0.724,0.029c-0.116,0 -0.212,-0.029 -0.29,-0.087c-0.057,-0.075 -0.088,-0.167 -0.087,-0.261c0,-0.251 0.116,-0.377 0.347,-0.377c0.618,-0.039 1.052,-0.174 1.304,-0.406c0.27,-0.252 0.405,-0.677 0.405,-1.277l0,-9.086c0,-1.045 -0.521,-1.606 -1.564,-1.684c-0.251,-0.039 -0.376,-0.164 -0.376,-0.377c0,-0.096 0.029,-0.174 0.087,-0.232c0.076,-0.077 0.181,-0.119 0.29,-0.116c0.714,-0.019 1.323,-0.077 1.825,-0.174c0.502,-0.096 1.043,-0.28 1.622,-0.551c0.231,-0.116 0.415,-0.145 0.55,-0.087c0.155,0.039 0.232,0.174 0.232,0.406l0,11.901c0,0.6 0.125,1.025 0.376,1.277c0.271,0.232 0.715,0.368 1.332,0.406c0.232,0 0.347,0.126 0.347,0.377c0,0.097 -0.039,0.184 -0.116,0.261c-0.058,0.058 -0.145,0.087 -0.261,0.087l-0.724,-0.029c-0.85,-0.077 -1.902,-0.116 -3.157,-0.116l1.738,0Zm14.666,0.377c-0.212,0 -0.367,-0.136 -0.464,-0.406l-4.142,-11.872c-0.193,-0.581 -0.415,-0.996 -0.666,-1.248c-0.232,-0.271 -0.57,-0.436 -1.014,-0.494c-0.251,-0.039 -0.376,-0.164 -0.376,-0.377c0,-0.232 0.125,-0.349 0.376,-0.349l0.637,0.029c0.618,0.077 1.323,0.116 2.114,0.116c0.29,0 0.589,-0.01 0.898,-0.029c0.309,-0.019 0.608,-0.039 0.898,-0.058l1.159,-0.058c0.096,0 0.174,0.029 0.232,0.087c0.077,0.058 0.116,0.136 0.116,0.232c0,0.194 -0.106,0.31 -0.319,0.349c-0.579,0.116 -0.956,0.3 -1.13,0.551c-0.154,0.251 -0.154,0.6 0,1.045l2.375,6.879c0.039,0.077 0.077,0.145 0.116,0.204c0.039,0.039 0.077,0.058 0.116,0.058c0.096,0 0.164,-0.096 0.203,-0.29l1.883,-6.85c0.116,-0.445 0.087,-0.794 -0.087,-1.045c-0.154,-0.252 -0.502,-0.436 -1.043,-0.551c-0.212,-0.058 -0.318,-0.174 -0.318,-0.349c0,-0.096 0.029,-0.174 0.087,-0.232c0.077,-0.058 0.164,-0.087 0.261,-0.087c0.174,0 0.473,0.019 0.898,0.058c0.463,0.039 0.85,0.058 1.159,0.058l0.869,-0.058l0.811,-0.058c0.251,0 0.377,0.116 0.377,0.348c0,0.213 -0.125,0.339 -0.376,0.377c-0.425,0.039 -0.772,0.194 -1.043,0.464c-0.251,0.271 -0.463,0.697 -0.637,1.277l-3.562,11.872c-0.096,0.271 -0.232,0.406 -0.406,0.406Zm10.621,0c-1.41,0 -2.597,-0.348 -3.563,-1.045c-0.946,-0.716 -1.651,-1.645 -2.114,-2.786c-0.444,-1.142 -0.666,-2.38 -0.666,-3.716c0,-1.374 0.27,-2.622 0.811,-3.745c0.541,-1.142 1.284,-2.041 2.23,-2.7c0.946,-0.658 1.999,-0.987 3.157,-0.987c1.062,0 1.989,0.232 2.781,0.696c0.811,0.465 1.429,1.104 1.854,1.916c0.444,0.793 0.666,1.684 0.666,2.67c0,0.368 -0.097,0.668 -0.29,0.9c-0.174,0.213 -0.444,0.319 -0.811,0.319l-9.471,0l0,-0.842l6.836,-0.174c0.328,-0.019 0.57,-0.106 0.724,-0.261c0.174,-0.174 0.261,-0.445 0.261,-0.813c0,-1.064 -0.232,-1.906 -0.695,-2.525c-0.444,-0.639 -1.043,-0.958 -1.796,-0.958c-1.043,0 -1.873,0.6 -2.491,1.8c-0.599,1.2 -0.898,2.854 -0.898,4.964c0,1.722 0.319,3.154 0.956,4.296c0.656,1.141 1.641,1.712 2.954,1.712c1.004,0 1.796,-0.329 2.375,-0.987c0.599,-0.677 1.033,-1.761 1.303,-3.251c0.077,-0.329 0.261,-0.484 0.55,-0.464c0.193,0 0.328,0.068 0.405,0.203c0.077,0.136 0.097,0.319 0.058,0.551c-0.637,3.483 -2.346,5.225 -5.127,5.225Zm10.526,-0c-1.371,0 -2.645,-0.213 -3.823,-0.639c-0.251,-0.077 -0.435,-0.194 -0.55,-0.348c-0.096,-0.174 -0.135,-0.397 -0.116,-0.668c0.077,-0.89 0.077,-2.138 0,-3.744c-0.019,-0.155 0.01,-0.271 0.087,-0.349c0.096,-0.077 0.212,-0.116 0.347,-0.116c0.251,0 0.386,0.136 0.406,0.406c0.135,1.606 0.531,2.757 1.187,3.454c0.676,0.696 1.583,1.045 2.722,1.045c0.83,0 1.477,-0.213 1.941,-0.639c0.464,-0.426 0.695,-1.016 0.695,-1.771c0,-0.542 -0.164,-1.006 -0.492,-1.394c-0.328,-0.387 -0.821,-0.716 -1.477,-0.987l-2.549,-1.074c-1.95,-0.832 -2.926,-2.139 -2.926,-3.919c0,-1.277 0.464,-2.303 1.39,-3.077c0.927,-0.774 2.172,-1.161 3.736,-1.161c1.332,0 2.53,0.194 3.592,0.58c0.27,0.097 0.396,0.339 0.376,0.726c-0.058,0.716 -0.048,1.703 0.029,2.961c0.02,0.136 -0.01,0.242 -0.087,0.32c-0.076,0.077 -0.181,0.119 -0.29,0.116c-0.251,0 -0.396,-0.136 -0.435,-0.406c-0.116,-1.064 -0.463,-1.877 -1.042,-2.438c-0.579,-0.581 -1.371,-0.881 -2.375,-0.9c-0.85,-0.019 -1.526,0.174 -2.027,0.581c-0.502,0.387 -0.753,0.909 -0.753,1.567c0,0.503 0.125,0.939 0.376,1.306c0.27,0.349 0.724,0.668 1.361,0.958l3.099,1.422c0.927,0.426 1.593,0.948 1.999,1.567c0.405,0.6 0.608,1.345 0.608,2.235c0,1.316 -0.444,2.38 -1.332,3.193c-0.888,0.794 -2.114,1.19 -3.679,1.19Zm10.639,-0.029c-1.062,0 -1.873,-0.29 -2.433,-0.871c-0.56,-0.6 -0.84,-1.451 -0.84,-2.554l0,-9.986l-2.172,-0.116c-0.116,0 -0.212,-0.029 -0.29,-0.087c-0.057,-0.075 -0.088,-0.167 -0.087,-0.261c0,-0.194 0.125,-0.319 0.376,-0.377c1.004,-0.29 1.825,-0.881 2.462,-1.771c0.656,-0.89 1.052,-1.926 1.187,-3.106c0.019,-0.155 0.077,-0.281 0.174,-0.377c0.096,-0.096 0.222,-0.145 0.376,-0.145c0.155,0 0.27,0.049 0.347,0.145c0.097,0.097 0.145,0.232 0.145,0.406l0,4.383l3.62,0c0.212,0 0.357,0.029 0.435,0.087c0.096,0.058 0.145,0.194 0.145,0.406c0,0.271 -0.145,0.532 -0.434,0.784c-0.27,0.232 -0.608,0.339 -1.014,0.319l-2.752,-0.145l0,10.101c0,0.639 0.116,1.113 0.347,1.422c0.251,0.29 0.637,0.436 1.159,0.436c0.444,0 0.83,-0.165 1.159,-0.494c0.347,-0.349 0.637,-0.861 0.869,-1.539c0.077,-0.232 0.232,-0.339 0.464,-0.319c0.174,0 0.29,0.077 0.347,0.232c0.077,0.136 0.077,0.319 0,0.551c-0.367,1.084 -0.888,1.839 -1.564,2.264c-0.657,0.406 -1.332,0.61 -2.027,0.61Zm16.283,-6.88c0.024,0.026 0.043,0.055 0.058,0.087c0.039,0.077 0.096,0.116 0.174,0.116c0.077,0 0.116,-0.077 0.116,-0.232l0,-10.624c0,-0.6 -0.135,-1.016 -0.406,-1.248c-0.251,-0.251 -0.685,-0.396 -1.303,-0.435c-0.232,0 -0.347,-0.126 -0.347,-0.377c0,-0.097 0.029,-0.174 0.087,-0.232c0.077,-0.077 0.174,-0.116 0.29,-0.116l0.724,0.029c0.85,0.077 1.902,0.116 3.157,0.116l-3.36,0c1.255,0 2.307,-0.039 3.157,-0.116l0.724,-0.03c0.116,0 0.203,0.039 0.261,0.116c0.077,0.058 0.116,0.136 0.116,0.232c0,0.252 -0.116,0.377 -0.348,0.377c-0.618,0.039 -1.062,0.184 -1.332,0.436c-0.251,0.232 -0.377,0.648 -0.377,1.248l0,17.01c0,0.174 -0.058,0.31 -0.174,0.406c-0.097,0.096 -0.222,0.145 -0.377,0.145c-0.231,0 -0.415,-0.116 -0.55,-0.348l-10.08,-17.649c-0.077,-0.116 -0.145,-0.174 -0.203,-0.174c-0.096,0 -0.145,0.068 -0.145,0.204l0,15.326c0,0.6 0.125,1.025 0.376,1.277c0.27,0.232 0.715,0.368 1.332,0.406c0.232,0 0.347,0.126 0.347,0.377c0,0.097 -0.039,0.184 -0.116,0.261c-0.058,0.058 -0.145,0.087 -0.261,0.087l-0.724,-0.029c-0.85,-0.077 -1.902,-0.116 -3.157,-0.116l3.36,0c-1.255,0 -2.307,0.039 -3.157,0.116l-0.724,0.029c-0.116,0 -0.212,-0.029 -0.29,-0.087c-0.057,-0.075 -0.088,-0.167 -0.087,-0.261c0,-0.251 0.116,-0.377 0.347,-0.377c0.618,-0.039 1.052,-0.174 1.304,-0.406c0.27,-0.252 0.405,-0.677 0.405,-1.277l0,-14.92c0,-0.619 -0.125,-1.055 -0.376,-1.306c-0.251,-0.252 -0.676,-0.377 -1.274,-0.377c-0.232,0 -0.348,-0.126 -0.348,-0.377c0,-0.097 0.029,-0.174 0.087,-0.232c0.077,-0.077 0.174,-0.116 0.29,-0.116c0.231,0 0.599,0.019 1.1,0.058c0.579,0.039 1.072,0.058 1.477,0.058c0.231,0 0.56,-0.019 0.985,-0.058c0.335,-0.059 0.674,-0.088 1.014,-0.087c0.309,0 0.55,0.077 0.724,0.232c0.174,0.136 0.386,0.426 0.637,0.871l6.865,11.988Zm9.169,6.909c-1.409,0 -2.597,-0.348 -3.563,-1.045c-0.946,-0.716 -1.651,-1.645 -2.114,-2.786c-0.444,-1.142 -0.666,-2.38 -0.666,-3.716c0,-1.374 0.27,-2.622 0.811,-3.745c0.54,-1.142 1.284,-2.041 2.23,-2.7c0.946,-0.658 1.998,-0.987 3.157,-0.987c1.061,0 1.989,0.232 2.781,0.696c0.811,0.465 1.429,1.104 1.853,1.916c0.445,0.793 0.666,1.684 0.666,2.67c0,0.368 -0.097,0.668 -0.289,0.9c-0.174,0.213 -0.445,0.319 -0.811,0.319l-9.471,0l0,-0.842l6.836,-0.174c0.328,-0.019 0.57,-0.106 0.724,-0.261c0.174,-0.174 0.261,-0.445 0.261,-0.813c0,-1.064 -0.232,-1.906 -0.696,-2.525c-0.444,-0.639 -1.042,-0.958 -1.796,-0.958c-1.043,0 -1.872,0.6 -2.491,1.8c-0.599,1.2 -0.898,2.854 -0.898,4.964c0,1.722 0.319,3.154 0.956,4.296c0.656,1.141 1.641,1.712 2.954,1.712c1.005,0 1.796,-0.329 2.376,-0.987c0.598,-0.677 1.033,-1.761 1.303,-3.251c0.077,-0.329 0.261,-0.484 0.55,-0.464c0.193,0 0.328,0.068 0.405,0.203c0.077,0.136 0.097,0.319 0.058,0.551c-0.637,3.483 -2.346,5.225 -5.126,5.225Zm14.666,-12.685c0.213,-1.006 0.01,-1.51 -0.608,-1.51c-0.309,0 -0.521,0.126 -0.637,0.377c-0.097,0.251 -0.077,0.61 0.057,1.074l2.173,7.866c0.057,0.194 0.125,0.29 0.202,0.29c0.077,0 0.146,-0.096 0.203,-0.29l1.882,-7.402c0.174,-0.639 0.155,-1.113 -0.057,-1.422c-0.194,-0.31 -0.541,-0.464 -1.043,-0.464c-0.464,0 -0.801,0.145 -1.014,0.435c-0.194,0.29 -0.348,0.658 -0.464,1.103l-1.101,4.325l-0.405,-0.522l0.81,-3.861Zm-3.562,7.837c0.039,0.155 0.077,0.271 0.116,0.348c0.058,0.058 0.116,0.087 0.174,0.087c0.077,0 0.155,-0.145 0.232,-0.436l1.129,-4.818l0.667,0.639l-2.288,8.621c-0.058,0.271 -0.194,0.406 -0.406,0.406c-0.212,0 -0.366,-0.136 -0.463,-0.406l-3.94,-11.872c-0.193,-0.581 -0.405,-0.996 -0.637,-1.248c-0.231,-0.271 -0.579,-0.436 -1.042,-0.494c-0.251,-0.039 -0.377,-0.164 -0.377,-0.377c0,-0.232 0.126,-0.349 0.377,-0.349l0.608,0.029l2.433,0.029l2.665,-0.029c0.598,-0.019 1.447,-0.029 2.549,-0.029c0.849,0 1.486,0.009 1.912,0.029l2.78,0.029l2.26,-0.029c0.193,-0.019 0.386,-0.029 0.58,-0.029c0.251,-0 0.376,0.116 0.376,0.348c0,0.213 -0.125,0.339 -0.376,0.377c-0.811,0.116 -1.361,0.696 -1.651,1.742l-3.216,11.872c-0.057,0.271 -0.194,0.406 -0.406,0.406c-0.212,0 -0.366,-0.136 -0.463,-0.406l-3.852,-12.54c-0.136,-0.426 -0.3,-0.735 -0.492,-0.929c-0.174,-0.194 -0.425,-0.29 -0.754,-0.29c-0.386,0 -0.657,0.145 -0.811,0.435c-0.154,0.271 -0.163,0.648 -0.028,1.132l2.346,7.75l0,0Zm13.439,4.847c-1.371,0 -2.646,-0.213 -3.824,-0.639c-0.251,-0.077 -0.435,-0.194 -0.55,-0.348c-0.097,-0.174 -0.135,-0.397 -0.116,-0.668c0.077,-0.89 0.077,-2.138 0,-3.744c-0.019,-0.155 0.01,-0.271 0.087,-0.349c0.099,-0.078 0.222,-0.119 0.348,-0.116c0.251,0 0.386,0.136 0.406,0.406c0.135,1.606 0.531,2.757 1.187,3.454c0.675,0.696 1.583,1.045 2.722,1.045c0.831,0 1.478,-0.213 1.941,-0.639c0.463,-0.426 0.695,-1.016 0.695,-1.771c0,-0.542 -0.164,-1.006 -0.493,-1.394c-0.327,-0.387 -0.82,-0.716 -1.477,-0.987l-2.549,-1.074c-1.95,-0.832 -2.925,-2.139 -2.925,-3.919c0,-1.277 0.463,-2.303 1.391,-3.077c0.927,-0.774 2.172,-1.161 3.736,-1.161c1.333,0 2.53,0.194 3.592,0.58c0.271,0.097 0.396,0.339 0.376,0.726c-0.058,0.716 -0.048,1.703 0.029,2.961c0.02,0.136 -0.01,0.242 -0.087,0.32c-0.076,0.077 -0.181,0.119 -0.289,0.116c-0.251,0 -0.396,-0.136 -0.435,-0.406c-0.116,-1.064 -0.464,-1.877 -1.043,-2.438c-0.579,-0.581 -1.371,-0.881 -2.375,-0.9c-0.849,-0.019 -1.525,0.174 -2.027,0.581c-0.502,0.387 -0.753,0.909 -0.753,1.567c0,0.503 0.126,0.939 0.377,1.306c0.27,0.349 0.724,0.668 1.361,0.958l3.098,1.422c0.927,0.426 1.593,0.948 1.999,1.567c0.406,0.6 0.609,1.345 0.609,2.235c0,1.316 -0.445,2.38 -1.333,3.193c-0.887,0.794 -2.114,1.19 -3.678,1.19Z" style="fill:#fff;fill-rule:nonzero;"/></g></svg>