<?xml version="1.0" encoding="UTF-8" standalone="no"?><!DOCTYPE svg PUBLIC "-//W3C//DTD SVG 1.1//EN" "http://www.w3.org/Graphics/SVG/1.1/DTD/svg11.dtd"><svg width="100%" height="100%" viewBox="0 0 155 40" version="1.1" xmlns="http://www.w3.org/2000/svg" xmlns:xlink="http://www.w3.org/1999/xlink" xml:space="preserve" xmlns:serif="http://www.serif.com/" style="fill-rule:evenodd;clip-rule:evenodd;stroke-linejoin:round;stroke-miterlimit:2;"><g><g><path d="M35.111,10.568c1.007,0.462 1.986,1.455 2.504,2.546c0.713,1.441 0.811,3.903 0.238,5.511c-0.21,0.588 -1.259,2.14 -1.455,2.14c-0.056,0 -0.21,0.098 -0.35,0.196c-0.224,0.168 -0.196,0.322 0.448,2.476c0.378,1.259 0.951,3.077 1.259,4.029c0.671,2.014 0.699,2.322 0.266,2.448c-0.504,0.126 -3.133,0.098 -3.497,-0.042c-0.266,-0.098 -0.406,-0.35 -0.643,-1.161c-0.154,-0.56 -0.448,-1.553 -0.643,-2.21c-0.182,-0.657 -0.546,-1.958 -0.783,-2.91l-0.462,-1.707l-1.077,0l0,7.945l-0.308,0.084c-0.42,0.112 -3.022,0.112 -3.427,0l-0.322,-0.084l0,-9.75c0,-5.372 0.042,-9.806 0.098,-9.862c0.056,-0.056 1.735,-0.084 3.749,-0.056c3.581,0.042 3.651,0.042 4.406,0.406Zm-4.197,3.203l0,4.896l0.769,0c0.434,0 0.993,-0.084 1.245,-0.196c1.357,-0.56 1.609,-3.231 0.406,-4.28c-0.42,-0.378 -0.56,-0.42 -1.441,-0.42l-0.979,0Z" style="fill:#fff;"/><path d="M137.87,10.219c1.007,0.294 2.098,1.133 2.756,2.126c0.629,0.951 0.783,1.441 0.895,2.784c0.112,1.441 0.112,1.441 -2.07,1.441c-2.042,0 -2.084,-0.014 -2.084,-1.189c0,-0.727 -0.294,-1.385 -0.685,-1.609c-0.518,-0.266 -1.343,-0.168 -1.693,0.21c-0.434,0.462 -0.546,1.651 -0.224,2.266c0.21,0.42 1.441,1.567 2.532,2.364c1.273,0.923 2.91,2.364 3.315,2.91c0.937,1.259 1.217,2.532 0.951,4.211c-0.266,1.665 -1.343,3.105 -2.84,3.791c-0.811,0.378 -0.979,0.406 -2.686,0.406c-1.707,0 -1.874,-0.028 -2.7,-0.406c-1.119,-0.518 -2.14,-1.595 -2.49,-2.63c-0.168,-0.476 -0.252,-1.175 -0.266,-1.93l0,-1.189l1.93,-0.042c1.469,-0.028 1.93,0 1.972,0.14c0.042,0.098 0.098,0.546 0.154,0.979c0.182,1.567 1.399,2.168 2.392,1.175c0.406,-0.406 0.476,-0.574 0.476,-1.161c0,-1.049 -0.308,-1.413 -2.588,-3.105c-2.686,-1.972 -3.231,-2.532 -3.889,-3.903c-0.713,-1.511 -0.741,-3.525 -0.07,-5.078c0.392,-0.951 1.707,-2.126 2.756,-2.49c1.007,-0.35 3.077,-0.392 4.155,-0.07Z" style="fill:#fff;"/><path d="M11.247,10.358c0.042,0.126 0.084,3.497 0.084,7.512c0,8.239 -0.042,8.715 -0.909,9.974c-0.615,0.895 -1.441,1.483 -2.602,1.874c-0.755,0.266 -1.133,0.294 -2.434,0.252c-1.371,-0.042 -1.637,-0.098 -2.448,-0.476c-1.035,-0.49 -1.427,-0.825 -2.07,-1.763c-0.615,-0.881 -0.867,-1.986 -0.867,-3.707c0,-1.273 0.028,-1.441 0.266,-1.581c0.406,-0.21 3.581,-0.182 3.763,0.028c0.084,0.098 0.168,0.867 0.196,1.693c0.042,1.511 0.042,1.525 0.504,1.93c0.615,0.546 1.259,0.546 1.874,0l0.462,-0.406l0.07,-7.75c0.042,-4.252 0.098,-7.75 0.112,-7.778c0.014,-0.014 0.909,-0.028 1.972,-0.028c1.637,0 1.958,0.028 2.028,0.224Z" style="fill:#fff;"/><path d="M21.43,10.386c1.035,0.42 2.238,1.567 2.742,2.644l0.378,0.811l0.042,5.861c0.042,5.539 0.028,5.917 -0.238,6.784c-0.378,1.259 -1.441,2.462 -2.7,3.035c-0.839,0.378 -0.979,0.406 -2.77,0.406c-1.832,0 -1.916,-0.014 -2.798,-0.434c-1.497,-0.727 -2.336,-1.707 -2.728,-3.203c-0.294,-1.161 -0.308,-11.359 -0.014,-12.492c0.28,-1.021 0.797,-1.86 1.581,-2.504c1.301,-1.091 1.986,-1.301 4.099,-1.245c1.287,0.014 1.763,0.084 2.406,0.336Zm-3.623,3.581l-0.392,0.336l-0.042,5.623l-0.042,5.609l0.49,0.49c0.378,0.378 0.588,0.476 1.035,0.476c0.713,0 1.357,-0.518 1.567,-1.231c0.182,-0.643 0.182,-9.68 0,-10.449c-0.182,-0.797 -0.685,-1.189 -1.539,-1.189c-0.518,0 -0.783,0.084 -1.077,0.336Z" style="fill:#fff;"/><path d="M93.471,10.582c1.105,0.518 2.07,1.469 2.644,2.588l0.476,0.937l0,11.904l-0.42,0.825c-0.602,1.189 -1.623,2.196 -2.658,2.616c-0.811,0.322 -0.965,0.336 -4.476,0.336l-3.637,0l-0.042,-9.512c-0.014,-5.232 0,-9.652 0.042,-9.834l0.084,-0.322l3.595,0.042c3.567,0.042 3.609,0.042 4.392,0.42Zm-3.917,9.442l0.042,6.267l0.657,0.042c0.923,0.056 1.581,-0.252 1.916,-0.937c0.28,-0.532 0.294,-0.797 0.294,-5.4c0,-4.56 -0.014,-4.868 -0.28,-5.386c-0.364,-0.713 -0.629,-0.839 -1.735,-0.839l-0.923,0l0.028,6.253Z" style="fill:#fff;"/><path d="M121.42,17.828c0.056,5.595 0.112,7.708 0.238,7.917c0.49,0.867 1.511,0.993 2.224,0.28l0.476,-0.476l0,-7.344c0,-4.49 0.056,-7.498 0.14,-7.722l0.14,-0.364l1.916,0.042l1.93,0.042l0,15.667l-0.322,0.853c-0.448,1.189 -1.357,2.168 -2.518,2.742c-0.839,0.42 -1.063,0.462 -2.42,0.504c-2.364,0.084 -3.707,-0.49 -4.882,-2.07c-1.049,-1.413 -1.035,-1.245 -1.091,-9.68c-0.028,-5.274 0,-7.61 0.112,-7.806c0.14,-0.266 0.266,-0.28 2.07,-0.252l1.916,0.042l0.07,7.624Z" style="fill:#fff;"/><path d="M106.172,10.722c0.084,0.336 0.21,0.825 0.294,1.091c0.07,0.266 0.518,2.252 0.965,4.406c1.483,7.134 2.364,11.177 2.644,12.296c0.154,0.615 0.252,1.161 0.21,1.231c-0.042,0.056 -0.979,0.112 -2.098,0.112c-2.35,0 -2.14,0.154 -2.434,-1.86l-0.168,-1.231l-1.832,0.042l-1.846,0.042l-0.238,1.469c-0.126,0.811 -0.238,1.483 -0.238,1.497c-0.028,0.112 -4.071,0.028 -4.127,-0.084c-0.042,-0.07 0.042,-0.588 0.196,-1.147c0.14,-0.574 0.546,-2.448 0.909,-4.183c0.35,-1.735 0.727,-3.469 0.839,-3.847c0.098,-0.392 0.476,-2.112 0.839,-3.847c0.546,-2.714 1.175,-5.483 1.413,-6.337c0.07,-0.21 0.308,-0.238 2.294,-0.238l2.224,0l0.154,0.588Zm-2.714,7.064c-0.14,0.909 -0.308,1.902 -0.392,2.21c-0.084,0.308 -0.252,1.231 -0.378,2.056l-0.252,1.511l2.616,0l-0.084,-0.392c-0.364,-1.986 -0.546,-2.924 -0.867,-4.826l-0.392,-2.21l-0.252,1.651Z" style="fill:#fff;"/><path d="M62.318,10.442c0.042,0.182 0.266,1.231 0.49,2.336c0.238,1.105 0.448,2.056 0.476,2.098c0.042,0.056 0.392,1.665 0.783,3.581c0.392,1.93 0.797,3.847 0.909,4.266c0.406,1.539 1.455,6.896 1.385,7.022c-0.042,0.056 -0.979,0.112 -2.084,0.112c-2.308,0 -2.028,0.21 -2.322,-1.86l-0.168,-1.217l-1.846,0c-2.14,0 -1.874,-0.21 -2.182,1.749c-0.084,0.615 -0.196,1.161 -0.252,1.203c-0.042,0.056 -0.867,0.14 -1.832,0.196c-2.42,0.126 -2.336,0.21 -1.888,-2.028c0.196,-0.965 0.42,-1.944 0.49,-2.182c0.14,-0.406 0.881,-3.847 2.532,-11.666c0.378,-1.805 0.741,-3.427 0.825,-3.609c0.126,-0.294 0.182,-0.308 2.378,-0.308c2.196,0 2.238,0 2.308,0.308Zm-3.063,9.232c-0.28,1.874 -0.56,3.511 -0.588,3.637c-0.07,0.224 0.056,0.252 1.203,0.252c1.161,0 1.287,-0.028 1.231,-0.252c-0.042,-0.126 -0.308,-1.763 -0.615,-3.623c-0.294,-1.874 -0.574,-3.399 -0.615,-3.399c-0.042,0 -0.322,1.525 -0.615,3.385Z" style="fill:#fff;"/><path d="M151.019,10.372c0.881,0.294 2.056,1.203 2.588,2c0.643,0.951 0.979,2.238 0.979,3.707c0.014,2.532 -0.685,4.029 -2.448,5.232c-0.825,0.574 -1.469,0.713 -3.259,0.713l-1.581,0l0,3.847c0,3.651 -0.014,3.847 -0.266,3.987c-0.294,0.154 -2.952,0.196 -3.469,0.056l-0.322,-0.084l0,-9.75c0,-5.372 0.042,-9.806 0.098,-9.848c0.042,-0.056 1.637,-0.098 3.539,-0.098c2.84,0 3.567,0.042 4.141,0.238Zm-3.721,3.399l0,5.036l0.811,0c1.637,0 2.322,-0.755 2.336,-2.518c0,-1.874 -0.574,-2.518 -2.238,-2.518l-0.909,0Z" style="fill:#fff;"/><path d="M72.012,18.276l0.028,8.085l3.119,0.028l3.105,0.042l0.042,1.721l0.042,1.707l-5.218,-0.028l-5.218,-0.042l-0.042,-9.652c-0.014,-5.316 0,-9.736 0.042,-9.834c0.042,-0.14 0.546,-0.168 2.056,-0.14l2,0.042l0.042,8.071Z" style="fill:#fff;"/><path d="M44.469,10.512c0.084,0.224 0.476,1.399 0.867,2.63c0.378,1.231 1.077,3.427 1.539,4.896c0.462,1.455 0.909,2.812 0.979,3.008c0.07,0.224 0.098,-1.679 0.07,-5.064c-0.042,-4.001 -0.014,-5.469 0.098,-5.637c0.14,-0.182 0.462,-0.21 2.056,-0.182l1.888,0.042l0.042,9.722c0.028,9.023 0.014,9.736 -0.21,9.89c-0.322,0.252 -3.623,0.238 -4.085,0c-0.35,-0.182 -0.364,-0.224 -2.868,-8.253l-0.853,-2.77l-0.042,5.525l-0.028,5.511l-0.322,0.084c-0.518,0.14 -3.175,0.098 -3.469,-0.056c-0.252,-0.14 -0.266,-0.406 -0.266,-9.848c0,-5.33 0.042,-9.736 0.098,-9.778c0.042,-0.056 1.049,-0.098 2.21,-0.098l2.14,0l0.154,0.378Z" style="fill:#fff;"/></g></g></svg>