<?xml version="1.0" encoding="UTF-8" standalone="no"?><!DOCTYPE svg PUBLIC "-//W3C//DTD SVG 1.1//EN" "http://www.w3.org/Graphics/SVG/1.1/DTD/svg11.dtd"><svg width="100%" height="100%" viewBox="0 0 88 40" version="1.1" xmlns="http://www.w3.org/2000/svg" xmlns:xlink="http://www.w3.org/1999/xlink" xml:space="preserve" xmlns:serif="http://www.serif.com/" style="fill-rule:evenodd;clip-rule:evenodd;stroke-linejoin:round;stroke-miterlimit:2;"><g><g><g><path d="M0,27.237l0,-14.909l4.594,0l0,13.309c0,0.672 0.262,0.992 1.017,0.992l1.796,0l0,3.904l-3.766,0c-2.493,0 -3.641,-0.928 -3.641,-3.296Z" style="fill:#fff;fill-rule:nonzero;"/><path d="M8.707,26.114c0,-2.925 1.946,-4.854 5.775,-5.103l4.052,-0.249l0,-0.654c0,-1.338 -0.701,-1.898 -2.297,-1.898c-1.563,0 -2.201,0.435 -2.361,1.431l-4.403,0c0.319,-3.143 2.52,-4.947 7.082,-4.947c3.861,0 6.191,1.867 6.191,5.135l0,6.815c0,0.28 0.127,0.435 0.415,0.435l1.403,0l0,3.454l-3.19,0c-1.117,0 -1.756,-0.592 -1.819,-1.525c-0.862,1.214 -2.616,1.992 -4.785,1.992c-3.702,0 -6.063,-1.867 -6.063,-4.886Zm6.668,1.37c1.756,0 3.159,-0.903 3.159,-2.77l0,-0.715l-3.318,0.28c-1.403,0.124 -2.073,0.84 -2.073,1.68c0,0.934 0.766,1.525 2.232,1.525Z" style="fill:#fff;fill-rule:nonzero;"/><path d="M42.087,22.909c0,-4.855 3.253,-8.216 8.136,-8.216c4.117,0 7.02,2.334 7.306,5.85l-4.499,0c-0.223,-1.027 -1.213,-1.93 -2.871,-1.93c-2.138,0 -3.478,1.618 -3.478,4.263c0,2.646 1.372,4.201 3.445,4.201c1.627,0 2.712,-0.902 2.967,-2.241l4.499,0c-0.35,3.205 -3.094,6.162 -7.625,6.162c-4.913,0 -7.881,-3.454 -7.881,-8.091Z" style="fill:#fff;fill-rule:nonzero;"/><path d="M58.411,22.754c0,-4.886 3.19,-8.06 7.848,-8.06c4.882,0 7.818,3.049 7.818,7.935c0,0.56 -0.032,1.121 -0.096,1.774l-11.168,0c0.192,1.929 1.499,2.987 3.637,2.987c1.436,0 2.361,-0.591 2.777,-1.432l4.562,0c-0.925,3.05 -3.351,5.042 -7.37,5.042c-4.819,0 -8.009,-3.267 -8.009,-8.246Zm11.168,-1.65l0,-0.062c0,-1.743 -1.149,-2.926 -3.319,-2.926c-2.073,0 -3.349,1.183 -3.478,2.987l6.797,0Z" style="fill:#fff;fill-rule:nonzero;"/><path d="M34.426,14.694c-2.026,0 -3.356,0.996 -3.865,1.486l0,-1.022l-4.482,0l0,15.376l4.482,0l0,-10.801c0.468,-0.676 1.412,-1.118 2.94,-1.118c1.787,0 2.744,0.996 2.744,3.05l0,8.869l4.466,0l0,-9.336c0,-4.077 -2.424,-6.504 -6.286,-6.504Z" style="fill:#fff;fill-rule:nonzero;"/><path d="M87.891,10.769l-7.852,-1.769l-1.889,11.603l5.797,1.306l3.944,-11.14Z" style="fill:#fff;fill-rule:nonzero;"/><path d="M79.663,30.603c2.132,0 3.862,-1.686 3.862,-3.766c0,-2.08 -1.729,-3.767 -3.862,-3.767c-2.133,0 -3.862,1.686 -3.862,3.767c0,2.08 1.729,3.766 3.862,3.766Z" style="fill:#fff;fill-rule:nonzero;"/></g></g></g></svg>