<?xml version="1.0" encoding="UTF-8" standalone="no"?><!DOCTYPE svg PUBLIC "-//W3C//DTD SVG 1.1//EN" "http://www.w3.org/Graphics/SVG/1.1/DTD/svg11.dtd"><svg width="100%" height="100%" viewBox="0 0 117 40" version="1.1" xmlns="http://www.w3.org/2000/svg" xmlns:xlink="http://www.w3.org/1999/xlink" xml:space="preserve" xmlns:serif="http://www.serif.com/" style="fill-rule:evenodd;clip-rule:evenodd;stroke-linejoin:round;stroke-miterlimit:2;"><g><path d="M37.467,7.504l-0.022,0l0,6.425c0,1.263 0,1.64 1.418,1.64l0,0.288l-3.479,0l0,-0.288c1.418,0 1.418,-0.377 1.418,-1.64l0,-6.137c0,-1.196 -0.155,-1.617 -1.418,-1.617l0,-0.266l2.814,0l3.612,7.755l3.545,-7.755l2.836,0l0,0.266c-1.418,0 -1.418,0.377 -1.418,1.64l0,6.115c0,1.263 0,1.64 1.418,1.64l0,0.288l-4.254,0l0,-0.288c1.418,0 1.418,-0.377 1.418,-1.64l0,-6.425l-0.022,0l-3.811,8.353l-0.222,0l-3.833,-8.353Zm11.477,4.387c0,-2.216 1.529,-4.165 3.877,-4.165c2.371,0 3.9,1.95 3.9,4.165c0,2.216 -1.529,4.165 -3.9,4.165c-2.349,0 -3.877,-1.95 -3.877,-4.165Zm6.425,0c0,-1.773 -0.576,-3.722 -2.548,-3.722c-1.972,0 -2.548,1.905 -2.548,3.7c0,1.795 0.576,3.722 2.548,3.722c1.994,0 2.548,-1.928 2.548,-3.722l0,0.022Zm3.767,2.437c0,1.019 0,1.329 1.108,1.329l0,0.222l-2.77,0l0,-0.222c1.108,0 1.108,-0.31 1.108,-1.329l0,-5.362c-0.421,-0.554 -0.753,-0.842 -1.551,-0.842l0,-0.222l2.149,0l4.83,5.938l0.022,0l0,-4.431c0,-0.997 0,-1.307 -1.13,-1.307l0,-0.222l2.77,0l0,0.222c-1.108,0 -1.108,0.31 -1.108,1.329l0,6.536l-0.222,0l-5.229,-6.381l0,4.742l0.022,0Zm8.065,-4.874c0,-1.019 0,-1.329 -1.108,-1.329l0,-0.222l3.013,0c1.108,0 2.393,0.044 3.323,0.665c1.108,0.731 1.595,1.994 1.595,3.279c0,2.194 -1.418,4.032 -4.298,4.032l-3.7,0l0,-0.222c1.13,0 1.13,-0.31 1.13,-1.329l0,-4.874l0.044,0Zm1.13,5.827c0.421,0.089 0.842,0.155 1.263,0.155c2.038,0 3.146,-1.617 3.146,-3.545c0,-1.972 -1.108,-3.545 -3.213,-3.545c-0.405,0.004 -0.808,0.064 -1.196,0.177l0,6.758Zm8.685,-3.767l1.595,0c0.953,0 1.329,-0.111 1.396,-1.196l0.222,0l0,2.792l-0.222,0c-0.111,-1.064 -0.443,-1.174 -1.396,-1.174l-1.595,0l0,2.88c0,0.51 0.133,0.62 0.643,0.62l1.64,0c1.064,0 1.44,-0.487 2.061,-1.551l0.222,0l-0.665,1.994l-6.16,0l0,-0.222c1.108,0 1.108,-0.31 1.108,-1.329l0,-4.874c0,-1.019 0,-1.329 -1.108,-1.329l0,-0.222l6.093,0l0.111,1.773l-0.222,0c-0.222,-1.241 -0.576,-1.329 -1.706,-1.329l-2.016,0l0,3.168Z" style="fill:#fff;fill-rule:nonzero;"/><path d="M40.591,6.972c0,0.177 0,0.31 0.155,0.31l0.487,0c0.288,0 0.443,-0.111 0.598,-0.51l0.044,0l-0.199,0.665l-1.728,0l0,-0.066c0.31,0 0.31,-0.089 0.31,-0.399l0,-1.507c0,-0.31 0,-0.399 -0.31,-0.399l0,-0.066l1.019,0l0,0.066c-0.377,0 -0.377,0.111 -0.377,0.443l0,1.462Zm2.061,-0.886l0.443,0c0.288,0 0.377,0 0.399,-0.355l0.066,0l0,0.886l-0.066,0c0,-0.332 -0.111,-0.355 -0.377,-0.355l-0.443,0l0,0.886c0,0.155 0.022,0.177 0.177,0.177l0.443,0c0.31,0 0.421,-0.155 0.598,-0.465l0.066,0l-0.199,0.598l-1.728,0l0,-0.066c0.31,0 0.31,-0.089 0.31,-0.399l0,-1.529c0,-0.31 0,-0.399 -0.31,-0.399l0,-0.066l1.706,0l0.044,0.532l-0.066,0c-0.066,-0.377 -0.155,-0.399 -0.487,-0.399l-0.576,0l0,0.975l0,-0.022Zm-34.697,21.691c-0.022,0.177 -0.222,0.842 -0.222,1.041c0,0.155 0.089,0.377 0.288,0.377c0.465,0 1.329,-1.13 1.617,-1.462l0.355,0.222c-0.665,0.886 -1.905,2.482 -3.102,2.482c-0.62,0 -0.886,-0.487 -0.886,-1.041c0,-0.687 0.332,-1.706 0.775,-3.013l-0.044,-0.044c-0.931,1.507 -2.681,4.099 -4.653,4.099c-1.462,0 -2.083,-1.617 -2.083,-2.858c0,-3.235 3.545,-7.445 6.403,-7.445c0.82,0 1.418,0.421 1.839,1.064l0.953,-3.346c0.332,-1.13 0.487,-1.551 0.487,-1.861c0,-0.532 -0.554,-0.62 -0.953,-0.62c-0.222,0 -0.443,0.044 -0.687,0.089l0,-0.443l3.612,-0.598l0.222,0l-3.877,13.36l-0.044,0Zm-1.64,-7.09c-2.149,0 -4.476,4.321 -4.476,6.691c0,0.753 0.332,1.75 1.219,1.75c1.839,0 4.697,-4.719 4.697,-6.824c0,-0.886 -0.532,-1.617 -1.44,-1.617Zm7.312,7.489c-0.066,0.222 -0.155,0.51 -0.155,0.731c0,0.199 0.111,0.288 0.31,0.288c0.532,0 1.396,-1.108 1.706,-1.551l0.377,0.266c-0.598,0.931 -1.994,2.526 -3.168,2.526c-0.643,0 -1.064,-0.377 -1.064,-1.041c0,-0.355 0.266,-1.196 0.355,-1.551l1.196,-4.276c0.332,-1.13 0.487,-1.551 0.487,-1.861c0,-0.51 -0.554,-0.62 -0.953,-0.62c-0.222,0 -0.443,0.044 -0.665,0.111l0,-0.443l3.567,-0.62l0.222,0l-2.238,8.043l0.022,0Zm2.061,-12.43c0.608,0 1.108,0.5 1.108,1.108c0,0.608 -0.5,1.108 -1.108,1.108c-0.608,0 -1.108,-0.5 -1.108,-1.108c0,-0.608 0.5,-1.108 1.108,-1.108Zm5.318,6.913l0.066,0.044c0.997,-1.285 2.304,-2.57 4.077,-2.57c1.44,0 2.304,1.374 2.304,2.814c0,2.925 -2.77,7.489 -6.603,7.489c-0.669,0.009 -1.326,-0.184 -1.883,-0.554l-0.731,2.592c-0.111,0.377 -0.332,0.997 -0.332,1.374c0,0.753 1.019,0.753 1.684,0.753l-0.111,0.377l-5.207,0l0.111,-0.399c1.263,0 1.617,-0.266 2.083,-1.817l2.659,-9.217c0.31,-1.13 0.465,-1.551 0.465,-1.861c0,-0.51 -0.532,-0.62 -0.953,-0.62c-0.222,0 -0.443,0.044 -0.665,0.111l0,-0.443l3.589,-0.598l0.222,0l-0.753,2.526l-0.022,-0Zm-1.795,6.359c0.481,0.543 1.18,0.844 1.905,0.82c2.105,0 4.498,-3.789 4.498,-6.846c0,-0.886 -0.355,-1.883 -1.418,-1.883c-1.152,0 -3.058,1.263 -4.21,5.162l-0.775,2.747Zm10.768,-0.842c-0.066,0.222 -0.155,0.51 -0.155,0.731c0,0.199 0.111,0.288 0.332,0.288c0.51,0 1.374,-1.108 1.684,-1.551l0.399,0.266c-0.62,0.931 -1.994,2.526 -3.191,2.526c-0.62,0 -1.064,-0.377 -1.064,-1.041c0,-0.355 0.288,-1.196 0.377,-1.551l2.836,-9.993c0.31,-1.13 0.465,-1.551 0.465,-1.861c0,-0.532 -0.532,-0.62 -0.953,-0.62c-0.222,0 -0.443,0.044 -0.665,0.089l0,-0.443l3.589,-0.598l0.222,0l-3.877,13.759Zm3.811,-1.219c0,-3.323 3.146,-6.824 6.536,-6.824c2.061,0 3.323,1.573 3.323,3.545c0,3.279 -2.947,6.758 -6.337,6.758c-2.083,0 -3.523,-1.396 -3.523,-3.479Zm8.021,-4.165c0,-1.108 -0.598,-2.105 -1.817,-2.105c-2.482,0 -4.365,4.498 -4.365,7.001c0,1.241 0.665,2.216 1.95,2.216c2.127,0 4.232,-3.944 4.232,-7.09l-0,-0.022Zm5.849,2.216l0.044,0.044c0.82,-1.595 2.792,-4.919 4.874,-4.919c0.753,0 1.263,0.576 1.263,1.307c0,0.487 -0.177,1.196 -0.31,1.662l-0.709,2.393l0.044,0.044c0.864,-1.595 2.991,-5.406 5.096,-5.406c0.775,0 1.285,0.62 1.285,1.329c0,0.886 -0.155,1.329 -1.064,4.409c-0.377,1.174 -0.886,2.792 -0.886,2.991c0,0.155 0.133,0.332 0.31,0.332c0.443,0 1.329,-1.108 1.595,-1.484l0.355,0.199c-0.598,0.997 -1.972,2.526 -3.035,2.526c-0.015,0.001 -0.03,0.001 -0.045,0.001c-0.498,0 -0.908,-0.41 -0.908,-0.908c0,-0.015 0,-0.03 0.001,-0.045c0,-0.487 0.266,-1.44 1.019,-3.988c0.731,-2.526 0.886,-3.058 0.886,-3.479c0,-0.332 -0.133,-0.554 -0.532,-0.554c-1.418,0 -4.099,4.564 -4.852,6.891l-0.598,1.817l-1.64,0l1.817,-6.425c0.111,-0.443 0.377,-1.263 0.377,-1.706c0,-0.288 -0.089,-0.576 -0.576,-0.576c-1.174,0 -3.922,3.833 -4.941,7.533l-0.31,1.174l-1.662,0l1.861,-6.603c0.31,-1.13 0.465,-1.551 0.465,-1.861c0,-0.51 -0.532,-0.62 -0.953,-0.62c-0.222,0 -0.443,0.044 -0.665,0.111l0,-0.443l3.612,-0.62l0.222,0l-1.44,4.874Zm21.248,3.058c-0.066,0.288 -0.177,0.643 -0.177,0.931c0,0.155 0.089,0.332 0.266,0.332c0.51,0 1.196,-0.997 1.595,-1.507l0.355,0.266c-0.665,0.953 -1.773,2.349 -3.058,2.349c-0.576,0 -0.953,-0.31 -0.953,-0.886c0,-0.51 0.31,-1.95 0.443,-2.216l-0.044,-0.044c-0.997,1.329 -2.482,3.146 -4.343,3.146c-1.374,0 -2.016,-1.396 -2.016,-2.548c0,-3.7 3.612,-7.755 6.204,-7.755c0.997,0 1.617,0.598 1.817,1.507l0.044,0l0.377,-1.219l1.728,-0.288l-2.238,7.932Zm-1.728,-7.378c-1.95,0 -4.387,4.21 -4.387,6.802c0,0.731 0.421,1.64 1.285,1.64c1.374,0 4.498,-2.969 4.498,-6.647c0,-0.953 -0.31,-1.795 -1.396,-1.795Zm9.616,-0.266l1.773,0l-0.199,0.709l-1.728,0l-1.817,6.248c-0.111,0.399 -0.377,1.219 -0.377,1.64c0,0.155 0.066,0.377 0.288,0.377c0.687,0 1.551,-1.285 1.861,-1.75l0.399,0.266c-0.62,0.931 -1.994,2.526 -3.191,2.526c-0.62,0 -1.064,-0.377 -1.064,-1.041c0,-0.355 0.222,-1.219 0.288,-1.551l1.905,-6.713l-1.662,0l0.111,-0.443c1.861,-0.443 2.659,-1.44 3.833,-3.301l0.465,0l-0.864,3.035l-0.022,0Zm4.453,7.755c-0.066,0.222 -0.155,0.51 -0.155,0.731c0,0.199 0.111,0.288 0.31,0.288c0.532,0 1.396,-1.108 1.706,-1.551l0.399,0.266c-0.62,0.931 -1.994,2.526 -3.191,2.526c-0.62,0 -1.064,-0.377 -1.064,-1.041c0,-0.355 0.266,-1.196 0.377,-1.551l1.196,-4.276c0.31,-1.13 0.465,-1.551 0.465,-1.861c0,-0.51 -0.532,-0.62 -0.953,-0.62c-0.222,0 -0.443,0.044 -0.665,0.111l0,-0.443l3.589,-0.62l0.222,0l-2.216,8.043l-0.022,0Zm2.061,-12.43c0.608,0 1.108,0.5 1.108,1.108c0,0.608 -0.5,1.108 -1.108,1.108c-0.608,0 -1.108,-0.5 -1.108,-1.108c0,-0.608 0.5,-1.108 1.108,-1.108Zm8.442,16.728c-0.111,0.377 -0.31,0.997 -0.31,1.374c0,0.753 0.997,0.753 1.462,0.753l-0.111,0.399l-5.229,0l0.111,-0.399c1.507,0 1.861,-0.266 2.326,-1.817l1.706,-5.894l-0.044,-0.044c-0.886,1.352 -2.57,3.589 -4.52,3.589c-1.462,0 -2.083,-1.617 -2.083,-2.858c-0,-3.235 3.545,-7.445 6.381,-7.445c0.842,0 1.507,0.532 1.795,1.617l0.044,0l0.332,-1.329l1.706,-0.288l-3.545,12.341l-0.022,0Zm1.064,-10.192c0,-0.842 -0.62,-1.595 -1.44,-1.595c-2.149,0 -4.476,4.321 -4.476,6.691c0,0.753 0.332,1.75 1.219,1.75c1.662,0 4.697,-3.9 4.697,-6.869l0,0.022Zm11.477,4.453c-0.133,0.465 -0.532,1.728 -0.532,2.127c0,0.177 0.044,0.332 0.288,0.332c0.443,0 0.82,-0.377 1.551,-1.462l0.355,0.222c-0.576,0.953 -1.773,2.482 -2.969,2.482c-0.532,0 -0.908,-0.288 -0.908,-0.886c0,-0.886 0.332,-2.149 1.108,-4.431l-0.044,-0.022c-0.953,1.573 -3.235,5.34 -5.428,5.34c-0.775,0 -1.219,-0.576 -1.219,-1.329c0,-0.775 0.332,-1.95 0.554,-2.747c0.997,-3.479 1.219,-4.032 1.219,-4.631c0,-0.155 -0.066,-0.332 -0.288,-0.332c-0.576,0 -1.152,0.953 -1.507,1.352l-0.355,-0.222c0.576,-0.931 1.883,-2.393 3.035,-2.393c0.598,0 0.953,0.377 0.953,0.953c0,0.51 -0.089,0.886 -1.108,4.542c-0.377,1.285 -0.798,2.326 -0.798,2.991c0,0.332 0.222,0.51 0.51,0.51c1.13,0 4.21,-3.102 5.473,-7.71l0.266,-0.997l1.795,-0.288l-1.95,6.603Zm11.433,1.108c-1.329,1.329 -3.058,2.592 -5.03,2.592c-2.659,0 -3.235,-2.437 -3.235,-3.323c0,-3.323 3.301,-6.979 6.691,-6.979c1.064,0 2.371,0.355 2.371,1.64c0,2.415 -3.589,3.9 -7.068,4.254c-0.044,0.266 -0.089,0.576 -0.089,0.886c0,1.396 1.152,2.371 2.482,2.371c1.329,0 2.371,-0.775 3.656,-1.773l0.222,0.332Zm-0.798,-6.093c0,-0.665 -0.443,-1.064 -1.108,-1.064c-2.171,0 -3.9,2.836 -4.254,4.764c3.877,-0.443 5.362,-2.504 5.362,-3.7Z" style="fill:#fff;fill-rule:nonzero;"/></g></svg>