<?xml version="1.0" encoding="UTF-8" standalone="no"?><!DOCTYPE svg PUBLIC "-//W3C//DTD SVG 1.1//EN" "http://www.w3.org/Graphics/SVG/1.1/DTD/svg11.dtd"><svg width="100%" height="100%" viewBox="0 0 111 40" version="1.1" xmlns="http://www.w3.org/2000/svg" xmlns:xlink="http://www.w3.org/1999/xlink" xml:space="preserve" xmlns:serif="http://www.serif.com/" style="fill-rule:evenodd;clip-rule:evenodd;stroke-linejoin:round;stroke-miterlimit:2;"><g id="b"><g id="c"><g><path d="M23.005,10l-5.954,0c-1.038,0 -1.991,0.373 -2.722,1c-0.684,0.576 -1.571,0.859 -2.468,0.859l-6.332,0c-3.053,0 -5.53,2.472 -5.53,5.525l0,7.087c0,3.053 2.472,5.53 5.53,5.53l17.481,0c2.331,0 4.218,-1.887 4.218,-4.218l0,-11.555c0,-2.331 -1.887,-4.218 -4.218,-4.218l-0.005,-0.009Zm-10.017,15.296c0,0.462 -0.382,0.83 -0.854,0.83l-0.179,0c-0.472,0 -0.854,-0.373 -0.854,-0.83l0,-7.176c0,-0.462 -0.382,-0.83 -0.854,-0.83c-0.472,0 -0.854,0.373 -0.854,0.83l0,7.176c0,0.462 -0.382,0.83 -0.854,0.83l-0.179,0c-0.472,0 -0.854,-0.373 -0.854,-0.83l0,-7.176c0,-0.462 -0.382,-0.83 -0.854,-0.83l-0.09,0c-0.472,0 -0.854,0.373 -0.854,0.83l0,7.176c0,0.462 -0.382,0.83 -0.854,0.83l-0.179,0c-0.472,0 -0.854,-0.373 -0.854,-0.83l0,-9.012c0,-0.462 0.382,-0.83 0.854,-0.83l5.69,0c0.472,0 0.854,0.373 0.854,0.83l0,0.165c0,0.462 0.382,0.83 0.854,0.83l0.061,0c0.472,0 0.854,0.373 0.854,0.83l0,7.186Zm10.304,-0c0,0.462 -0.382,0.83 -0.854,0.83l-0.179,0c-0.472,0 -0.854,-0.373 -0.854,-0.83l0,-7.176c0,-0.462 -0.382,-0.83 -0.854,-0.83c-0.472,0 -0.854,0.373 -0.854,0.83l0,7.176c0,0.462 -0.382,0.83 -0.854,0.83l-0.179,0c-0.472,0 -0.854,-0.373 -0.854,-0.83l0,-7.176c0,-0.462 -0.382,-0.83 -0.854,-0.83l-0.09,0c-0.472,0 -0.854,0.373 -0.854,0.83l0,7.176c0,0.462 -0.382,0.83 -0.854,0.83l-0.179,0c-0.472,0 -0.854,-0.373 -0.854,-0.83l0,-9.012c0,-0.462 0.382,-0.83 0.854,-0.83l5.69,0c0.472,0 0.854,0.373 0.854,0.83l0,0.165c0,0.462 0.382,0.83 0.854,0.83l0.061,0c0.472,0 0.854,0.373 0.854,0.83l0,7.186Z" style="fill:#fff;fill-rule:nonzero;"/><g><path d="M36.801,22.357c-0.17,0.5 -0.311,0.915 -0.41,1.231c-0.09,-0.288 -0.212,-0.661 -0.363,-1.118l-2.208,-6.605l-1.986,0l0,9.413l1.345,0l0,-7.45l2.529,7.45l1.222,0l2.543,-7.327l0,7.327l1.345,0l0,-9.413l-1.788,0l-2.232,6.492l0.005,0Z" style="fill:#fff;fill-rule:nonzero;"/><path d="M48.148,24.381c-0.047,-0.274 -0.071,-0.944 -0.071,-1.991l0,-1.515c0,-0.514 -0.019,-0.863 -0.061,-1.066c-0.071,-0.326 -0.193,-0.594 -0.373,-0.807c-0.179,-0.212 -0.453,-0.392 -0.826,-0.533c-0.363,-0.137 -0.845,-0.208 -1.42,-0.208c-0.576,0 -1.104,0.08 -1.548,0.241c-0.453,0.165 -0.802,0.396 -1.043,0.703c-0.236,0.302 -0.41,0.703 -0.514,1.184l-0.019,0.085l1.274,0.175l0.019,-0.071c0.118,-0.453 0.297,-0.769 0.533,-0.948c0.236,-0.179 0.623,-0.264 1.137,-0.264c0.547,0 0.962,0.123 1.241,0.363c0.193,0.17 0.293,0.481 0.293,0.915l0,0.236c-0.429,0.142 -1.085,0.264 -1.953,0.368c-0.453,0.052 -0.793,0.113 -1.024,0.175c-0.311,0.085 -0.594,0.217 -0.84,0.382c-0.25,0.17 -0.458,0.401 -0.613,0.679c-0.156,0.278 -0.236,0.599 -0.236,0.939c0,0.58 0.208,1.066 0.623,1.439c0.41,0.373 1,0.561 1.75,0.561c0.453,0 0.887,-0.075 1.283,-0.226c0.359,-0.137 0.736,-0.363 1.123,-0.675c0.038,0.264 0.113,0.495 0.217,0.703l0.024,0.047l1.378,0l-0.071,-0.123c-0.137,-0.245 -0.231,-0.51 -0.278,-0.778l-0.005,0.009Zm-1.387,-2.416l0,0.293c0,0.486 -0.061,0.854 -0.175,1.099c-0.151,0.316 -0.392,0.566 -0.717,0.75c-0.326,0.184 -0.703,0.278 -1.123,0.278c-0.42,0 -0.736,-0.094 -0.953,-0.278c-0.217,-0.184 -0.316,-0.415 -0.316,-0.694c0,-0.179 0.052,-0.349 0.142,-0.495c0.099,-0.146 0.236,-0.259 0.41,-0.335c0.184,-0.08 0.51,-0.156 0.967,-0.222c0.755,-0.109 1.345,-0.236 1.76,-0.392l0.005,-0.005Z" style="fill:#fff;fill-rule:nonzero;"/><path d="M54.041,22.729c-0.075,0.543 -0.259,0.953 -0.543,1.213c-0.278,0.255 -0.637,0.387 -1.062,0.387c-0.533,0 -0.953,-0.189 -1.283,-0.58c-0.33,-0.392 -0.495,-1.033 -0.495,-1.906c0,-0.873 0.175,-1.5 0.514,-1.892c0.34,-0.392 0.788,-0.59 1.331,-0.59c0.359,0 0.665,0.109 0.915,0.321c0.25,0.212 0.429,0.543 0.533,0.972l0.019,0.075l1.264,-0.193l-0.019,-0.085c-0.132,-0.694 -0.444,-1.241 -0.92,-1.614c-0.477,-0.373 -1.095,-0.571 -1.835,-0.571c-0.59,0 -1.137,0.142 -1.637,0.415c-0.505,0.278 -0.887,0.703 -1.132,1.26c-0.245,0.552 -0.368,1.203 -0.368,1.934c0,1.137 0.288,2.019 0.859,2.633c0.571,0.613 1.335,0.925 2.274,0.925c0.75,0 1.387,-0.226 1.906,-0.675c0.514,-0.448 0.84,-1.071 0.962,-1.854l0.014,-0.085l-1.283,-0.165l-0.009,0.08l-0.005,-0.005Z" style="fill:#fff;fill-rule:nonzero;"/><path d="M61.208,22.357c-0.17,0.495 -0.307,0.911 -0.41,1.231c-0.09,-0.283 -0.212,-0.651 -0.363,-1.118l-2.208,-6.605l-1.986,0l0,9.413l1.345,0l0,-7.45l2.529,7.45l1.222,0l2.543,-7.327l0,7.327l1.345,0l0,-9.413l-1.788,0l-2.232,6.492l0.005,0Z" style="fill:#fff;fill-rule:nonzero;"/><path d="M72.555,24.381c-0.047,-0.274 -0.071,-0.944 -0.071,-1.991l0,-1.515c0,-0.514 -0.019,-0.863 -0.061,-1.066c-0.071,-0.326 -0.193,-0.594 -0.373,-0.807c-0.179,-0.212 -0.453,-0.392 -0.826,-0.533c-0.363,-0.137 -0.845,-0.208 -1.42,-0.208c-0.576,0 -1.104,0.08 -1.548,0.241c-0.453,0.165 -0.802,0.396 -1.043,0.703c-0.236,0.302 -0.41,0.703 -0.514,1.184l-0.019,0.085l1.274,0.175l0.019,-0.071c0.118,-0.453 0.297,-0.769 0.533,-0.948c0.241,-0.179 0.623,-0.264 1.137,-0.264c0.547,0 0.962,0.123 1.241,0.363c0.193,0.17 0.293,0.481 0.293,0.915l0,0.236c-0.429,0.142 -1.085,0.264 -1.953,0.368c-0.453,0.057 -0.793,0.113 -1.024,0.175c-0.311,0.085 -0.594,0.217 -0.84,0.382c-0.255,0.17 -0.458,0.401 -0.613,0.679c-0.156,0.283 -0.236,0.599 -0.236,0.939c0,0.58 0.208,1.066 0.623,1.439c0.41,0.373 1,0.561 1.75,0.561c0.453,0 0.887,-0.075 1.283,-0.226c0.359,-0.137 0.736,-0.359 1.123,-0.675c0.038,0.264 0.113,0.495 0.217,0.703l0.024,0.047l1.378,0l-0.071,-0.123c-0.137,-0.245 -0.231,-0.51 -0.278,-0.778l-0.005,0.009Zm-1.387,-2.416l0,0.293c0,0.486 -0.061,0.854 -0.175,1.099c-0.151,0.316 -0.392,0.566 -0.717,0.75c-0.326,0.184 -0.703,0.278 -1.123,0.278c-0.42,0 -0.736,-0.094 -0.953,-0.278c-0.217,-0.184 -0.316,-0.415 -0.316,-0.694c0,-0.179 0.052,-0.349 0.142,-0.495c0.099,-0.146 0.236,-0.259 0.41,-0.335c0.184,-0.08 0.51,-0.156 0.967,-0.222c0.755,-0.109 1.345,-0.236 1.76,-0.392l0.005,-0.005Z" style="fill:#fff;fill-rule:nonzero;"/><path d="M78.5,19.082c-0.505,-0.543 -1.132,-0.816 -1.873,-0.816c-0.609,0 -1.142,0.156 -1.595,0.453c-0.453,0.302 -0.802,0.736 -1.033,1.288c-0.236,0.547 -0.354,1.156 -0.354,1.802c0,0.944 0.259,1.765 0.774,2.439c0.519,0.684 1.26,1.029 2.203,1.029c0.689,0 1.283,-0.25 1.774,-0.745c0,0.609 -0.028,1.024 -0.08,1.222c-0.099,0.359 -0.278,0.642 -0.547,0.84c-0.269,0.198 -0.665,0.302 -1.17,0.302c-0.467,0 -0.84,-0.099 -1.104,-0.302c-0.189,-0.142 -0.311,-0.373 -0.349,-0.689l0,-0.061l-1.264,-0.189l0,0.094c-0.019,0.75 0.231,1.321 0.745,1.694c0.505,0.368 1.17,0.552 1.986,0.552c0.684,0 1.269,-0.132 1.741,-0.392c0.472,-0.259 0.826,-0.618 1.043,-1.066c0.217,-0.444 0.326,-1.203 0.326,-2.255l0,-5.869l-1.217,0l0,0.67l-0.005,-0Zm-1.769,5.091c-0.505,0 -0.915,-0.189 -1.25,-0.576c-0.335,-0.387 -0.505,-1.014 -0.505,-1.868c0,-0.783 0.17,-1.378 0.51,-1.774c0.335,-0.387 0.75,-0.585 1.227,-0.585c0.477,0 0.906,0.198 1.25,0.594c0.349,0.401 0.524,1.005 0.524,1.798c0,0.793 -0.17,1.448 -0.51,1.831c-0.335,0.382 -0.755,0.576 -1.25,0.576l0.005,0.005Z" style="fill:#fff;fill-rule:nonzero;"/><path d="M86.921,24.381c-0.047,-0.274 -0.071,-0.944 -0.071,-1.991l0,-1.515c0,-0.514 -0.019,-0.863 -0.061,-1.066c-0.071,-0.326 -0.193,-0.594 -0.373,-0.807c-0.179,-0.212 -0.453,-0.392 -0.826,-0.533c-0.363,-0.137 -0.845,-0.208 -1.42,-0.208c-0.576,0 -1.104,0.08 -1.548,0.241c-0.453,0.165 -0.802,0.396 -1.043,0.703c-0.236,0.302 -0.41,0.703 -0.514,1.184l-0.019,0.085l1.274,0.175l0.019,-0.071c0.118,-0.453 0.297,-0.769 0.533,-0.948c0.241,-0.179 0.623,-0.264 1.137,-0.264c0.547,0 0.962,0.123 1.241,0.363c0.193,0.17 0.293,0.481 0.293,0.915l0,0.236c-0.429,0.142 -1.085,0.264 -1.953,0.368c-0.453,0.057 -0.793,0.113 -1.024,0.175c-0.311,0.085 -0.594,0.217 -0.84,0.382c-0.255,0.17 -0.458,0.401 -0.613,0.679c-0.156,0.283 -0.236,0.599 -0.236,0.939c0,0.58 0.208,1.066 0.623,1.439c0.41,0.373 1,0.561 1.75,0.561c0.453,0 0.887,-0.075 1.283,-0.226c0.359,-0.137 0.736,-0.359 1.123,-0.675c0.038,0.264 0.113,0.495 0.217,0.703l0.024,0.047l1.378,0l-0.071,-0.123c-0.137,-0.245 -0.231,-0.51 -0.278,-0.778l-0.005,0.009Zm-1.387,-2.416l0,0.293c0,0.486 -0.061,0.854 -0.175,1.099c-0.151,0.316 -0.392,0.566 -0.717,0.75c-0.326,0.184 -0.703,0.278 -1.123,0.278c-0.42,0 -0.736,-0.094 -0.953,-0.278c-0.217,-0.184 -0.316,-0.415 -0.316,-0.694c0,-0.179 0.052,-0.349 0.142,-0.495c0.099,-0.146 0.236,-0.259 0.41,-0.335c0.184,-0.08 0.51,-0.156 0.967,-0.222c0.755,-0.109 1.345,-0.236 1.76,-0.392l0.005,-0.005Z" style="fill:#fff;fill-rule:nonzero;"/><path d="M89.531,24.183l0.566,-0.623l3.623,-4.251l0.019,-0.024l0,-0.863l-5.643,0l0,1.09l2.817,0c0.316,0 0.684,-0.009 1.09,-0.028l-4.138,4.746l-0.019,0.024l0,1.033l6.096,0l0,-1.146l-3.18,0c-0.382,0 -0.797,0.014 -1.231,0.042Z" style="fill:#fff;fill-rule:nonzero;"/><rect x="94.914" y="15.869" width="1.302" height="1.472" style="fill:#fff;"/><rect x="94.914" y="18.417" width="1.302" height="6.87" style="fill:#fff;"/><path d="M102.954,19.087c-0.179,-0.245 -0.444,-0.448 -0.793,-0.599c-0.349,-0.151 -0.731,-0.222 -1.146,-0.222c-0.863,0 -1.548,0.316 -2.048,0.929l0,-0.783l-1.189,0l0,6.87l1.302,0l0,-3.741c0,-0.826 0.165,-1.397 0.495,-1.684c0.335,-0.293 0.736,-0.439 1.198,-0.439c0.288,0 0.538,0.061 0.75,0.193c0.208,0.127 0.354,0.297 0.434,0.51c0.085,0.222 0.127,0.557 0.127,1.01l0,4.161l1.302,0l0,-4.204c0,-0.538 -0.019,-0.906 -0.061,-1.123c-0.071,-0.335 -0.193,-0.628 -0.368,-0.873l-0.005,-0.005Z" style="fill:#fff;fill-rule:nonzero;"/><path d="M110.05,19.205c-0.58,-0.623 -1.34,-0.944 -2.255,-0.944c-0.915,0 -1.727,0.326 -2.321,0.962c-0.594,0.632 -0.892,1.538 -0.892,2.68c0,1.142 0.297,1.982 0.887,2.6c0.59,0.618 1.392,0.929 2.392,0.929c0.793,0 1.458,-0.198 1.967,-0.585c0.514,-0.387 0.868,-0.944 1.057,-1.637l0.028,-0.094l-1.335,-0.165l-0.024,0.061c-0.165,0.462 -0.392,0.802 -0.67,1.01c-0.278,0.208 -0.623,0.311 -1.014,0.311c-0.533,0 -0.986,-0.189 -1.34,-0.561c-0.344,-0.359 -0.543,-0.878 -0.594,-1.548l4.987,0l0,-0.08c0.005,-0.137 0.009,-0.236 0.009,-0.302c0,-1.123 -0.293,-2.005 -0.873,-2.633l-0.009,-0.005Zm-4.058,1.911c0.052,-0.519 0.236,-0.944 0.557,-1.26c0.335,-0.33 0.76,-0.5 1.255,-0.5c0.552,0 0.996,0.203 1.34,0.628c0.212,0.25 0.344,0.632 0.401,1.132l-3.557,0l0.005,0Z" style="fill:#fff;fill-rule:nonzero;"/></g></g></g></g></svg>