<?xml version="1.0" encoding="UTF-8" standalone="no"?><!DOCTYPE svg PUBLIC "-//W3C//DTD SVG 1.1//EN" "http://www.w3.org/Graphics/SVG/1.1/DTD/svg11.dtd"><svg width="100%" height="100%" viewBox="0 0 189 40" version="1.1" xmlns="http://www.w3.org/2000/svg" xmlns:xlink="http://www.w3.org/1999/xlink" xml:space="preserve" xmlns:serif="http://www.serif.com/" style="fill-rule:evenodd;clip-rule:evenodd;stroke-linejoin:round;stroke-miterlimit:2;"><g><g id="svgg"><path id="path0" d="M158.547,12.713c-1.429,2.381 -1.417,2.215 -0.111,2.215l1.107,0l1.672,-1.838c0.919,-1.008 1.694,-1.883 1.728,-1.949c-0.544,-0.128 -1.104,-0.169 -1.661,-0.122l-1.694,0l-1.041,1.739m-76.952,7.331l0,7.552l3.123,0l0,-15.105l-3.123,0l0,7.552m17.187,-4.861l0,2.68l-0.377,-0.41c-1.231,-1.024 -2.9,-1.358 -4.43,-0.886c-4.817,1.661 -4.23,10.575 0.742,11.273c1.355,0.272 2.761,-0.106 3.798,-1.019l0.354,-0.421l0,1.196l2.99,0l0,-15.105l-3.079,0l0,2.691m73.929,-1.384l0,1.296l3.123,0l0,-2.602l-3.123,0l0,1.307m-172.585,0.022c-0.166,0.233 -0.166,14.695 -0,14.961c4.319,0.233 8.648,0.233 12.967,0c0.233,-0.221 0.233,-14.684 -0,-14.916c-4.32,-0.221 -8.648,-0.221 -12.967,-0m12.082,7.464l0,6.578l-11.14,0l-0,-13.2l11.14,0l0,6.578m10.863,-4.872c-0.726,0.072 -1.405,0.398 -1.916,0.919l-0.609,0.52l0,-1.185l-3.001,0l0,10.93l3.123,0l0,-3.422c0,-4.43 0.233,-5.116 1.783,-5.26c1.75,-0.166 1.86,0.133 1.86,4.872l0,3.809l3.09,0l0,-3.544c0.066,-4.585 0.299,-5.183 2.049,-5.183c1.528,0 1.705,0.532 1.705,5.249l0,3.477l3.134,0l0,-4.263c0,-4.164 -0.055,-4.274 -0.354,-4.95c-1.041,-2.303 -4.551,-2.768 -6.467,-0.842c-0.321,0.31 -0.576,0.509 -0.576,0.432c0,-0.919 -2.115,-1.783 -3.854,-1.561m16.733,0c-2.447,0.221 -4.02,1.417 -4.175,3.167l-0.055,0.52l1.429,0c1.528,0 1.606,0 1.827,-0.642c0.509,-1.528 3.588,-1.318 3.588,0.255c0,0.864 -0.41,1.107 -2.636,1.384c-3.577,0.498 -4.64,1.373 -4.507,3.732c0.155,2.846 4.031,4.164 6.799,2.314c0.565,-0.377 0.653,-0.41 0.653,-0.199c0,0.631 0.066,0.653 1.716,0.653c1.44,0 1.561,0 1.473,-0.233c-0.298,-1.863 -0.406,-3.752 -0.321,-5.637l-0,-3.2l-0.399,-0.609c-0.797,-1.196 -2.713,-1.728 -5.338,-1.495m12.691,0c-0.84,0.115 -1.619,0.505 -2.215,1.107l-0.421,0.465l0,-1.329l-3.045,0l0,10.93l3.101,0l0,-3.477c0.066,-4.562 0.266,-5.094 2.06,-5.216c1.794,-0.122 2.015,0.266 2.06,5.016l0,3.677l3.134,0l0,-4.197c-0.066,-4.618 -0.111,-4.917 -0.897,-5.869c-1.015,-0.978 -2.451,-1.393 -3.832,-1.107m21.815,0c-2.458,0.221 -4.031,1.417 -4.186,3.167l0,0.52l1.417,0c1.528,0 1.606,0 1.827,-0.642c0.509,-1.528 3.588,-1.318 3.588,0.255c0,0.864 -0.41,1.107 -2.636,1.384c-3.577,0.498 -4.64,1.373 -4.496,3.732c0.166,2.824 3.998,4.119 6.744,2.27c0.554,-0.377 0.642,-0.41 0.642,-0.199c0,0.631 0.078,0.653 1.728,0.653c1.429,0 1.55,0 1.473,-0.233c-0.311,-1.862 -0.422,-3.751 -0.332,-5.637l0,-3.167l-0.354,-0.609c-0.797,-1.196 -2.713,-1.728 -5.327,-1.495m33.288,0c-5.869,0.587 -6.644,9.579 -0.963,11.262c0.609,0.219 1.252,0.331 1.899,0.331c3.08,0 5.614,-2.534 5.614,-5.614c0,-0.085 -0.002,-0.169 -0.006,-0.254c0,-3.798 -2.624,-6.08 -6.545,-5.681m27.773,0c-2.647,0.221 -4.153,1.905 -3.665,4.097c0.299,1.296 1.107,1.794 4.308,2.58c2.082,0.52 2.713,1.019 2.326,1.838c-0.664,1.395 -3.677,0.974 -3.964,-0.554l-0.078,-0.432l-2.968,0l0.078,0.554c0.365,2.425 2.68,3.699 6.124,3.322c2.613,-0.266 3.998,-1.528 3.998,-3.643c0,-2.115 -0.731,-2.569 -4.075,-3.322c-0.757,-0.16 -1.498,-0.386 -2.215,-0.676c-1.107,-0.676 -0.443,-1.683 1.107,-1.683c1.107,0 1.683,0.365 1.949,1.207c0.066,0.199 0.255,0.221 1.517,0.221l1.429,0l0,-0.388c0,-2.159 -2.381,-3.455 -5.847,-3.167m22.779,0c-2.458,0.221 -4.031,1.417 -4.186,3.167l0,0.52l1.429,0c1.528,0 1.606,0 1.827,-0.642c0.509,-1.528 3.588,-1.318 3.588,0.255c0,0.864 -0.41,1.107 -2.636,1.384c-3.577,0.498 -4.64,1.373 -4.496,3.732c0.155,2.824 3.987,4.119 6.733,2.27c0.565,-0.377 0.653,-0.41 0.653,-0.199c0,0.631 0.066,0.653 1.716,0.653c1.44,0 1.561,0 1.484,-0.233c-0.311,-1.862 -0.422,-3.751 -0.332,-5.637l0,-3.167l-0.399,-0.609c-0.797,-1.196 -2.713,-1.728 -5.327,-1.495m13.001,0c-1.009,0.166 -1.915,0.718 -2.525,1.539l-0.321,0.454l0,-1.75l-3.001,0l0,10.93l3.101,0l0,-3.023c0.066,-4.43 0.698,-5.47 3.245,-5.282l0.775,0.055l0,-2.912l-0.365,-0.055c-0.317,-0.031 -0.636,-0.031 -0.952,0m10.52,0c-5.869,0.587 -6.644,9.579 -0.963,11.262c0.582,0.198 1.193,0.299 1.808,0.299c3.08,0 5.614,-2.534 5.614,-5.614c0,-0.063 -0.001,-0.126 -0.003,-0.188c0,-3.798 -2.613,-6.08 -6.545,-5.681m-123.085,4.341c0.066,4.629 0.144,5.105 0.952,6.013c1.667,1.451 4.164,1.484 5.869,0.078l0.565,-0.554l0,1.262l3.001,0l0,-10.93l-3.123,0l0,3.101c0,4.817 -0.332,5.659 -2.215,5.659c-1.672,0 -1.816,-0.41 -1.871,-5.083l0,-3.677l-3.234,0l0,4.131m61.581,0c0,4.629 0.133,5.105 0.952,6.013c1.662,1.454 4.158,1.487 5.858,0.078l0.576,-0.554l0,1.262l2.99,0l0,-10.93l-3.067,0l0,3.101c0,4.817 -0.332,5.659 -2.215,5.659c-1.672,0 -1.827,-0.41 -1.883,-5.083l0,-3.677l-3.211,0l0,4.131m22.258,0c0.066,4.629 0.144,5.105 0.952,6.013c1.664,1.449 4.156,1.482 5.858,0.078l0.576,-0.554l0,1.262l3.023,0l0,-10.93l-3.101,0l0,3.101c0,4.817 -0.332,5.659 -2.215,5.659c-1.672,0 -1.816,-0.41 -1.883,-5.083l0,-3.677l-3.211,0l0.055,4.131m30.287,1.34l0,5.47l3.123,0l0,-10.941l-3.123,0l0,5.47m-169.429,-4.241l-0,0.454l6.711,0l0,-0.908l-6.711,0l0,0.454m94.249,1.107c1.871,1.107 1.849,5.371 0,6.268c-2.292,1.107 -4.319,-1.661 -3.433,-4.629c0.225,-1.112 1.21,-1.918 2.345,-1.918c0.391,0 0.776,0.096 1.122,0.279m12.104,-0c2.049,1.041 1.927,5.537 -0.166,6.367c-2.093,0.831 -3.466,-0.664 -3.477,-3.322c-0.011,-2.658 1.739,-4.075 3.643,-3.101m74.073,0c2.049,1.041 1.927,5.537 -0.166,6.367c-2.093,0.831 -3.466,-0.664 -3.466,-3.322c0,-2.658 1.728,-4.075 3.632,-3.101m-180.459,2.392l-0,0.454l6.711,0l0,-0.908l-6.711,0l0,0.454m39.19,2.093c0.017,0.107 0.025,0.214 0.025,0.322c0,1.142 -0.94,2.082 -2.082,2.082c-0.075,0 -0.15,-0.004 -0.224,-0.012c-2.215,-0 -2.492,-2.215 -0.321,-2.713l2.503,-0.52c0,0 0.1,0.377 0.1,0.842m34.495,0c0.017,0.107 0.025,0.214 0.025,0.322c0,1.142 -0.94,2.082 -2.082,2.082c-0.075,0 -0.15,-0.004 -0.224,-0.012c-2.215,0 -2.492,-2.215 -0.321,-2.713l2.503,-0.52c0,0 0.1,0.377 0.1,0.842m83.84,0c0.017,0.107 0.025,0.214 0.025,0.322c0,1.142 -0.94,2.082 -2.082,2.082c-0.075,0 -0.15,-0.004 -0.224,-0.012c-2.215,-0 -2.492,-2.215 -0.321,-2.713l2.503,-0.52c0,0 0.1,0.377 0.1,0.842m-157.525,1.285l-0,0.465l6.711,0l0,-0.919l-6.711,0l0,0.454" style="fill:#fff;"/></g></g></svg>