<?xml version="1.0" encoding="UTF-8" standalone="no"?><!DOCTYPE svg PUBLIC "-//W3C//DTD SVG 1.1//EN" "http://www.w3.org/Graphics/SVG/1.1/DTD/svg11.dtd"><svg width="100%" height="100%" viewBox="0 0 117 40" version="1.1" xmlns="http://www.w3.org/2000/svg" xmlns:xlink="http://www.w3.org/1999/xlink" xml:space="preserve" xmlns:serif="http://www.serif.com/" style="fill-rule:evenodd;clip-rule:evenodd;stroke-linejoin:round;stroke-miterlimit:2;"><g id="m-logo-metropoles"><g id="HOME-DESKTOP"><g id="Header-e-anuncio"><g id="assets-desktop-globais-header-full" serif:id="assets/desktop/globais/header/full"><g id="Group-2"><g id="Group-3"><path d="M-0,10l21.561,0l0,19.858l-4.255,0l0,-15.663l-4.255,0l0,15.523l-4.255,0l0,-15.523l-4.255,0l0,15.523l-4.256,0l-0,-19.719l-0.284,-0Z" style="fill:#fff;"/><g id="Group"><path d="M25.677,29.866c-0.286,0 -0.428,-0.142 -0.428,-0.426l0,-9.794c0,-0.284 0.143,-0.426 0.428,-0.426l5.425,0c0.285,0 0.428,0.142 0.428,0.426l0,1.277c0,0.284 -0.143,0.426 -0.428,0.426l-3.283,0l-0,1.987l2.998,0c0.285,0 0.428,0.142 0.428,0.426l0,1.136c0,0.284 -0.143,0.426 -0.428,0.426l-2.998,0l-0,2.413l3.426,0c0.285,0 0.428,0.142 0.428,0.426l0,1.277c0,0.284 -0.143,0.426 -0.428,0.426l-5.567,0l0,0Z" style="fill:#fff;"/><path d="M41.658,19.212c0.286,0 0.428,0.142 0.428,0.426l0,1.277c0,0.284 -0.143,0.426 -0.428,0.426l-1.998,0l0,8.091c0,0.284 -0.143,0.426 -0.428,0.426l-1.713,0c-0.285,0 -0.428,-0.142 -0.428,-0.426l0,-8.091l-1.998,0c-0.285,0 -0.428,-0.142 -0.428,-0.426l0,-1.277c0,-0.284 0.143,-0.426 0.428,-0.426l6.567,0Z" style="fill:#fff;"/><path d="M51.509,25.6l1.57,3.833c0.142,0.284 -0.142,0.426 -0.427,0.426l-1.714,0c-0.285,0 -0.428,-0.284 -0.428,-0.426l-1.428,-3.549l-1.142,0l0,3.549c0,0.284 -0.143,0.426 -0.428,0.426l-1.713,0c-0.285,0 -0.428,-0.142 -0.428,-0.426l0,-9.794c-0.143,-0.284 0,-0.426 0.428,-0.426l3.426,0c2.998,0 3.996,1.277 3.996,2.697l0,1.419c0,0.852 -0.427,1.703 -1.712,2.271Zm-3.569,-4.258l0,2.555l1.285,0c0.714,0 1.427,-0.284 1.427,-0.994l0,-0.426c0,-0.71 -0.714,-0.994 -1.427,-0.994l-1.285,0l0,-0.142Z" style="fill:#fff;fill-rule:nonzero;"/><path d="M56.648,21.767c0,-1.42 0.999,-2.697 3.996,-2.697c3,0 3.999,1.277 3.999,2.697l0,5.536c0,1.42 -1.141,2.697 -3.999,2.697c-2.855,0 -3.996,-1.277 -3.996,-2.697l0,-5.536Zm5.568,0.426c0,-0.71 -0.714,-0.994 -1.426,-0.994c-0.714,0 -1.429,0.284 -1.429,0.994l0,4.684c0,0.71 0.714,0.994 1.429,0.994c0.712,0 1.426,-0.284 1.426,-0.994l0,-4.684Zm-0.427,-4.117c-0.142,0.142 -0.287,0.284 -0.572,0.284l-1.284,0c-0.287,0 -0.43,-0.142 -0.287,-0.426l0.572,-1.419c0.142,-0.284 0.285,-0.426 0.714,-0.426l1.714,0c0.285,0 0.427,0.142 0.285,0.426l-1.141,1.561l0,-0Z" style="fill:#fff;fill-rule:nonzero;"/><path d="M71.067,26.309l0,3.123c0,0.284 -0.145,0.426 -0.43,0.426l-1.714,0c-0.285,0 -0.427,-0.142 -0.427,-0.426l0,-9.794c0,-0.284 0.142,-0.426 0.427,-0.426l3.427,0c2.997,0 3.996,1.277 3.996,2.697l0,1.703c0,1.42 -0.999,2.697 -3.996,2.697l-1.284,0Zm-0,-4.968l0,2.839l1.284,0c0.714,0 1.429,-0.284 1.429,-0.994l0,-0.71c0,-0.71 -0.714,-0.994 -1.429,-0.994l-1.284,0l0,-0.142Z" style="fill:#fff;fill-rule:nonzero;"/><path d="M78.918,21.767c0,-1.42 0.999,-2.697 3.996,-2.697c3,0 3.999,1.277 3.999,2.697l0,5.536c0,1.42 -1.144,2.697 -3.999,2.697c-2.855,0 -3.996,-1.277 -3.996,-2.697l0,-5.536Zm5.425,0.426c0,-0.71 -0.714,-0.994 -1.429,-0.994c-0.712,0 -1.426,0.284 -1.426,0.994l0,4.684c0,0.71 0.714,0.994 1.426,0.994c0.714,0 1.429,-0.284 1.429,-0.994l0,-4.684Z" style="fill:#fff;fill-rule:nonzero;"/><path d="M92.623,27.729l3.14,0c0.285,0 0.43,0.142 0.43,0.426l0,1.277c0,0.284 -0.145,0.426 -0.43,0.426l-5.28,0c-0.287,0 -0.43,-0.142 -0.43,-0.426l0,-9.794c0,-0.284 0.142,-0.426 0.43,-0.426l1.711,0c0.287,0 0.43,0.142 0.43,0.426l0,8.091Z" style="fill:#fff;"/><path d="M99.617,29.858c-0.285,0 -0.427,-0.142 -0.427,-0.426l0,-9.794c0,-0.284 0.142,-0.426 0.427,-0.426l5.425,0c0.285,0 0.43,0.142 0.43,0.426l0,1.277c0,0.284 -0.145,0.426 -0.43,0.426l-3.282,0l0,1.987l2.997,0c0.285,0 0.427,0.142 0.427,0.426l0,1.136c0,0.284 -0.142,0.426 -0.427,0.426l-2.997,0l0,2.413l3.424,0c0.287,0 0.43,0.142 0.43,0.426l0,1.277c0,0.284 -0.142,0.426 -0.43,0.426l-5.568,0Z" style="fill:#fff;"/><path d="M113.752,22.051c0,-0.71 -0.572,-0.994 -1.287,-0.994c-0.714,0 -1.284,0.284 -1.284,0.994l0,0.142c0,0.426 0.285,0.568 0.569,0.71l2.713,0.852c1.144,0.426 1.998,1.277 1.998,2.413l0,1.135c0,1.42 -0.999,2.697 -3.996,2.697c-2.997,0 -3.996,-1.277 -3.996,-2.697l0,-0.994c0,-0.284 0.142,-0.426 0.427,-0.426l1.714,0c0.285,0 0.43,0.142 0.43,0.426l0,0.71c0,0.71 0.569,0.994 1.426,0.994c0.714,0 1.429,-0.284 1.429,-0.994l0,-0.284c0,-0.568 -0.714,-0.852 -1.429,-0.994l-2.283,-0.852c-0.857,-0.284 -1.429,-1.136 -1.429,-2.129l0,-0.994c0,-1.42 0.857,-2.697 3.712,-2.697c2.997,0 3.854,1.277 3.854,2.697l0,0.568c0,0.284 -0.142,0.426 -0.427,0.426l-1.714,0c-0.285,0 -0.427,-0.142 -0.427,-0.426l0,-0.284Z" style="fill:#fff;"/></g></g></g></g></g></g></g></svg>