<?xml version="1.0" encoding="UTF-8" standalone="no"?><!DOCTYPE svg PUBLIC "-//W3C//DTD SVG 1.1//EN" "http://www.w3.org/Graphics/SVG/1.1/DTD/svg11.dtd"><svg width="100%" height="100%" viewBox="0 0 82 40" version="1.1" xmlns="http://www.w3.org/2000/svg" xmlns:xlink="http://www.w3.org/1999/xlink" xml:space="preserve" xmlns:serif="http://www.serif.com/" style="fill-rule:evenodd;clip-rule:evenodd;stroke-linejoin:round;stroke-miterlimit:2;"><path d="M17.927,0.001l2.335,0l0,12.245l-2.335,0l0,-12.245Zm-17.927,13.75l0,2.091l3.695,0l0,10.155l2.355,0l0,-10.156l3.697,0l0,-2.091l-9.747,0.002Zm20.891,-13.75l0,2.091l3.983,0l0,10.155l2.338,0l0,-10.156l3.983,0l0,-2.091l-10.304,0.001Zm-11.772,20.649l3.92,0c-0.07,-1.113 -0.808,-1.884 -1.874,-1.884c-1.239,0 -1.839,0.737 -2.046,1.884m-2.339,0.943c0,-2.603 1.776,-4.623 4.349,-4.623c2.837,0 4.349,2.157 4.349,5.292l-6.395,0c0.171,1.353 0.928,2.192 2.253,2.192c0.911,0 1.444,-0.411 1.702,-1.079l2.305,0c-0.323,1.559 -1.72,2.876 -3.989,2.876c-2.923,0 -4.574,-2.038 -4.574,-4.665l0,0.007Zm9.138,0.011c0,2.62 1.736,4.64 4.522,4.64c2.356,0 3.816,-1.489 3.972,-3.357l-2.253,0c-0.162,0.994 -0.826,1.489 -1.776,1.489c-1.428,0 -2.1,-1.113 -2.1,-2.775c0,-1.695 0.722,-2.774 2.132,-2.774c0.387,-0.005 0.763,0.129 1.06,0.377c0.296,0.248 0.493,0.594 0.555,0.976l2.287,0c-0.31,-1.902 -1.72,-3.218 -4.005,-3.218c-2.683,0 -4.401,2.02 -4.401,4.641l0.008,-0Zm11.28,-7.859l-2.331,0l0,12.244l2.339,0l0,-4.986c0,-1.199 0.756,-2.02 1.788,-2.02c0.981,0 1.531,0.668 1.531,1.609l0,5.394l2.338,0l0,-5.725c0,-1.918 -1.221,-3.288 -3.043,-3.288c-1.203,0 -1.925,0.461 -2.562,1.386l-0.051,0l-0.009,-4.613Zm8.655,3.46l-2.281,0l0,8.784l2.339,0l0,-4.986c0,-1.199 0.756,-2.02 1.788,-2.02c0.98,0 1.531,0.668 1.531,1.609l0,5.394l2.334,0l0,-5.725c0,-1.918 -1.221,-3.288 -3.043,-3.288c-1.203,0 -2.011,0.497 -2.613,1.438l-0.051,0l-0.003,-1.205Zm12.99,4.41c0,-1.713 -0.808,-2.876 -2.235,-2.876c-1.428,0 -2.235,1.165 -2.235,2.876c0,1.711 0.791,2.86 2.235,2.86c1.444,0 2.235,-1.147 2.235,-2.86m-6.843,0c0,-2.62 1.874,-4.641 4.608,-4.641c2.734,0 4.608,2.02 4.608,4.641c0,2.62 -1.874,4.64 -4.608,4.64c-2.735,0 -4.608,-2.025 -4.608,-4.64m9.69,4.383l2.339,0l0,-12.247l-2.331,0l-0.008,12.247Zm9.671,-4.383c0,-1.713 -0.807,-2.876 -2.235,-2.876c-1.428,0 -2.235,1.16 -2.235,2.876c0,1.717 0.791,2.86 2.235,2.86c1.444,0 2.235,-1.147 2.235,-2.86m-6.843,0c0,-2.62 1.874,-4.641 4.608,-4.641c2.735,0 4.608,2.02 4.608,4.641c0,2.62 -1.873,4.64 -4.608,4.64c-2.735,0 -4.608,-2.025 -4.608,-4.64m15.921,-0.394c0,-1.287 -0.688,-2.381 -2.099,-2.381c-1.187,0 -1.977,0.925 -1.977,2.397c0,1.472 0.791,2.363 1.995,2.363c1.48,0 2.08,-1.079 2.08,-2.381l0.001,0.002Zm-6.174,5.033l2.321,0c0.189,0.548 0.688,0.977 1.776,0.977c1.324,0 1.961,-0.634 1.961,-1.832l0,-0.965l-0.052,0c-0.279,0.336 -0.632,0.604 -1.032,0.782c-0.4,0.179 -0.835,0.263 -1.273,0.246c-1.961,0 -3.886,-1.541 -3.886,-4.195c0,-2.62 1.581,-4.298 3.816,-4.298c1.1,0 1.909,0.428 2.442,1.164l0.034,0l0,-0.925l2.253,0l0,8.116c0,1.232 -0.395,2.072 -1.048,2.672c-0.74,0.685 -1.874,0.992 -3.18,0.992c-2.406,0 -3.886,-1.028 -4.126,-2.735l-0.007,0Zm9.573,2.62l1.376,0c1.788,0 2.442,-0.701 3.112,-2.654l3.078,-9.008l-2.361,0l-1.239,3.955c-0.274,0.804 -0.515,1.918 -0.515,1.918l-0.032,0c0,0 -0.293,-1.113 -0.567,-1.918l-1.307,-3.955l-2.461,0l2.372,6.251c0.499,1.335 0.67,1.901 0.67,2.381c0,0.719 -0.378,1.198 -1.307,1.198l-0.826,0l0.005,1.832Zm-67.704,4.123l2.995,0c1.307,0 1.975,-0.598 1.975,-1.678c0,-1.113 -0.704,-1.661 -1.938,-1.661l-3.033,0l0,3.34Zm2.445,2.02l-2.445,0l0,4.726l-2.441,0l0,-12.243l5.538,0c1.566,0 2.493,0.41 3.216,1.147c0.714,0.697 1.111,1.657 1.1,2.654c0,1.713 -0.885,2.884 -2.433,3.397l3.069,5.044l-2.745,0l-2.859,-4.726Zm7.164,-0.616l3.92,0c-0.07,-1.113 -0.808,-1.884 -1.874,-1.884c-1.239,0 -1.839,0.737 -2.047,1.884m-2.338,0.941c0,-2.603 1.776,-4.623 4.349,-4.623c2.837,0 4.349,2.157 4.349,5.291l-6.395,0c0.172,1.353 0.929,2.192 2.253,2.192c0.911,0 1.444,-0.41 1.702,-1.079l2.305,0c-0.323,1.559 -1.72,2.876 -3.989,2.876c-2.923,0 -4.574,-2.038 -4.574,-4.665l-0,0.008Zm11.273,4.393l2.235,0l3.274,-8.786l-2.337,0l-2.018,5.952l-0.034,0l-1.997,-5.94l-2.377,0l3.255,8.774Zm5.847,0l2.339,0l0,-8.774l-2.339,0l0,8.774Zm0,-9.388l2.339,0l0,-2.09l-2.339,0l0,2.09Zm5.193,4.046l3.92,0c-0.069,-1.113 -0.807,-1.884 -1.874,-1.884c-1.239,0 -1.839,0.737 -2.046,1.884m-2.339,0.941c0,-2.603 1.776,-4.623 4.349,-4.623c2.836,0 4.35,2.157 4.35,5.291l-6.396,0c0.171,1.353 0.929,2.192 2.253,2.192c0.911,0 1.444,-0.41 1.702,-1.079l2.305,0c-0.323,1.559 -1.72,2.876 -3.989,2.876c-2.923,0 -4.574,-2.038 -4.574,-4.665l0,0.008Zm10.687,4.393l2.115,0l1.615,-5.757l0.034,0l1.565,5.757l2.132,0l2.636,-8.766l-2.272,0l-1.513,5.614l-0.034,0l-1.565,-5.61l-1.995,0l-1.479,5.61l-0.034,0l-1.454,-5.61l-2.329,0l2.578,8.762Zm-30.602,-39.727l-2.907,8.976l-3.038,-8.976l-3.825,-0l0,12.245l2.261,0l0,-9.695l3.314,9.695l2.39,0l3.16,-9.695l0,9.695l2.321,0l0,-12.245l-3.678,-0Z" style="fill:#fff;fill-rule:nonzero;"/></svg>