<?xml version="1.0" encoding="UTF-8" standalone="no"?><!DOCTYPE svg PUBLIC "-//W3C//DTD SVG 1.1//EN" "http://www.w3.org/Graphics/SVG/1.1/DTD/svg11.dtd"><svg width="100%" height="100%" viewBox="0 0 192 40" version="1.1" xmlns="http://www.w3.org/2000/svg" xmlns:xlink="http://www.w3.org/1999/xlink" xml:space="preserve" xmlns:serif="http://www.serif.com/" style="fill-rule:evenodd;clip-rule:evenodd;stroke-linejoin:round;stroke-miterlimit:2;"><g><path d="M14.976,29.492l-9.487,-6.322c-2.414,-1.613 -4.802,0.032 -5.31,1.731c-0.747,2.507 0.926,4.591 3.551,4.591l11.246,0Z" style="fill:#fff;fill-rule:nonzero;"/><path d="M29.9,29.492c2.625,0 4.295,-2.088 3.551,-4.591c-0.508,-1.698 -2.893,-3.343 -5.31,-1.731l-9.487,6.322l11.246,0Z" style="fill:#fff;fill-rule:nonzero;"/><path d="M24.017,14.781l-4.867,11.117l-1.391,-9.658c-0.179,-1.312 2.056,-2.12 2.056,-2.12c-0.204,-0.454 -0.908,-0.447 -0.908,-0.447l-1.513,0c-0.24,-2.374 1.917,-4.105 4.244,-3.576c2.292,0.508 3.122,2.997 2.378,4.684Z" style="fill:#fff;fill-rule:nonzero;"/><path d="M16.22,13.826c0.35,-2.453 -1.849,-4.27 -4.227,-3.73c-2.292,0.511 -3.122,3 -2.378,4.688l4.867,11.117l1.738,-12.076Z" style="fill:#fff;fill-rule:nonzero;"/><path d="M14.094,27.722l-4.67,-10.645c-1.094,-2.467 -3.991,-2.775 -5.589,-1.327c-1.126,1.019 -1.999,3.798 0.518,5.478l9.741,6.494Z" style="fill:#fff;fill-rule:nonzero;"/><path d="M29.28,21.228c2.517,-1.681 1.645,-4.459 0.518,-5.482c-1.598,-1.445 -4.495,-1.141 -5.589,1.327l-4.67,10.645l9.741,-6.49Z" style="fill:#fff;fill-rule:nonzero;"/><path d="M98.143,23.048c-1.877,1.602 -3.072,2.507 -5.778,2.507l-0.114,0c-3.726,0 -6.032,-2.893 -6.032,-5.571c0,-3.072 2.717,-5.571 6.054,-5.571c2.688,0.025 4.112,1.466 4.795,2.163l0.107,0.107l3.139,-3.136c-0.35,-0.35 -3.028,-3.544 -8.01,-3.544c-5.736,0 -10.498,4.355 -10.524,9.959c0,5.439 4.574,10.012 10.47,10.037c4.437,0 6.683,-1.813 8.767,-3.597l-2.875,-3.354Z" style="fill:#fff;fill-rule:nonzero;"/><path d="M80.054,23.513c0,5.167 -4.137,5.979 -6.726,5.979l-11.042,0l0,-18.995l11.031,0c3.383,0 6.086,1.92 6.086,5.521c0,1.781 -1.255,2.764 -2.21,3.25c1.573,0.787 2.861,1.949 2.861,4.245Zm-13.731,-9.451l0,3.594l6.512,0c1.076,0 2.256,-0.447 2.256,-1.784c0,-1.337 -0.919,-1.809 -2.406,-1.809l-6.361,0Zm9.44,9.451c0,-1.824 -1.52,-2.296 -2.997,-2.296l-6.444,0l0,4.538l6.597,0c1.201,0 2.843,-0.418 2.843,-2.242Z" style="fill:#fff;fill-rule:nonzero;"/><path d="M40.941,10.497l4.455,0l9.172,12.287l0,-12.287l4.177,0l0,18.995l-4.455,0l-9.176,-12.312l0,12.312l-4.173,0l0,-18.995Z" style="fill:#fff;fill-rule:nonzero;"/><path d="M145.675,25.498l0,3.998l-16.145,0l0,-18.995l15.912,0l0,3.808l-11.868,0l0,3.347l10.162,0l0,3.805l-10.162,0l0,4.023l12.101,0.014Z" style="fill:#fff;fill-rule:nonzero;"/><path d="M108.195,10.497l4.456,0l9.172,12.287l0,-12.287l4.177,0l0,18.995l-4.456,0l-9.175,-12.312l0,12.312l-4.173,0l0,-18.995Z" style="fill:#fff;fill-rule:nonzero;"/><path d="M169.621,10.501l-3.49,12.38l-3.593,-12.38l-4.323,0l-3.59,12.38l-3.494,-12.38l-3.947,0l5.21,18.995l4.248,0l3.737,-11.965l3.733,11.965l4.252,0l5.21,-18.995l-3.952,0Z" style="fill:#fff;fill-rule:nonzero;"/><path d="M187.955,18.786c-3.193,-1.355 -8.875,-0.325 -8.836,-2.921c0.014,-1.005 1.481,-1.87 3.83,-1.888c2.642,-0.021 5.989,1.384 5.989,1.384l2.127,-3.379c0,0 -4.327,-1.981 -8.045,-1.981c-5.672,0 -8.347,2.5 -8.347,5.618c0,3.2 1.792,4.47 2.764,4.942c3.154,1.534 6.687,1.116 8.593,2.067c2.084,1.041 1.258,3.529 -3.011,3.179c-3.14,-0.257 -4.996,-0.883 -7.256,-2.217l-2.324,3.261c4.395,2.714 8.632,3.143 9.583,3.15c3.318,0.018 8.7,-0.862 8.617,-6.318c-0.036,-2.231 -1.116,-3.805 -3.687,-4.895Z" style="fill:#fff;fill-rule:nonzero;"/></g></svg>