<?xml version="1.0" encoding="UTF-8" standalone="no"?><!DOCTYPE svg PUBLIC "-//W3C//DTD SVG 1.1//EN" "http://www.w3.org/Graphics/SVG/1.1/DTD/svg11.dtd"><svg width="100%" height="100%" viewBox="0 0 145 40" version="1.1" xmlns="http://www.w3.org/2000/svg" xmlns:xlink="http://www.w3.org/1999/xlink" xml:space="preserve" xmlns:serif="http://www.serif.com/" style="fill-rule:evenodd;clip-rule:evenodd;stroke-linejoin:round;stroke-miterlimit:2;"><g><g><path d="M0.274,10.255c-0.274,0.274 -0.274,0.326 -0.274,9.599c0,5.747 0.052,9.469 0.13,9.665l0.13,0.34l1.685,0c1.554,0 1.711,-0.026 1.841,-0.248c0.078,-0.17 0.13,-2.481 0.13,-6.608l0,-6.348l-1.045,-1.554c-1.019,-1.528 -1.241,-1.972 -0.562,-1.175c0.183,0.222 3.004,3.709 6.269,7.745c3.265,4.036 6.125,7.536 6.348,7.758l0.405,0.431l1.645,0c1.11,0 1.698,-0.052 1.802,-0.157c0.118,-0.118 0.157,-2.469 0.157,-9.795l0,-9.639l-0.34,-0.13c-0.562,-0.222 -2.821,-0.157 -3.161,0.078l-0.287,0.196l0,12.982l0.954,1.437c0.535,0.797 1.071,1.606 1.202,1.829l0.235,0.392l-0.326,-0.326c-0.183,-0.183 -3.213,-3.918 -6.74,-8.307c-3.526,-4.388 -6.517,-8.059 -6.635,-8.163c-0.157,-0.13 -0.679,-0.196 -1.763,-0.222c-1.41,-0.039 -1.554,-0.026 -1.802,0.222l0.001,-0.002Z" style="fill:#fff;fill-rule:nonzero;"/><path d="M22.856,10.268c-0.262,0.262 -0.262,0.431 -0.262,9.678c0,6.23 0.039,9.495 0.13,9.665c0.13,0.235 0.366,0.248 8.294,0.248c7.928,0 8.163,-0.013 8.294,-0.248c0.209,-0.405 0.17,-2.782 -0.052,-3.096c-0.183,-0.235 -0.431,-0.248 -6.531,-0.287l-6.348,-0.039l0.026,-2.312l0.039,-2.312l4.219,-0.039l4.219,-0.026l0.118,-0.34c0.078,-0.183 0.13,-0.758 0.13,-1.293c0,-0.535 -0.052,-1.11 -0.13,-1.293l-0.118,-0.34l-4.219,-0.026l-4.219,-0.039l0,-4.44l6.335,-0.039c5.773,-0.026 6.348,-0.052 6.504,-0.248c0.105,-0.144 0.157,-0.692 0.157,-1.567c0,-2.077 0.954,-1.868 -8.424,-1.868c-7.732,0 -7.902,0 -8.163,0.262l-0.001,0.001Z" style="fill:#fff;fill-rule:nonzero;"/><path d="M46.888,10.138c-2.847,0.353 -4.584,1.92 -5.159,4.676c-0.274,1.267 -0.274,9.116 0,10.41c0.496,2.351 1.907,3.84 4.18,4.44c1.136,0.287 10.618,0.287 11.754,0c1.606,-0.431 2.952,-1.437 3.618,-2.717c0.13,-0.274 0.366,-0.954 0.51,-1.489c0.222,-0.888 0.248,-1.476 0.248,-5.46c0,-3.984 -0.026,-4.571 -0.248,-5.46c-0.601,-2.312 -1.802,-3.565 -4.075,-4.232c-0.574,-0.157 -1.606,-0.209 -5.342,-0.235c-2.547,-0.026 -5.016,0 -5.485,0.066l-0.001,0Zm9.991,4.114c0.353,0.17 0.614,0.431 0.784,0.784c0.248,0.496 0.262,0.784 0.262,4.898c0,4.049 -0.013,4.428 -0.248,4.95c-0.183,0.392 -0.405,0.64 -0.784,0.836c-0.496,0.248 -0.784,0.274 -4.258,0.326c-5.289,0.066 -6.086,-0.066 -6.726,-1.162c-0.248,-0.418 -0.262,-0.679 -0.262,-4.884c0,-4.101 0.013,-4.48 0.248,-4.937c0.522,-1.058 0.902,-1.123 6.217,-1.097c3.957,0.026 4.284,0.039 4.767,0.287l-0,-0.001Z" style="fill:#fff;fill-rule:nonzero;"/><path d="M66.832,10.229c-0.052,0.039 -0.091,4.48 -0.091,9.848c0,8.777 0.026,9.756 0.209,9.834c0.353,0.13 1.162,0.091 1.332,-0.078c0.118,-0.118 0.157,-1.346 0.157,-4.702l0,-4.545l5.133,-0.026l5.12,-0.039l0,-1.567l-5.12,-0.039l-5.133,-0.026l0,-7.183l7.288,-0.026l7.275,-0.039l0,-1.437l-8.045,-0.039c-4.415,-0.013 -8.084,0.013 -8.123,0.066l-0.001,0.001Z" style="fill:#fff;fill-rule:nonzero;"/><path d="M85.547,19.985c0,8.855 0.026,9.848 0.209,9.926c0.118,0.039 3.801,0.078 8.215,0.078c6.752,0 8.019,-0.026 8.15,-0.183c0.091,-0.105 0.144,-0.47 0.118,-0.823l-0.039,-0.627l-7.536,-0.039l-7.549,-0.026l0,-7.706l5.264,0c3.918,0 5.303,-0.039 5.42,-0.157c0.091,-0.091 0.157,-0.392 0.157,-0.692c0,-0.301 -0.066,-0.601 -0.157,-0.692c-0.118,-0.118 -1.502,-0.157 -5.42,-0.157l-5.264,0l0,-7.183l7.549,-0.026l7.536,-0.039l0,-1.437l-8.319,-0.039l-8.333,-0.026l0,9.849Z" style="fill:#fff;fill-rule:nonzero;"/><path d="M105.23,10.229c-0.052,0.039 -0.091,4.44 -0.091,9.77c0,7.353 0.039,9.717 0.157,9.834c0.222,0.222 16.313,0.222 16.535,0c0.091,-0.091 0.157,-0.378 0.157,-0.64c0,-0.98 0.679,-0.902 -7.654,-0.902l-7.497,0l0,-7.706l5.264,0c3.918,0 5.303,-0.039 5.42,-0.157c0.209,-0.209 0.209,-1.175 0,-1.385c-0.118,-0.118 -1.502,-0.157 -5.42,-0.157l-5.264,0l0,-7.183l7.549,-0.026l7.536,-0.039l0,-1.437l-8.307,-0.039c-4.558,-0.013 -8.346,0.013 -8.385,0.066l0,0.001Z" style="fill:#fff;fill-rule:nonzero;"/><path d="M124.952,10.229c-0.052,0.039 -0.091,4.44 -0.091,9.77c0,8.319 0.026,9.717 0.196,9.861c0.287,0.248 13.975,0.105 14.968,-0.157c2.207,-0.588 3.33,-1.789 3.866,-4.153c0.326,-1.424 0.326,-9.535 0,-10.945c-0.562,-2.481 -1.711,-3.749 -3.892,-4.271c-0.692,-0.157 -2.064,-0.196 -7.902,-0.196c-3.879,0 -7.105,0.039 -7.144,0.091l-0.001,0Zm14.014,1.606c1.306,0.209 2.207,0.718 2.69,1.528c0.692,1.162 0.77,1.841 0.77,6.765c0,3.866 -0.026,4.545 -0.235,5.289c-0.444,1.606 -1.202,2.338 -2.782,2.677c-0.718,0.157 -2.129,0.196 -6.87,0.196l-5.982,0l0,-16.587l5.786,0c3.239,0 6.139,0.066 6.622,0.13l0.001,0.001Z" style="fill:#fff;fill-rule:nonzero;"/></g></g></svg>