<?xml version="1.0" encoding="UTF-8" standalone="no"?><!DOCTYPE svg PUBLIC "-//W3C//DTD SVG 1.1//EN" "http://www.w3.org/Graphics/SVG/1.1/DTD/svg11.dtd"><svg width="100%" height="100%" viewBox="0 0 86 40" version="1.1" xmlns="http://www.w3.org/2000/svg" xmlns:xlink="http://www.w3.org/1999/xlink" xml:space="preserve" xmlns:serif="http://www.serif.com/" style="fill-rule:evenodd;clip-rule:evenodd;stroke-linejoin:round;stroke-miterlimit:2;"><g><g><clipPath id="_clip1"><rect x="0" y="10.012" width="85.23" height="20"/></clipPath><g clip-path="url(#_clip1)"><path d="M61.319,13.969l-5.96,-3.958l29.87,3.958l-23.91,0Z" style="fill:#fff;fill-rule:nonzero;"/><path d="M43.816,14.393l4.57,0l-1.861,13.828l-3.91,0l0.448,-2.049l-2.309,0l-1.013,2.049l-3.958,0l8.033,-13.828Zm-0.118,9.022l1.084,-5.135l-2.638,5.135l1.555,0Z" style="fill:#fff;fill-rule:nonzero;"/><path d="M30.978,28.245l3.746,-10.318l-2.309,0l1.272,-3.51l8.481,0l-1.272,3.51l-2.285,0l-3.746,10.318l-3.887,0Z" style="fill:#fff;fill-rule:nonzero;"/><path d="M27.562,14.393l4.57,0l-1.861,13.828l-3.91,0l0.448,-2.049l-2.309,0l-1.013,2.049l-3.958,0l8.033,-13.828Zm-0.118,9.022l1.084,-5.135l-2.638,5.135l1.555,0Z" style="fill:#fff;fill-rule:nonzero;"/><path d="M50.247,28.457c1.767,-0.683 3.534,-1.366 5.277,-2.026c1.531,-1.578 2.874,-4.146 3.463,-7.044c0.683,-3.298 -0.683,-5.23 -3.274,-5.23c-1.861,0 -3.486,0.777 -4.9,2.379c-1.413,1.602 -2.686,4.122 -3.227,6.784c-0.612,2.898 0.377,4.759 2.662,5.135Zm1.131,-4.829c0.33,-1.625 1.06,-3.557 1.696,-4.735c0.471,-0.919 0.942,-1.343 1.555,-1.343c0.565,0 0.707,0.495 0.495,1.508c-0.353,1.696 -1.06,3.581 -1.673,4.688c-0.495,0.919 -0.966,1.366 -1.531,1.366c-0.589,0.024 -0.754,-0.448 -0.542,-1.484Z" style="fill:#fff;fill-rule:nonzero;"/><path d="M85.23,14.393l-13.993,0l-2.45,6.761c1.578,-0.636 3.11,-1.249 4.523,-1.837l0.565,-1.555l2.544,0l-0.141,0.377l8.952,-3.746Z" style="fill:#fff;fill-rule:nonzero;"/><path d="M68.339,21.343l2.521,-6.926l-3.863,0l-3.18,8.74c1.555,-0.612 3.062,-1.225 4.523,-1.814Z" style="fill:#fff;fill-rule:nonzero;"/><path d="M61.743,23.981c0.024,-0.071 0.047,-0.165 0.094,-0.306l3.369,-9.258l-3.887,0l-3.227,8.881c-0.188,0.542 -0.353,1.06 -0.448,1.531c-0.047,0.283 -0.094,0.542 -0.118,0.801c1.437,-0.542 2.85,-1.107 4.217,-1.649Z" style="fill:#fff;fill-rule:nonzero;"/><path d="M11.614,23.298c0.542,-2.686 1.837,-5.206 3.227,-6.784c1.437,-1.602 3.039,-2.379 4.9,-2.379c2.591,0 3.958,1.908 3.274,5.206c-0.542,2.686 -1.79,5.183 -3.227,6.784c-1.413,1.602 -3.039,2.379 -4.9,2.379c-2.544,0 -3.934,-1.979 -3.274,-5.206Zm4.382,1.814c0.565,0 1.013,-0.448 1.531,-1.366c0.589,-1.107 1.319,-2.992 1.673,-4.688c0.212,-1.037 0.047,-1.508 -0.495,-1.508c-0.612,0 -1.084,0.424 -1.555,1.343c-0.636,1.178 -1.343,3.11 -1.696,4.735c-0.236,1.013 -0.071,1.484 0.542,1.484Z" style="fill:#fff;fill-rule:nonzero;"/><path d="M5.041,14.393l3.581,0l-0.283,7.444l2.827,-7.444l3.251,0l-5.018,13.828l-3.557,0l0.141,-7.161l-2.686,7.161l-3.298,0l5.041,-13.828Z" style="fill:#fff;fill-rule:nonzero;"/><path d="M55.477,26.431c-1.72,0.66 -3.463,1.343 -5.206,2.002c0.259,0.047 0.542,0.071 0.848,0.071l1.602,0.024l4.829,1.461l-3.062,-2.709c0.353,-0.212 0.683,-0.518 0.989,-0.848Z" style="fill:#fff;fill-rule:nonzero;"/><path d="M63.816,23.157l-0.188,0.495c-0.283,0.777 -0.683,1.178 -1.319,1.178c-0.471,0 -0.707,-0.283 -0.612,-0.754c0,-0.024 0.024,-0.071 0.024,-0.094c-1.366,0.542 -2.756,1.084 -4.193,1.649c-0.118,1.955 1.084,2.898 3.628,2.898c1.837,0 3.298,-0.518 4.429,-1.602c1.06,-1.037 1.484,-2.238 2.002,-3.651l0.707,-1.932c-1.413,0.589 -2.921,1.201 -4.476,1.814Z" style="fill:#fff;fill-rule:nonzero;"/><path d="M73.31,19.293c-1.437,0.589 -2.945,1.201 -4.523,1.837l-2.568,7.091l6.855,0l1.296,-3.581l-2.992,0l0.707,-1.908l2.709,0l1.178,-3.251l-2.709,0l0.047,-0.188Z" style="fill:#fff;fill-rule:nonzero;"/></g></g></g></svg>