<?xml version="1.0" encoding="UTF-8" standalone="no"?><!DOCTYPE svg PUBLIC "-//W3C//DTD SVG 1.1//EN" "http://www.w3.org/Graphics/SVG/1.1/DTD/svg11.dtd"><svg width="100%" height="100%" viewBox="0 0 98 40" version="1.1" xmlns="http://www.w3.org/2000/svg" xmlns:xlink="http://www.w3.org/1999/xlink" xml:space="preserve" xmlns:serif="http://www.serif.com/" style="fill-rule:evenodd;clip-rule:evenodd;stroke-linejoin:round;stroke-miterlimit:2;"><g><clipPath id="_clip1"><rect x="-525.72" y="7.5" width="2010.18" height="382.5"/></clipPath><g clip-path="url(#_clip1)"><path d="M92.773,26.529l0,-11.882c0,-1.618 0.844,-2.618 1.951,-2.618c1.223,0 1.951,0.941 1.951,2.618l0,11.882c0,1.676 -0.728,2.618 -1.951,2.618c-1.107,0 -1.951,-1 -1.951,-2.618m4.251,-12.029c0,-1.559 -0.728,-2.794 -2.155,-2.794c-1.252,0 -1.98,1 -2.097,1.971l0,-1.765l-0.35,0l0,20.588l0.35,0l0,-5c0.116,0.971 0.844,1.971 2.097,1.971c1.427,0 2.155,-1.235 2.155,-2.794l0,-12.176Zm-6.927,7.235c0.699,0.824 1.077,1.529 1.077,2.5l0,1.588c0,2.235 -0.553,3.324 -1.922,3.324c-1.369,0 -2.067,-1.088 -2.067,-3.324l0,-3.471l-0.32,0l0,3.529c0,2.382 0.873,3.588 2.388,3.588c1.631,0 2.271,-1.353 2.271,-3.647l0,-1.588c0,-1.088 -0.437,-1.882 -1.135,-2.706l-1.863,-2.147c-0.728,-0.794 -1.281,-1.382 -1.281,-2.588l0,-1.588c0,-2.118 0.641,-3.176 1.98,-3.176c1.339,0 1.835,1.088 1.835,3.265l0,3.088l0.32,0l0,-3.118c0,-2.206 -0.582,-3.559 -2.155,-3.559c-1.573,0 -2.329,1.353 -2.329,3.5l0,1.588c0,1.294 0.67,2.029 1.339,2.794l1.863,2.147Zm-8.494,-6.353c0,-2.118 0.67,-3.353 2.067,-3.353c1.397,0 2.009,1.235 2.009,3.353l0,4.706l-4.076,0l0,-4.706Zm4.426,6.971l-0.262,0l0,3.559c0,2.147 -0.699,3.235 -2.097,3.235c-1.31,0 -2.067,-1.235 -2.067,-3.353l0,-5.412l4.426,0l0,-4.971c0,-2.235 -0.728,-3.706 -2.358,-3.706c-1.63,0 -2.417,1.471 -2.417,3.706l0,10.353c0,2.235 0.786,3.706 2.388,3.706c1.601,0 2.388,-1.382 2.388,-3.5l0,-3.618Zm-9.952,4.176l0,-11.882c0,-1.618 0.844,-2.618 1.951,-2.618c1.223,0 1.951,0.941 1.951,2.618l0,11.882c0,1.676 -0.728,2.618 -1.951,2.618c-1.107,0 -1.951,-1 -1.951,-2.618m4.251,-12.029c0,-1.559 -0.728,-2.794 -2.155,-2.794c-1.252,0 -1.98,1 -2.097,1.971l0,-1.765l-0.35,0l0,20.588l0.35,0l0,-5c0.116,0.971 0.844,1.971 2.097,1.971c1.427,0 2.155,-1.235 2.155,-2.794l0,-12.176Zm-9.914,10c0,-1.765 0.641,-2.765 1.805,-4c1.019,-1.118 1.893,-2.853 2.038,-3.824l0,9.765c0,1.588 -0.815,2.676 -1.98,2.676c-1.165,0 -1.863,-0.941 -1.863,-2.441l0,-2.176Zm-0.35,2.206c0,1.5 0.699,2.706 2.125,2.706c1.252,0 1.98,-1.059 2.067,-2.029l0,1.382c0,0.353 0.029,0.5 0.292,0.5l0.058,0l0,-13.912c0,-2.588 -0.612,-3.647 -2.155,-3.647c-1.543,0 -2.271,1.265 -2.271,3.559l0,3.118l0.32,0l0,-3.118c0,-2.118 0.641,-3.235 1.951,-3.235c1.31,0 1.805,0.882 1.805,3.324c0,1.853 -0.99,3.5 -2.213,4.912c-1.107,1.176 -1.98,2.147 -1.98,4.118l0,2.324Zm-2.624,2.559l0.35,0l0,-17.059l2.009,0l0,-0.294l-2.009,0l0,-2.882c0,-0.765 0.175,-1.206 0.961,-1.206l1.019,0l0,-0.324l-0.961,0c-0.903,0 -1.369,0.353 -1.369,1.529l0,2.882l-0.99,0l0,0.294l0.99,0l0,17.059Zm-6.959,-5.324c0,-1.029 0,-1.882 0.554,-2.676c0.408,-0.559 0.786,-0.882 1.019,-1.353l0,5.794c0,0.853 -0.262,1.529 -0.815,1.529c-0.641,0 -0.757,-0.559 -0.757,-1.588l0,-1.706l-0.001,0Zm-3.232,2.441c0,1.853 0.844,3.029 2.388,3.029c1.31,0 2.3,-0.794 2.446,-2.706l0,0.441c0,1.559 0.728,2.118 1.835,2.118l1.31,0l0,-13.353c0,-2.147 -0.67,-4.235 -3.873,-4.235c-2.388,0 -3.873,1.382 -3.873,3.853l0,2.912l3.086,0l0,-2.824c0,-1.029 0.116,-1.618 0.728,-1.618c0.612,0 0.728,0.647 0.728,1.618c0,2.853 -0.641,3.147 -2.417,4.412c-1.631,1.147 -2.358,1.941 -2.358,3.971l0,2.382l-0.001,0Zm-5.058,-4.294c0.786,0.706 1.136,1.206 1.136,1.971l0,1.647c0,0.853 -0.175,1.441 -0.728,1.441c-0.554,0 -0.786,-0.588 -0.786,-1.441l0,-3.118l-3.028,0l0,3.029c0,2.382 1.339,3.882 3.814,3.882c2.475,0 4.018,-1.353 4.018,-4l0,-1.676c0,-1.647 -0.699,-2.647 -1.805,-3.559l-1.514,-1.324c-0.728,-0.706 -1.194,-1.118 -1.194,-2.029l0,-1.412c0,-0.853 0.146,-1.471 0.699,-1.471c0.553,0 0.728,0.618 0.728,1.471l0,2.941l2.999,0l0,-2.882c0,-2.382 -1.281,-3.882 -3.727,-3.882c-2.446,0 -3.96,1.441 -3.96,4.088l0,1.618c0,1.529 0.699,2.5 1.835,3.471l1.514,1.235l-0.001,0Zm-4.125,-10.176l-3.32,0l0,17.353l3.32,0l0,-17.353Zm0,-4.412l-3.32,0l0,3.235l3.32,0l0,-3.235Zm-7.606,18.5c0,0.647 -0.291,1.118 -0.815,1.118c-0.495,0 -0.699,-0.471 -0.699,-1.118l0,-14.088l-3.32,0l0,14.765c0,1.529 0.757,2.824 2.3,2.824c1.456,0 2.301,-1.029 2.533,-2.647l0,2.412l3.348,0l0,-17.353l-3.348,0l0,14.088Zm-9.099,0c0,0.647 -0.32,1.118 -0.815,1.118c-0.524,0 -0.757,-0.471 -0.757,-1.118l0,-10.824c0,-0.647 0.233,-1.118 0.757,-1.118c0.495,0 0.815,0.471 0.815,1.118l0,10.824Zm-4.892,-11.529l0,12.235c0,1.529 0.786,2.794 2.329,2.794c1.456,0 2.3,-1.029 2.562,-2.618l0,5.618l3.32,0l0,-20.588l-3.32,0l0,2.382c-0.262,-1.588 -1.107,-2.618 -2.562,-2.618c-1.543,0 -2.329,1.265 -2.329,2.794m-5.122,7.618c0.786,0.706 1.136,1.206 1.136,1.971l0,1.647c0,0.853 -0.175,1.441 -0.728,1.441c-0.554,0 -0.786,-0.588 -0.786,-1.441l0,-3.118l-3.028,0l0,3.029c0,2.382 1.339,3.882 3.814,3.882c2.475,0 4.018,-1.353 4.018,-4l0,-1.676c0,-1.647 -0.699,-2.647 -1.805,-3.559l-1.514,-1.324c-0.728,-0.706 -1.193,-1.118 -1.193,-2.029l0,-1.412c0,-0.853 0.146,-1.471 0.699,-1.471c0.553,0 0.728,0.618 0.728,1.471l0,2.941l2.999,0l0,-2.882c0,-2.382 -1.281,-3.882 -3.727,-3.882c-2.446,0 -3.96,1.441 -3.96,4.088l0,1.618c0,1.529 0.699,2.5 1.835,3.471l1.514,1.235l-0.001,0Zm-8.892,-6.588c0,-0.853 0.146,-1.471 0.699,-1.471c0.582,0 0.728,0.618 0.728,1.471l0,3.382l-1.427,0l0,-3.382Zm4.746,7l-2.359,0l0,2.5c0,1.265 -0.408,1.912 -1.194,1.912c-0.873,0 -1.194,-0.618 -1.194,-1.588l0,-4.265l4.746,0l0,-5.176c0,-2.706 -1.543,-4.206 -4.047,-4.206c-2.504,0 -4.076,1.529 -4.076,4.206l0,9.441c0,2.676 1.601,4.176 4.164,4.176c2.417,0 3.96,-1.471 3.96,-4.147l0,-2.853Zm-13.884,3.5l0,-10.824c0,-0.647 0.32,-1.118 0.815,-1.118c0.524,0 0.757,0.471 0.757,1.118l0,10.824c0,0.647 -0.233,1.118 -0.757,1.118c-0.495,0 -0.815,-0.471 -0.815,-1.118m4.892,-11.529c0,-1.529 -0.786,-2.794 -2.329,-2.794c-1.456,0 -2.3,1.029 -2.562,2.618l0,-2.382l-3.32,0l0,20.588l3.32,0l0,-5.618c0.262,1.588 1.107,2.618 2.562,2.618c1.543,0 2.329,-1.265 2.329,-2.794l0,-12.235Z" style="fill:#fff;fill-rule:nonzero;"/></g></g></svg>