<?xml version="1.0" encoding="UTF-8" standalone="no"?><!DOCTYPE svg PUBLIC "-//W3C//DTD SVG 1.1//EN" "http://www.w3.org/Graphics/SVG/1.1/DTD/svg11.dtd"><svg width="100%" height="100%" viewBox="0 0 54 40" version="1.1" xmlns="http://www.w3.org/2000/svg" xmlns:xlink="http://www.w3.org/1999/xlink" xml:space="preserve" xmlns:serif="http://www.serif.com/" style="fill-rule:evenodd;clip-rule:evenodd;stroke-linejoin:round;stroke-miterlimit:2;"><g><g><path d="M48.278,6.635c-0.487,0.896 -1.07,1.948 -1.287,2.339l-0.391,0.722l2.661,0l1.913,-2.096c1.052,-1.157 2,-2.209 2.113,-2.348l0.2,-0.252l-4.313,0l-0.896,1.635Z" style="fill:#fff;fill-rule:nonzero;"/><rect x="13.565" y="5.783" width="3.652" height="3.304" style="fill:#fff;fill-rule:nonzero;"/><path d="M6.217,11.635c-0.757,0.2 -1.348,0.565 -2.017,1.261c-0.348,0.357 -0.635,0.687 -0.635,0.73c0,0.035 -0.035,0.07 -0.087,0.07c-0.052,0 -0.087,-0.365 -0.087,-0.913l0,-0.913l-3.391,0l0,23.13l3.652,0l0,-3.522c0,-3.339 0.009,-3.522 0.157,-3.435c0.078,0.052 0.426,0.304 0.757,0.574c0.339,0.261 0.861,0.6 1.174,0.757c0.539,0.27 0.6,0.278 1.652,0.278c1.026,0 1.113,-0.017 1.6,-0.252c1.026,-0.504 1.739,-1.557 2.009,-2.957c0.2,-1.017 0.191,-10.713 -0.009,-11.687c-0.278,-1.409 -1.026,-2.47 -2.061,-2.93c-0.452,-0.209 -0.678,-0.252 -1.409,-0.27c-0.522,-0.017 -1.043,0.017 -1.304,0.078Zm0.043,2.904c0.478,0.087 0.904,0.6 1.096,1.296c0.148,0.548 0.165,0.939 0.165,4.774c0,4.443 -0.035,4.878 -0.417,5.452c-0.33,0.487 -0.704,0.678 -1.339,0.678c-0.6,0 -0.948,-0.113 -1.652,-0.548l-0.461,-0.27l0,-10.565l0.243,-0.165c0.843,-0.591 1.609,-0.809 2.365,-0.652Z" style="fill:#fff;fill-rule:nonzero;"/><path d="M23.791,11.661c-2.47,0.548 -3.974,2.252 -4.278,4.835l-0.061,0.504l3.652,0l0.052,-0.565c0.13,-1.348 0.774,-1.957 2.061,-1.957c1.278,0.009 1.826,0.765 1.826,2.522l0,0.843l-0.757,0.287c-1.026,0.391 -2.957,1.365 -3.809,1.93c-0.878,0.574 -1.991,1.696 -2.417,2.417c-0.965,1.652 -1.122,4.078 -0.348,5.496c0.304,0.557 0.957,1.157 1.574,1.443c0.426,0.2 0.635,0.235 1.504,0.261c1.513,0.052 2.522,-0.261 3.791,-1.174c0.348,-0.243 0.643,-0.426 0.67,-0.391c0.017,0.035 0.061,0.296 0.096,0.574c0.035,0.287 0.078,0.565 0.104,0.635c0.035,0.087 0.4,0.113 1.739,0.113l1.696,0l-0.061,-0.322c-0.035,-0.183 -0.087,-3.4 -0.122,-7.157c-0.07,-7.478 -0.043,-7.122 -0.591,-8.209c-0.461,-0.913 -1.513,-1.678 -2.765,-2.017c-0.757,-0.2 -2.783,-0.243 -3.557,-0.07Zm3.209,13.478c-0.07,0.304 -0.983,1.165 -1.47,1.391c-0.922,0.435 -2.165,0.191 -2.513,-0.487c-0.252,-0.487 -0.174,-1.722 0.148,-2.339c0.452,-0.878 1.548,-1.861 3.122,-2.809l0.713,-0.426l0.026,2.243c0.009,1.235 0,2.33 -0.026,2.426Z" style="fill:#fff;fill-rule:nonzero;"/><rect x="13.565" y="11.87" width="3.652" height="17.565" style="fill:#fff;fill-rule:nonzero;"/><path d="M33.478,19.374c0,8.043 0,7.983 0.443,8.852c0.27,0.53 0.878,1.087 1.435,1.287c0.357,0.139 0.678,0.183 1.278,0.183c1.417,0 2.261,-0.33 3.539,-1.4l0.739,-0.617l0.052,1.757l3.47,0l0,-17.565l-3.652,0l0,13.809l-0.6,0.4c-0.739,0.496 -1.2,0.661 -1.809,0.661c-0.574,0 -0.93,-0.174 -1.13,-0.548c-0.148,-0.261 -0.157,-0.774 -0.183,-7.304l-0.026,-7.017l-3.557,0l0,7.504Z" style="fill:#fff;fill-rule:nonzero;"/><rect x="47.043" y="11.87" width="3.652" height="17.565" style="fill:#fff;fill-rule:nonzero;"/></g></g></svg>