<?xml version="1.0" encoding="UTF-8" standalone="no"?><!DOCTYPE svg PUBLIC "-//W3C//DTD SVG 1.1//EN" "http://www.w3.org/Graphics/SVG/1.1/DTD/svg11.dtd"><svg width="100%" height="100%" viewBox="0 0 96 40" version="1.1" xmlns="http://www.w3.org/2000/svg" xmlns:xlink="http://www.w3.org/1999/xlink" xml:space="preserve" xmlns:serif="http://www.serif.com/" style="fill-rule:evenodd;clip-rule:evenodd;stroke-linejoin:round;stroke-miterlimit:2;"><g><path d="M6.614,20.587l-1.225,0l0,3.198c1.321,0.288 2.141,0.643 2.465,1.058l-0.268,2.247l-7.318,0l-0.268,-2.247c0.415,-0.42 0.926,-0.729 1.488,-0.891l0,-12.384c-0.572,-0.162 -1.088,-0.481 -1.488,-0.921l0.273,-2.252l7.181,0c2.51,0.035 4.383,0.491 5.622,1.366c1.24,0.876 1.857,2.434 1.857,4.676c0,4.099 -2.773,6.149 -8.32,6.149Zm0.4,-9.241l-1.624,0l0,6.285l1.817,0c0.972,0.071 1.943,-0.182 2.748,-0.729c0.607,-0.486 0.906,-1.331 0.906,-2.535c0,-1.204 -0.329,-2.004 -0.987,-2.409c-0.881,-0.461 -1.867,-0.668 -2.859,-0.612Zm9.565,2.196c0.921,-0.223 1.867,-0.344 2.819,-0.354c0.865,0 1.599,0.025 2.196,0.081l0,10.81c0.567,0.182 1.078,0.496 1.488,0.921l-0.268,2.085l-6.23,0l-0.268,-2.085c0.4,-0.44 0.916,-0.759 1.488,-0.921l0,-7.53c-0.567,-0.177 -1.078,-0.491 -1.488,-0.921l0.268,-2.085l-0.005,0Zm3.077,-1.867c-1.508,0 -2.262,-0.683 -2.262,-2.045c0,-1.361 0.754,-2.05 2.262,-2.05c1.508,0 2.262,0.683 2.262,2.045c0,1.361 -0.754,2.045 -2.262,2.045l-0,0.005Zm4.484,1.867c0.881,-0.202 1.781,-0.309 2.682,-0.324c0.795,0 1.452,0.02 1.979,0.056l0,1.326c1.123,-0.82 2.48,-1.265 3.877,-1.275c1.807,0 3.117,0.516 3.927,1.544c0.81,1.027 1.22,2.748 1.22,5.147c0.02,1.154 -0.172,2.303 -0.567,3.386c-0.314,0.881 -0.845,1.66 -1.544,2.277c-1.225,1.078 -2.814,1.655 -4.443,1.624c-0.709,0 -1.417,-0.071 -2.115,-0.218l0,2.328c1.068,0.288 1.751,0.622 2.06,1.002l-0.273,2.085l-6.802,0l-0.268,-2.085c0.405,-0.435 0.921,-0.754 1.488,-0.921l0,-12.95c-0.567,-0.177 -1.078,-0.491 -1.488,-0.921l0.268,-2.085l0,0.005Zm6.857,11.002c0.881,0.015 1.695,-0.445 2.141,-1.204c0.577,-1.012 0.85,-2.171 0.784,-3.33c0,-1.417 -0.147,-2.389 -0.435,-2.915c-0.329,-0.547 -0.941,-0.85 -1.574,-0.784c-0.987,-0.051 -1.964,0.233 -2.763,0.815l0,7.206c0.602,0.152 1.22,0.223 1.842,0.218l0.005,-0.005Zm14.737,2.763c-2.166,0 -3.796,-0.577 -4.889,-1.736c-1.093,-1.154 -1.64,-2.834 -1.64,-5.04c-0.025,-1.179 0.167,-2.348 0.567,-3.456c0.309,-0.865 0.845,-1.64 1.544,-2.237c1.25,-1.007 2.814,-1.544 4.418,-1.518c1.68,0 2.966,0.43 3.861,1.285c0.896,0.86 1.341,2.399 1.341,4.62c0,1.301 -0.643,1.948 -1.923,1.948l-5.881,0c0.071,1.139 0.364,1.943 0.881,2.409c0.516,0.471 1.331,0.703 2.454,0.703c0.592,0 1.184,-0.071 1.761,-0.218c0.425,-0.096 0.83,-0.238 1.22,-0.435l0.38,-0.218l0.815,2.166c-0.147,0.167 -0.309,0.324 -0.476,0.476c-0.481,0.329 -1.012,0.587 -1.574,0.759c-0.916,0.329 -1.883,0.491 -2.859,0.476l0,0.015Zm1.705,-8.532c0.04,-0.304 0.056,-0.612 0.056,-0.921c-0.02,-0.42 -0.172,-0.82 -0.435,-1.154c-0.369,-0.44 -0.931,-0.668 -1.503,-0.607c-0.617,-0.04 -1.22,0.197 -1.64,0.648c-0.455,0.643 -0.724,1.407 -0.759,2.196l4.281,-0.167l0,0.005Zm4.823,-10.921c0.921,-0.223 1.867,-0.344 2.819,-0.354c0.865,0 1.599,0.025 2.196,0.081l0,16.498c0.567,0.182 1.078,0.496 1.488,0.921l-0.273,2.085l-6.23,0l-0.273,-2.085c0.4,-0.44 0.916,-0.759 1.488,-0.921l0,-13.219c-0.567,-0.177 -1.078,-0.491 -1.488,-0.921l0.273,-2.085Zm7.94,5.688c0.921,-0.223 1.867,-0.344 2.819,-0.354c0.865,0 1.599,0.025 2.196,0.081l0,10.81c0.567,0.182 1.078,0.496 1.493,0.921l-0.273,2.085l-6.23,0l-0.273,-2.085c0.4,-0.44 0.916,-0.759 1.488,-0.921l0,-7.53c-0.567,-0.177 -1.078,-0.491 -1.488,-0.921l0.273,-2.085l-0.005,0Zm3.077,-1.867c-1.508,0 -2.262,-0.683 -2.262,-2.045c0,-1.361 0.754,-2.045 2.262,-2.045c1.508,0 2.262,0.683 2.262,2.045c0,1.361 -0.754,2.045 -2.262,2.045Zm4.782,1.867c0.881,-0.202 1.781,-0.314 2.682,-0.324c0.795,0 1.452,0.02 1.979,0.056l0,1.356c0.536,-0.425 1.149,-0.739 1.802,-0.936c0.693,-0.233 1.422,-0.359 2.156,-0.364c1.771,0 3.011,0.415 3.725,1.245c0.714,0.83 1.068,2.267 1.073,4.307l0,5.202c0.567,0.182 1.078,0.496 1.493,0.921l-0.273,2.085l-6.23,0l-0.273,-2.085c0.4,-0.44 0.916,-0.759 1.493,-0.921l0,-5.364c0,-0.977 -0.157,-1.63 -0.476,-1.964c-0.476,-0.39 -1.083,-0.567 -1.695,-0.501c-0.886,0.025 -1.736,0.329 -2.439,0.865l0,6.964c0.567,0.182 1.078,0.496 1.493,0.921l-0.273,2.085l-6.235,0l-0.273,-2.085c0.4,-0.44 0.916,-0.759 1.493,-0.921l0,-7.53c-0.567,-0.177 -1.078,-0.491 -1.493,-0.921l0.268,-2.085l0.005,-0.005Zm22.353,13.765c-2.166,0 -3.796,-0.577 -4.889,-1.736c-1.093,-1.159 -1.64,-2.834 -1.64,-5.04c-0.025,-1.179 0.167,-2.348 0.567,-3.456c0.309,-0.865 0.845,-1.64 1.544,-2.237c1.25,-1.007 2.814,-1.544 4.418,-1.518c1.68,0 2.966,0.43 3.861,1.285c0.896,0.86 1.341,2.399 1.341,4.62c0,1.301 -0.643,1.948 -1.923,1.948l-5.881,0c0.071,1.139 0.364,1.943 0.881,2.409c0.516,0.471 1.331,0.703 2.454,0.703c0.592,0 1.184,-0.071 1.761,-0.218c0.425,-0.096 0.83,-0.238 1.22,-0.435l0.38,-0.218l0.815,2.166c-0.147,0.167 -0.309,0.324 -0.476,0.476c-0.481,0.329 -1.012,0.587 -1.569,0.759c-0.916,0.329 -1.888,0.491 -2.859,0.471l-0.005,0.02Zm1.705,-8.532c0.04,-0.304 0.056,-0.612 0.056,-0.921c-0.02,-0.42 -0.172,-0.82 -0.435,-1.154c-0.369,-0.44 -0.931,-0.668 -1.503,-0.607c-0.617,-0.04 -1.22,0.197 -1.64,0.648c-0.455,0.643 -0.724,1.407 -0.759,2.196l4.281,-0.167l0,0.005Z" style="fill:#fff;fill-rule:nonzero;"/></g></svg>