<?xml version="1.0" encoding="UTF-8" standalone="no"?><!DOCTYPE svg PUBLIC "-//W3C//DTD SVG 1.1//EN" "http://www.w3.org/Graphics/SVG/1.1/DTD/svg11.dtd"><svg width="100%" height="100%" viewBox="0 0 110 40" version="1.1" xmlns="http://www.w3.org/2000/svg" xmlns:xlink="http://www.w3.org/1999/xlink" xml:space="preserve" xmlns:serif="http://www.serif.com/" style="fill-rule:evenodd;clip-rule:evenodd;stroke-linejoin:round;stroke-miterlimit:2;"><path id="politico-logo" d="M84.747,27.011c-1.78,0 -3.385,-0.681 -4.747,-2c-1.385,-1.319 -2.066,-3.011 -2.066,-5.077c0,-2.066 0.681,-3.604 2,-4.945c1.319,-1.341 2.967,-2.022 4.901,-2.022c1.934,0 3.231,0.549 4.462,1.626c0.44,-0.835 0.989,-1.648 1.648,-2.374c-1.736,-1.407 -3.78,-2.11 -6.066,-2.11c-2.286,0 -5.099,0.967 -7.055,2.901c-1.956,1.912 -2.945,4.242 -2.945,6.901c0,2.659 1.099,5.516 3.231,7.407c1.956,1.692 4.176,2.549 6.615,2.549c2.44,0 4.418,-0.703 6.176,-2.066c-0.659,-0.747 -1.209,-1.538 -1.648,-2.418c-1.253,1.077 -2.769,1.626 -4.505,1.626Zm-59.275,2.989c-2.484,0 -4.725,-0.857 -6.681,-2.571c-2.176,-1.89 -3.275,-4.418 -3.275,-7.473c0,-3.055 0.989,-5.033 2.989,-6.989c1.956,-1.956 4.352,-2.923 7.121,-2.923c2.769,0 5.099,0.989 7.055,2.945c1.956,1.956 2.945,4.33 2.945,7.077c0,2.747 -0.989,5.121 -2.967,7.033c-1.978,1.934 -4.396,2.901 -7.187,2.901Zm0.088,-17.055c-1.956,0 -3.604,0.681 -4.945,2.044c-1.341,1.341 -2.022,3.011 -2.022,4.989c0,1.978 0.703,3.78 2.088,5.121c1.385,1.341 2.989,2 4.813,2c1.824,0 3.648,-0.681 4.989,-2.044c1.341,-1.363 2.022,-3.055 2.022,-5.033c0,-1.978 -0.681,-3.692 -2,-5.033c-1.319,-1.363 -2.989,-2.044 -4.945,-2.044Zm22.088,17.011l-10.264,0l0,-19.956l3.187,0l0,16.945l7.077,0l0,3.011Zm4.879,0l-3.187,0l0,-19.956l3.187,0l0,19.956Zm10.374,0l-3.187,0l0,-16.945l-5.473,0l0,-3.011l14.264,0l0,3.011l-5.604,0l0,16.945Zm10.462,0l-3.187,0l0,-19.956l3.187,0l0,19.956Zm26.374,0.044c-2.462,0 -4.725,-0.857 -6.681,-2.571c-2.176,-1.89 -3.275,-4.418 -3.275,-7.473c0,-3.055 0.989,-5.033 2.989,-6.989c1.956,-1.956 4.352,-2.923 7.121,-2.923c2.769,0 5.099,0.989 7.055,2.945c1.956,1.956 2.945,4.33 2.945,7.077c0,2.747 -0.989,5.121 -2.967,7.033c-1.978,1.934 -4.396,2.901 -7.187,2.901Zm0.11,-17.055c-1.934,0 -3.604,0.681 -4.945,2.044c-1.341,1.341 -2.022,3.011 -2.022,4.989c0,1.978 0.703,3.78 2.088,5.121c1.385,1.341 2.989,2 4.813,2c1.824,0 3.648,-0.681 4.989,-2.044c1.341,-1.385 2.022,-3.077 2.022,-5.033c0,-1.956 -0.681,-3.692 -2,-5.033c-1.319,-1.363 -2.989,-2.044 -4.945,-2.044Zm-96.659,17.011l-3.187,0l0,-19.934l7.802,0c3.67,0 6.659,2.989 6.659,6.659c0,3.67 -2.989,6.659 -6.659,6.659l-4.615,0l0,6.615Zm0,-9.516l4.615,0c2.066,0 3.758,-1.67 3.758,-3.758c0,-2.088 -1.67,-3.758 -3.758,-3.758l-4.615,0l0,7.516Z" style="fill:#fff;fill-rule:nonzero;"/></svg>