<?xml version="1.0" encoding="UTF-8" standalone="no"?><!DOCTYPE svg PUBLIC "-//W3C//DTD SVG 1.1//EN" "http://www.w3.org/Graphics/SVG/1.1/DTD/svg11.dtd"><svg width="100%" height="100%" viewBox="0 0 107 40" version="1.1" xmlns="http://www.w3.org/2000/svg" xmlns:xlink="http://www.w3.org/1999/xlink" xml:space="preserve" xmlns:serif="http://www.serif.com/" style="fill-rule:evenodd;clip-rule:evenodd;stroke-linejoin:round;stroke-miterlimit:2;"><g><path d="M102.764,21.414c0.395,-0.433 0.586,-0.994 0.586,-1.694c0,-0.701 -0.191,-1.274 -0.586,-1.707c-0.395,-0.433 -0.943,-0.65 -1.631,-0.65c-0.688,0 -1.223,0.217 -1.605,0.637c-0.382,0.433 -0.561,1.006 -0.561,1.72c0,0.701 0.191,1.274 0.561,1.694c0.382,0.433 0.917,0.637 1.605,0.637c0.688,0 1.236,-0.217 1.631,-0.637Zm-4.739,2.764c-0.662,-0.471 -1.197,-1.121 -1.541,-1.873c-0.382,-0.815 -0.573,-1.707 -0.561,-2.611c-0.013,-0.904 0.178,-1.796 0.561,-2.611c0.344,-0.752 0.866,-1.401 1.541,-1.873c0.637,-0.446 1.389,-0.688 2.178,-0.688c0.675,-0.013 1.338,0.166 1.924,0.497c0.535,0.293 0.955,0.739 1.223,1.287l0,-4.268l3.019,0l0,12.573l-3.019,0l0,-1.401c-0.408,0.611 -0.764,1.032 -1.299,1.287c-0.586,0.255 -1.21,0.395 -1.847,0.382c-0.777,0 -1.541,-0.242 -2.178,-0.701" style="fill:#fff;fill-rule:nonzero;"/><rect x="91.975" y="12.038" width="3.006" height="12.573" style="fill:#fff;fill-rule:nonzero;"/><path d="M85.134,14.803l5.911,0l0,2.815l-2.879,0l0,6.994l-3.032,0l0,-9.809Z" style="fill:#fff;fill-rule:nonzero;"/><path d="M80.561,21.414c0.42,-0.408 0.624,-0.981 0.624,-1.707c0,-0.752 -0.204,-1.325 -0.611,-1.72c-0.408,-0.395 -0.943,-0.599 -1.592,-0.599c-0.65,0 -1.172,0.204 -1.58,0.599c-0.408,0.395 -0.611,0.968 -0.611,1.72c0,0.726 0.204,1.299 0.611,1.707c0.408,0.408 0.93,0.611 1.567,0.611c0.65,0.013 1.172,-0.191 1.592,-0.611Zm-4.191,2.764c-0.79,-0.446 -1.439,-1.096 -1.911,-1.885c-0.459,-0.79 -0.701,-1.682 -0.701,-2.599c0,-0.917 0.242,-1.809 0.701,-2.599c0.471,-0.777 1.134,-1.427 1.924,-1.873c0.79,-0.446 1.682,-0.688 2.599,-0.688c0.904,0 1.809,0.242 2.599,0.688c0.79,0.446 1.452,1.096 1.924,1.873c0.459,0.79 0.701,1.682 0.701,2.599c0,0.917 -0.242,1.809 -0.701,2.599c-0.459,0.777 -1.121,1.427 -1.911,1.885c-0.79,0.459 -1.694,0.701 -2.611,0.701c-0.917,-0.013 -1.822,-0.255 -2.611,-0.701" style="fill:#fff;fill-rule:nonzero;"/><path d="M59.516,14.803l3.121,0l1.414,5.465l1.389,-5.465l2.586,0l1.389,5.465l1.376,-5.465l3.146,0l-2.662,9.809l-3.121,0l-1.414,-5.605l-1.414,5.605l-3.121,0l-2.688,-9.809Z" style="fill:#fff;fill-rule:nonzero;"/><path d="M54.841,14.803l0,-2.764l-2.306,0c-0.752,0 -1.465,0.293 -2,0.828c-0.535,0.522 -0.828,1.248 -0.828,1.987l0,1.694l-1.299,0l0,2.815l1.299,0l0,5.248l3.032,0l0,-5.248l2.102,0l0,-2.815l-2.102,0l0,-1.745l2.102,0Z" style="fill:#fff;fill-rule:nonzero;"/><path d="M43.822,21.414c0.42,-0.408 0.624,-0.981 0.624,-1.707c0,-0.752 -0.204,-1.325 -0.611,-1.72c-0.408,-0.395 -0.943,-0.599 -1.592,-0.599c-0.65,0 -1.172,0.204 -1.58,0.599c-0.408,0.395 -0.611,0.968 -0.611,1.72c0,0.726 0.204,1.299 0.611,1.707c0.408,0.408 0.93,0.611 1.567,0.611c0.65,0.013 1.172,-0.191 1.592,-0.611Zm-4.191,2.764c-0.79,-0.446 -1.439,-1.096 -1.911,-1.885c-0.459,-0.79 -0.701,-1.682 -0.701,-2.599c0,-0.917 0.242,-1.809 0.701,-2.599c0.471,-0.777 1.134,-1.427 1.924,-1.873c0.79,-0.446 1.682,-0.688 2.599,-0.688c0.904,0 1.809,0.242 2.599,0.688c0.79,0.446 1.452,1.096 1.924,1.873c0.459,0.79 0.701,1.682 0.701,2.599c0,0.917 -0.242,1.809 -0.701,2.599c-0.459,0.777 -1.121,1.427 -1.911,1.885c-0.79,0.459 -1.694,0.701 -2.611,0.701c-0.917,-0.013 -1.809,-0.255 -2.611,-0.701" style="fill:#fff;fill-rule:nonzero;"/><path d="M27.21,17.618l-1.299,0l0,-2.815l1.299,0l0,-2.764l3.019,0l0,2.764l2.115,0l0,2.815l-2.115,0l0,3.911l2.115,0l0,3.083l-2.306,0c-0.752,0 -1.465,-0.293 -2,-0.828c-0.535,-0.522 -0.828,-1.248 -0.828,-1.987l0,-4.178Z" style="fill:#fff;fill-rule:nonzero;"/><path d="M23.287,18.892c-0.471,-0.166 -0.955,-0.293 -1.439,-0.395c-0.522,-0.102 -0.892,-0.229 -1.121,-0.382c-0.089,-0.051 -0.166,-0.127 -0.217,-0.217c-0.051,-0.089 -0.076,-0.191 -0.076,-0.306c0,-0.102 0.025,-0.204 0.064,-0.293c0.038,-0.089 0.102,-0.178 0.191,-0.242c0.178,-0.153 0.408,-0.229 0.637,-0.229c0.599,0 0.917,0.242 0.968,0.777l3.159,0c-0.025,-0.42 -0.127,-0.841 -0.331,-1.223c-0.191,-0.382 -0.471,-0.701 -0.815,-0.968c-0.752,-0.599 -1.758,-0.904 -2.981,-0.904c-1.146,0 -2.089,0.306 -2.803,0.904c-0.344,0.28 -0.624,0.624 -0.815,1.032c-0.191,0.395 -0.28,0.841 -0.28,1.287c-0.013,0.497 0.127,0.994 0.382,1.414c0.28,0.433 0.662,0.79 1.108,1.045c0.471,0.28 1.07,0.51 1.783,0.675c0.688,0.166 1.146,0.318 1.389,0.459c0.204,0.127 0.306,0.28 0.306,0.484c0,0.102 -0.013,0.204 -0.051,0.293c-0.038,0.089 -0.102,0.178 -0.178,0.242c-0.166,0.14 -0.42,0.217 -0.764,0.217c-0.382,0 -0.701,-0.089 -0.93,-0.28c-0.204,-0.153 -0.318,-0.42 -0.344,-0.764l-2.968,0c0.025,0.573 0.204,1.134 0.535,1.618c0.369,0.548 0.892,0.994 1.49,1.274c0.675,0.318 1.414,0.471 2.153,0.459c1.197,0 2.191,-0.293 2.955,-0.866c0.777,-0.586 1.172,-1.35 1.172,-2.28c-0.025,-1.35 -0.752,-2.306 -2.178,-2.828" style="fill:#fff;fill-rule:nonzero;"/><path d="M11.427,16.854c1.121,0 2.025,0.803 2.025,1.809l-4.051,0c0,-1.006 0.904,-1.809 2.025,-1.809Zm1.783,4.675c-0.344,0.573 -1.019,0.955 -1.783,0.955c-1.121,0 -2.025,-0.803 -2.025,-1.809l7.236,0c0.025,-0.255 0.038,-0.522 0.038,-0.777c0.013,-0.943 -0.229,-1.873 -0.688,-2.701c-0.446,-0.803 -1.096,-1.478 -1.885,-1.949c-0.803,-0.484 -1.72,-0.726 -2.65,-0.726c-0.93,-0.013 -1.834,0.229 -2.65,0.675c-0.79,0.446 -1.439,1.096 -1.898,1.873c-0.459,0.777 -0.688,1.669 -0.688,2.573c-0.013,0.917 0.229,1.822 0.688,2.624c0.459,0.79 1.121,1.452 1.911,1.911c0.803,0.459 1.707,0.688 2.624,0.675c1.223,0 2.293,-0.331 3.21,-1.006c0.803,-0.586 1.414,-1.401 1.732,-2.344l-3.172,0.025Z" style="fill:#fff;fill-rule:nonzero;"/><path d="M0,14.803l0,9.809l3.032,0l0,-6.994l2.879,0l0,-2.815l-5.911,0Z" style="fill:#fff;fill-rule:nonzero;"/><path d="M13.694,13.299c0.803,0 1.452,-0.65 1.452,-1.452c0,-0.803 -0.65,-1.452 -1.452,-1.452c-0.803,0 -1.452,0.65 -1.452,1.452c0,0.803 0.65,1.452 1.452,1.452Z" style="fill:#fff;fill-rule:nonzero;"/><path d="M9.197,13.299c0.803,0 1.452,-0.65 1.452,-1.452c0,-0.803 -0.65,-1.452 -1.452,-1.452c-0.803,0 -1.452,0.65 -1.452,1.452c-0,0.803 0.65,1.452 1.452,1.452Z" style="fill:#fff;fill-rule:nonzero;"/><path d="M18.841,27.911l1.35,0c0.102,0.471 0.446,0.892 1.07,0.892c0.624,0 0.994,-0.369 0.994,-0.892c0,-0.522 -0.369,-0.841 -0.892,-0.841c-0.28,0 -0.561,0.076 -0.828,0.204l-0.675,-0.701l1.045,-1.885l1.656,0l-0.892,1.159c1.134,0 2.191,0.65 2.191,2.166c0,1.172 -1.172,1.987 -2.522,1.987c-1.452,0 -2.395,-0.841 -2.497,-2.089Z" style="fill:#fff;fill-rule:nonzero;"/><path d="M45.631,13.287l-1.643,0l-1.669,-1.707l-1.771,1.707l-1.592,0l2.522,-3.287l1.592,0l2.561,3.287Z" style="fill:#fff;fill-rule:nonzero;"/><path d="M42.242,29.019c0.803,0 1.452,-0.65 1.452,-1.452c0,-0.803 -0.65,-1.452 -1.452,-1.452c-0.803,0 -1.452,0.65 -1.452,1.452c-0.013,0.79 0.637,1.452 1.452,1.452Z" style="fill:#fff;fill-rule:nonzero;"/><path d="M75.643,10l1.643,0c0.178,0.968 0.65,1.707 1.643,1.707c1.045,0 1.592,-0.713 1.796,-1.707l1.592,0c-0.102,1.885 -1.592,3.287 -3.389,3.287c-1.796,0 -3.185,-1.389 -3.287,-3.287Z" style="fill:#fff;fill-rule:nonzero;"/></g></svg>