<?xml version="1.0" encoding="UTF-8" standalone="no"?><!DOCTYPE svg PUBLIC "-//W3C//DTD SVG 1.1//EN" "http://www.w3.org/Graphics/SVG/1.1/DTD/svg11.dtd"><svg width="100%" height="100%" viewBox="0 0 77 40" version="1.1" xmlns="http://www.w3.org/2000/svg" xmlns:xlink="http://www.w3.org/1999/xlink" xml:space="preserve" xmlns:serif="http://www.serif.com/" style="fill-rule:evenodd;clip-rule:evenodd;stroke-linejoin:round;stroke-miterlimit:2;"><g><path d="M14.007,6c-7.735,0 -14.007,6.268 -14.007,14c0,7.732 6.271,14 14.007,14c7.735,0 14.007,-6.268 14.007,-14c0,-7.732 -6.271,-14 -14.007,-14Zm-5.491,17.751c-0.178,0.392 -0.431,0.739 -0.752,1.03c-0.322,0.293 -0.715,0.517 -1.166,0.671c-0.449,0.151 -0.952,0.23 -1.495,0.23c-0.48,0 -0.952,-0.046 -1.403,-0.136c-0.357,-0.071 -1.123,-0.319 -1.422,-0.417c-0.074,-0.024 -0.123,-0.094 -0.123,-0.171l0,-1.926c0,-0.227 0.178,-0.291 0.356,-0.227c0.521,0.189 1.481,0.633 2.638,0.644c0.51,0.004 0.876,-0.118 1.093,-0.349c0.12,-0.129 0.182,-0.312 0.175,-0.518c-0.003,-0.099 -0.02,-0.192 -0.048,-0.27c-0.027,-0.076 -0.085,-0.141 -0.181,-0.2c-0.112,-0.069 -0.269,-0.144 -0.468,-0.223c-0.204,-0.08 -0.476,-0.164 -0.806,-0.251c-0.997,-0.272 -1.729,-0.643 -2.18,-1.1c-0.459,-0.466 -0.692,-1.088 -0.692,-1.844c0,-0.461 0.09,-0.889 0.267,-1.274c0.176,-0.385 0.427,-0.72 0.742,-0.998c0.314,-0.276 0.694,-0.493 1.131,-0.645c0.434,-0.153 0.916,-0.23 1.431,-0.23c0.42,0 0.825,0.032 1.2,0.102c0.704,0.132 0.979,0.228 1.289,0.336c0.074,0.025 0.126,0.094 0.126,0.172l0,1.834c0,0.259 -0.147,0.305 -0.276,0.259c-0.227,-0.081 -0.619,-0.217 -1.065,-0.342c-0.402,-0.113 -0.794,-0.172 -1.163,-0.172c-0.416,0 -0.746,0.083 -0.981,0.244c-0.224,0.153 -0.333,0.358 -0.333,0.626c0,0.23 0.123,0.389 0.388,0.503c0.07,0.028 0.136,0.053 0.195,0.076c0.057,0.021 0.132,0.048 0.217,0.076c0.085,0.029 0.207,0.064 0.371,0.109c0.165,0.045 0.398,0.113 0.692,0.2c0.417,0.119 0.762,0.246 1.019,0.375c0.263,0.132 0.483,0.286 0.655,0.456c0.26,0.246 0.469,0.547 0.616,0.896c0.147,0.347 0.221,0.727 0.221,1.127c0,0.489 -0.09,0.937 -0.267,1.329l-0,-0.001Zm10.877,-1.211c-0.265,0.603 -0.63,1.14 -1.085,1.593c-0.455,0.454 -0.997,0.818 -1.609,1.081c-0.616,0.265 -1.273,0.399 -1.953,0.399c-0.834,0 -1.637,-0.203 -2.387,-0.603c-0.75,-0.4 -1.354,-0.949 -1.795,-1.631c-0.151,-0.241 -0.277,-0.479 -0.377,-0.707c-0.101,-0.23 -0.182,-0.489 -0.242,-0.767c-0.06,-0.277 -0.102,-0.598 -0.125,-0.951c-0.022,-0.349 -0.034,-0.766 -0.034,-1.239l0,-9.114c0,-0.099 0.081,-0.181 0.181,-0.181l2.094,0c0.101,0 0.181,0.081 0.181,0.181l0,5.884c0.82,-0.578 1.709,-0.872 2.646,-0.872c0.651,0 1.285,0.134 1.884,0.399c0.598,0.265 1.123,0.629 1.561,1.082c0.437,0.452 0.794,0.984 1.057,1.581c0.266,0.599 0.399,1.247 0.399,1.928c0,0.679 -0.134,1.333 -0.4,1.938l0.003,-0Zm4.785,0.256c0.241,0.251 0.696,0.385 1.352,0.399l0.101,0c0.099,0 0.181,0.081 0.181,0.181l0,2.027c0,0.099 -0.081,0.181 -0.181,0.181l-0.304,0c-1.4,0 -2.468,-0.44 -3.178,-1.305c-0.28,-0.353 -0.484,-0.757 -0.608,-1.207c-0.122,-0.442 -0.183,-1.022 -0.183,-1.722l0,-3.41l-1.439,0c-0.099,0 -0.181,-0.081 -0.181,-0.181l0,-2.027c0,-0.099 0.081,-0.181 0.181,-0.181l1.439,0l0,-2.852c0,-0.099 0.081,-0.181 0.181,-0.181l2.094,0c0.101,0 0.181,0.081 0.181,0.181l0,2.852l1.817,0c0.099,0 0.181,0.081 0.181,0.181l0,2.027c0,0.099 -0.081,0.181 -0.181,0.181l-1.817,0l0,3.433c0,0.693 0.122,1.172 0.364,1.422l0,0.001Z" style="fill:#fff;fill-rule:nonzero;"/><path d="M16.586,18.751c-0.231,-0.231 -0.511,-0.414 -0.836,-0.549c-0.323,-0.133 -0.673,-0.2 -1.039,-0.2c-0.365,0 -0.708,0.064 -1.018,0.19c-0.308,0.126 -0.581,0.307 -0.812,0.538c-0.232,0.231 -0.417,0.505 -0.55,0.815c-0.133,0.308 -0.2,0.641 -0.2,0.993c0,0.381 0.064,0.739 0.19,1.063c0.126,0.323 0.308,0.612 0.539,0.857c0.231,0.245 0.504,0.437 0.812,0.57c0.307,0.133 0.648,0.2 1.015,0.2c0.367,0 0.717,-0.067 1.039,-0.2c0.323,-0.133 0.608,-0.318 0.847,-0.55c0.237,-0.231 0.426,-0.511 0.559,-0.833c0.133,-0.323 0.2,-0.672 0.2,-1.039c0,-0.365 -0.067,-0.71 -0.2,-1.026c-0.134,-0.316 -0.318,-0.594 -0.55,-0.825l0.001,0l0.003,-0.003Z" style="fill:#fff;fill-rule:nonzero;"/><path d="M41.346,25.538l-2.104,0l0,-5.823c0,-1.354 -1.092,-2.446 -2.447,-2.446c-1.355,0 -2.447,1.092 -2.447,2.446l0,5.823l-2.104,0l0,-10.109l2.104,0l0,1.072c0.708,-0.829 1.77,-1.354 2.954,-1.354c2.236,0 4.046,1.81 4.046,4.045l0,6.349l-0.001,-0.003Z" style="fill:#fff;fill-rule:nonzero;"/><path d="M42.619,20.483c0,-2.953 2.265,-5.338 5.057,-5.338c3.095,0 5.351,2.79 4.997,6.076l-7.798,0c0.252,1.406 1.336,2.467 2.801,2.477c1.022,0 1.901,-0.546 2.437,-1.446l2.135,0.496c-0.809,1.799 -2.549,3.053 -4.572,3.053c-2.792,0 -5.057,-2.386 -5.057,-5.319l0,0.001Zm7.93,-0.869c-0.213,-1.446 -1.417,-2.608 -2.873,-2.608c-1.456,0 -2.629,1.133 -2.871,2.608l5.746,0l-0.001,0Z" style="fill:#fff;fill-rule:nonzero;"/><path d="M68.655,23.556l1.791,-0.769c0.273,0.556 1.193,1.133 2.164,1.133c0.972,0 1.821,-0.424 1.821,-1.233c0,-0.89 -1.042,-1.092 -1.932,-1.324c-2.003,-0.455 -3.611,-1.324 -3.611,-3.114c0,-1.94 1.77,-3.164 3.732,-3.164c1.618,0 3.055,0.728 3.773,1.931l-1.669,0.991c-0.314,-0.606 -1.123,-1.061 -1.932,-1.102c-1.051,-0.041 -1.932,0.384 -1.932,1.294c0,0.91 1.072,0.98 2.093,1.303c1.791,0.587 3.469,1.436 3.429,3.154c0,1.9 -1.942,3.195 -3.984,3.073c-1.609,-0.091 -3.186,-0.9 -3.742,-2.174l-0.001,0.001Z" style="fill:#fff;fill-rule:nonzero;"/><path d="M56.109,25.538l-3.388,-10.109l2.064,0l2.387,7.097l2.367,-7.097l2.124,0l2.367,7.097l2.377,-7.097l2.064,0l-3.378,10.109l-2.114,0l-2.387,-7.147l-2.387,7.147l-2.096,0Z" style="fill:#fff;fill-rule:nonzero;"/></g></svg>