<?xml version="1.0" encoding="UTF-8" standalone="no"?><!DOCTYPE svg PUBLIC "-//W3C//DTD SVG 1.1//EN" "http://www.w3.org/Graphics/SVG/1.1/DTD/svg11.dtd"><svg width="100%" height="100%" viewBox="0 0 163 40" version="1.1" xmlns="http://www.w3.org/2000/svg" xmlns:xlink="http://www.w3.org/1999/xlink" xml:space="preserve" xmlns:serif="http://www.serif.com/" style="fill-rule:evenodd;clip-rule:evenodd;stroke-linejoin:round;stroke-miterlimit:2;"><g><path d="M7.672,10.031c-1.133,0.187 -2.213,0.612 -3.169,1.248c-1.519,0.907 -2.378,2.62 -2.196,4.379c0.053,1.228 0.951,2.266 2.159,2.495c0.851,0.27 1.74,0.405 2.633,0.399c0.38,0.009 0.76,0.042 1.135,0.1c-0.102,0.229 -0.241,0.44 -0.412,0.624c-0.834,0.031 -1.67,-0.015 -2.495,-0.137c-0.832,-0.11 -1.638,-0.364 -2.383,-0.749c-0.435,-0.27 -0.771,-0.673 -0.961,-1.148c-0.1,-0.262 -0.237,-0.449 -0.287,-0.424c-0.187,0.164 -0.34,0.363 -0.449,0.586c-0.657,1.14 -0.5,2.584 0.387,3.556c0.58,0.425 1.237,0.734 1.934,0.911c0.878,0.183 1.774,0.262 2.67,0.237l0.274,-0c-0.377,0.589 -0.794,1.152 -1.248,1.684c-0.087,0.1 -0.112,0.1 -0.2,0c-0.051,-0.075 -0.085,-0.16 -0.1,-0.25c-0.123,-0.401 -0.396,-0.741 -0.761,-0.948c-0.362,-0.259 -0.831,-0.32 -1.248,-0.162c-0.728,0.144 -1.256,0.792 -1.248,1.535c0.013,0.578 0.366,1.097 0.898,1.323c0.765,0.391 1.689,0.319 2.383,-0.187c0.939,-0.615 1.745,-1.413 2.371,-2.346l0.362,-0.599l1.011,0c1.319,-0.161 2.657,0.01 3.893,0.499c0.303,0.18 0.51,0.487 0.561,0.836c-0.022,0.183 -0.077,0.361 -0.162,0.524c-0.058,0.117 -0.092,0.244 -0.1,0.374c0.1,0.1 0.499,-0.162 0.873,-0.561c0.839,-0.837 1.184,-2.053 0.911,-3.207c-0.449,-1.011 -1.572,-1.335 -4.205,-1.335l-1.372,0l0.125,-0.337l0.15,-0.324l1.734,0c1.11,-0.141 2.238,0.046 3.244,0.537c0.73,0.419 1.2,1.181 1.248,2.021c-0,0.948 -0.574,2.034 -2.034,3.918c-0.287,0.374 -0.611,0.761 -0.699,0.861c-0.087,0.1 -0.187,0.162 -0.537,0c-1.308,-0.438 -2.676,-0.673 -4.055,-0.699c-2.131,-0.038 -4.224,0.571 -6.001,1.747c-0.747,0.465 -1.389,1.082 -1.884,1.809c-0.611,0.873 -0.586,0.936 0.25,0.424c1.435,-0.824 3.05,-1.286 4.704,-1.348c1.03,0.05 2.05,0.213 3.044,0.487c0.711,0.212 2.658,0.898 3.032,1.073l0.262,0.125c0.133,-0.181 0.25,-0.373 0.349,-0.574c0.187,-0.299 0.524,-0.811 0.761,-1.135c0.399,-0.524 0.736,-0.936 2.308,-2.795c0.287,-0.324 0.898,-1.11 1.36,-1.722c0.999,-1.07 1.606,-2.447 1.722,-3.905c0.03,-1.044 -0.433,-2.042 -1.248,-2.695c-1.477,-0.821 -3.153,-1.214 -4.841,-1.135c-0.282,0.037 -0.567,0.037 -0.848,0c0.366,-0.55 0.784,-1.064 1.248,-1.535c0.694,-0.842 1.472,-1.611 2.321,-2.296c0.274,-0.162 0.25,-0.299 -0,-0.549c-0.25,-0.25 -0.487,-0.237 -0.799,0.075l-0.237,0.274l-0.312,-0.175c-1.07,-0.682 -2.267,-1.141 -3.518,-1.348c-0.767,-0.077 -1.539,-0.089 -2.308,-0.037Zm0.549,1.56c0.998,0.298 1.874,0.911 2.495,1.747c0.12,0.16 0.216,0.337 0.287,0.524c-0.064,0.171 -0.161,0.328 -0.287,0.462c-0.187,0.262 -0.374,0.524 -0.549,0.799c-0.09,0.201 -0.243,0.368 -0.437,0.474l-1.672,-0c-1.909,0 -2.82,-0.25 -3.431,-0.749c-0.273,-0.284 -0.463,-0.638 -0.549,-1.023c-0.125,-0.898 0.761,-1.872 2.034,-2.221c0.693,-0.166 1.414,-0.17 2.109,-0.012Z" style="fill:#fff;fill-rule:nonzero;"/><path d="M121.673,11.167c-0.753,0.557 -1.598,0.979 -2.495,1.248c-0.183,0.027 -0.363,0.073 -0.537,0.137c0.025,0.197 0.075,0.39 0.15,0.574l0.175,0.549l0,12.689l-0.2,0.137c-0.112,0.087 -0.449,0.387 -0.736,0.674l-0.549,0.537l0.699,0.237c0.885,0.3 1.725,0.719 2.495,1.248l0.474,0.374c0.112,0.075 0.274,0 1.784,-1.248l1.011,-0.786l0.187,-0.125l-0.212,-0.299c-0.237,-0.374 -0.387,-0.437 -0.524,-0.237c-0.137,0.2 -0.349,0.2 -0.574,-0.087c-0.247,-0.272 -0.561,-0.474 -0.911,-0.586c-0.125,0 -0.137,-0.412 -0.137,-6.663c0,-3.993 0,-6.825 0.075,-7.099c0.085,-0.538 0.228,-1.065 0.424,-1.572c0.112,-0.237 0,-0.175 -0.599,0.299Z" style="fill:#fff;fill-rule:nonzero;"/><path d="M76.37,13.013c-0.287,0.212 -0.811,0.574 -1.148,0.774c-0.674,0.412 -0.811,0.549 -0.686,0.736c0.125,0.187 0.312,0.274 0.499,0.087c0.187,-0.187 0.2,-0.15 0.25,-0.075c0.048,0.056 0.074,0.126 0.075,0.2c0,0.137 0.412,0.462 0.786,0.599c0.329,0.111 0.676,0.162 1.023,0.15c0.369,0.044 0.741,-0.035 1.061,-0.225c0.659,-0.286 1.13,-0.888 1.248,-1.597c0,-0.225 0,-0.225 -0.274,-0.175c-0.886,0.162 -1.011,0.15 -1.435,-0.162c-0.212,-0.137 -0.397,-0.31 -0.549,-0.512c-0.087,-0.125 -0.187,-0.225 -0.225,-0.225c-0.227,0.111 -0.437,0.254 -0.624,0.424Z" style="fill:#fff;fill-rule:nonzero;"/><path d="M126.926,13.138c-0.401,0.304 -0.817,0.587 -1.248,0.848c-0.187,0.087 -0.363,0.196 -0.524,0.324c0.051,0.099 0.114,0.191 0.187,0.274c0.175,0.212 0.175,0.212 0.387,0.075c0.212,-0.137 0.362,-0.15 0.412,0c0.188,0.336 0.51,0.576 0.886,0.661c0.522,0.113 1.062,0.113 1.585,0c0.478,-0.153 0.908,-0.429 1.248,-0.799c0.237,-0.274 0.549,-1.023 0.462,-1.148c-0.211,-0.025 -0.425,-0.025 -0.636,0c-0.699,0.112 -0.836,0.062 -1.485,-0.537c-0.15,-0.137 -0.299,-0.274 -0.462,-0.399l-0.811,0.699Z" style="fill:#fff;fill-rule:nonzero;"/><path d="M147.912,13.026c-0.304,0.281 -0.643,0.52 -1.011,0.711c-0.554,0.288 -1.161,0.458 -1.784,0.499c-0.212,0 -0.262,0 -0.125,0.25c0.137,0.25 0.125,0.374 0.125,1.185l0,1.023l-0.387,0c-0.288,-0.027 -0.573,-0.085 -0.848,-0.175c-0.171,-0.074 -0.352,-0.125 -0.537,-0.15c-0.012,0.112 -0.012,0.225 0,0.337c0.087,0.721 0.087,1.45 0,2.171l0,0.2l0.274,-0.112c0.374,-0.169 0.768,-0.291 1.173,-0.362l0.312,0l0,7.536l-0.474,0.474c-0.284,0.304 -0.527,0.644 -0.724,1.011c-0.337,0.674 -0.337,0.761 0,0.574c0.377,-0.221 0.827,-0.28 1.248,-0.162c0.914,0.226 1.766,0.652 2.495,1.248l0.225,0.25l0.873,-0.786c0.487,-0.437 1.135,-1.023 1.422,-1.248c0.287,-0.225 0.524,-0.474 0.462,-0.599c-0.062,-0.125 -0.1,-0.137 -0.137,-0.137c-0.037,0 -0.075,0 -0.1,-0.137c0,-0 0,-0 0,-0c0,-0.089 -0.073,-0.162 -0.162,-0.162c-0.004,0 -0.008,0 -0.012,0c-0.054,0.004 -0.102,0.038 -0.125,0.087c-0.087,0.125 -0.374,0.075 -0.524,-0.075c-0.37,-0.284 -0.795,-0.487 -1.248,-0.599l-0.2,-0.062l0,-7.162l0.711,0c0.309,0.002 0.615,0.048 0.911,0.137l0.412,0.162c0.2,0 0.2,0 0.125,-0.187c-0.052,-0.318 -0.085,-0.639 -0.1,-0.961c-0.05,-0.338 -0.025,-0.683 0.075,-1.011c0,-0.175 0.1,-0.349 0,-0.362c-0.149,-0.024 -0.301,-0.002 -0.437,0.062c-0.542,0.161 -1.106,0.237 -1.672,0.225c-0.1,0 -0.1,-0.299 0,-1.659c-0.057,-0.684 0.007,-1.372 0.187,-2.034c0.072,-0.129 0.103,-0.277 0.087,-0.424c-0.196,0.108 -0.369,0.252 -0.512,0.424Z" style="fill:#fff;fill-rule:nonzero;"/><path d="M30.093,17.056l-1.472,1.435c-0.062,0 -0.075,0.1 0,0.162c0.145,0.051 0.296,0.085 0.449,0.1c0.259,0.084 0.492,0.234 0.674,0.437l0.424,0.399l0,6.837c-0.098,0.123 -0.216,0.228 -0.349,0.312c-0.406,0.383 -0.747,0.83 -1.011,1.323c0.214,0.064 0.439,0.086 0.661,0.062c1.097,0.024 2.144,0.471 2.92,1.248l0.437,0.374l1.023,-0.823l1.31,-1.011c0.137,-0.125 0.25,-0.212 0.25,-0.25c-0.274,-0.366 -0.618,-0.676 -1.011,-0.911c-0.236,-0.138 -0.482,-0.259 -0.736,-0.362l-0.387,-0.25l0,-6.363l0.337,-0.262c0.227,-0.161 0.444,-0.336 0.649,-0.524l0.312,-0.287l0.312,0.287c0.369,0.311 0.792,0.551 1.248,0.711c0.112,0 0.125,0.15 0.125,1.011l0,7.199l0.212,0.424c0.139,0.276 0.324,0.525 0.549,0.736c0.4,0.352 0.879,0.6 1.397,0.724c0.245,-0.243 0.474,-0.501 0.686,-0.774l1.697,-2.121l0.137,-0.175l-0.574,0c-0.586,0 -0.774,-0.075 -0.948,-0.412c-0.101,-1.245 -0.126,-2.495 -0.075,-3.743l0,-3.518l0.212,-0.212c0.15,-0.153 0.272,-0.33 0.362,-0.524c0.185,-0.422 0.291,-0.875 0.312,-1.335c-0.103,0.003 -0.204,0.024 -0.299,0.062c-0.374,0.172 -0.775,0.278 -1.185,0.312c-0.324,0 -0.736,-0.299 -1.435,-1.061c-0.157,-0.196 -0.337,-0.372 -0.537,-0.524c-0.192,0.123 -0.372,0.266 -0.537,0.424c-1.011,0.861 -2.932,2.495 -3.044,2.495c-0.112,0 -0.075,-0.137 0,-0.362c-0.074,-0.793 -0.46,-1.525 -1.073,-2.034c-0.185,-0.212 -0.399,-0.397 -0.636,-0.549c-0.496,0.399 -0.959,0.838 -1.385,1.31Z" style="fill:#fff;fill-rule:nonzero;"/><path d="M88.872,15.983c-1.177,0.807 -2.52,1.34 -3.93,1.56c-0.828,0.107 -1.667,0.107 -2.495,0c-0.126,-0.037 -0.261,-0.037 -0.387,0c0.011,0.15 0.068,0.294 0.162,0.412l0.212,0.387l0,7.96l-0.349,0.237c-0.402,0.237 -0.724,0.589 -0.923,1.011c-0.237,0.474 -0.237,0.512 0.1,0.462c0.337,-0.05 0.474,-0.062 0.724,-0.075c0.967,0.002 1.883,0.437 2.495,1.185c0.15,0.162 0.313,0.313 0.487,0.449l0.611,-0.449c0.841,-0.607 1.783,-1.059 2.782,-1.335c1.083,-0.224 2.193,-0.287 3.294,-0.187c0.14,0.024 0.284,0.024 0.424,0c-0.05,-0.111 -0.113,-0.215 -0.187,-0.312c-0.111,-0.178 -0.195,-0.371 -0.25,-0.574c0,-0.175 -0.075,-1.784 -0.075,-3.93l0,-3.593l0.337,-0.274c0.246,-0.214 0.439,-0.483 0.561,-0.786c0.424,-0.898 0.424,-0.948 -0.175,-0.736c-0.362,0.137 -0.761,0.137 -1.123,0c-0.592,-0.403 -1.119,-0.895 -1.56,-1.46c-0.075,-0.125 -0.187,-0.237 -0.237,-0.237c-0.177,0.075 -0.345,0.171 -0.499,0.287Zm-2.084,2.321c0,0.212 0.848,0.836 1.385,1.011l0.262,0.087l0,7.361l-0.162,0c-0.15,0.022 -0.297,0.064 -0.437,0.125l-0.262,0.125l-0.237,-0.262c-0.389,-0.366 -0.866,-0.624 -1.385,-0.749c-0.161,-0.039 -0.32,-0.089 -0.474,-0.15c-0.154,-0.061 -0.075,-1.372 -0.075,-3.743l0,-3.643l0.387,0c0.178,-0.024 0.354,-0.066 0.524,-0.125c0.2,-0.137 0.474,-0.137 0.474,-0.037Z" style="fill:#fff;fill-rule:nonzero;"/><path d="M94.661,17.156c-0.799,0.799 -1.447,1.46 -1.435,1.472l0.387,0.1c0.397,0.09 0.752,0.31 1.011,0.624l0.225,0.262l0,6.837l-0.362,0.274c-0.399,0.319 -0.726,0.719 -0.961,1.173c-0.15,0.262 0,0.324 0.299,0.212c1.165,-0.061 2.304,0.364 3.144,1.173l0.474,0.424l0.686,-0.512c0.349,-0.274 1.011,-0.736 1.335,-1.011c0.324,-0.274 0.649,-0.524 0.599,-0.611c-0.363,-0.398 -0.783,-0.739 -1.248,-1.011c-0.193,-0.099 -0.393,-0.182 -0.599,-0.25c-0.103,-0.025 -0.198,-0.076 -0.274,-0.15l0,-6.401l0.636,-0.524l0.624,-0.499l0.25,0.2c0.274,0.205 0.567,0.384 0.873,0.537l0.624,0.324l0,8.16l0.175,0.349c0.137,0.241 0.305,0.464 0.499,0.661c0.387,0.399 1.248,0.848 1.485,0.749c0.193,-0.164 0.369,-0.348 0.524,-0.549c0.936,-1.185 1.909,-2.408 1.909,-2.495c-0.153,-0.025 -0.309,-0.025 -0.462,0c-0.376,0.054 -0.755,-0.082 -1.011,-0.362c-0.152,-1.242 -0.177,-2.496 -0.075,-3.743l0,-3.494l0.175,-0.187c0.402,-0.466 0.646,-1.047 0.699,-1.659c0,-0.2 0,-0.225 -0.175,-0.225c-0.087,0.002 -0.172,0.023 -0.25,0.062c-0.333,0.171 -0.699,0.268 -1.073,0.287c-0.715,-0.266 -1.318,-0.768 -1.709,-1.422c-0.112,-0.237 -0.237,-0.2 -0.736,0.212c-0.237,0.225 -0.861,0.749 -1.372,1.173l-1.248,1.098c-0.114,0.117 -0.25,0.21 -0.399,0.274c-0.012,-0.162 -0.012,-0.325 0,-0.487c-0.039,-0.551 -0.244,-1.077 -0.586,-1.51c-0.311,-0.397 -0.686,-0.738 -1.11,-1.011c-0.424,-0.272 -0.736,0.674 -1.547,1.472Z" style="fill:#fff;fill-rule:nonzero;"/><path d="M24.952,16.245c-1.483,0.97 -3.219,1.482 -4.991,1.472c-0.108,-0.012 -0.217,-0.012 -0.324,0c0.049,0.163 0.112,0.321 0.187,0.474c0.324,0.611 0.337,1.011 0.349,4.991l0,3.331l-0.299,0.212c-0.425,0.36 -0.794,0.781 -1.098,1.248l-0.112,0.187l1.098,0c1.605,-0.01 3.188,0.366 4.616,1.098l0.761,0.387l0.711,-0.811c1.61,-1.784 1.834,-2.021 1.834,-2.159c0,-0.137 -0.125,-0.187 -0.274,-0.299c-0.15,-0.112 -0.312,-0.187 -0.437,-0.112c-0.125,0.075 -0.162,0.125 -0.162,0.175c-0.021,0.09 -0.074,0.17 -0.15,0.225c-0.125,0.112 -0.175,0.112 -0.374,0c-0.813,-0.311 -1.647,-0.565 -2.495,-0.761c-0.229,-0.026 -0.455,-0.076 -0.674,-0.15c-0.1,-0.741 -0.1,-1.492 0,-2.233c0.139,-0.137 0.299,-0.251 0.474,-0.337l1.946,-1.173c0.823,-0.512 1.734,-1.023 2.034,-1.185c0.188,-0.072 0.361,-0.178 0.512,-0.312c-0.063,-0.152 -0.147,-0.295 -0.25,-0.424c-0.805,-1.172 -1.483,-2.427 -2.021,-3.743c-0.075,-0.212 -0.187,-0.412 -0.237,-0.412c-0.222,0.074 -0.432,0.179 -0.624,0.312Zm-1.547,1.959c0.122,0.192 0.231,0.392 0.324,0.599c0.3,0.709 0.663,1.39 1.085,2.034c0.07,0.091 0.117,0.198 0.137,0.312c-0.18,0.124 -0.367,0.237 -0.561,0.337c-0.287,0.162 -0.686,0.412 -0.873,0.537c-0.126,0.11 -0.269,0.199 -0.424,0.262c-0.1,-1.35 -0.1,-2.705 0,-4.055c0.125,-0.087 0.162,-0.087 0.274,-0.025l0.037,0Z" style="fill:#fff;fill-rule:nonzero;"/><path d="M69.62,16.37c-0.672,0.617 -1.494,1.047 -2.383,1.248c-0.543,0.15 -1.116,0.15 -1.659,0c-0.125,0 -0.137,0 -0.087,0.125c0.374,1.173 0.362,0.936 0.374,4.878l0,3.743l-0.449,0.462c-0.424,0.424 -1.011,1.248 -0.911,1.323c0.128,0.025 0.259,0.025 0.387,0c1.734,-0.23 3.491,0.217 4.903,1.248c0.163,0.139 0.349,0.248 0.549,0.324c0.242,-0.217 0.459,-0.46 0.649,-0.724c0.299,-0.412 0.861,-1.123 1.248,-1.572c0.253,-0.289 0.483,-0.597 0.686,-0.923c-0.142,-0.182 -0.339,-0.313 -0.561,-0.374c-0.136,0.099 -0.258,0.217 -0.362,0.349c-0.287,0.399 -0.412,0.437 -0.674,0.212c-0.665,-0.424 -1.407,-0.712 -2.183,-0.848l-0.299,0l0,-7.411c0,0 0.15,0.062 0.274,0.225c0.458,0.496 1.11,0.769 1.784,0.749c0.612,0.059 1.22,-0.145 1.672,-0.561c0.414,-0.317 0.723,-0.752 0.886,-1.248c0.237,-0.636 0.212,-0.636 -0.387,-0.312c-0.378,0.249 -0.87,0.249 -1.248,0c-0.549,-0.327 -1.035,-0.75 -1.435,-1.248c-0.125,-0.175 -0.312,-0.125 -0.774,0.337Z" style="fill:#fff;fill-rule:nonzero;"/><path d="M48.172,16.395c-0.523,0.523 -1.153,0.927 -1.847,1.185c-0.543,0.177 -1.117,0.236 -1.684,0.175c-0.505,0.002 -1.009,-0.027 -1.51,-0.087c-0.128,-0.025 -0.259,-0.025 -0.387,0c0.006,0.099 0.041,0.195 0.1,0.274c0.087,0.125 0.137,0.349 0.137,3.032l0,2.757l-0.187,0.374l-0.175,0.362l1.048,0c0.336,-0.037 0.675,-0.037 1.011,0c-0.063,0.078 -0.134,0.149 -0.212,0.212c-0.934,0.955 -1.732,2.034 -2.371,3.207c-0.275,0.581 -0.497,1.187 -0.661,1.809c-0.164,0.622 0.087,0.1 0.262,0.1c0.175,0 0.437,-0.125 0.861,-0.711c0.371,-0.466 0.939,-0.734 1.535,-0.724c0.663,-0.062 1.318,0.187 1.772,0.674l0.599,0.549l0.462,-0.387c0.5,-0.459 1.091,-0.808 1.734,-1.023c0.514,-0.148 1.051,-0.202 1.585,-0.162c0.485,0.014 0.967,0.085 1.435,0.212c0.132,0.051 0.271,0.084 0.412,0.1c-0.025,-0.149 -0.076,-0.292 -0.15,-0.424l-0.187,-0.374l0,-2.633c-0.075,-0.987 -0.037,-1.979 0.112,-2.957c0.063,-0.154 0.113,-0.312 0.15,-0.474l0,-0.175l-1.348,0.062l-1.472,0l0.599,-0.674c1.208,-1.24 2.165,-2.702 2.82,-4.305c0,-0.062 -0.125,-0.1 -0.387,-0.1c-0.295,-0.024 -0.584,0.097 -0.774,0.324c-0.344,0.305 -0.788,0.474 -1.248,0.474c-0.472,-0.099 -0.906,-0.333 -1.248,-0.674c-0.117,-0.125 -0.247,-0.238 -0.387,-0.337c-0.144,0.099 -0.277,0.212 -0.399,0.337Zm-1.011,2.258c0.677,0.613 1.647,0.787 2.495,0.449c0.131,-0.075 0.275,-0.126 0.424,-0.15c-0.318,0.391 -0.66,0.762 -1.023,1.11c-0.79,0.907 -1.658,1.742 -2.595,2.495c-0.374,0.2 -0.374,0.15 -0.374,-2.021l0,-2.034l0.162,-0.075c0.32,-0.122 0.684,-0.032 0.911,0.225Zm1.647,4.654c0.099,0.652 0.124,1.314 0.075,1.971l0,1.934l-0.337,0.075l-0.349,0.062l-0.387,-0.349c-0.223,-0.201 -0.461,-0.384 -0.711,-0.549c-0.726,-0.4 -1.578,-0.512 -2.383,-0.312c-0.135,0.052 -0.28,0.073 -0.424,0.062c0.453,-0.526 0.937,-1.026 1.447,-1.497l1.472,-1.472l0.761,0l0.836,0.075Z" style="fill:#fff;fill-rule:nonzero;"/><path d="M138.392,16.47c-0.484,0.499 -1.078,0.88 -1.734,1.11c-0.968,0.237 -1.974,0.275 -2.957,0.112c-0.213,-0.048 -0.43,-0.077 -0.649,-0.087c0.041,0.102 0.086,0.202 0.137,0.299c0.125,0.262 0.137,0.424 0.137,3.044l0,2.695l-0.175,0.337c-0.072,0.12 -0.135,0.245 -0.187,0.374c0.336,0.037 0.675,0.037 1.011,0c0.34,-0.037 0.683,-0.037 1.023,0c-0.071,0.113 -0.165,0.211 -0.274,0.287c-0.919,0.965 -1.7,2.052 -2.321,3.232c-0.237,0.56 -0.437,1.136 -0.599,1.722c0,0.1 0.387,0.125 0.574,0c0.144,-0.123 0.27,-0.266 0.374,-0.424c0.275,-0.429 0.696,-0.743 1.185,-0.886c0.523,-0.101 1.065,-0.049 1.56,0.15c0.293,0.186 0.561,0.408 0.799,0.661l0.499,0.512l0.437,-0.387c0.518,-0.473 1.137,-0.822 1.809,-1.023c0.535,-0.174 1.099,-0.238 1.659,-0.187c0.57,-0.049 1.144,0.023 1.684,0.212c0.175,0.075 0.162,-0.112 0,-0.412c-0.162,-0.299 -0.15,-0.374 -0.15,-3.044l0,-2.745l0.175,-0.349c0.175,-0.299 0.175,-0.337 0.075,-0.387c-0.495,-0.025 -0.99,-0.025 -1.485,0l-1.36,0c0.199,-0.26 0.416,-0.506 0.649,-0.736c1.038,-1.059 1.883,-2.292 2.495,-3.643l0.262,-0.611l-0.349,-0.062c-0.374,0 -0.374,0 -0.761,0.299c-0.48,0.593 -1.335,0.738 -1.984,0.337c-0.25,-0.141 -0.485,-0.308 -0.699,-0.499c-0.091,-0.115 -0.206,-0.208 -0.337,-0.274c-0.187,0.106 -0.363,0.232 -0.524,0.374Zm-0.761,2.296c0.649,0.559 1.569,0.686 2.346,0.324c0.103,-0.054 0.212,-0.096 0.324,-0.125c-0.914,1.168 -1.937,2.246 -3.057,3.219c-0.836,0.736 -0.811,0.786 -0.823,-1.485c-0.037,-0.673 -0.037,-1.348 0,-2.021c0.151,-0.174 0.385,-0.255 0.611,-0.212c0.205,0.089 0.405,0.189 0.599,0.299Zm1.585,6.513l0,1.946l-0.337,0.062l-0.387,0.1l-0.412,-0.387c-0.801,-0.786 -1.957,-1.099 -3.044,-0.823c-0.132,0.048 -0.271,0.073 -0.412,0.075c0.695,-0.847 1.441,-1.651 2.233,-2.408l0.537,-0.524l1.784,0l0.037,1.959Z" style="fill:#fff;fill-rule:nonzero;"/><path d="M55.683,16.682c-0.657,0.597 -1.397,1.097 -2.196,1.485c-0.18,0.071 -0.355,0.155 -0.524,0.25c0.145,0.182 0.303,0.354 0.474,0.512c0.274,0.262 0.836,0.886 1.248,1.36l0.911,1.011c0.077,0.047 0.138,0.117 0.175,0.2c-0.178,0.186 -0.374,0.353 -0.586,0.499c-0.921,0.672 -1.625,1.601 -2.021,2.67c-0.252,0.926 -0.186,1.911 0.187,2.795c0.397,0.612 0.926,1.128 1.547,1.51c0.621,0.362 1.317,0.575 2.034,0.624l0.424,0l0.736,-0.674c0.412,-0.362 0.886,-0.786 1.011,-0.923l0.262,-0.287l0.337,0.512c0.417,0.76 1.174,1.276 2.034,1.385c0.524,0 0.599,0 1.248,-0.936c0.225,-0.349 0.586,-0.836 0.761,-1.098c0.135,-0.157 0.252,-0.329 0.349,-0.512c-0.103,-0.018 -0.209,-0.018 -0.312,0c-0.359,0.02 -0.705,-0.139 -0.923,-0.424c-0.512,-0.474 -0.487,-0.312 -0.487,-3.893l0,-3.344l0.274,-0.187c0.178,-0.118 0.337,-0.261 0.474,-0.424c0.26,-0.384 0.462,-0.805 0.599,-1.248c0,-0.212 0,-0.212 -0.237,-0.162c-0.474,0.125 -0.973,0.125 -1.447,0c-0.427,-0.273 -0.803,-0.62 -1.11,-1.023c0,-0.1 -0.137,-0.187 -0.175,-0.187c-0.201,0.141 -0.378,0.314 -0.524,0.512c-0.724,0.886 -1.372,1.36 -1.797,1.36c-0.424,0 -0.923,-0.337 -1.684,-1.36c-0.131,-0.182 -0.277,-0.353 -0.437,-0.512l-0.624,0.512Zm2.97,2.495c0.136,0.125 0.292,0.226 0.462,0.299l0.2,0.075l0,7.324l-0.499,0.075c-1.168,0.138 -2.296,-0.515 -2.757,-1.597c-0.26,-0.384 -0.363,-0.853 -0.287,-1.31c-0.048,-0.462 0.034,-0.929 0.237,-1.348c0.075,-0.197 0.172,-0.385 0.287,-0.561c0.152,0.121 0.294,0.255 0.424,0.399c0.45,0.584 0.956,1.123 1.51,1.61c0.131,-0.063 0.252,-0.142 0.362,-0.237l0.274,-0.237l-0.362,-0.399c-1.248,-1.447 -2.832,-3.232 -2.97,-3.344c-0.137,-0.112 -0.2,-0.324 0.15,-0.25c0.816,0.178 1.671,-0.014 2.333,-0.524c0.072,-0.088 0.161,-0.16 0.262,-0.212c0.138,0.076 0.261,0.178 0.362,0.299l0.012,-0.062Z" style="fill:#fff;fill-rule:nonzero;"/><path d="M109.009,16.607c-0.801,0.711 -1.711,1.288 -2.695,1.709c-0.225,0 -0.2,0.15 0.125,0.412c0.324,0.262 0.861,0.861 1.248,1.323c0.387,0.462 1.011,1.173 1.123,1.248c0.112,0.075 0.2,0.324 0.075,0.324c-0.566,0.373 -1.078,0.822 -1.522,1.335c-0.599,0.612 -0.987,1.399 -1.11,2.246c-0.126,0.617 -0.074,1.258 0.15,1.847c0.215,0.561 0.562,1.061 1.011,1.46c0.759,0.581 1.668,0.931 2.62,1.011c0.474,0 0.561,0 1.784,-1.248c0.225,-0.225 0.449,-0.437 0.699,-0.649c0.081,0.103 0.148,0.216 0.2,0.337c0.318,0.555 0.774,1.019 1.323,1.348c0.232,0.117 0.48,0.197 0.736,0.237c0.499,0.062 0.724,-0.087 1.248,-0.911c0.25,-0.374 0.611,-0.886 0.811,-1.135c0.127,-0.165 0.239,-0.34 0.337,-0.524c-0.108,-0.041 -0.222,-0.062 -0.337,-0.062c-0.513,-0.041 -0.976,-0.324 -1.248,-0.761l-0.187,-0.312l0,-6.488l0.412,-0.349c0.209,-0.182 0.398,-0.387 0.561,-0.611c0.198,-0.328 0.325,-0.693 0.374,-1.073c-0.144,-0.031 -0.293,-0.031 -0.437,0c-0.408,0.113 -0.84,0.113 -1.248,0c-0.436,-0.303 -0.812,-0.684 -1.11,-1.123c0,-0.175 -0.237,0 -0.499,0.324c-0.42,0.533 -0.921,0.996 -1.485,1.372c-0.299,0.175 -0.362,0.2 -0.624,0.112c-0.262,-0.087 -0.437,-0.2 -0.923,-0.699c-0.276,-0.276 -0.527,-0.577 -0.749,-0.898c-0.033,-0.109 -0.098,-0.205 -0.187,-0.274c-0.172,0.144 -0.331,0.302 -0.474,0.474Zm2.77,2.583c0.133,0.122 0.285,0.223 0.449,0.299l0.287,0.125l0,7.324l-0.399,0.1c-1.201,0.137 -2.356,-0.543 -2.82,-1.659c-0.19,-0.339 -0.285,-0.722 -0.274,-1.11c-0.051,-0.445 0.013,-0.897 0.187,-1.31c0.071,-0.243 0.176,-0.474 0.312,-0.686c0.361,0.311 0.699,0.649 1.011,1.011l0.936,1.011l0.274,-0.187c0.125,-0.066 0.226,-0.171 0.287,-0.299c-0.455,-0.735 -0.996,-1.413 -1.61,-2.021c-0.923,-1.023 -1.747,-2.034 -1.772,-2.034l0.287,0c0.82,0.177 1.678,-0.015 2.346,-0.524c0.262,-0.25 0.262,-0.262 0.499,-0.037Z" style="fill:#fff;fill-rule:nonzero;"/><path d="M153.964,16.657c-0.641,0.602 -1.374,1.099 -2.171,1.472l-0.611,0.299c0.085,0.122 0.19,0.227 0.312,0.312c0.374,0.324 2.495,2.695 2.495,2.782c-0.133,0.142 -0.279,0.272 -0.437,0.387c-0.674,0.522 -1.26,1.15 -1.734,1.859c-0.914,1.461 -0.707,3.373 0.499,4.604c0.833,0.766 1.913,1.209 3.044,1.248c0.592,-0.358 1.13,-0.8 1.597,-1.31c0.196,-0.202 0.414,-0.382 0.649,-0.537c0.099,0.13 0.187,0.267 0.262,0.412c0.311,0.509 0.738,0.937 1.248,1.248c0.873,0.374 1.248,0.25 1.822,-0.611c0.237,-0.349 0.599,-0.873 0.811,-1.148c0.148,-0.184 0.273,-0.385 0.374,-0.599c-0.119,-0.066 -0.251,-0.105 -0.387,-0.112c-0.467,-0.05 -0.882,-0.325 -1.11,-0.736l-0.212,-0.287l0,-6.451l0.449,-0.412c0.438,-0.397 0.744,-0.92 0.873,-1.497l0,-0.175l-0.274,0c-1.248,0.212 -1.46,0.137 -2.183,-0.649c-0.169,-0.201 -0.362,-0.381 -0.574,-0.537c-0.084,0.07 -0.159,0.149 -0.225,0.237c-0.456,0.591 -1.003,1.105 -1.622,1.522c-0.177,0.137 -0.413,0.174 -0.624,0.1c-0.582,-0.269 -1.072,-0.703 -1.41,-1.248c-0.136,-0.223 -0.309,-0.421 -0.512,-0.586c-0.129,0.126 -0.246,0.264 -0.349,0.412Zm2.845,2.495c0.116,0.137 0.261,0.248 0.424,0.324l0.337,0.187l0,7.287l-0.399,0.075c-0.48,0.126 -0.991,0.059 -1.422,-0.187c-0.629,-0.338 -1.136,-0.867 -1.447,-1.51c-0.237,-0.37 -0.33,-0.814 -0.262,-1.248c-0.018,-0.383 0.046,-0.766 0.187,-1.123c0.1,-0.25 0.2,-0.537 0.237,-0.636c0.037,-0.1 0.075,-0.15 0.1,-0.15c0.314,0.285 0.61,0.589 0.886,0.911c1.011,1.123 1.011,1.123 1.061,1.098c0.21,-0.097 0.397,-0.237 0.549,-0.412c0,-0.112 0,-0.262 -0.474,-0.711c-0.474,-0.449 -1.023,-1.123 -1.847,-2.096l-0.699,-0.774c-0.122,-0.124 -0.235,-0.258 -0.337,-0.399c0.282,-0.037 0.567,-0.037 0.848,0c0.426,0.055 0.86,-0.014 1.248,-0.2c0.201,-0.096 0.382,-0.227 0.537,-0.387c0.15,-0.212 0.374,-0.237 0.474,-0.062l0,0.012Z" style="fill:#fff;fill-rule:nonzero;"/><path d="M75.908,17.068c-0.474,0.437 -1.135,1.023 -1.46,1.248c-0.229,0.158 -0.431,0.352 -0.599,0.574c0,0.137 0.212,0.399 0.337,0.399c0.092,-0.011 0.176,-0.055 0.237,-0.125c0.137,-0.112 0.15,-0.1 0.449,0.15l0.412,0.337c0.113,1.328 0.138,2.662 0.075,3.993c-0,4.454 -0,4.354 0.624,5.066c0.467,0.486 1.081,0.806 1.747,0.911l0.349,0l1.248,-1.248c0.711,-0.686 1.248,-1.248 1.248,-1.248c-0.168,0.012 -0.335,0.037 -0.499,0.075c-0.607,0.19 -1.272,-0.039 -1.634,-0.561c-0.15,-0.237 -0.15,-0.349 -0.15,-3.606l0,-3.381l0.324,-0.187c0.518,-0.343 0.901,-0.854 1.085,-1.447c0.088,-0.193 0.139,-0.4 0.15,-0.611c-0.179,0.011 -0.356,0.049 -0.524,0.112c-0.599,0.2 -0.774,0.2 -1.085,0c-0.491,-0.36 -0.935,-0.779 -1.323,-1.248c0.037,-0.112 -0.225,0.087 -1.011,0.799Z" style="fill:#fff;fill-rule:nonzero;"/><path d="M127.063,16.732c-0.599,0.561 -1.921,1.697 -2.246,1.909c-0.324,0.212 -0.299,0.374 -0.087,0.561c0.212,0.187 0.15,0.137 0.362,0l0.237,-0.125c0.149,0.111 0.287,0.237 0.412,0.374l0.399,0.362l0,7.91l0.2,0.399c0.447,0.811 1.253,1.362 2.171,1.485l0.362,0l1.248,-1.248c0.441,-0.412 0.857,-0.85 1.248,-1.31c-0.119,-0.031 -0.243,-0.031 -0.362,0c-0.656,0.199 -1.371,-0.024 -1.797,-0.561c-0.125,-0.187 -0.137,-0.412 -0.137,-3.543l0,-3.256l0.412,-0.287c0.248,-0.172 0.467,-0.382 0.649,-0.624c0.262,-0.399 0.432,-0.85 0.499,-1.323c-0.179,0.003 -0.356,0.037 -0.524,0.1c-0.624,0.212 -0.761,0.212 -1.123,0c-0.486,-0.294 -0.909,-0.68 -1.248,-1.135c0.025,-0.262 -0.162,-0.162 -0.674,0.312Z" style="fill:#fff;fill-rule:nonzero;"/></g></svg>