<?xml version="1.0" encoding="UTF-8" standalone="no"?><!DOCTYPE svg PUBLIC "-//W3C//DTD SVG 1.1//EN" "http://www.w3.org/Graphics/SVG/1.1/DTD/svg11.dtd"><svg width="100%" height="100%" viewBox="0 0 117 40" version="1.1" xmlns="http://www.w3.org/2000/svg" xmlns:xlink="http://www.w3.org/1999/xlink" xml:space="preserve" xmlns:serif="http://www.serif.com/" style="fill-rule:evenodd;clip-rule:evenodd;stroke-linejoin:round;stroke-miterlimit:2;"><g><path d="M10.861,17.135c-0.79,-0.322 -1.73,-0.482 -2.822,-0.482l-2.573,0c-0.273,0 -0.502,-0.092 -0.687,-0.277c-0.185,-0.185 -0.277,-0.414 -0.277,-0.687c0,-0.253 0.092,-0.468 0.277,-0.644c0.185,-0.176 0.414,-0.263 0.687,-0.263l6.521,0l0,-3.626l-7.222,0c-0.878,0 -1.682,0.215 -2.412,0.644c-0.731,0.429 -1.307,0.994 -1.725,1.696c-0.419,0.702 -0.628,1.481 -0.628,2.339c0,1.112 0.229,2.013 0.687,2.705c0.458,0.692 1.082,1.198 1.871,1.52c0.79,0.322 1.671,0.482 2.646,0.482l2.632,0c0.195,0 0.37,0.043 0.527,0.131c0.156,0.088 0.282,0.21 0.38,0.365c0.098,0.156 0.146,0.332 0.146,0.527c0,0.176 -0.049,0.341 -0.146,0.497c-0.098,0.156 -0.224,0.278 -0.38,0.365c-0.156,0.088 -0.332,0.131 -0.527,0.131l-7.223,0l0,3.596l7.865,0c0.916,0 1.74,-0.214 2.47,-0.643c0.731,-0.428 1.315,-1.004 1.754,-1.725c0.439,-0.721 0.658,-1.52 0.658,-2.398c0,-1.111 -0.219,-2.018 -0.658,-2.72c-0.439,-0.702 -1.053,-1.214 -1.842,-1.535l0,0.002Z" style="fill:#fff;fill-rule:nonzero;"/><path d="M20.116,7.5l-4.562,0l0,3.655l-2.456,0l0,3.713l2.456,0l0,6.901c0,1.345 0.39,2.412 1.169,3.202c0.779,0.79 1.862,1.184 3.245,1.184l4.269,0l0,-3.801l-3.274,0c-0.234,0 -0.434,-0.083 -0.599,-0.248c-0.166,-0.166 -0.248,-0.365 -0.248,-0.599l0,-6.638l4.123,0l0,-3.713l-4.123,0l0,-3.656Z" style="fill:#fff;fill-rule:nonzero;"/><path d="M116.037,24.183c-0.212,-0.212 -0.464,-0.317 -0.756,-0.317c-0.292,0 -0.545,0.105 -0.757,0.317c-0.212,0.212 -0.317,0.464 -0.317,0.757c0,0.293 0.105,0.545 0.317,0.756c0.212,0.212 0.464,0.317 0.757,0.317c0.206,0 0.39,-0.049 0.553,-0.146c0.163,-0.098 0.29,-0.228 0.382,-0.391c0.092,-0.162 0.138,-0.341 0.138,-0.537c0,-0.292 -0.105,-0.545 -0.317,-0.757l0,0.001Z" style="fill:#fff;fill-rule:nonzero;"/><path d="M37.031,11.842c-1.18,-0.691 -2.607,-1.038 -4.283,-1.038c-1.676,0 -3.094,0.351 -4.313,1.053c-1.219,0.702 -2.159,1.652 -2.821,2.851c-0.663,1.198 -0.994,2.558 -0.994,4.078c0,1.52 0.283,2.774 0.848,3.933c0.565,1.16 1.354,2.081 2.369,2.763c1.013,0.682 2.183,1.024 3.508,1.024c0.838,0 1.565,-0.117 2.178,-0.351c0.613,-0.234 1.136,-0.56 1.565,-0.98c0.428,-0.419 0.779,-0.892 1.053,-1.418l0.117,0l0,2.398l4.445,0l0,-7.456c0,-1.481 -0.317,-2.822 -0.95,-4.021c-0.634,-1.198 -1.541,-2.144 -2.72,-2.837l-0.002,0Zm-1.36,8.816c-0.273,0.605 -0.668,1.077 -1.184,1.418c-0.517,0.341 -1.116,0.511 -1.798,0.511c-0.683,0 -1.316,-0.17 -1.842,-0.511c-0.527,-0.34 -0.926,-0.814 -1.198,-1.418c-0.273,-0.604 -0.41,-1.276 -0.41,-2.018c0,-0.741 0.137,-1.374 0.41,-1.959c0.273,-0.585 0.673,-1.048 1.198,-1.389c0.527,-0.341 1.14,-0.511 1.842,-0.511c0.702,0 1.282,0.171 1.798,0.511c0.516,0.341 0.911,0.804 1.184,1.389c0.273,0.585 0.41,1.238 0.41,1.959c0,0.721 -0.137,1.414 -0.41,2.018Z" style="fill:#fff;fill-rule:nonzero;"/><path d="M43.945,12.354c-0.78,0.78 -1.169,1.852 -1.169,3.216l0,10.585l4.532,0l0,-10.292c0,-0.293 0.098,-0.531 0.293,-0.716c0.195,-0.185 0.428,-0.277 0.702,-0.277l3.245,0l0,-3.684l-4.357,0c-1.385,0 -2.466,0.39 -3.245,1.169l-0.001,0Z" style="fill:#fff;fill-rule:nonzero;"/><path d="M60.377,7.5l-4.562,0l0,3.655l-2.456,0l0,3.713l2.456,0l0,6.901c0,1.345 0.39,2.412 1.169,3.202c0.779,0.79 1.861,1.184 3.245,1.184l4.269,0l0,-3.801l-3.275,0c-0.234,0 -0.434,-0.083 -0.599,-0.248c-0.166,-0.166 -0.248,-0.365 -0.248,-0.599l0,-6.638l4.123,0l0,-3.713l-4.123,0l0,-3.656Z" style="fill:#fff;fill-rule:nonzero;"/><path d="M76.459,19.664c0,0.527 -0.127,1.009 -0.38,1.448c-0.253,0.439 -0.599,0.79 -1.038,1.053c-0.439,0.263 -0.931,0.394 -1.477,0.394c-0.546,0 -1.067,-0.131 -1.506,-0.394c-0.439,-0.263 -0.784,-0.614 -1.038,-1.053c-0.253,-0.439 -0.38,-0.921 -0.38,-1.448l0,-8.509l-4.532,0l0,8.626c0,1.248 0.302,2.383 0.907,3.407c0.603,1.023 1.466,1.832 2.587,2.427c1.121,0.595 2.451,0.892 3.992,0.892c1.541,0 2.89,-0.298 3.992,-0.892c1.101,-0.595 1.945,-1.403 2.529,-2.427c0.585,-1.023 0.878,-2.158 0.878,-3.407l0,-8.626l-4.532,0l0,8.509Z" style="fill:#fff;fill-rule:nonzero;"/><path d="M97.029,13.1c-0.692,-0.731 -1.531,-1.296 -2.515,-1.696c-0.985,-0.399 -2.11,-0.599 -3.377,-0.599c-1.619,0 -3.032,0.336 -4.24,1.009c-1.209,0.673 -2.144,1.613 -2.807,2.822c-0.663,1.209 -0.995,2.642 -0.995,4.298l0,13.567l4.532,0l0,-7.982l0.088,0c0.292,0.429 0.658,0.79 1.096,1.082c0.439,0.293 0.925,0.517 1.462,0.673c0.536,0.156 1.106,0.234 1.711,0.234c1.423,0 2.67,-0.322 3.742,-0.965c1.072,-0.644 1.916,-1.535 2.529,-2.675c0.613,-1.14 0.921,-2.451 0.921,-3.933c0,-1.189 -0.185,-2.275 -0.556,-3.26c-0.371,-0.984 -0.902,-1.842 -1.594,-2.573l0.002,0Zm-2.894,7.529c-0.283,0.585 -0.677,1.048 -1.184,1.389c-0.507,0.341 -1.111,0.512 -1.813,0.512c-0.702,0 -1.311,-0.17 -1.828,-0.512c-0.517,-0.34 -0.911,-0.804 -1.184,-1.389c-0.273,-0.585 -0.41,-1.247 -0.41,-1.988c0,-0.741 0.137,-1.408 0.41,-2.003c0.273,-0.595 0.667,-1.062 1.184,-1.403c0.516,-0.34 1.126,-0.511 1.828,-0.511c0.702,0 1.306,0.171 1.813,0.511c0.507,0.341 0.902,0.809 1.184,1.403c0.282,0.595 0.424,1.262 0.424,2.003c0,0.741 -0.142,1.403 -0.424,1.988Z" style="fill:#fff;fill-rule:nonzero;"/><path d="M110.976,17.135c-0.79,-0.322 -1.73,-0.482 -2.822,-0.482l-2.573,0c-0.273,0 -0.502,-0.092 -0.687,-0.277c-0.185,-0.185 -0.277,-0.414 -0.277,-0.687c0,-0.253 0.092,-0.468 0.277,-0.644c0.185,-0.176 0.414,-0.263 0.687,-0.263l6.521,0l0,-3.626l-7.222,0c-0.878,0 -1.682,0.215 -2.412,0.644c-0.731,0.429 -1.307,0.994 -1.725,1.696c-0.419,0.702 -0.628,1.481 -0.628,2.339c0,1.112 0.229,2.013 0.687,2.705c0.457,0.692 1.082,1.198 1.871,1.52c0.79,0.322 1.671,0.482 2.646,0.482l2.632,0c0.195,0 0.37,0.043 0.527,0.131c0.156,0.088 0.283,0.21 0.38,0.365c0.098,0.156 0.146,0.332 0.146,0.527c0,0.176 -0.049,0.341 -0.146,0.497c-0.098,0.156 -0.224,0.278 -0.38,0.365c-0.156,0.088 -0.331,0.131 -0.527,0.131l-7.222,0l0,3.596l7.865,0c0.916,0 1.74,-0.214 2.47,-0.643c0.731,-0.428 1.315,-1.004 1.754,-1.725c0.439,-0.721 0.658,-1.52 0.658,-2.398c0,-1.111 -0.219,-2.018 -0.658,-2.72c-0.439,-0.702 -1.053,-1.214 -1.842,-1.535l-0.001,0.002Z" style="fill:#fff;fill-rule:nonzero;"/></g></svg>