<?xml version="1.0" encoding="UTF-8" standalone="no"?><!DOCTYPE svg PUBLIC "-//W3C//DTD SVG 1.1//EN" "http://www.w3.org/Graphics/SVG/1.1/DTD/svg11.dtd"><svg width="100%" height="100%" viewBox="0 0 116 40" version="1.1" xmlns="http://www.w3.org/2000/svg" xmlns:xlink="http://www.w3.org/1999/xlink" xml:space="preserve" xmlns:serif="http://www.serif.com/" style="fill-rule:evenodd;clip-rule:evenodd;stroke-linejoin:round;stroke-miterlimit:2;"><path d="M87.021,13.661l-0.116,3.415c-3.984,-0.274 -5.122,0.759 -5.122,4.1l0,0.432l-3.415,0l0,-7.778l3.415,0l0,2.203c1.022,-1.792 2.413,-2.614 5.238,-2.371Zm-81.33,13.848l3.425,0l0,-13.206l-3.425,0l0,13.206Zm16.926,-13.848c-1.824,-0.115 -3.58,0.739 -4.616,2.245l-0,-7.293l-18.001,0l0,3.162l14.807,0l0,9.791l3.257,0c0,-2.803 1.623,-4.774 3.604,-4.774c1.707,0 2.477,0.833 2.477,3.868l0,6.85l3.415,0l0,-8.084c0,-3.868 -1.981,-5.775 -4.943,-5.775l-0,0.011Zm13.448,11.224c-0.071,0.004 -0.142,0.007 -0.213,0.007c-1.844,0 -3.375,-1.484 -3.434,-3.326l-3.214,0c0.088,3.447 2.948,6.234 6.395,6.234c0.148,0 0.297,-0.005 0.445,-0.015c3.162,0 4.985,-1.433 5.923,-3.604l-2.898,-1.275c-0.344,1.325 -1.65,2.186 -3.004,1.981Zm-0.137,-11.171c-1.221,-0.032 -2.43,0.251 -3.51,0.822l1.634,2.287c0.615,-0.318 1.3,-0.474 1.992,-0.453c0.049,-0.003 0.098,-0.004 0.148,-0.004c1.578,0 2.877,1.299 2.877,2.877c0,0.005 -0,0.01 -0,0.014l-3.299,0l0,2.308l6.513,0c0.042,-0.332 0.063,-0.666 0.063,-1.001c0,-4.964 -3.257,-6.85 -6.418,-6.85Zm33.831,11.171c-0.071,0.004 -0.142,0.007 -0.213,0.007c-1.844,0 -3.375,-1.484 -3.434,-3.326l-3.162,0c0.083,3.445 2.939,6.234 6.385,6.234c0.148,0 0.297,-0.005 0.444,-0.015c3.162,0 4.996,-1.433 5.923,-3.604l-2.983,-1.275c-0.355,1.299 -1.625,2.149 -2.961,1.981Zm-0.116,-11.171c-1.221,-0.03 -2.429,0.253 -3.51,0.822l1.644,2.287c0.61,-0.319 1.293,-0.475 1.981,-0.453c0.049,-0.003 0.098,-0.004 0.148,-0.004c1.578,0 2.877,1.299 2.877,2.877c0,0.005 -0,0.01 -0,0.014l-3.299,0l0,2.308l6.513,0c0.042,-0.332 0.063,-0.666 0.063,-1.001c0,-4.964 -3.257,-6.85 -6.418,-6.85Zm40.049,11.171c-0.071,0.004 -0.142,0.007 -0.213,0.007c-1.844,0 -3.375,-1.484 -3.434,-3.326l-3.214,0c0.088,3.447 2.948,6.234 6.395,6.234c0.148,0 0.297,-0.005 0.445,-0.015c3.162,0 4.985,-1.433 5.923,-3.604l-2.898,-1.275c-0.357,1.317 -1.653,2.172 -3.004,1.981Zm-0.19,-11.171c-1.217,-0.03 -2.422,0.253 -3.499,0.822l1.634,2.319c0.608,-0.316 1.286,-0.472 1.971,-0.453c0.053,-0.003 0.105,-0.004 0.158,-0.004c1.578,0 2.877,1.299 2.877,2.877c0,0.005 -0,0.01 -0,0.015l-3.309,0l0,2.276l6.513,0c0.051,-0.331 0.075,-0.666 0.074,-1.001c0,-4.964 -3.257,-6.85 -6.429,-6.85l0.011,-0Zm-65.343,-6.713l6.092,14.565l3.731,0l-4.679,-11.593l6.049,0l0,-2.951l-11.245,0l0.053,-0.021Zm18.222,0l-7.093,17.843l-1.054,2.666l3.573,0l8.431,-20.488l-3.857,-0.021Zm31.417,20.193c1.264,0.05 2.507,-0.346 3.51,-1.117l-1.402,-2.161c-0.444,0.17 -0.916,0.253 -1.391,0.242c-1.59,0.094 -3.015,-1.026 -3.299,-2.593l-3.373,0c0.453,3.162 2.73,5.628 5.955,5.628Zm4.216,-11.424c-1.05,-1.436 -2.768,-2.233 -4.542,-2.108c-2.146,-0.018 -4.136,1.151 -5.164,3.035l2.846,1.813c0.577,-1.196 1.838,-1.919 3.162,-1.813c0.007,-0 0.014,-0 0.021,-0c2.018,0 3.678,1.66 3.678,3.678c0,0.018 -0,0.035 -0,0.053c0.003,0.386 -0.054,0.77 -0.169,1.138l3.583,0l0,-7.715l-3.415,0l0,1.918Zm-3.309,14.544c-2.213,0 -3.025,-1.054 -3.162,-2.319l-3.341,0c0.074,2.392 1.665,5.006 6.524,5.006c3.278,0 5.417,-1.634 6.323,-4.1l-3.067,-1.054c-0.335,1.525 -1.752,2.586 -3.309,2.477l0.032,-0.011Z" style="fill:#fff;fill-rule:nonzero;"/></svg>