<?xml version="1.0" encoding="UTF-8" standalone="no"?><!DOCTYPE svg PUBLIC "-//W3C//DTD SVG 1.1//EN" "http://www.w3.org/Graphics/SVG/1.1/DTD/svg11.dtd"><svg width="100%" height="100%" viewBox="0 0 190 40" version="1.1" xmlns="http://www.w3.org/2000/svg" xmlns:xlink="http://www.w3.org/1999/xlink" xml:space="preserve" xmlns:serif="http://www.serif.com/" style="fill-rule:evenodd;clip-rule:evenodd;stroke-linejoin:round;stroke-miterlimit:2;"><path d="M14.22,10.039c0,-2.035 -1.909,-2.629 -3.514,-2.528l0,0.278c0.973,0 1.694,0.354 1.694,0.986c0,0.632 -0.329,0.999 -1.264,0.999c-1.169,-0.154 -2.316,-0.452 -3.413,-0.885c-1.13,-0.476 -2.329,-0.771 -3.552,-0.872c-1.857,-0.064 -3.444,1.393 -3.539,3.248c-0.016,1.01 0.624,1.922 1.58,2.25l0.164,-0.253c-0.383,-0.188 -0.621,-0.585 -0.607,-1.011c0.066,-0.685 0.68,-1.196 1.365,-1.138c1.317,0.107 2.616,0.374 3.868,0.796c1.242,0.404 2.509,0.729 3.792,0.973l0,3.286l-1.542,1.264l0,0.101l1.58,1.352l0,4.361c-0.78,0.406 -1.648,0.614 -2.528,0.607c-1.525,0.1 -3.018,-0.484 -4.07,-1.593l4.234,-2.01l0,-6.99l-5.144,2.288c0.519,-1.249 1.44,-2.29 2.616,-2.958l0,-0.215c-3.319,0.808 -5.739,3.706 -5.941,7.116c0.007,3.959 3.259,7.216 7.217,7.23c0.055,0.001 0.111,0.002 0.166,0.002c3.565,0 6.521,-2.884 6.609,-6.448l0,-0.316l-0.215,0c-0.543,1.36 -1.492,2.521 -2.718,3.324l0,-4.285l1.656,-1.352l0,-0.152l-1.656,-1.327l0,-3.198c1.602,0.102 3.014,-1.106 3.16,-2.705l0,-0.228Zm-8.949,11.515l-1.264,0.619c-0.839,-1.184 -1.246,-2.622 -1.15,-4.07c-0.03,-0.746 0.055,-1.492 0.253,-2.212l2.212,-0.986l-0.051,6.649Zm11.047,2.263l-1.352,1.024l0.202,0.177l0.67,-0.48l2.275,2.174l3.16,-2.073l-0.152,-0.228l-0.809,0.506l-1.074,-1.074l0,-7.028l0.822,-0.645l1.77,1.428l0,6.32c0,3.792 -0.872,4.538 -2.629,5.17l0,0.265c2.907,0.114 5.574,-0.872 5.574,-5.852l0,-6.775l0.923,-0.733l-0.164,-0.202l-0.809,0.645l-2.528,-2.174l-2.958,2.199l0,-8.532l-0.278,0l-3.628,2.528l0,0.24c0.617,0.241 0.997,0.872 0.923,1.529l0.063,11.591Zm18.96,-1.163l-2.528,1.959l-2.705,-2.06l0,-1.264l4.828,-3.274l0,-0.164l-2.427,-3.666l-5.334,2.793l0,6.775l-1.049,0.796l0.177,0.215l0.961,-0.746l3.489,2.528l4.639,-3.666l-0.051,-0.228Zm-5.144,-1.719l0,-5.056l0.164,-0.114l2.263,3.552l-2.427,1.618Zm24.85,-11.818c-0.012,-0.328 -0.076,-0.653 -0.19,-0.961l-0.253,0c-0.329,0.872 -0.708,1.352 -1.719,1.352c-0.778,-0.054 -1.495,-0.447 -1.959,-1.074l-2.958,3.388l0.253,0.24l0.834,-0.973c0.67,0.664 1.585,1.026 2.528,0.999l0,8.57l-6.13,-10.327c-0.489,-1.077 -1.526,-1.809 -2.705,-1.909c-1.734,0.127 -3.06,1.652 -2.945,3.388c0.013,0.166 0.038,0.331 0.076,0.493l0.278,-0c-0.052,-0.668 0.435,-1.267 1.1,-1.352c0.593,0.093 1.102,0.478 1.352,1.024l0,3.375c-1.909,0 -3.16,0.872 -3.16,2.364c-0.023,1.048 0.681,1.982 1.694,2.25l0,-0.228c-0.22,-0.174 -0.346,-0.44 -0.341,-0.72c0,-0.544 0.417,-0.923 1.163,-0.923l0.544,0l0,4.399c-1.835,-0.231 -3.538,1.076 -3.792,2.907l0,0.367c0.048,1.599 1.396,2.879 2.996,2.844l0.48,0l0,-0.253c-1.112,-0.114 -1.694,-0.632 -1.694,-1.352c0,-0.742 0.611,-1.352 1.352,-1.352l0.164,0c0.82,0.062 1.577,0.466 2.086,1.112l3.046,-3.324l-0.316,-0.341l-0.847,0.923c-0.817,-0.848 -1.902,-1.388 -3.072,-1.529l0,-10.415l8.317,14.498l0.657,0l0,-14.384c0.004,0 0.008,0 0.013,0c1.727,0 3.147,-1.421 3.147,-3.147c0,-0 -0,-0 -0,-0l0,0.076Zm7.382,13.537l-2.528,1.921l-2.692,-2.086l0,-1.15l4.791,-3.286l0,-0.164l-2.389,-3.704l-5.372,2.869l0,6.699l-1.062,0.822l0.177,0.202l1.011,-0.758l3.501,2.528l4.652,-3.678l-0.088,-0.215Zm-5.22,-1.681l0,-5.056l0.177,-0.114l2.263,3.527l-2.44,1.643Zm21.968,-5.688l-0.758,0.544l-1.921,-1.706l-2.275,2.048l0.935,0.885l0,7.774l-2.528,-1.58l0,-6.32l0.796,-0.556l-2.528,-2.187l-2.25,2.06l0.935,0.885l0,7.394l-0.329,0.19l-2.174,-1.58l0,-6.32c0.051,-1.063 -0.596,-2.043 -1.593,-2.414c-0.897,-0.506 -1.1,-0.872 -1.1,-1.58c0,-0.708 0.607,-0.935 0.885,-1.1c-0.013,-0.084 -0.013,-0.169 0,-0.253c-1.56,0.07 -2.839,1.301 -2.97,2.857c-0.062,0.793 0.305,1.561 0.961,2.01c0.582,0.434 0.94,1.107 0.973,1.833l0,5.941l-1.112,0.885l0.177,0.228l1.011,-0.784l2.743,2.149l2.528,-1.744l2.869,1.732l5.423,-3.16l0,-6.901l1.352,-0.973l-0.215,-0.316l0.164,0.063Zm19.15,-5.688l-1.024,0.872l-2.44,-1.997l-3.362,2.528l0,-2.326l-0.354,0l0,16.697c-0.341,0 -1.264,-0.253 -1.909,-0.354l0,-13.98c0,-1.345 -1.107,-2.452 -2.452,-2.452l-0.202,0c-1.621,-0.043 -3.002,1.225 -3.097,2.844l0.303,0c0.101,-0.619 0.442,-1.15 1.036,-1.15c0.594,0 1.176,0.379 1.176,1.757l0,4.133c-1.921,0 -2.983,1.138 -2.983,2.44c-0.096,1.036 0.661,1.973 1.694,2.098l0,-0.265c-0.313,-0.088 -0.534,-0.371 -0.544,-0.695c0,-0.607 0.556,-0.847 1.352,-0.847l0.354,0l0,6.32c-1.279,0.385 -2.152,1.584 -2.124,2.92c0.048,1.703 1.469,3.073 3.173,3.059l0.354,0c1.332,-0.023 2.656,-0.205 3.944,-0.544c0.974,-0.217 1.963,-0.365 2.958,-0.442c0.796,0 1.138,0.354 1.138,0.923c0.082,0.498 -0.232,0.983 -0.72,1.112l0,0.253c1.533,-0.087 2.74,-1.385 2.718,-2.92c0,-1.593 -1.504,-2.528 -3.16,-2.528c-1.277,0.09 -2.545,0.28 -3.792,0.569c-1.09,0.264 -2.204,0.42 -3.324,0.468c-0.071,0.012 -0.144,0.018 -0.216,0.018c-0.713,0 -1.308,-0.569 -1.339,-1.282c0,-0.948 0.708,-1.58 2.528,-1.58c1.098,0.037 2.189,0.203 3.248,0.493c1.117,0.326 2.265,0.533 3.425,0.619c1.504,0 2.857,-0.531 2.857,-2.705l0,-12.64l1.112,-1.163l-0.329,-0.253Zm-4.222,6.32c-0.314,0.373 -0.776,0.59 -1.264,0.594c-0.484,-0.021 -0.939,-0.235 -1.264,-0.594l0,-4.614l1.049,-0.72l1.365,1.352l0.114,3.982Zm0,3.059c-0.334,-0.336 -0.79,-0.523 -1.264,-0.518c-0.469,0.018 -0.917,0.201 -1.264,0.518l0,-2.642c0.348,0.319 0.793,0.511 1.264,0.544c0.477,-0.005 0.933,-0.201 1.264,-0.544l0,2.642Zm0,4.74c0,0.867 -0.713,1.58 -1.58,1.58l-0.822,0l0,-5.903c0.547,-0.671 1.547,-0.779 2.225,-0.24l0.24,0.24l-0.063,4.323Zm14.068,-7.319l-3.413,-2.225l-4.98,2.869l0,6.712l-1.024,0.834l0.152,0.215l0.809,-0.67l3.274,2.338l5.056,-3.16l0.126,-6.914Zm-5.41,6.611l0,-7.319l2.604,1.909l0,7.42l-2.604,-2.01Zm15.332,-8.608l-0.215,0c-0.242,0.241 -0.558,0.392 -0.897,0.43c-0.445,-0.014 -0.863,-0.216 -1.15,-0.556l-0.19,-0l-1.82,1.896l-1.808,-1.909l-2.932,2.098l0.164,0.253l0.784,-0.569l1.074,1.264l0,6.623l-1.352,1.024l0.164,0.19l0.67,-0.455l2.44,2.098l3.16,-2.136l-0.265,-0.291l-0.897,0.544l-1.264,-0.986l0,-7.47c0.457,0.606 1.152,0.989 1.909,1.049c1.352,0 2.136,-1.567 2.275,-3.147l0.152,0.051Zm12.387,9.872l-3.514,2.263l-4.74,-7.18l3.35,-5.144l0.24,0c0.457,0.468 1.068,0.755 1.719,0.809c0.602,0.004 1.166,-0.302 1.492,-0.809l0.19,0c0.086,1.558 -0.998,2.956 -2.528,3.261c-0.795,-0.037 -1.558,-0.33 -2.174,-0.834l-0.329,0.455l5.056,7.584l1.024,-0.619l0.215,0.215Zm-11.376,-0.43l-1.352,1.011l0.164,0.19l0.67,-0.442l2.288,2.098l3.16,-2.073l-0.177,-0.253l-0.784,0.531l-1.011,-1.1l0,-15.914l-0.291,0l-3.792,2.528l0,0.24c0.686,0.193 1.137,0.859 1.062,1.567l0.063,11.616Zm28.44,-13.714c0,-2.01 -1.909,-2.629 -3.514,-2.528l0,0.341c0.961,0 1.694,0.329 1.694,0.973c0,0.645 -0.329,1.011 -1.264,1.011c-1.167,-0.139 -2.313,-0.419 -3.413,-0.834c-1.132,-0.471 -2.33,-0.765 -3.552,-0.872c-0.043,-0.002 -0.086,-0.002 -0.129,-0.002c-1.819,0 -3.332,1.459 -3.398,3.276c0.01,0.96 0.616,1.818 1.517,2.149l0.152,-0.253c-0.381,-0.175 -0.617,-0.567 -0.594,-0.986c0.053,-0.689 0.663,-1.213 1.352,-1.163c1.295,0.144 2.568,0.441 3.792,0.885c1.246,0.366 2.512,0.657 3.792,0.872l0,3.046l-1.517,1.39l0,0.101l1.567,1.365l0,4.386c-2.179,1.094 -4.829,0.681 -6.573,-1.024l4.171,-2.01l0,-6.99l-5.246,2.288c0.554,-1.259 1.51,-2.299 2.718,-2.958l0,-0.215c-3.379,0.759 -5.865,3.685 -6.067,7.142c0.02,3.959 3.284,7.205 7.243,7.205c0.03,0 0.059,-0 0.089,-0.001c3.581,0.092 6.619,-2.741 6.775,-6.32l0,-0.442l-0.19,0c-0.569,1.298 -1.51,2.398 -2.705,3.16l0,-4.133l1.656,-1.352l0,-0.202l-1.643,-1.264l0,-3.223c1.601,0.108 3.014,-1.105 3.147,-2.705l0,-0.202l0.139,0.088Zm-9.025,11.477l-1.264,0.619c-0.795,-1.102 -1.208,-2.434 -1.176,-3.792c-0.024,-0.74 0.074,-1.479 0.291,-2.187l2.174,-0.986l0,6.459l-0.025,-0.114Zm12.488,-12.362l-0.164,0l-2.073,1.732l0,0.139l1.706,1.909l0.177,0l2.06,-1.719l0,-0.19l-1.732,-1.909l0.025,0.038Zm3.16,15.307l-0.796,0.531l-1.011,-1.264l0,-7.078l0.986,-0.733l-0.19,-0.24l-0.758,0.594l-1.782,-2.098l-2.895,2.073l0.152,0.253l0.733,-0.493l0.91,1.138l0,6.522l-1.352,0.999l0.152,0.19l0.695,-0.506l2.25,2.073l3.008,-1.972l-0.101,0.013Zm17.241,-0.101l-0.733,0.493l-1.1,-0.999l0,-7.255l1.049,-0.796l-0.164,-0.228l-0.897,0.683l-2.44,-2.136l-3.046,2.149l-2.326,-2.149l-3.008,2.098l-1.947,-2.136l-2.958,2.073l0.164,0.265l0.72,-0.506l1.011,1.1l0,6.649l-0.796,0.822l2.338,1.909l2.275,-2.073l-0.923,-0.885l0,-6.838l0.885,-0.607l1.58,1.479l0,6.194l-0.796,0.809l2.376,1.909l2.25,-2.073l-0.935,-0.885l0,-6.889l0.784,-0.518l1.694,1.454l0,6.194l-0.695,0.708l2.402,2.263l3.286,-2.25l-0.051,-0.025Zm8.949,-1.593l-2.528,1.896l-2.629,-2.073l0,-1.378l4.74,-3.248l0,-0.164l-2.414,-3.729l-5.182,2.907l0,6.952l3.552,2.528l4.664,-3.666l-0.202,-0.025Zm-5.182,-1.631l0,-5.334l0.114,-0.126l2.263,3.552l-2.376,1.909Zm14.485,-1.264l-1.909,-1.567c1.137,-0.942 1.829,-2.318 1.909,-3.792l0,-0.657l-0.253,0c-0.164,0.612 -0.732,1.033 -1.365,1.011c-0.753,-0.018 -1.458,-0.382 -1.909,-0.986l-4.601,2.528l0,3.792l1.719,1.352c-1.744,1.58 -2.073,2.616 -2.073,3.413c-0.068,0.92 0.486,1.78 1.352,2.098l0.114,-0.24c-0.273,-0.163 -0.434,-0.466 -0.417,-0.784c0,-0.354 0.417,-0.834 1.201,-0.834c0.761,0.044 1.464,0.43 1.909,1.049l4.323,-2.591l0,-3.792Zm-1.112,-3.147c-0.851,1.23 -1.917,2.296 -3.147,3.147l-1.138,-0.872l0,-3.64c0.474,1.121 1.578,1.853 2.794,1.853c0.413,0 0.821,-0.084 1.2,-0.247l0.063,0l0.303,-0.152l-0.076,-0.088Zm-1.757,8.203c-0.552,-1.127 -1.69,-1.855 -2.945,-1.883c-0.671,-0.011 -1.331,0.164 -1.909,0.506c0.968,-1.356 2.218,-2.486 3.666,-3.312l1.352,0.973l-0.164,3.716Z" style="fill:#fff;fill-rule:nonzero;"/></svg>