<?xml version="1.0" encoding="UTF-8" standalone="no"?><!DOCTYPE svg PUBLIC "-//W3C//DTD SVG 1.1//EN" "http://www.w3.org/Graphics/SVG/1.1/DTD/svg11.dtd"><svg width="100%" height="100%" viewBox="0 0 222 40" version="1.1" xmlns="http://www.w3.org/2000/svg" xmlns:xlink="http://www.w3.org/1999/xlink" xml:space="preserve" xmlns:serif="http://www.serif.com/" style="fill-rule:evenodd;clip-rule:evenodd;stroke-linejoin:round;stroke-miterlimit:2;"><g><g><path d="M86.39,18.562c-0.128,-4.792 -4.218,-8.562 -9.01,-8.562l-5.623,0c-4.856,0 -8.818,3.898 -8.818,8.818c0,2.556 1.086,4.92 3.003,6.582l-1.981,4.601l4.856,-2.875c0.894,0.319 1.917,0.511 2.939,0.511l5.878,0c4.92,-0.064 8.882,-4.09 8.754,-9.074l0.001,0Zm-8.754,5.814l-5.878,0c-2.492,0 -5.048,-1.981 -5.559,-4.473c-0.703,-3.578 2.045,-6.71 5.495,-6.71l5.878,0c2.492,0 5.112,1.981 5.559,4.473c0.703,3.578 -2.045,6.71 -5.495,6.71Z" style="fill:#fff;"/><path d="M0,13.77l0,-2.939l13.099,0l0,2.939l-4.792,0l0,13.035l-3.514,0l0,-13.035l-4.793,0Z" style="fill:#fff;fill-rule:nonzero;"/><path d="M17.955,10.83l0,6.134l6.454,0l0,-6.134l3.514,0l0,15.974l-3.514,0l0,-6.901l-6.454,0l0,6.901l-3.514,0l0,-15.974l3.514,0Z" style="fill:#fff;fill-rule:nonzero;"/><path d="M41.278,10.83l0,2.939l-8.434,0l0,3.45l7.732,0l0,2.684l-7.732,0l0,3.898l8.562,0l0,3.003l-12.077,0l0,-15.974l11.949,0Z" style="fill:#fff;fill-rule:nonzero;"/><path d="M57.827,15.048c-0.192,-0.319 -0.511,-0.639 -0.766,-0.894c-0.639,-0.511 -1.47,-0.766 -2.3,-0.766c-0.703,-0.064 -1.406,0.128 -2.045,0.447c-0.511,0.255 -1.022,0.703 -1.342,1.214c-0.383,0.575 -0.575,1.15 -0.766,1.789c-0.128,0.639 -0.192,1.342 -0.192,2.045c0,0.639 0.064,1.278 0.192,1.917c0.128,0.639 0.447,1.214 0.766,1.726c0.383,0.511 0.766,0.958 1.342,1.214c0.575,0.319 1.342,0.511 2.045,0.447c0.894,0.064 1.853,-0.319 2.492,-0.958c0.639,-0.703 1.022,-1.598 1.15,-2.62l3.386,0c-0.064,0.958 -0.319,1.853 -0.703,2.684c-0.383,0.766 -0.83,1.47 -1.47,2.045c-0.575,0.575 -1.342,1.022 -2.109,1.278c-0.83,0.319 -1.789,0.447 -2.684,0.447c-1.15,0 -2.3,-0.192 -3.322,-0.639c-0.894,-0.383 -1.789,-0.958 -2.428,-1.789c-0.703,-0.766 -1.214,-1.662 -1.534,-2.62c-0.383,-1.022 -0.511,-2.173 -0.511,-3.258c0,-1.086 0.128,-2.237 0.511,-3.322c0.383,-1.022 0.83,-1.853 1.534,-2.684c0.703,-0.766 1.534,-1.406 2.492,-1.789c1.853,-0.766 3.898,-0.894 5.814,-0.255c0.766,0.255 1.47,0.575 2.109,1.15c0.639,0.511 1.15,1.15 1.534,1.789c0.447,0.766 0.703,1.598 0.766,2.428l-3.386,0c-0.255,-0.319 -0.383,-0.639 -0.575,-1.022l0,-0.002Z" style="fill:#fff;fill-rule:nonzero;"/><path d="M91.502,10.83l6.646,10.735l0.064,0l0,-10.735l3.258,0l0,15.974l-3.514,0l-6.646,-10.735l-0.064,0l0,10.735l-3.258,0l0,-15.974l3.514,0Z" style="fill:#fff;fill-rule:nonzero;"/><path d="M107.795,26.742l-5.176,-15.974l3.578,0l3.578,11.182l0.064,0l3.642,-11.182l3.578,0l-5.303,15.974l-3.962,0Z" style="fill:#fff;fill-rule:nonzero;"/><path d="M130.096,10.83l0,2.939l-8.434,0l0,3.45l7.732,0l0,2.684l-7.732,0l0,3.898l8.626,0l0,3.003l-12.077,0l0,-15.974l11.885,0Z" style="fill:#fff;fill-rule:nonzero;"/><path d="M140.064,10.83c0.703,0 1.342,0.064 1.917,0.383c0.575,0.255 1.022,0.575 1.47,0.958c0.383,0.383 0.703,0.894 0.894,1.406c0.255,0.575 0.319,1.15 0.319,1.726c0.064,0.894 -0.192,1.662 -0.575,2.428c-0.447,0.703 -1.15,1.278 -1.917,1.598c0.383,0.064 0.766,0.319 1.086,0.575c0.255,0.255 0.511,0.575 0.703,0.894c0.192,0.319 0.383,0.703 0.383,1.086c0.064,0.383 0.128,0.766 0.128,1.214c0,0.255 0.064,0.575 0.064,0.894c0,0.319 0.064,0.703 0.064,1.022c0,0.319 0.064,0.639 0.192,1.022c0.064,0.319 0.192,0.575 0.383,0.83l-3.514,0c-0.255,-0.575 -0.319,-1.15 -0.383,-1.789c-0.064,-0.703 -0.128,-1.342 -0.192,-1.981c-0.064,-0.639 -0.319,-1.278 -0.766,-1.853c-0.383,-0.383 -1.022,-0.575 -1.917,-0.575l-3.514,0l0,6.198l-3.514,0l0,-15.974l8.69,-0.064l-0.001,-0.001Zm-1.214,7.221c0.766,0 1.406,-0.192 1.853,-0.575c0.447,-0.383 0.575,-0.958 0.575,-1.789c0,-0.766 -0.192,-1.342 -0.575,-1.662c-0.383,-0.319 -1.022,-0.511 -1.853,-0.511l-3.834,0l0,4.537l3.834,0Z" style="fill:#fff;fill-rule:nonzero;"/><path d="M149.457,22.843c0.192,0.319 0.447,0.639 0.766,0.894c0.383,0.255 0.703,0.383 1.15,0.511c0.447,0.128 0.894,0.128 1.342,0.128c0.383,0 0.703,0 1.022,-0.064c0.383,0 0.703,-0.128 1.022,-0.319c0.319,-0.128 0.575,-0.319 0.766,-0.639c0.255,-0.319 0.319,-0.639 0.319,-0.958c0,-0.383 -0.128,-0.766 -0.383,-1.022c-0.319,-0.319 -0.703,-0.511 -1.086,-0.639c-0.511,-0.192 -1.022,-0.319 -1.534,-0.511c-0.575,-0.128 -1.15,-0.319 -1.726,-0.447c-0.575,-0.128 -1.214,-0.319 -1.789,-0.575c-0.575,-0.192 -1.022,-0.511 -1.534,-0.83c-1.022,-0.703 -1.534,-1.917 -1.534,-3.131c-0.064,-0.703 0.128,-1.47 0.511,-2.173c0.383,-0.575 0.83,-1.15 1.406,-1.534c0.575,-0.383 1.214,-0.703 1.917,-0.894c0.703,-0.192 1.406,-0.255 2.173,-0.255c0.766,0 1.662,0.064 2.428,0.255c0.703,0.128 1.406,0.511 2.045,0.894c0.639,0.383 1.086,0.958 1.406,1.598c0.383,0.703 0.575,1.534 0.511,2.364l-3.386,0c0,-0.383 -0.128,-0.83 -0.319,-1.214c-0.128,-0.255 -0.383,-0.575 -0.703,-0.703c-0.255,-0.192 -0.575,-0.319 -0.958,-0.383c-0.383,-0.064 -0.766,-0.128 -1.214,-0.128c-0.255,0 -0.575,0.064 -0.894,0.064c-0.255,0.064 -0.575,0.128 -0.766,0.319c-0.255,0.128 -0.383,0.319 -0.575,0.575c-0.192,0.255 -0.255,0.511 -0.255,0.83c0,0.255 0.064,0.575 0.192,0.766c0.192,0.255 0.383,0.383 0.703,0.575c0.511,0.192 0.958,0.319 1.406,0.511c0.575,0.128 1.406,0.383 2.428,0.639c0.255,0.064 0.703,0.128 1.214,0.319c0.575,0.128 1.086,0.383 1.534,0.703c0.575,0.319 1.022,0.83 1.342,1.342c0.383,0.639 0.575,1.406 0.575,2.237c0,0.703 -0.128,1.406 -0.383,2.045c-0.255,0.639 -0.703,1.214 -1.278,1.662c-0.575,0.511 -1.342,0.83 -2.045,1.086c-0.894,0.255 -1.917,0.383 -2.875,0.383c-0.894,0 -1.726,-0.128 -2.556,-0.319c-0.766,-0.192 -1.534,-0.511 -2.173,-1.022c-0.639,-0.511 -1.15,-1.086 -1.534,-1.789c-0.383,-0.766 -0.575,-1.662 -0.575,-2.556l3.514,0c0.064,0.511 0.192,0.958 0.383,1.406l0,0.001Z" style="fill:#fff;fill-rule:nonzero;"/><path d="M168.882,10.83l6.006,15.974l-3.642,0l-1.214,-3.578l-6.006,0l-1.214,3.578l-3.578,0l6.006,-15.974c0,-0.064 3.642,-0.064 3.642,0l0.001,0Zm0.192,9.776l-1.981,-5.814l-2.045,5.814l4.026,0Z" style="fill:#fff;fill-rule:nonzero;"/><path d="M171.885,13.77l0,-2.939l13.099,0l0,2.939l-4.792,0l0,13.035l-3.514,0l0,-13.035l-4.793,0Z" style="fill:#fff;fill-rule:nonzero;"/><rect x="186.326" y="10.83" width="3.514" height="15.974" style="fill:#fff;"/><path d="M191.502,15.559c0.319,-1.022 0.894,-1.853 1.534,-2.684c0.639,-0.766 1.534,-1.406 2.492,-1.789c2.109,-0.894 4.473,-0.894 6.646,0c0.958,0.383 1.789,1.022 2.492,1.789c0.639,0.766 1.214,1.726 1.534,2.684c0.319,1.022 0.575,2.237 0.575,3.322c0,1.086 -0.128,2.237 -0.575,3.258c-0.319,0.958 -0.894,1.853 -1.534,2.62c-0.639,0.766 -1.534,1.342 -2.492,1.789c-2.109,0.894 -4.473,0.894 -6.646,0c-0.958,-0.383 -1.789,-0.958 -2.492,-1.789c-0.639,-0.766 -1.214,-1.662 -1.534,-2.62c-0.319,-1.022 -0.575,-2.173 -0.575,-3.258c0,-1.15 0.192,-2.3 0.575,-3.322Zm3.195,5.24c0.128,0.639 0.383,1.214 0.703,1.726c0.319,0.511 0.766,0.958 1.342,1.214c1.278,0.639 2.748,0.639 4.026,0c0.575,-0.319 0.958,-0.703 1.342,-1.214c0.319,-0.511 0.639,-1.086 0.703,-1.726c0.128,-0.639 0.255,-1.278 0.255,-1.917c0,-0.639 -0.064,-1.342 -0.255,-2.045c-0.128,-0.639 -0.383,-1.214 -0.703,-1.789c-0.319,-0.511 -0.766,-0.894 -1.342,-1.214c-1.278,-0.575 -2.748,-0.575 -4.026,0c-0.575,0.255 -0.958,0.703 -1.342,1.214c-0.319,0.575 -0.639,1.15 -0.703,1.789c-0.128,0.639 -0.255,1.342 -0.255,2.045c0,0.639 0.128,1.278 0.255,1.917Z" style="fill:#fff;fill-rule:nonzero;"/><path d="M211.182,10.83l6.71,10.735l0,-10.735l3.258,0l0,15.974l-3.514,0l-6.646,-10.735l0,10.735l-3.258,0l0,-15.974l3.45,0Z" style="fill:#fff;fill-rule:nonzero;"/></g></g></svg>