<?xml version="1.0" encoding="UTF-8" standalone="no"?><!DOCTYPE svg PUBLIC "-//W3C//DTD SVG 1.1//EN" "http://www.w3.org/Graphics/SVG/1.1/DTD/svg11.dtd"><svg width="100%" height="100%" viewBox="0 0 118 40" version="1.1" xmlns="http://www.w3.org/2000/svg" xmlns:xlink="http://www.w3.org/1999/xlink" xml:space="preserve" xmlns:serif="http://www.serif.com/" style="fill-rule:evenodd;clip-rule:evenodd;stroke-linejoin:round;stroke-miterlimit:2;"><g><path d="M17.283,8.692c0,-0.106 -0.086,-0.192 -0.192,-0.192l-16.898,0c-0.106,0 -0.192,0.086 -0.192,0.192l0,4.233c0,0.106 0.086,0.192 0.192,0.192l5.515,0l0,16.93c0,0.106 0.086,0.192 0.192,0.192l5.483,0c0.106,0 0.192,-0.086 0.192,-0.192l0,-16.93l5.515,0c0.106,0 0.192,-0.086 0.192,-0.192l0,-4.233Z" style="fill:#fff;fill-rule:nonzero;"/><path d="M19.623,30.24c-0.106,0 -0.192,-0.086 -0.192,-0.192l0,-21.355c0,-0.165 0.195,-0.253 0.319,-0.145l10.471,9.39l10.47,-9.39c0.124,-0.109 0.319,-0.021 0.319,0.145l0,21.355c0,0.106 -0.086,0.192 -0.192,0.192l-5.483,0c-0.106,0 -0.192,-0.086 -0.192,-0.192l0,-9.363l-4.785,4.863c-0.075,0.076 -0.199,0.076 -0.274,0l-4.785,-4.863l0,9.363c0,0.106 -0.086,0.192 -0.192,0.192l-5.483,0Z" style="fill:#fff;fill-rule:nonzero;"/><path d="M52.81,25.622l-3.527,0l0,-12.505l3.527,0c4.475,0 4.489,6.253 4.489,6.253c0,0 -0.013,6.253 -4.489,6.253Zm0.853,-17.122l-10.055,0c-0.106,0 -0.192,0.086 -0.192,0.192l0,21.355c0,0.106 0.086,0.192 0.192,0.192l10.055,0c0,0 9.503,0 9.503,-10.87c0,-10.87 -9.503,-10.87 -9.503,-10.87Z" style="fill:#fff;fill-rule:nonzero;"/><path d="M75.671,24.384c-2.957,0 -5.317,-2.56 -4.983,-5.585c0.254,-2.299 2.113,-4.158 4.412,-4.412c3.025,-0.334 5.585,2.025 5.585,4.983c0,0.967 -0.279,1.867 -0.753,2.633l-4.928,-0.003c-0.171,0 -0.257,0.207 -0.136,0.329l1.925,1.925c-0.362,0.083 -0.736,0.131 -1.123,0.131Zm10.832,3.048l-1.889,-1.887c1.28,-1.85 2.003,-4.115 1.92,-6.554c-0.191,-5.6 -4.708,-10.197 -10.304,-10.477c-6.444,-0.323 -11.738,4.969 -11.415,11.414c0.28,5.607 4.895,10.13 10.506,10.306c2.169,0.068 4.2,-0.501 5.922,-1.532l2.741,2.741c0.075,0.075 0.197,0.075 0.272,0l2.275,-3.776c0.046,-0.076 0.034,-0.173 -0.029,-0.235Z" style="fill:#fff;fill-rule:nonzero;"/><path d="M112.06,8.692l0,9.353c0,0.113 0.018,0.225 0.055,0.331l1.589,4.656c0.044,0.13 0.166,0.217 0.303,0.217l1.952,0c0.137,0 0.259,-0.087 0.303,-0.216l1.602,-4.656c0.037,-0.107 0.056,-0.22 0.056,-0.334l0,-9.352c0,-0.106 -0.086,-0.192 -0.192,-0.192l-5.476,0c-0.106,0 -0.192,0.086 -0.192,0.192Z" style="fill:#fff;fill-rule:nonzero;"/><path d="M114.99,24.379c-1.618,0 -2.93,1.312 -2.93,2.93c0,1.618 1.312,2.93 2.93,2.93c1.618,0 2.93,-1.312 2.93,-2.93c0,-1.618 -1.312,-2.93 -2.93,-2.93Z" style="fill:#fff;fill-rule:nonzero;"/><path d="M96.937,23.251l2.437,-4.742l2.437,4.742l-4.874,0Zm2.959,-14.447c-0.107,-0.188 -0.306,-0.303 -0.522,-0.303c-0.216,0 -0.416,0.116 -0.523,0.303l-12.072,21.15c-0.073,0.128 0.019,0.288 0.167,0.288l6.561,0c0.125,0 0.238,-0.073 0.291,-0.186l1.311,-2.832l8.529,0l1.311,2.832c0.053,0.113 0.166,0.186 0.291,0.186l6.561,0c0.148,0 0.24,-0.159 0.167,-0.288l-12.072,-21.15Z" style="fill:#fff;fill-rule:nonzero;"/></g></svg>