<?xml version="1.0" encoding="UTF-8" standalone="no"?><!DOCTYPE svg PUBLIC "-//W3C//DTD SVG 1.1//EN" "http://www.w3.org/Graphics/SVG/1.1/DTD/svg11.dtd"><svg width="100%" height="100%" viewBox="0 0 89 40" version="1.1" xmlns="http://www.w3.org/2000/svg" xmlns:xlink="http://www.w3.org/1999/xlink" xml:space="preserve" xmlns:serif="http://www.serif.com/" style="fill-rule:evenodd;clip-rule:evenodd;stroke-linejoin:round;stroke-miterlimit:2;"><g id="Group-5" serif:id="Group 5"><g><g id="Vector"><path d="M32.361,7.684c-0.671,0.226 -1.263,0.647 -1.696,1.213c-0.434,0.566 -0.694,1.249 -0.744,1.965c-0.052,0.715 0.108,1.429 0.456,2.053c0.349,0.623 0.873,1.128 1.505,1.45c0.632,0.322 1.344,0.447 2.045,0.358c0.702,-0.089 1.363,-0.385 1.898,-0.855c0.536,-0.47 0.921,-1.088 1.109,-1.779c0.189,-0.692 0.169,-1.423 -0.053,-2.105c-0.299,-0.911 -0.943,-1.667 -1.791,-2.098c-0.848,-0.431 -1.83,-0.504 -2.729,-0.203l0,0.002Zm0.687,1.216l0.624,-0.836c0.525,0.034 1.033,0.205 1.474,0.496l0.03,0.979c-0.006,0.003 -0.012,0.009 -0.018,0.013l-0.664,0.496c-0.01,0.007 -0.019,0.016 -0.029,0.024l-1.144,-0.336c-0.002,-0.006 -0.005,-0.013 -0.007,-0.02l-0.26,-0.794c-0.002,-0.007 -0.005,-0.015 -0.007,-0.02Zm-1.515,-0.118l0.992,0.293c0.003,0.007 0.005,0.014 0.007,0.02l0.259,0.794c0.003,0.007 0.005,0.015 0.007,0.02l-0.72,0.965c-0.012,-0.001 -0.024,-0.003 -0.037,-0.003l-0.825,0.005l-0.022,0l-0.553,-0.804c0.181,-0.502 0.488,-0.947 0.89,-1.293l0,0.002Zm0.972,4.414l-0.925,0.311c-0.411,-0.336 -0.727,-0.774 -0.916,-1.274l0.535,-0.8l0.021,0l0.826,-0.005c0.01,0 0.021,-0.001 0.032,-0.002l0.692,0.921c-0.003,0.007 -0.006,0.016 -0.009,0.023l-0.249,0.796c-0.003,0.01 -0.006,0.019 -0.007,0.029l0,0.001Zm2.641,0.493c-0.442,0.294 -0.954,0.466 -1.481,0.497l-0.635,-0.83c0.002,-0.007 0.006,-0.014 0.007,-0.021l0.251,-0.797c0.002,-0.009 0.006,-0.019 0.007,-0.028l1.162,-0.39c0.007,0.006 0.014,0.012 0.022,0.018l0.67,0.488c0,0 0.012,0.007 0.018,0.012l-0.022,1.05l0,0.002Zm0.346,-1.498c-0.007,-0.006 -0.014,-0.014 -0.022,-0.018l-0.67,-0.486c-0.006,-0.005 -0.014,-0.009 -0.02,-0.013l0.011,-1.158c0.01,-0.005 0.02,-0.01 0.028,-0.018l0.665,-0.496c0,0 0.011,-0.008 0.017,-0.013l0.901,0.317c0.142,0.515 0.147,1.058 0.016,1.576l-0.925,0.31Z" style="fill:#fff;fill-rule:nonzero;"/></g><g id="Union"><path d="M72.927,32.141l-3.976,0l0,-24.278l3.976,-0.347l0,24.625Z" style="fill:#fff;fill-rule:nonzero;"/><path d="M78.111,21.872l-1.076,-3.205c0.389,-0.257 0.922,-0.474 1.598,-0.654c0.678,-0.198 1.365,-0.356 2.061,-0.474c0.719,-0.119 1.282,-0.178 1.693,-0.178c1.189,0 2.276,0.228 3.26,0.682c0.985,0.455 1.765,1.088 2.339,1.899c0.595,0.792 0.891,1.701 0.891,2.73l0,9.466l-2.614,0l-0.677,-1.543c-0.554,0.554 -1.169,1.009 -1.845,1.365c-0.657,0.356 -1.354,0.534 -2.092,0.534c-1.824,0 -3.179,-0.426 -4.06,-1.276c-0.883,-0.87 -1.324,-1.997 -1.324,-3.382c0,-1.483 0.524,-2.611 1.569,-3.383c1.046,-0.792 2.411,-1.196 4.092,-1.217l2.921,0l0,-0.03c-0.02,-0.713 -0.245,-1.266 -0.676,-1.661c-0.409,-0.416 -0.984,-0.623 -1.723,-0.623c-0.697,0 -1.456,0.098 -2.276,0.297c-0.82,0.198 -1.507,0.416 -2.061,0.652l0,0.002Zm1.6,5.965c0,0.278 0.082,0.544 0.246,0.801c0.163,0.238 0.378,0.434 0.645,0.593c0.287,0.138 0.616,0.208 0.985,0.208c0.554,0 1.107,-0.119 1.661,-0.356c0.574,-0.238 1.117,-0.593 1.63,-1.068l0,-2.196l-3.015,0c-0.696,0 -1.23,0.208 -1.598,0.623c-0.37,0.416 -0.554,0.88 -0.554,1.394Z" style="fill:#fff;"/><path d="M56.123,26.091l10.051,0l0,-1.186c0,-1.366 -0.246,-2.622 -0.738,-3.769c-0.472,-1.147 -1.209,-2.058 -2.214,-2.73c-1.004,-0.693 -2.305,-1.039 -3.842,-1.039c-1.538,0 -2.87,0.317 -3.996,0.95c-1.127,0.614 -1.997,1.494 -2.613,2.641c-0.595,1.128 -0.891,2.483 -0.891,4.006c0,1.523 0.317,2.858 0.953,4.006c0.635,1.128 1.588,1.997 2.859,2.611c1.291,0.614 2.899,0.92 4.826,0.92c0.861,0 1.619,-0.079 2.275,-0.238c0.676,-0.138 1.28,-0.336 1.814,-0.593c0.554,-0.278 1.056,-0.594 1.506,-0.95l-1.168,-2.789c-0.656,0.376 -1.321,0.682 -1.997,0.92c-0.677,0.237 -1.455,0.356 -2.337,0.356c-0.983,0 -1.782,-0.129 -2.397,-0.385c-0.615,-0.257 -1.086,-0.613 -1.414,-1.068c-0.328,-0.474 -0.554,-1.028 -0.677,-1.661Zm6.27,-2.581l-6.241,0c0.122,-0.634 0.328,-1.158 0.615,-1.573c0.287,-0.415 0.646,-0.732 1.076,-0.949c0.43,-0.218 0.913,-0.327 1.445,-0.327c0.532,0 1.004,0.109 1.414,0.327c0.431,0.198 0.789,0.504 1.076,0.92c0.287,0.415 0.493,0.948 0.615,1.602Z" style="fill:#fff;"/><path d="M41.44,32.141l-5.556,-13.617l3.946,-1.171l3.492,8.902l3.27,-8.539l4.228,0l-5.926,14.426l-3.454,0Z" style="fill:#fff;fill-rule:nonzero;"/><rect x="29.905" y="17.715" width="4.038" height="14.426" style="fill:#fff;"/><path d="M22.615,32.141l-4.007,0l0,-14.426l2.123,0l1.298,2.147c0.411,-0.37 0.914,-0.74 1.51,-1.11c0.596,-0.39 1.203,-0.719 1.819,-0.986c0.636,-0.267 1.222,-0.401 1.757,-0.401l0.801,3.206c-0.472,0 -1.007,0.113 -1.603,0.339c-0.596,0.226 -1.222,0.535 -1.88,0.925c-0.636,0.391 -1.243,0.842 -1.818,1.356l0,8.948l-0.002,0.001Z" style="fill:#fff;fill-rule:nonzero;"/><path d="M9.669,12.719c-2.961,0.89 -7.095,0.744 -9.669,0.07l1.253,4.578c1.898,0.348 4.711,0.348 6.321,0.348l0,14.426l4.038,0l0,-15.302c1.721,-0.576 3.528,-1.436 4.757,-2.981c1.427,-1.795 2.326,-4.242 2.241,-6.341l-4.024,0c0,1.141 -0.608,2.228 -1.324,3.13c-0.752,0.945 -2.132,1.633 -3.592,2.072Z" style="fill:#fff;fill-rule:nonzero;"/></g></g></g></svg>