<?xml version="1.0" encoding="UTF-8" standalone="no"?><!DOCTYPE svg PUBLIC "-//W3C//DTD SVG 1.1//EN" "http://www.w3.org/Graphics/SVG/1.1/DTD/svg11.dtd"><svg width="100%" height="100%" viewBox="0 0 69 40" version="1.1" xmlns="http://www.w3.org/2000/svg" xmlns:xlink="http://www.w3.org/1999/xlink" xml:space="preserve" xmlns:serif="http://www.serif.com/" style="fill-rule:evenodd;clip-rule:evenodd;stroke-linejoin:round;stroke-miterlimit:2;"><g><path d="M67.89,23.315c-1.893,0 -2.766,-0.968 -2.766,-2.861l0,-11.661l-5.804,0l0,8.661c-1.936,-4.154 -6.872,-5.957 -11.026,-4.02c-1.774,0.825 -3.195,2.251 -4.02,4.02l0,-4.621l-5.737,0l0,8.15c0,1.469 -0.787,2.466 -2.065,2.466c-1.283,0 -2.07,-0.997 -2.07,-2.466l0,-8.155l-5.804,0l0,8.222c0,5.036 3.09,8.198 7.874,8.198c3.839,0 6.581,-2.132 7.478,-5.585c1.502,4.33 6.229,6.629 10.559,5.127c2.361,-0.816 4.225,-2.652 5.079,-4.998c0.854,3.696 3.663,5.332 7.402,5.332l1.469,0l0,-5.809l-0.568,0Zm-16.105,0.124c-1.378,0 -2.494,-1.116 -2.494,-2.494c0,-1.378 1.116,-2.494 2.494,-2.494c1.378,0 2.494,1.116 2.494,2.494c-0.005,1.378 -1.121,2.494 -2.494,2.494Z" style="fill:#fff;fill-rule:nonzero;"/><path d="M23.366,26.333c0.024,-0.038 0.048,-0.076 0.067,-0.119l0.11,-0.196c0.052,-0.095 0.1,-0.196 0.153,-0.291l0.072,-0.138c0.038,-0.081 0.076,-0.157 0.114,-0.238c0.01,-0.024 0.024,-0.048 0.038,-0.072l0,-0.024c2.885,-6.291 0.124,-13.726 -6.167,-16.611c-6.291,-2.885 -13.726,-0.129 -16.611,6.162c-2.389,5.213 -0.94,11.379 3.524,14.98l0.043,0.038l0.014,0c0.968,0.777 2.046,1.402 3.2,1.855l0.091,0.038l0.162,0.062l0.157,0.057l0.095,0.033l0.205,0.072l0.048,0c0.682,0.219 1.383,0.382 2.094,0.482l0.072,0l0.181,0.024l0.1,0.014l0.167,0.019l0.262,0.019l1.684,0c1.865,-0.091 3.691,-0.596 5.337,-1.483l0.038,-0.019l0.224,-0.129l0.1,-0.062l0.148,-0.091l0.153,-0.095l0.091,-0.057l0.196,-0.129l0.024,-0.014c0.892,-0.601 1.698,-1.312 2.404,-2.122c0.348,-0.396 0.668,-0.811 0.959,-1.25l0.014,-0.014c0.153,-0.229 0.3,-0.463 0.439,-0.701Zm-0.243,-1.044c-0.019,0.038 -0.038,0.081 -0.062,0.124c-0.048,0.091 -0.095,0.181 -0.148,0.277c-0.048,0.091 -0.067,0.119 -0.1,0.176c-0.033,0.057 -0.043,0.076 -0.067,0.119c-0.129,0.219 -0.262,0.439 -0.405,0.649l-0.019,0.033c-0.844,1.24 -1.912,2.313 -3.152,3.157l-0.048,0.033l-0.162,0.105l-0.105,0.067l-0.119,0.076l-0.238,0.143c-0.076,0.043 -0.157,0.091 -0.238,0.134c-1.555,0.858 -3.281,1.359 -5.055,1.455l-1.598,0l-0.238,-0.019l-0.157,-0.019l-0.095,0l-0.172,-0.024l-0.067,0c-0.672,-0.105 -1.331,-0.267 -1.974,-0.486l-0.062,-0.019l-0.176,-0.067l-0.095,-0.033l-0.143,-0.048l-0.157,-0.062l-0.081,-0.033c-1.102,-0.439 -2.132,-1.04 -3.052,-1.784c-1.765,-1.507 -2.78,-3.701 -2.799,-6.014c0,-0.491 0.048,-0.987 0.143,-1.469c1.34,4.45 5.437,7.492 10.082,7.488c0.305,0 0.62,0 0.959,-0.043l0.429,-0.038c0.062,-0.005 0.11,-0.062 0.105,-0.124c0,-0.019 -0.01,-0.038 -0.024,-0.057l-0.262,-0.343c-0.754,-1.011 -0.94,-2.47 -0.525,-4.001c0.887,-3.047 3.882,-5.547 6.715,-5.561l0.057,0c0.887,-0.019 1.755,0.281 2.437,0.854c1.14,0.987 1.512,2.68 0.992,4.521c-0.048,0.176 -0.11,0.358 -0.176,0.539l-0.033,0.072c-0.038,0.072 -0.072,0.148 -0.11,0.224Zm-10.564,-16.387c5.418,0.01 9.81,4.397 9.815,9.82l0,0.262l-0.057,-0.029l-0.038,-0.024c-0.1,-0.057 -0.205,-0.11 -0.31,-0.157l-0.043,-0.019l-0.124,-0.057l-0.043,-0.014c-0.052,-0.024 -0.11,-0.043 -0.167,-0.062l-0.019,0l-0.148,-0.048l-0.048,-0.014l-0.138,-0.038l-0.038,0l-0.176,-0.038l-0.043,0l-0.143,-0.024l-0.052,0l-0.162,-0.062l-0.024,0l-0.181,-0.019l-0.048,0c-0.048,-0.005 -0.095,-0.005 -0.143,0l-0.086,0c-0.897,-1.292 -2.089,-2.346 -3.481,-3.076c-1.545,-0.806 -3.267,-1.226 -5.012,-1.226c-3.777,0 -7.201,1.941 -8.89,4.936l-0,-0.286c0.005,-5.418 4.388,-9.81 9.801,-9.824Zm0.3,19.63l-0.305,0.005c-4.783,0 -8.871,-3.448 -9.677,-8.17c1.331,-3.343 4.841,-5.585 8.775,-5.585c1.631,-0.005 3.233,0.386 4.679,1.14c1.154,0.606 2.165,1.455 2.966,2.48c-1.426,0.205 -2.766,0.816 -3.858,1.755c-1.364,1.106 -2.361,2.604 -2.861,4.287c-0.429,1.498 -0.32,2.952 0.281,4.087Zm11.489,-8.489c0,0.525 -0.033,1.049 -0.105,1.569c-0.181,-0.806 -0.596,-1.54 -1.192,-2.113c0.019,-0.262 0.033,-0.525 0.033,-0.787c-0.01,-4.745 -3.186,-8.899 -7.764,-10.154c5.294,1.292 9.023,6.033 9.028,11.484Zm-14.193,-11.575c-5.341,1.254 -8.828,6.395 -8.007,11.823c-0.348,0.94 -0.525,1.932 -0.525,2.928c0,0.596 0.062,1.192 0.186,1.779c-2.737,-5.923 -0.157,-12.943 5.761,-15.681c0.83,-0.382 1.698,-0.668 2.585,-0.849Z" style="fill:#fff;fill-rule:nonzero;"/></g></svg>