<?xml version="1.0" encoding="UTF-8" standalone="no"?><!DOCTYPE svg PUBLIC "-//W3C//DTD SVG 1.1//EN" "http://www.w3.org/Graphics/SVG/1.1/DTD/svg11.dtd"><svg width="100%" height="100%" viewBox="0 0 36 40" version="1.1" xmlns="http://www.w3.org/2000/svg" xmlns:xlink="http://www.w3.org/1999/xlink" xml:space="preserve" xmlns:serif="http://www.serif.com/" style="fill-rule:evenodd;clip-rule:evenodd;stroke-linejoin:round;stroke-miterlimit:2;"><g><path d="M27.841,10c2.012,0.056 4.45,0.143 5.921,1.67c0.869,1.029 1.342,2.335 1.332,3.683c0.026,0.588 -0.072,1.175 -0.288,1.723c-0.215,0.548 -0.542,1.045 -0.961,1.459c-0.594,0.527 -1.273,0.951 -2.008,1.253c0.902,0.206 1.739,0.634 2.434,1.245c0.919,1.033 1.409,2.377 1.372,3.758c0.016,0.648 -0.098,1.293 -0.337,1.895c-0.238,0.603 -0.596,1.151 -1.051,1.612c-1.591,1.619 -3.683,1.646 -5.965,1.702l-9.175,0l0,-4.08l1.786,0.028l0,-11.895l-1.786,0.028l0,-4.08l8.725,0Zm-1.742,8.045c1.615,0.028 1.841,0.028 2.239,-0.056c0.449,-0.096 0.85,-0.349 1.13,-0.713c0.28,-0.364 0.421,-0.817 0.397,-1.276c0.022,-0.367 -0.058,-0.733 -0.231,-1.058c-0.173,-0.324 -0.433,-0.594 -0.751,-0.78c-0.453,-0.227 -0.736,-0.227 -2.748,-0.255l-0.036,4.136Zm0,7.874l1.591,0c1.102,0 2.661,-0.028 2.661,-1.925c0.023,-0.408 -0.081,-0.812 -0.3,-1.158c-0.218,-0.345 -0.539,-0.613 -0.917,-0.767c-0.481,-0.199 -0.708,-0.199 -3.003,-0.199l-0.032,4.049Z" style="fill:#fff;fill-rule:nonzero;"/><path d="M0,10l8.586,0l0,4.08l-1.758,-0.028l2.915,11.446l3.146,-11.446l-1.754,0.028l0,-4.08l7.874,0l0,4.08l-1.332,-0.028l-4.959,15.948l-6.458,0l-5.015,-15.948l-1.245,0.028l0,-4.08Z" style="fill:#fff;fill-rule:nonzero;"/></g></svg>