<?xml version="1.0" encoding="UTF-8" standalone="no"?><!DOCTYPE svg PUBLIC "-//W3C//DTD SVG 1.1//EN" "http://www.w3.org/Graphics/SVG/1.1/DTD/svg11.dtd"><svg width="100%" height="100%" viewBox="0 0 110 40" version="1.1" xmlns="http://www.w3.org/2000/svg" xmlns:xlink="http://www.w3.org/1999/xlink" xml:space="preserve" xmlns:serif="http://www.serif.com/" style="fill-rule:evenodd;clip-rule:evenodd;stroke-miterlimit:10;"><g><g><path d="M13.11,3.921c-0.428,0 -0.775,0.347 -0.775,0.775c0,0.428 0.347,0.775 0.775,0.775c0.428,-0 0.775,-0.347 0.775,-0.775c0,-0.428 -0.347,-0.775 -0.775,-0.775" style="fill:#fff;fill-rule:nonzero;"/><path d="M13.11,3.921c-0.428,0 -0.775,0.347 -0.775,0.775c0,0.428 0.347,0.775 0.775,0.775c0.428,-0 0.775,-0.347 0.775,-0.775c0,-0.428 -0.347,-0.775 -0.775,-0.775l0,-0Z" style="fill:#fff;fill-rule:nonzero;stroke:#72da38;stroke-width:0.05px;"/><path d="M107.899,25.883l-11.301,0l0,-5.347l11.301,0l-0,5.347Zm-11.002,-15.183l0,2.1l11.002,0l0,5.636l-13.4,0l0,9.546l15.5,0l0,-17.281l-13.102,0Zm-5.199,17.264l-0.001,-9.529l-2.596,0l0,-4.912l-2.144,0l0,4.912l-6.659,0l0,-9.391l-2.1,0l0,18.92l2.1,0l0,-7.429l9.202,0l0,7.429l2.199,0Zm-87.003,-1.376c-0.428,0 -0.775,0.347 -0.775,0.775c0,0.428 0.347,0.775 0.775,0.775c0.428,-0 0.775,-0.347 0.775,-0.775c0,-0.428 -0.347,-0.775 -0.775,-0.775" style="fill:#fff;fill-rule:nonzero;"/><path d="M4.696,26.589c-0.428,0 -0.775,0.347 -0.775,0.775c0,0.428 0.347,0.775 0.775,0.775c0.428,-0 0.775,-0.347 0.775,-0.775c0,-0.428 -0.347,-0.775 -0.775,-0.775Z" style="fill:#fff;fill-rule:nonzero;stroke:#72da38;stroke-width:0.05px;"/><path d="M23.971,34.529c-0.428,0 -0.775,0.347 -0.775,0.775c0,0.428 0.347,0.775 0.775,0.775c0.428,-0 0.775,-0.347 0.775,-0.775c0,-0.428 -0.347,-0.775 -0.775,-0.775" style="fill:#fff;fill-rule:nonzero;"/><path d="M23.971,34.529c-0.428,0 -0.775,0.347 -0.775,0.775c0,0.428 0.347,0.775 0.775,0.775c0.428,-0 0.775,-0.347 0.775,-0.775c0,-0.428 -0.347,-0.775 -0.775,-0.775Z" style="fill:#fff;fill-rule:nonzero;stroke:#72da38;stroke-width:0.05px;"/><path d="M73.482,25.883l-11.201,0l0,-5.347l11.201,0l0,5.347Zm-32.26,0l-11.301,0l0,-5.347l11.301,0l-0,5.347Zm21.29,-15.183l0,2.1l10.97,0l0,5.636l-25.236,0l0.001,-9.392l-2.1,0l0,9.344l-2.825,0l0,-7.689l-13.102,0l0,2.1l11.002,0l0,5.636l-13.4,0l0,9.546l15.5,0l0,-7.402l2.825,0l0,7.403l10.396,0l0,-2.099l-8.298,0l0,-5.347l11.868,0l0,7.446l15.5,0l0,-17.282l-13.102,0l-0,-0Z" style="fill:#fff;fill-rule:nonzero;"/><path d="M23.971,37.861c-1.412,-0.001 -2.557,-1.145 -2.557,-2.557c0.001,-1.412 1.145,-2.557 2.557,-2.557c1.412,0 2.556,1.145 2.556,2.557c0,1.412 -1.144,2.556 -2.556,2.557m-19.275,-7.94c-1.412,-0.001 -2.557,-1.145 -2.557,-2.557c0.001,-1.412 1.145,-2.557 2.557,-2.557c1.412,0 2.556,1.144 2.556,2.557c0,1.412 -1.144,2.556 -2.556,2.557m5.857,-25.225c0.001,-1.412 1.145,-2.557 2.557,-2.557c1.412,0 2.556,1.144 2.556,2.557c0,1.412 -1.144,2.556 -2.556,2.557c-1.412,-0.001 -2.557,-1.145 -2.557,-2.557m14.699,26.091l0,-2.247l-6.172,-8.497l5.973,-6.706l1.846,0l0,-2.609l-3.008,0l-6.284,7.182l-3.139,-4.49l-0.085,-4.203c1.975,-0.555 3.423,-2.367 3.423,-4.52c0,-2.593 -2.102,-4.695 -4.695,-4.695c-2.593,0 -4.695,2.102 -4.696,4.695c0.001,2.115 1.398,3.902 3.32,4.491l0,4.99l4.111,5.767l-5.533,6.069l-1.118,0c-0.58,-1.934 -2.373,-3.344 -4.497,-3.344c-2.593,0 -4.695,2.102 -4.696,4.695c0.001,2.594 2.103,4.695 4.696,4.696c2.196,-0.001 4.039,-1.508 4.553,-3.544l2.237,0l5.914,-6.503l5.275,7.309l0.037,1.46c-1.981,0.551 -3.435,2.366 -3.436,4.523c0.001,2.594 2.103,4.695 4.696,4.696c2.594,-0.001 4.695,-2.102 4.695,-4.696c0,-2.149 -1.444,-3.959 -3.414,-4.517" style="fill:#fff;fill-rule:nonzero;"/></g></g></svg>