<?xml version="1.0" encoding="UTF-8" standalone="no"?><!DOCTYPE svg PUBLIC "-//W3C//DTD SVG 1.1//EN" "http://www.w3.org/Graphics/SVG/1.1/DTD/svg11.dtd"><svg width="100%" height="100%" viewBox="0 0 1024 1024" version="1.1" xmlns="http://www.w3.org/2000/svg" xmlns:xlink="http://www.w3.org/1999/xlink" xml:space="preserve" xmlns:serif="http://www.serif.com/" style="fill-rule:evenodd;clip-rule:evenodd;stroke-linejoin:round;stroke-miterlimit:2;"><rect x="0" y="0" width="1024" height="1024" style="fill:#ff7c7e;"/><g id="Kakaka"><path d="M849.9,471.228c-61.8,-52.782 -123.93,-105.19 -185.15,-158.479c-22.429,-20.058 -58.767,-27.957 -89.328,-18.194c-34.68,10.118 -58.818,40.715 -57.394,72.022c-0.259,37.941 1.088,75.838 0.544,113.779c-65.086,-55.669 -130.483,-111.094 -195.803,-166.63c-17.353,-15.287 -42.605,-23.719 -67.495,-22.387c-42.476,1.62 -79.953,33.836 -81.17,70.269c-0.078,100.089 1.165,200.134 1.165,300.223c0.388,17.994 9.35,35.234 23.75,48.214c29.966,29.931 88.448,31.351 121.47,4.304c19.477,-14.955 29.578,-37.697 28.412,-59.951c0.466,-36.787 -1.45,-73.619 -0.155,-110.34c61.901,52.23 123.594,104.527 184.484,157.622c11.81,10.45 24.242,21.234 40.637,26.182c40.507,14.755 91.608,-3.661 108.417,-38.318c9.687,-17.018 8.702,-36.477 7.615,-54.87c0.078,-30.597 -0.311,-61.194 -0.052,-91.813c53.04,45.816 106.728,91.018 160.053,136.568l0,-208.201Z"/></g></svg>