<?xml version="1.0" encoding="UTF-8" standalone="no"?><!DOCTYPE svg PUBLIC "-//W3C//DTD SVG 1.1//EN" "http://www.w3.org/Graphics/SVG/1.1/DTD/svg11.dtd"><svg width="100%" height="100%" viewBox="0 0 64 64" version="1.1" xmlns="http://www.w3.org/2000/svg" xmlns:xlink="http://www.w3.org/1999/xlink" xml:space="preserve" xmlns:serif="http://www.serif.com/" style="fill-rule:evenodd;clip-rule:evenodd;stroke-linejoin:round;stroke-miterlimit:2;"><g id="Marzipan"><path d="M64,28.139c-5.853,-4.999 -11.737,-9.962 -17.534,-15.008c-2.124,-1.9 -5.565,-2.648 -8.46,-1.723c-3.284,0.958 -5.57,3.856 -5.435,6.821c-0.025,3.593 0.103,7.182 0.052,10.775c-6.164,-5.272 -12.357,-10.521 -18.543,-15.78c-1.643,-1.448 -4.035,-2.246 -6.392,-2.12c-4.023,0.153 -7.572,3.204 -7.687,6.655c-0.007,9.479 0.11,18.953 0.11,28.432c0.037,1.704 0.885,3.337 2.249,4.566c2.838,2.835 8.376,2.969 11.504,0.408c1.844,-1.416 2.801,-3.57 2.691,-5.678c0.044,-3.484 -0.137,-6.972 -0.015,-10.449c5.862,4.946 11.705,9.899 17.471,14.927c1.118,0.99 2.296,2.011 3.848,2.479c3.836,1.397 8.675,-0.347 10.267,-3.629c0.917,-1.612 0.824,-3.454 0.721,-5.196c0.007,-2.898 -0.029,-5.795 -0.005,-8.695c5.023,4.339 10.107,8.62 15.157,12.933l0,-19.717Z"/></g></svg>